<svg id="drawing" xmlns="http://www.w3.org/2000/svg" version="1.1" xmlns:xlink="http://www.w3.org/1999/xlink" xmlns:svgjs="http://svgjs.com/svgjs" width="852" height="665.375" viewBox="105 86 852 665.375"><defs id="SvgjsDefs1171"><marker id="SvgjsMarker1195" markerWidth="16.23606797749979" markerHeight="10.550836550532098" refX="-1" refY="3.8990363547948754" viewBox="-1 -1.3763819204711736 16.23606797749979 10.550836550532098" orient="auto" markerUnits="userSpaceOnUse"><path id="SvgjsPath1196" d="M12 3.8990363547948754L0 7.798072709589751V0Z " stroke="#323232" stroke-width="2" fill="#323232" transform="matrix(1,0,0,1,0,0)"></path></marker><marker id="SvgjsMarker1202" markerWidth="16.23606797749979" markerHeight="10.550836550532098" refX="-1" refY="3.8990363547948754" viewBox="-1 -1.3763819204711736 16.23606797749979 10.550836550532098" orient="auto" markerUnits="userSpaceOnUse"><path id="SvgjsPath1203" d="M12 3.8990363547948754L0 7.798072709589751V0Z " stroke="#323232" stroke-width="2" fill="#323232" transform="matrix(1,0,0,1,0,0)"></path></marker><marker id="SvgjsMarker1209" markerWidth="16.23606797749979" markerHeight="10.550836550532098" refX="-1" refY="3.8990363547948754" viewBox="-1 -1.3763819204711736 16.23606797749979 10.550836550532098" orient="auto" markerUnits="userSpaceOnUse"><path id="SvgjsPath1210" d="M12 3.8990363547948754L0 7.798072709589751V0Z " stroke="#323232" stroke-width="2" fill="#323232" transform="matrix(1,0,0,1,0,0)"></path></marker><marker id="SvgjsMarker1216" markerWidth="16.23606797749979" markerHeight="10.550836550532098" refX="-1" refY="3.8990363547948754" viewBox="-1 -1.3763819204711736 16.23606797749979 10.550836550532098" orient="auto" markerUnits="userSpaceOnUse"><path id="SvgjsPath1217" d="M12 3.8990363547948754L0 7.798072709589751V0Z " stroke="#323232" stroke-width="2" fill="#323232" transform="matrix(1,0,0,1,0,0)"></path></marker><marker id="SvgjsMarker1227" markerWidth="16.23606797749979" markerHeight="10.550836550532098" refX="15.23606797749979" refY="3.8990363547948754" viewBox="-1 -1.3763819204711736 16.23606797749979 10.550836550532098" orient="auto" markerUnits="userSpaceOnUse"><path id="SvgjsPath1228" d="M12 3.8990363547948754L0 7.798072709589751V0Z " stroke="#323232" stroke-width="2" fill="#323232" transform="matrix(-1,1.2246467991473532e-16,-1.2246467991473532e-16,-1,14.23606797749979,7.798072709589751)"></path></marker><marker id="SvgjsMarker1234" markerWidth="16.23606797749979" markerHeight="10.550836550532098" refX="15.23606797749979" refY="3.8990363547948754" viewBox="-1 -1.3763819204711736 16.23606797749979 10.550836550532098" orient="auto" markerUnits="userSpaceOnUse"><path id="SvgjsPath1235" d="M12 3.8990363547948754L0 7.798072709589751V0Z " stroke="#323232" stroke-width="2" fill="#323232" transform="matrix(-1,1.2246467991473532e-16,-1.2246467991473532e-16,-1,14.23606797749979,7.798072709589751)"></path></marker><marker id="SvgjsMarker1241" markerWidth="16.23606797749979" markerHeight="10.550836550532098" refX="15.23606797749979" refY="3.8990363547948754" viewBox="-1 -1.3763819204711736 16.23606797749979 10.550836550532098" orient="auto" markerUnits="userSpaceOnUse"><path id="SvgjsPath1242" d="M12 3.8990363547948754L0 7.798072709589751V0Z " stroke="#323232" stroke-width="2" fill="#323232" transform="matrix(-1,1.2246467991473532e-16,-1.2246467991473532e-16,-1,14.23606797749979,7.798072709589751)"></path></marker><marker id="SvgjsMarker1248" markerWidth="16.23606797749979" markerHeight="10.550836550532098" refX="15.23606797749979" refY="3.8990363547948754" viewBox="-1 -1.3763819204711736 16.23606797749979 10.550836550532098" orient="auto" markerUnits="userSpaceOnUse"><path id="SvgjsPath1249" d="M12 3.8990363547948754L0 7.798072709589751V0Z " stroke="#323232" stroke-width="2" fill="#323232" transform="matrix(-1,1.2246467991473532e-16,-1.2246467991473532e-16,-1,14.23606797749979,7.798072709589751)"></path></marker><marker id="SvgjsMarker1275" markerWidth="16.23606797749979" markerHeight="10.550836550532098" refX="-1" refY="3.8990363547948754" viewBox="-1 -1.3763819204711736 16.23606797749979 10.550836550532098" orient="auto" markerUnits="userSpaceOnUse"><path id="SvgjsPath1276" d="M12 3.8990363547948754L0 7.798072709589751V0Z " stroke="#323232" stroke-width="2" fill="#323232" transform="matrix(1,0,0,1,0,0)"></path></marker><marker id="SvgjsMarker1282" markerWidth="16.23606797749979" markerHeight="10.550836550532098" refX="-1" refY="3.8990363547948754" viewBox="-1 -1.3763819204711736 16.23606797749979 10.550836550532098" orient="auto" markerUnits="userSpaceOnUse"><path id="SvgjsPath1283" d="M12 3.8990363547948754L0 7.798072709589751V0Z " stroke="#323232" stroke-width="2" fill="#323232" transform="matrix(1,0,0,1,0,0)"></path></marker><marker id="SvgjsMarker1289" markerWidth="16.23606797749979" markerHeight="10.550836550532098" refX="-1" refY="3.8990363547948754" viewBox="-1 -1.3763819204711736 16.23606797749979 10.550836550532098" orient="auto" markerUnits="userSpaceOnUse"><path id="SvgjsPath1290" d="M12 3.8990363547948754L0 7.798072709589751V0Z " stroke="#323232" stroke-width="2" fill="#323232" transform="matrix(1,0,0,1,0,0)"></path></marker><marker id="SvgjsMarker1296" markerWidth="16.23606797749979" markerHeight="10.550836550532098" refX="-1" refY="3.8990363547948754" viewBox="-1 -1.3763819204711736 16.23606797749979 10.550836550532098" orient="auto" markerUnits="userSpaceOnUse"><path id="SvgjsPath1297" d="M12 3.8990363547948754L0 7.798072709589751V0Z " stroke="#323232" stroke-width="2" fill="#323232" transform="matrix(1,0,0,1,0,0)"></path></marker><marker id="SvgjsMarker1303" markerWidth="16.23606797749979" markerHeight="10.550836550532098" refX="-1" refY="3.8990363547948754" viewBox="-1 -1.3763819204711736 16.23606797749979 10.550836550532098" orient="auto" markerUnits="userSpaceOnUse"><path id="SvgjsPath1304" d="M12 3.8990363547948754L0 7.798072709589751V0Z " stroke="#323232" stroke-width="2" fill="#323232" transform="matrix(1,0,0,1,0,0)"></path></marker><marker id="SvgjsMarker1310" markerWidth="16.23606797749979" markerHeight="10.550836550532098" refX="-1" refY="3.8990363547948754" viewBox="-1 -1.3763819204711736 16.23606797749979 10.550836550532098" orient="auto" markerUnits="userSpaceOnUse"><path id="SvgjsPath1311" d="M12 3.8990363547948754L0 7.798072709589751V0Z " stroke="#323232" stroke-width="2" fill="#323232" transform="matrix(1,0,0,1,0,0)"></path></marker><marker id="SvgjsMarker1317" markerWidth="16.23606797749979" markerHeight="10.550836550532098" refX="-1" refY="3.8990363547948754" viewBox="-1 -1.3763819204711736 16.23606797749979 10.550836550532098" orient="auto" markerUnits="userSpaceOnUse"><path id="SvgjsPath1318" d="M12 3.8990363547948754L0 7.798072709589751V0Z " stroke="#323232" stroke-width="2" fill="#323232" transform="matrix(1,0,0,1,0,0)"></path></marker><marker id="SvgjsMarker1330" markerWidth="16.23606797749979" markerHeight="10.550836550532098" refX="-1" refY="3.8990363547948754" viewBox="-1 -1.3763819204711736 16.23606797749979 10.550836550532098" orient="auto" markerUnits="userSpaceOnUse"><path id="SvgjsPath1331" d="M12 3.8990363547948754L0 7.798072709589751V0Z " stroke="#323232" stroke-width="2" fill="#323232" transform="matrix(1,0,0,1,0,0)"></path></marker></defs><g id="SvgjsG1172"><path id="SvgjsPath1173" d="M105 86H957V751.375H105V86Z " fill-opacity="0" fill="none"></path><g id="SvgjsG1174"><g id="SvgjsG1175" transform="translate(224 106)" opacity="1"><path id="SvgjsPath1176" d="M0 0L171 0L171 38L0 38Z " stroke-dasharray="none" stroke="#323232" stroke-width="2" fill="#ffcc99" opacity="1"></path><g id="SvgjsG1177" transform="matrix(1 0 0 1 10 10.875)" fill="#ffffff"><text id="SvgjsText1178" font-family="Microsoft Yahei,SimHei,Arial,SimSun" fill="#000000" font-size="13" font-weight="normal" font-style="normal" text-anchor="middle" text-decoration="blink" x="75.5" y="11.78125">Web Browser 1</text></g></g><g id="SvgjsG1179" transform="translate(440 106)" opacity="1"><path id="SvgjsPath1180" d="M0 0L171 0L171 38L0 38Z " stroke-dasharray="none" stroke="#323232" stroke-width="2" fill="#ffcc99" opacity="1"></path><g id="SvgjsG1181" transform="matrix(1 0 0 1 10 10.875)" fill="#ffffff"><text id="SvgjsText1182" font-family="Microsoft Yahei,SimHei,Arial,SimSun" fill="#000000" font-size="13" font-weight="normal" font-style="normal" text-anchor="middle" text-decoration="blink" x="75.5" y="11.78125">Web Browser 2</text></g></g><g id="SvgjsG1183" transform="translate(537 170)" opacity="1"><path id="SvgjsPath1184" d="M0 0L171 0L171 38L0 38Z " stroke-dasharray="none" stroke="#323232" stroke-width="2" fill="#ffcc99" opacity="1"></path><g id="SvgjsG1185" transform="matrix(1 0 0 1 10 10.875)" fill="#ffffff"><text id="SvgjsText1186" font-family="Microsoft Yahei,SimHei,Arial,SimSun" fill="#000000" font-size="13" font-weight="normal" font-style="normal" text-anchor="middle" text-decoration="blink" x="75.5" y="11.78125">Web Browser 3</text></g></g><g id="SvgjsG1187" transform="translate(125 170)" opacity="1"><path id="SvgjsPath1188" d="M0 0L171 0L171 38L0 38Z " stroke-dasharray="none" stroke="#323232" stroke-width="2" fill="#ffcc99" opacity="1"></path><g id="SvgjsG1189" transform="matrix(1 0 0 1 10 10.875)" fill="#ffffff"><text id="SvgjsText1190" font-family="Microsoft Yahei,SimHei,Arial,SimSun" fill="#000000" font-size="13" font-weight="normal" font-style="normal" text-anchor="middle" text-decoration="blink" x="75.5" y="11.78125">Web Browser 4</text></g></g><g id="SvgjsG1191" transform="translate(144 300)" opacity="1"><path id="SvgjsPath1192" d="M0 4Q0 0 4 0L541 0Q545 0 545 4L545 310Q545 314 541 314L4 314Q0 314 0 310Z " stroke-dasharray="none" stroke="#323232" stroke-width="2" fill="#ffe6cc" opacity="1"></path></g><g id="SvgjsG1193"><path id="SvgjsPath1194" d="M210.5 208C210.5 245.45984516785938 228 262.5401548321406 228 284.7639320225002 " stroke-dasharray="none" stroke="#323232" stroke-width="2" fill="none" marker-end="url(#SvgjsMarker1195)"></path><g id="SvgjsG1197" transform="matrix(1 0 0 1 219.25 243.97049150281254)" fill="#ffffff"><path id="SvgjsPath1198" d="M0 0H63.5625V15H0V0Z " fill="#ffffff" transform="translate(-31.78125 0)"></path><text id="SvgjsText1199" font-family="Microsoft Yahei,SimSun" fill="#000000" font-size="13" font-weight="normal" font-style="normal" text-anchor="middle" text-decoration="blink" x="0" y="11.75">connection1</text></g></g><g id="SvgjsG1200"><path id="SvgjsPath1201" d="M309.5 144C309.5 207.29391755927264 336 236.70608244072736 336 284.7639320225002 " stroke-dasharray="none" stroke="#323232" stroke-width="2" fill="none" marker-end="url(#SvgjsMarker1202)"></path><g id="SvgjsG1204" transform="matrix(1 0 0 1 322.75 211.97049150281254)" fill="#ffffff"><path id="SvgjsPath1205" d="M0 0H63.5625V15H0V0Z " fill="#ffffff" transform="translate(-31.78125 0)"></path><text id="SvgjsText1206" font-family="Microsoft Yahei,SimSun" fill="#000000" font-size="13" font-weight="normal" font-style="normal" text-anchor="middle" text-decoration="blink" x="0" y="11.75">connection2</text></g></g><g id="SvgjsG1207"><path id="SvgjsPath1208" d="M525.5 144C525.5 208.27223350716855 487 235.72776649283145 487 284.7639320225002 " stroke-dasharray="none" stroke="#323232" stroke-width="2" fill="none" marker-end="url(#SvgjsMarker1209)"></path><g id="SvgjsG1211" transform="matrix(1 0 0 1 506.25 211.97049150281254)" fill="#ffffff"><path id="SvgjsPath1212" d="M0 0H63.5625V15H0V0Z " fill="#ffffff" transform="translate(-31.78125 0)"></path><text id="SvgjsText1213" font-family="Microsoft Yahei,SimSun" fill="#000000" font-size="13" font-weight="normal" font-style="normal" text-anchor="middle" text-decoration="blink" x="0" y="11.75">connection3</text></g></g><g id="SvgjsG1214"><path id="SvgjsPath1215" d="M622.5 208C622.5 246.76957570054128 592 261.2304242994587 592 284.7639320225002 " stroke-dasharray="none" stroke="#323232" stroke-width="2" fill="none" marker-end="url(#SvgjsMarker1216)"></path><g id="SvgjsG1218" transform="matrix(1 0 0 1 607.25 243.97049150281254)" fill="#ffffff"><path id="SvgjsPath1219" d="M0 0H63.5625V15H0V0Z " fill="#ffffff" transform="translate(-31.78125 0)"></path><text id="SvgjsText1220" font-family="Microsoft Yahei,SimSun" fill="#000000" font-size="13" font-weight="normal" font-style="normal" text-anchor="middle" text-decoration="blink" x="0" y="11.75">connection4</text></g></g><g id="SvgjsG1221" transform="translate(366.5 371)" opacity="1"><path id="SvgjsPath1222" d="M0 0L100 0L100 70L0 70Z " stroke-dasharray="none" stroke="#323232" stroke-width="2" fill="#ff9999" opacity="1"></path><g id="SvgjsG1223" transform="matrix(1 0 0 1 10 26.875)" fill="#ffffff"><text id="SvgjsText1224" font-family="Microsoft Yahei,SimHei,Arial,SimSun" fill="#000000" font-size="13" font-weight="normal" font-style="normal" text-anchor="middle" text-decoration="blink" x="40" y="11.78125">Acceptor</text></g></g><g id="SvgjsG1225"><path id="SvgjsPath1226" d="M404.34568535882084 361.8124865704472C353 323 247 406 229 300 " stroke-dasharray="none" stroke="#323232" stroke-width="2" fill="none" marker-start="url(#SvgjsMarker1227)"></path><g id="SvgjsG1229" transform="matrix(1 0 0 1 304.1682106698526 347.9765608213059)" fill="#ffffff"><path id="SvgjsPath1230" d="M0 0H0V0H0V0Z " fill="#ffffff" transform="translate(0 0)"></path><text id="SvgjsText1231" font-family="Microsoft Yahei,SimSun" fill="#000000" font-size="13" font-weight="normal" font-style="normal" text-anchor="middle" text-decoration="blink" x="0" y="0"></text></g></g><g id="SvgjsG1232"><path id="SvgjsPath1233" d="M416.5 355.7639320225002C416.5 328.06516565770863 349 328 336 300 " stroke-dasharray="none" stroke="#323232" stroke-width="2" fill="none" marker-start="url(#SvgjsMarker1234)"></path><g id="SvgjsG1236" transform="matrix(1 0 0 1 381.125 319.8699286244533)" fill="#ffffff"><path id="SvgjsPath1237" d="M0 0H0V0H0V0Z " fill="#ffffff" transform="translate(0 0)"></path><text id="SvgjsText1238" font-family="Microsoft Yahei,SimSun" fill="#000000" font-size="13" font-weight="normal" font-style="normal" text-anchor="middle" text-decoration="blink" x="0" y="0"></text></g></g><g id="SvgjsG1239"><path id="SvgjsPath1240" d="M416.5 355.7639320225002C416.5 330.69466536548794 482 324 488 300 " stroke-dasharray="none" stroke="#323232" stroke-width="2" fill="none" marker-start="url(#SvgjsMarker1241)"></path><g id="SvgjsG1243" transform="matrix(1 0 0 1 450 319.3559910148705)" fill="#ffffff"><path id="SvgjsPath1244" d="M0 0H0V0H0V0Z " fill="#ffffff" transform="translate(0 0)"></path><text id="SvgjsText1245" font-family="Microsoft Yahei,SimSun" fill="#000000" font-size="13" font-weight="normal" font-style="normal" text-anchor="middle" text-decoration="blink" x="0" y="0"></text></g></g><g id="SvgjsG1246"><path id="SvgjsPath1247" d="M428.2785984242676 361.3355089852163C475 323 610 423 592 300 " stroke-dasharray="none" stroke="#323232" stroke-width="2" fill="none" marker-start="url(#SvgjsMarker1248)"></path><g id="SvgjsG1250" transform="matrix(1 0 0 1 534.4098248030334 354.291938623152)" fill="#ffffff"><path id="SvgjsPath1251" d="M0 0H0V0H0V0Z " fill="#ffffff" transform="translate(0 0)"></path><text id="SvgjsText1252" font-family="Microsoft Yahei,SimSun" fill="#000000" font-size="13" font-weight="normal" font-style="normal" text-anchor="middle" text-decoration="blink" x="0" y="0"></text></g></g><g id="SvgjsG1253" transform="translate(188 514)" opacity="1"><path id="SvgjsPath1254" d="M0 0L92 0L92 48L0 48Z " stroke-dasharray="none" stroke="#323232" stroke-width="2" fill="#99ffcc" opacity="1"></path><g id="SvgjsG1255" transform="matrix(1 0 0 1 10 7.75)" fill="#ffffff"><text id="SvgjsText1256" font-family="Microsoft Yahei,SimHei,Arial,SimSun" fill="#000000" font-size="13" font-weight="normal" font-style="normal" text-anchor="middle" text-decoration="blink" x="36" y="11.78125">New Threa</text><text id="SvgjsText1257" font-family="Microsoft Yahei,SimHei,Arial,SimSun" fill="#000000" font-size="13" font-weight="normal" font-style="normal" text-anchor="middle" text-decoration="blink" x="36" y="28.03125">d1</text></g></g><g id="SvgjsG1258" transform="translate(307 514)" opacity="1"><path id="SvgjsPath1259" d="M0 0L92 0L92 48L0 48Z " stroke-dasharray="none" stroke="#323232" stroke-width="2" fill="#99ffcc" opacity="1"></path><g id="SvgjsG1260" transform="matrix(1 0 0 1 10 7.75)" fill="#ffffff"><text id="SvgjsText1261" font-family="Microsoft Yahei,SimHei,Arial,SimSun" fill="#000000" font-size="13" font-weight="normal" font-style="normal" text-anchor="middle" text-decoration="blink" x="36" y="11.78125">New Threa</text><text id="SvgjsText1262" font-family="Microsoft Yahei,SimHei,Arial,SimSun" fill="#000000" font-size="13" font-weight="normal" font-style="normal" text-anchor="middle" text-decoration="blink" x="36" y="28.03125">d1</text></g></g><g id="SvgjsG1263" transform="translate(431 514)" opacity="1"><path id="SvgjsPath1264" d="M0 0L92 0L92 48L0 48Z " stroke-dasharray="none" stroke="#323232" stroke-width="2" fill="#99ffcc" opacity="1"></path><g id="SvgjsG1265" transform="matrix(1 0 0 1 10 7.75)" fill="#ffffff"><text id="SvgjsText1266" font-family="Microsoft Yahei,SimHei,Arial,SimSun" fill="#000000" font-size="13" font-weight="normal" font-style="normal" text-anchor="middle" text-decoration="blink" x="36" y="11.78125">New Threa</text><text id="SvgjsText1267" font-family="Microsoft Yahei,SimHei,Arial,SimSun" fill="#000000" font-size="13" font-weight="normal" font-style="normal" text-anchor="middle" text-decoration="blink" x="36" y="28.03125">d1</text></g></g><g id="SvgjsG1268" transform="translate(549 514)" opacity="1"><path id="SvgjsPath1269" d="M0 0L92 0L92 48L0 48Z " stroke-dasharray="none" stroke="#323232" stroke-width="2" fill="#99ffcc" opacity="1"></path><g id="SvgjsG1270" transform="matrix(1 0 0 1 10 7.75)" fill="#ffffff"><text id="SvgjsText1271" font-family="Microsoft Yahei,SimHei,Arial,SimSun" fill="#000000" font-size="13" font-weight="normal" font-style="normal" text-anchor="middle" text-decoration="blink" x="36" y="11.78125">New Threa</text><text id="SvgjsText1272" font-family="Microsoft Yahei,SimHei,Arial,SimSun" fill="#000000" font-size="13" font-weight="normal" font-style="normal" text-anchor="middle" text-decoration="blink" x="36" y="28.03125">d1</text></g></g><g id="SvgjsG1273"><path id="SvgjsPath1274" d="M416.5 441C416.5 519.6234061841637 234 435.37659381583626 234 498.7639320225002 " stroke-dasharray="none" stroke="#323232" stroke-width="2" fill="none" marker-end="url(#SvgjsMarker1275)"></path><g id="SvgjsG1277" transform="matrix(1 0 0 1 325.25 467.47049150281254)" fill="#ffffff"><path id="SvgjsPath1278" d="M0 0H0V0H0V0Z " fill="#ffffff" transform="translate(0 0)"></path><text id="SvgjsText1279" font-family="Microsoft Yahei,SimSun" fill="#000000" font-size="13" font-weight="normal" font-style="normal" text-anchor="middle" text-decoration="blink" x="0" y="0"></text></g></g><g id="SvgjsG1280"><path id="SvgjsPath1281" d="M416.5 441C416.5 479.7014211625361 353 475.2985788374639 353 498.7639320225002 " stroke-dasharray="none" stroke="#323232" stroke-width="2" fill="none" marker-end="url(#SvgjsMarker1282)"></path><g id="SvgjsG1284" transform="matrix(1 0 0 1 384.75 467.47049150281254)" fill="#ffffff"><path id="SvgjsPath1285" d="M0 0H0V0H0V0Z " fill="#ffffff" transform="translate(0 0)"></path><text id="SvgjsText1286" font-family="Microsoft Yahei,SimSun" fill="#000000" font-size="13" font-weight="normal" font-style="normal" text-anchor="middle" text-decoration="blink" x="0" y="0"></text></g></g><g id="SvgjsG1287"><path id="SvgjsPath1288" d="M416.5 441C416.5 518.1401322270062 595 436.85986777299377 595 498.7639320225002 " stroke-dasharray="none" stroke="#323232" stroke-width="2" fill="none" marker-end="url(#SvgjsMarker1289)"></path><g id="SvgjsG1291" transform="matrix(1 0 0 1 505.75 467.47049150281254)" fill="#ffffff"><path id="SvgjsPath1292" d="M0 0H0V0H0V0Z " fill="#ffffff" transform="translate(0 0)"></path><text id="SvgjsText1293" font-family="Microsoft Yahei,SimSun" fill="#000000" font-size="13" font-weight="normal" font-style="normal" text-anchor="middle" text-decoration="blink" x="0" y="0"></text></g></g><g id="SvgjsG1294"><path id="SvgjsPath1295" d="M234 514L211.66665487461674 223.19133581415826 " stroke-dasharray="2 3" stroke="#323232" stroke-width="2" fill="none" marker-end="url(#SvgjsMarker1296)"></path><g id="SvgjsG1298" transform="matrix(1 0 0 1 245.16667256269164 651.2793320929209)" fill="#ffffff"><path id="SvgjsPath1299" d="M0 0H0V0H0V0Z " fill="#ffffff" transform="translate(0 0)"></path><text id="SvgjsText1300" font-family="Microsoft Yahei,SimSun" fill="#000000" font-size="13" font-weight="normal" font-style="normal" text-anchor="middle" text-decoration="blink" x="0" y="0"></text></g></g><g id="SvgjsG1301"><path id="SvgjsPath1302" d="M353 514L311.2790147564636 159.1318496526789 " stroke-dasharray="2 3" stroke="#323232" stroke-width="2" fill="none" marker-end="url(#SvgjsMarker1303)"></path><g id="SvgjsG1305" transform="matrix(1 0 0 1 373.86049262176823 683.3090751736605)" fill="#ffffff"><path id="SvgjsPath1306" d="M0 0H0V0H0V0Z " fill="#ffffff" transform="translate(0 0)"></path><text id="SvgjsText1307" font-family="Microsoft Yahei,SimSun" fill="#000000" font-size="13" font-weight="normal" font-style="normal" text-anchor="middle" text-decoration="blink" x="0" y="0"></text></g></g><g id="SvgjsG1308"><path id="SvgjsPath1309" d="M477 514L523.5197796025352 159.10683602189616 " stroke-dasharray="2 3" stroke="#323232" stroke-width="2" fill="none" marker-end="url(#SvgjsMarker1310)"></path><g id="SvgjsG1312" transform="matrix(1 0 0 1 500.2598898012676 683.321581989052)" fill="#ffffff"><path id="SvgjsPath1313" d="M0 0H0V0H0V0Z " fill="#ffffff" transform="translate(0 0)"></path><text id="SvgjsText1314" font-family="Microsoft Yahei,SimSun" fill="#000000" font-size="13" font-weight="normal" font-style="normal" text-anchor="middle" text-decoration="blink" x="0" y="0"></text></g></g><g id="SvgjsG1315"><path id="SvgjsPath1316" d="M595 514L621.1362416386897 223.17491122039766 " stroke-dasharray="2 3" stroke="#323232" stroke-width="2" fill="none" marker-end="url(#SvgjsMarker1317)"></path><g id="SvgjsG1319" transform="matrix(1 0 0 1 608.0681208193448 651.2875443898012)" fill="#ffffff"><path id="SvgjsPath1320" d="M0 0H0V0H0V0Z " fill="#ffffff" transform="translate(0 0)"></path><text id="SvgjsText1321" font-family="Microsoft Yahei,SimSun" fill="#000000" font-size="13" font-weight="normal" font-style="normal" text-anchor="middle" text-decoration="blink" x="0" y="0"></text></g></g><g id="SvgjsG1322" transform="translate(595 690)" opacity="1"><path id="SvgjsPath1323" d="M0 0L342 0L342 20L0 20Z " stroke-dasharray="none" stroke-width="0" stroke="#323232" fill="none" opacity="1"></path><g id="SvgjsG1324" transform="matrix(1 0 0 1 0 -23.75)" fill="#ffffff"><text id="SvgjsText1325" font-family="Microsoft Yahei,SimHei,Arial,SimSun" fill="#000000" font-size="18" font-weight="bold" font-style="normal" text-anchor="middle" text-decoration="blink" x="171" y="16.296875"> 同步阻塞IO服务端通信模型</text><text id="SvgjsText1326" font-family="Microsoft Yahei,SimHei,Arial,SimSun" fill="#000000" font-size="18" font-weight="bold" font-style="normal" text-anchor="middle" text-decoration="blink" x="171" y="22.5"></text><text id="SvgjsText1327" font-family="Microsoft Yahei,SimHei,Arial,SimSun" fill="#000000" font-size="18" font-weight="bold" font-style="normal" text-anchor="middle" text-decoration="blink" x="171" y="61.296875">                                      by decaywood</text></g></g><g id="SvgjsG1328"><path id="SvgjsPath1329" d="M416.5 441C416.5 478.9246621606574 477 476.0753378393426 477 498.7639320225002 " stroke-dasharray="none" stroke="#323232" stroke-width="2" fill="none" marker-end="url(#SvgjsMarker1330)"></path><g id="SvgjsG1332" transform="matrix(1 0 0 1 446.75 467.47049150281254)" fill="#ffffff"><path id="SvgjsPath1333" d="M0 0H0V0H0V0Z " fill="#ffffff" transform="translate(0 0)"></path><text id="SvgjsText1334" font-family="Microsoft Yahei,SimSun" fill="#000000" font-size="13" font-weight="normal" font-style="normal" text-anchor="middle" text-decoration="blink" x="0" y="0"></text></g></g></g></g></svg>