<svg id="drawing" xmlns="http://www.w3.org/2000/svg" version="1.1" xmlns:xlink="http://www.w3.org/1999/xlink" width="1653.64208984375" height="955.4661865234375" viewBox="91.54271697998047 94.61267852783203 1653.64208984375 955.4661865234375"><defs id="SvgjsDefs1001"><marker id="SvgjsMarker1024" markerWidth="16.23606797749979" markerHeight="10.550836550532098" refX="-1" refY="3.8990363547948754" viewBox="-1 -1.3763819204711738 16.23606797749979 10.550836550532098" orient="auto" markerUnits="userSpaceOnUse"><path id="SvgjsPath1025" d="M12 3.899036407470703L0 7.798072814941406V0Z " stroke="#323232" stroke-width="2" fill="#323232" transform="matrix(1,0,0,1,0,0)"></path></marker><marker id="SvgjsMarker1035" markerWidth="16.23606797749979" markerHeight="10.550836550532098" refX="-1" refY="3.8990363547948754" viewBox="-1 -1.3763819204711738 16.23606797749979 10.550836550532098" orient="auto" markerUnits="userSpaceOnUse"><path id="SvgjsPath1036" d="M12 3.899036407470703L0 7.798072814941406V0Z " stroke="#323232" stroke-width="2" fill="#323232" transform="matrix(1,0,0,1,0,0)"></path></marker><marker id="SvgjsMarker1046" markerWidth="16.23606797749979" markerHeight="10.550836550532098" refX="-1" refY="3.8990363547948754" viewBox="-1 -1.3763819204711738 16.23606797749979 10.550836550532098" orient="auto" markerUnits="userSpaceOnUse"><path id="SvgjsPath1047" d="M12 3.899036407470703L0 7.798072814941406V0Z " stroke="#323232" stroke-width="2" fill="#323232" transform="matrix(1,0,0,1,0,0)"></path></marker><marker id="SvgjsMarker1066" markerWidth="16.23606797749979" markerHeight="10.550836550532098" refX="-1" refY="3.8990363547948754" viewBox="-1 -1.3763819204711738 16.23606797749979 10.550836550532098" orient="auto" markerUnits="userSpaceOnUse"><path id="SvgjsPath1067" d="M12 3.899036407470703L0 7.798072814941406V0Z " stroke="#323232" stroke-width="2" fill="#323232" transform="matrix(1,0,0,1,0,0)"></path></marker><marker id="SvgjsMarker1077" markerWidth="16.23606797749979" markerHeight="10.550836550532098" refX="-1" refY="3.8990363547948754" viewBox="-1 -1.3763819204711738 16.23606797749979 10.550836550532098" orient="auto" markerUnits="userSpaceOnUse"><path id="SvgjsPath1078" d="M12 3.899036407470703L0 7.798072814941406V0Z " stroke="#323232" stroke-width="2" fill="#323232" transform="matrix(1,0,0,1,0,0)"></path></marker><marker id="SvgjsMarker1084" markerWidth="16.23606797749979" markerHeight="10.550836550532098" refX="-1" refY="3.8990363547948754" viewBox="-1 -1.3763819204711738 16.23606797749979 10.550836550532098" orient="auto" markerUnits="userSpaceOnUse"><path id="SvgjsPath1085" d="M12 3.899036407470703L0 7.798072814941406V0Z " stroke="#323232" stroke-width="2" fill="#323232" transform="matrix(1,0,0,1,0,0)"></path></marker><marker id="SvgjsMarker1091" markerWidth="16.23606797749979" markerHeight="10.550836550532098" refX="-1" refY="3.8990363547948754" viewBox="-1 -1.3763819204711738 16.23606797749979 10.550836550532098" orient="auto" markerUnits="userSpaceOnUse"><path id="SvgjsPath1092" d="M12 3.899036407470703L0 7.798072814941406V0Z " stroke="#323232" stroke-width="2" fill="#323232" transform="matrix(1,0,0,1,0,0)"></path></marker><marker id="SvgjsMarker1098" markerWidth="16.23606797749979" markerHeight="10.550836550532098" refX="-1" refY="3.8990363547948754" viewBox="-1 -1.3763819204711738 16.23606797749979 10.550836550532098" orient="auto" markerUnits="userSpaceOnUse"><path id="SvgjsPath1099" d="M12 3.899036407470703L0 7.798072814941406V0Z " stroke="#323232" stroke-width="2" fill="#323232" transform="matrix(1,0,0,1,0,0)"></path></marker><marker id="SvgjsMarker1105" markerWidth="16.23606797749979" markerHeight="10.550836550532098" refX="-1" refY="3.8990363547948754" viewBox="-1 -1.3763819204711738 16.23606797749979 10.550836550532098" orient="auto" markerUnits="userSpaceOnUse"><path id="SvgjsPath1106" d="M12 3.899036407470703L0 7.798072814941406V0Z " stroke="#323232" stroke-width="2" fill="#323232" transform="matrix(1,0,0,1,0,0)"></path></marker><marker id="SvgjsMarker1112" markerWidth="16.23606797749979" markerHeight="10.550836550532098" refX="-1" refY="3.8990363547948754" viewBox="-1 -1.3763819204711738 16.23606797749979 10.550836550532098" orient="auto" markerUnits="userSpaceOnUse"><path id="SvgjsPath1113" d="M12 3.899036407470703L0 7.798072814941406V0Z " stroke="#323232" stroke-width="2" fill="#323232" transform="matrix(1,0,0,1,0,0)"></path></marker><marker id="SvgjsMarker1194" markerWidth="16.23606797749979" markerHeight="10.550836550532098" refX="-1" refY="3.8990363547948754" viewBox="-1 -1.3763819204711738 16.23606797749979 10.550836550532098" orient="auto" markerUnits="userSpaceOnUse"><path id="SvgjsPath1195" d="M12 3.899036407470703L0 7.798072814941406V0Z " stroke="#323232" stroke-width="2" fill="#323232" transform="matrix(1,0,0,1,0,0)"></path></marker><marker id="SvgjsMarker1201" markerWidth="16.23606797749979" markerHeight="10.550836550532098" refX="-1" refY="3.8990363547948754" viewBox="-1 -1.3763819204711738 16.23606797749979 10.550836550532098" orient="auto" markerUnits="userSpaceOnUse"><path id="SvgjsPath1202" d="M12 3.899036407470703L0 7.798072814941406V0Z " stroke="#323232" stroke-width="2" fill="#323232" transform="matrix(1,0,0,1,0,0)"></path></marker><marker id="SvgjsMarker1208" markerWidth="16.23606797749979" markerHeight="10.550836550532098" refX="-1" refY="3.8990363547948754" viewBox="-1 -1.3763819204711738 16.23606797749979 10.550836550532098" orient="auto" markerUnits="userSpaceOnUse"><path id="SvgjsPath1209" d="M12 3.899036407470703L0 7.798072814941406V0Z " stroke="#323232" stroke-width="2" fill="#323232" transform="matrix(1,0,0,1,0,0)"></path></marker><marker id="SvgjsMarker1215" markerWidth="16.23606797749979" markerHeight="10.550836550532098" refX="-1" refY="3.8990363547948754" viewBox="-1 -1.3763819204711738 16.23606797749979 10.550836550532098" orient="auto" markerUnits="userSpaceOnUse"><path id="SvgjsPath1216" d="M12 3.899036407470703L0 7.798072814941406V0Z " stroke="#323232" stroke-width="2" fill="#323232" transform="matrix(1,0,0,1,0,0)"></path></marker><marker id="SvgjsMarker1222" markerWidth="16.23606797749979" markerHeight="10.550836550532098" refX="-1" refY="3.8990363547948754" viewBox="-1 -1.3763819204711738 16.23606797749979 10.550836550532098" orient="auto" markerUnits="userSpaceOnUse"><path id="SvgjsPath1223" d="M12 3.899036407470703L0 7.798072814941406V0Z " stroke="#323232" stroke-width="2" fill="#323232" transform="matrix(1,0,0,1,0,0)"></path></marker></defs><g id="SvgjsG1007"><path id="SvgjsPath1008" d="M91.54271697998047 94.61267852783203H1745.184814453125V1050.078857421875H91.54271697998047V94.61267852783203Z " fill-opacity="0" fill="none"></path><g id="SvgjsG1009"><g id="SvgjsG1010" transform="translate(217.42661519865965 367.7585348545057)" opacity="1"><path id="SvgjsPath1011" d="M0 147.93492126464844C0 -49.311641693115234 295.75830078125 -49.311641693115234 295.75830078125 147.93492126464844C295.75830078125 345.1814880371094 0 345.1814880371094 0 147.93492126464844Z " stroke-dasharray="none" stroke="#323232" stroke-width="2" fill="#ffff99" opacity="1"></path><g id="SvgjsG1012" transform="matrix(1 0 0 1 -20 263.99484115257445)" fill="#ffffff"><text id="SvgjsText1013" font-family="微软雅黑,黑体,Arial,宋体" fill="#000000" font-size="25" font-weight="bold" font-style="normal" text-anchor="middle" text-decoration="blink" x="167.87914540359986" y="0"></text><text id="SvgjsText1014" font-family="微软雅黑,黑体,Arial,宋体" fill="#000000" font-size="25" font-weight="bold" font-style="normal" text-anchor="middle" text-decoration="blink" x="167.87914540359986" y="58.265625">RingBuffer</text><text id="SvgjsText1015" font-family="微软雅黑,黑体,Arial,宋体" fill="#000000" font-size="25" font-weight="bold" font-style="normal" text-anchor="middle" text-decoration="blink" x="167.87914540359986" y="89.515625">&lt;DataProvider&gt;</text></g></g><g id="SvgjsG1016" transform="translate(266.37352937338073 413.67266694221695)" opacity="1"><path id="SvgjsPath1017" d="M0 98.9412841796875C0 -32.98042678833008 197.8644561767578 -32.98042678833008 197.8644561767578 98.9412841796875C197.8644561767578 230.8629913330078 0 230.8629913330078 0 98.9412841796875Z " stroke-dasharray="none" stroke="#323232" stroke-width="2" fill="#ffffff" opacity="1"></path></g><g id="SvgjsG1018" transform="translate(111.54272369781029 766.3941638376067)" opacity="1"><path id="SvgjsPath1019" d="M0 0L165.2755889892578 0L165.2755889892578 63.59575271606445L0 63.59575271606445Z " stroke-dasharray="none" stroke="#323232" stroke-width="2" fill="#ffcccc" opacity="1"></path><g id="SvgjsG1020" transform="matrix(1 0 0 1 10 16.17287631498141)" fill="#ffffff"><text id="SvgjsText1021" font-family="微软雅黑,黑体,Arial,宋体" fill="#000000" font-size="25" font-weight="bold" font-style="normal" text-anchor="middle" text-decoration="blink" x="72.6377976771332" y="27.015625">Producer</text></g></g><g id="SvgjsG1022"><path id="SvgjsPath1023" d="M194.18052673339844 766.3941650390625C194.18052673339844 674.7291259765625 144.1930694580078 591.187255859375 206.8000030517578 547.3494262695312 " stroke-dasharray="none" stroke="#323232" stroke-width="2" fill="none" marker-end="url(#SvgjsMarker1024)"></path><g id="SvgjsG1026" transform="matrix(1 0 0 1 177.0126638593865 623.3115908555407)" fill="#ffffff"><path id="SvgjsPath1027" d="M0 0H0V0H0V0Z " fill="#ffffff" transform="translate(0 0)"></path><text id="SvgjsText1028" font-family="Microsoft Yahei,宋体" fill="#000000" font-size="25" font-weight="bold" font-style="normal" text-anchor="middle" text-decoration="blink" x="0" y="0"></text></g></g><g id="SvgjsG1029" transform="translate(120.54272369781017 188.58685697338208)" opacity="1"><path id="SvgjsPath1030" d="M0 0L165.2755889892578 0L165.2755889892578 64.3874740600586L0 64.3874740600586Z " stroke-dasharray="none" stroke="#323232" stroke-width="2" fill="#ffcccc" opacity="1"></path><g id="SvgjsG1031" transform="matrix(1 0 0 1 10 16.568737448665836)" fill="#ffffff"><text id="SvgjsText1032" font-family="微软雅黑,黑体,Arial,宋体" fill="#000000" font-size="25" font-weight="bold" font-style="normal" text-anchor="middle" text-decoration="blink" x="72.6377976771332" y="27.015625">Producer</text></g></g><g id="SvgjsG1033"><path id="SvgjsPath1034" d="M203.18052673339844 252.97433471679688C203.18052673339844 336.4577941894531 148.15902709960938 431.8109436035156 212.29058837890625 455.1529235839844 " stroke-dasharray="none" stroke="#323232" stroke-width="2" fill="none" marker-end="url(#SvgjsMarker1035)"></path><g id="SvgjsG1037" transform="matrix(1 0 0 1 183.68621931438992 360.99167707421446)" fill="#ffffff"><path id="SvgjsPath1038" d="M0 0H0V0H0V0Z " fill="#ffffff" transform="translate(0 0)"></path><text id="SvgjsText1039" font-family="Microsoft Yahei,宋体" fill="#000000" font-size="25" font-weight="bold" font-style="normal" text-anchor="middle" text-decoration="blink" x="0" y="0"></text></g></g><g id="SvgjsG1040" transform="translate(270.00292894542764 318.339746167728)" opacity="1"><path id="SvgjsPath1041" d="M0 0L182.0910186767578 0L214.09942626953125 32.00841522216797L182.0910186767578 64.01683044433594L0 64.01683044433594L0 0Z " stroke-dasharray="none" stroke="#323232" stroke-width="2" fill="#ffff33" opacity="1"></path><g id="SvgjsG1042" transform="matrix(1 0 0 1 21.409942793134494 17.383415067589198)" fill="#ffffff"><text id="SvgjsText1043" font-family="微软雅黑,黑体,Arial,宋体" fill="#000000" font-size="25" font-weight="bold" font-style="normal" text-anchor="middle" text-decoration="blink" x="71.36647597711497" y="27.015625">Sequence</text></g></g><g id="SvgjsG1044"><path id="SvgjsPath1045" d="M484.0230407714844 606.1612548828125C568.5096435546875 665.3193969726562 426.2680969238281 754.3184814453125 426.2680969238281 842.2214965820312 " stroke-dasharray="none" stroke="#323232" stroke-width="2" fill="none" marker-end="url(#SvgjsMarker1046)"></path><g id="SvgjsG1048" transform="matrix(1 0 0 1 486.82804997806704 697.7870402099513)" fill="#ffffff"><path id="SvgjsPath1049" d="M0 0H0V0H0V0Z " fill="#ffffff" transform="translate(0 0)"></path><text id="SvgjsText1050" font-family="Microsoft Yahei,宋体" fill="#000000" font-size="25" font-weight="bold" font-style="normal" text-anchor="middle" text-decoration="blink" x="0" y="0"></text></g></g><g id="SvgjsG1051" transform="translate(321.6648965495589 857.4575652032398)" opacity="1"><path id="SvgjsPath1052" d="M0 0L209.20640563964844 0L209.20640563964844 64.48628997802734L0 64.48628997802734Z " stroke-dasharray="none" stroke="#323232" stroke-width="2" fill="#ff6666" opacity="1"></path><g id="SvgjsG1053" transform="matrix(1 0 0 1 10 16.61814345572573)" fill="#ffffff"><text id="SvgjsText1054" font-family="微软雅黑,黑体,Arial,宋体" fill="#000000" font-size="25" font-weight="bold" font-style="normal" text-anchor="middle" text-decoration="blink" x="94.60320560049259" y="27.015625">Sequencer</text></g></g><g id="SvgjsG1055" transform="translate(626.4686614100219 744.9972867472843)" opacity="1"><path id="SvgjsPath1056" d="M0 0L344.5589294433594 0L344.5589294433594 73.46028137207031L0 73.46028137207031Z " stroke-dasharray="none" stroke="#323232" stroke-width="2" fill="#ffff99" opacity="1"></path><g id="SvgjsG1057" transform="matrix(1 0 0 1 10 5.48013922797778)" fill="#ffffff"><text id="SvgjsText1058" font-family="微软雅黑,黑体,Arial,宋体" fill="#000000" font-size="25" font-weight="bold" font-style="normal" text-anchor="middle" text-decoration="blink" x="162.27946776654338" y="27.015625">Consumer1</text><text id="SvgjsText1059" font-family="微软雅黑,黑体,Arial,宋体" fill="#000000" font-size="25" font-weight="bold" font-style="normal" text-anchor="middle" text-decoration="blink" x="162.27946776654338" y="58.265625">&lt;EventHandler&gt;</text></g></g><g id="SvgjsG1060" transform="translate(908.3861873907986 718.6874029108008)" opacity="1"><path id="SvgjsPath1061" d="M0 0L226.41429138183594 0L195.62583923339844 30.7884521484375L226.41429138183594 61.576904296875L0 61.576904296875L0 0Z " stroke-dasharray="none" stroke="#323232" stroke-width="2" fill="#ffff33" opacity="1"></path><g id="SvgjsG1062" transform="matrix(1 0 0 1 22.64142847105128 16.163451959290807)" fill="#ffffff"><text id="SvgjsText1063" font-family="微软雅黑,黑体,Arial,宋体" fill="#000000" font-size="25" font-weight="bold" font-style="normal" text-anchor="middle" text-decoration="blink" x="75.4714282368376" y="27.015625">Sequence</text></g></g><g id="SvgjsG1064"><path id="SvgjsPath1065" d="M530.871337890625 889.70068359375C731.9819946289062 889.70068359375 1021.5933227539062 981.375 1021.5933227539062 795.5003662109375 " stroke-dasharray="none" stroke="#323232" stroke-width="2" fill="none" marker-end="url(#SvgjsMarker1066)"></path><g id="SvgjsG1068" transform="matrix(1 0 0 1 851.6488265607626 896.6785240538244)" fill="#ffffff"><path id="SvgjsPath1069" d="M0 0H0V0H0V0Z " fill="#ffffff" transform="translate(0 0)"></path><text id="SvgjsText1070" font-family="Microsoft Yahei,宋体" fill="#000000" font-size="25" font-weight="bold" font-style="normal" text-anchor="middle" text-decoration="blink" x="0" y="0"></text></g></g><g id="SvgjsG1071" transform="translate(638.9960085981686 570.7947751863417)" opacity="1"><path id="SvgjsPath1072" d="M0 0L302.9971618652344 0L302.9971618652344 63.55252456665039L0 63.55252456665039Z " stroke-dasharray="none" stroke="#323232" stroke-width="2" fill="#ccffff" opacity="1"></path><g id="SvgjsG1073" transform="matrix(1 0 0 1 10 16.1512622649261)" fill="#ffffff"><text id="SvgjsText1074" font-family="微软雅黑,黑体,Arial,宋体" fill="#000000" font-size="25" font-weight="bold" font-style="normal" text-anchor="middle" text-decoration="blink" x="141.4985874587261" y="27.015625">SequenceBarrier</text></g></g><g id="SvgjsG1075"><path id="SvgjsPath1076" d="M434.5871887207031 146.38894653320312C365.5288391113281 146.38894653320312 459.5826416015625 250.53521728515625 450.23651123046875 303.5398254394531 " stroke-dasharray="none" stroke="#323232" stroke-width="2" fill="none" marker-end="url(#SvgjsMarker1077)"></path><g id="SvgjsG1079" transform="matrix(1 0 0 1 420.01976837102404 189.46266002681782)" fill="#ffffff"><path id="SvgjsPath1080" d="M0 0H0V0H0V0Z " fill="#ffffff" transform="translate(0 0)"></path><text id="SvgjsText1081" font-family="Microsoft Yahei,宋体" fill="#000000" font-size="25" font-weight="bold" font-style="normal" text-anchor="middle" text-decoration="blink" x="0" y="0"></text></g></g><g id="SvgjsG1082"><path id="SvgjsPath1083" d="M617.79638671875 359.83892822265625C556.862548828125 359.83892822265625 510.9049987792969 290.06121826171875 478.5917663574219 322.37445068359375 " stroke-dasharray="none" stroke="#323232" stroke-width="2" fill="none" marker-end="url(#SvgjsMarker1084)"></path><g id="SvgjsG1086" transform="matrix(1 0 0 1 537.4613449650159 313.36423342119815)" fill="#ffffff"><path id="SvgjsPath1087" d="M0 0H0V0H0V0Z " fill="#ffffff" transform="translate(0 0)"></path><text id="SvgjsText1088" font-family="Microsoft Yahei,宋体" fill="#000000" font-size="25" font-weight="bold" font-style="normal" text-anchor="middle" text-decoration="blink" x="0" y="0"></text></g></g><g id="SvgjsG1089"><path id="SvgjsPath1090" d="M638.9960327148438 602.571044921875C520.6011352539062 602.571044921875 602.4972534179688 350.3481750488281 499.33843994140625 350.3481750488281 " stroke-dasharray="none" stroke="#323232" stroke-width="2" fill="none" marker-end="url(#SvgjsMarker1091)"></path><g id="SvgjsG1093" transform="matrix(1 0 0 1 563.453691234658 460.83459934329244)" fill="#ffffff"><path id="SvgjsPath1094" d="M0 0H0V0H0V0Z " fill="#ffffff" transform="translate(0 0)"></path><text id="SvgjsText1095" font-family="Microsoft Yahei,宋体" fill="#000000" font-size="25" font-weight="bold" font-style="normal" text-anchor="middle" text-decoration="blink" x="0" y="0"></text></g></g><g id="SvgjsG1096"><path id="SvgjsPath1097" d="M626.4686889648438 781.7274169921875C530.5401000976562 781.7274169921875 591.3446655273438 610.0316162109375 515.5185546875 582.4331665039062 " stroke-dasharray="none" stroke="#323232" stroke-width="2" fill="none" marker-end="url(#SvgjsMarker1098)"></path><g id="SvgjsG1100" transform="matrix(1 0 0 1 563.4551850587575 676.8047219839043)" fill="#ffffff"><path id="SvgjsPath1101" d="M0 0H63.0625114440918V36.03126907348633H0V0Z " fill="#ffffff" transform="translate(-31.5312557220459 0)"></path><text id="SvgjsText1102" font-family="Microsoft Yahei,宋体" fill="#000000" font-size="25" font-weight="bold" font-style="normal" text-anchor="middle" text-decoration="blink" x="0" y="27.015625">get()</text></g></g><g id="SvgjsG1103"><path id="SvgjsPath1104" d="M951.8530883789062 478.7126770019531C832.1849365234375 502.6283874511719 659.1849365234375 534.6283569335938 526.3330688476562 498.3843688964844 " stroke-dasharray="none" stroke="#323232" stroke-width="2" fill="none" marker-end="url(#SvgjsMarker1105)"></path><g id="SvgjsG1107" transform="matrix(1 0 0 1 744.0369521442246 495.4834154498466)" fill="#ffffff"><path id="SvgjsPath1108" d="M0 0H63.062557220458984V36.03122329711914H0V0Z " fill="#ffffff" transform="translate(-31.531278610229492 0)"></path><text id="SvgjsText1109" font-family="Microsoft Yahei,宋体" fill="#000000" font-size="25" font-weight="bold" font-style="normal" text-anchor="middle" text-decoration="blink" x="0" y="27.015625">get()</text></g></g><g id="SvgjsG1110"><path id="SvgjsPath1111" d="M967.5598754882812 251.6268768310547C762.4714965820312 251.6268768310547 553.1849365234375 229.47824096679688 489.760009765625 409.68072509765625 " stroke-dasharray="none" stroke="#323232" stroke-width="2" fill="none" marker-end="url(#SvgjsMarker1112)"></path><g id="SvgjsG1114" transform="matrix(1 0 0 1 675.5361434656793 247.45286820526206)" fill="#ffffff"><path id="SvgjsPath1115" d="M0 0H63.0625114440918V36.03126907348633H0V0Z " fill="#ffffff" transform="translate(-31.5312557220459 0)"></path><text id="SvgjsText1116" font-family="Microsoft Yahei,宋体" fill="#000000" font-size="25" font-weight="bold" font-style="normal" text-anchor="middle" text-decoration="blink" x="0" y="27.015625">get()</text></g></g><g id="SvgjsG1117"><path id="SvgjsPath1118" d="M391.944091796875 607.7531127929688L403.408447265625 658.7305908203125 " stroke-dasharray="none" stroke="#323232" stroke-width="2" fill="none"></path><g id="SvgjsG1119" transform="matrix(1 0 0 1 397.67627524448403 617.6168489253132)" fill="#ffffff"><path id="SvgjsPath1120" d="M0 0H0V0H0V0Z " fill="#ffffff" transform="translate(0 0)"></path><text id="SvgjsText1121" font-family="Microsoft Yahei,宋体" fill="#000000" font-size="25" font-weight="bold" font-style="normal" text-anchor="middle" text-decoration="blink" x="0" y="0"></text></g></g><g id="SvgjsG1122"><path id="SvgjsPath1123" d="M424.53851318359375 592.4605712890625L451.0377502441406 637.9900512695312 " stroke-dasharray="none" stroke="#323232" stroke-width="2" fill="none"></path><g id="SvgjsG1124" transform="matrix(1 0 0 1 437.78812987972793 599.6003168781561)" fill="#ffffff"><path id="SvgjsPath1125" d="M0 0H0V0H0V0Z " fill="#ffffff" transform="translate(0 0)"></path><text id="SvgjsText1126" font-family="Microsoft Yahei,宋体" fill="#000000" font-size="25" font-weight="bold" font-style="normal" text-anchor="middle" text-decoration="blink" x="0" y="0"></text></g></g><g id="SvgjsG1127"><path id="SvgjsPath1128" d="M448.814697265625 568.059326171875L491.4528503417969 596.6283569335938 " stroke-dasharray="none" stroke="#323232" stroke-width="2" fill="none"></path><g id="SvgjsG1129" transform="matrix(1 0 0 1 470.13378374299305 566.7188489721824)" fill="#ffffff"><path id="SvgjsPath1130" d="M0 0H0V0H0V0Z " fill="#ffffff" transform="translate(0 0)"></path><text id="SvgjsText1131" font-family="Microsoft Yahei,宋体" fill="#000000" font-size="25" font-weight="bold" font-style="normal" text-anchor="middle" text-decoration="blink" x="0" y="0"></text></g></g><g id="SvgjsG1132"><path id="SvgjsPath1133" d="M461.68328857421875 531.6254272460938L510.2608642578125 545.7601318359375 " stroke-dasharray="none" stroke="#323232" stroke-width="2" fill="none"></path><g id="SvgjsG1134" transform="matrix(1 0 0 1 485.97207871899917 523.0677900781357)" fill="#ffffff"><path id="SvgjsPath1135" d="M0 0H0V0H0V0Z " fill="#ffffff" transform="translate(0 0)"></path><text id="SvgjsText1136" font-family="Microsoft Yahei,宋体" fill="#000000" font-size="25" font-weight="bold" font-style="normal" text-anchor="middle" text-decoration="blink" x="0" y="0"></text></g></g><g id="SvgjsG1137"><path id="SvgjsPath1138" d="M463.188720703125 497.7155456542969L510.2001037597656 487.8020324707031 " stroke-dasharray="none" stroke="#323232" stroke-width="2" fill="none"></path><g id="SvgjsG1139" transform="matrix(1 0 0 1 486.69440478030737 487.0472855323681)" fill="#ffffff"><path id="SvgjsPath1140" d="M0 0H0V0H0V0Z " fill="#ffffff" transform="translate(0 0)"></path><text id="SvgjsText1141" font-family="Microsoft Yahei,宋体" fill="#000000" font-size="25" font-weight="bold" font-style="normal" text-anchor="middle" text-decoration="blink" x="0" y="0"></text></g></g><g id="SvgjsG1142"><path id="SvgjsPath1143" d="M446.79443359375 454.7451477050781L496.6597595214844 445.18646240234375 " stroke-dasharray="none" stroke="#323232" stroke-width="2" fill="none"></path><g id="SvgjsG1144" transform="matrix(1 0 0 1 471.72709348040956 443.8994794853767)" fill="#ffffff"><path id="SvgjsPath1145" d="M0 0H0V0H0V0Z " fill="#ffffff" transform="translate(0 0)"></path><text id="SvgjsText1146" font-family="Microsoft Yahei,宋体" fill="#000000" font-size="25" font-weight="bold" font-style="normal" text-anchor="middle" text-decoration="blink" x="0" y="0"></text></g></g><g id="SvgjsG1147"><path id="SvgjsPath1148" d="M384.5121154785156 416.62957763671875L390.8898620605469 381.28948974609375 " stroke-dasharray="none" stroke="#323232" stroke-width="2" fill="none"></path><g id="SvgjsG1149" transform="matrix(1 0 0 1 387.70098482029636 418.67464349860523)" fill="#ffffff"><path id="SvgjsPath1150" d="M0 0H0V0H0V0Z " fill="#ffffff" transform="translate(0 0)"></path><text id="SvgjsText1151" font-family="Microsoft Yahei,宋体" fill="#000000" font-size="25" font-weight="bold" font-style="normal" text-anchor="middle" text-decoration="blink" x="0" y="0"></text></g></g><g id="SvgjsG1152"><path id="SvgjsPath1153" d="M334.36181640625 416.33734130859375L330.61553955078125 380.45977783203125 " stroke-dasharray="none" stroke="#323232" stroke-width="2" fill="none"></path><g id="SvgjsG1154" transform="matrix(1 0 0 1 336.2349388214632 418.65112140306417)" fill="#ffffff"><path id="SvgjsPath1155" d="M0 0H0V0H0V0Z " fill="#ffffff" transform="translate(0 0)"></path><text id="SvgjsText1156" font-family="Microsoft Yahei,宋体" fill="#000000" font-size="25" font-weight="bold" font-style="normal" text-anchor="middle" text-decoration="blink" x="0" y="0"></text></g></g><g id="SvgjsG1157"><path id="SvgjsPath1158" d="M427.2459411621094 433.84332275390625L456.7436218261719 396.081298828125 " stroke-dasharray="none" stroke="#323232" stroke-width="2" fill="none"></path><g id="SvgjsG1159" transform="matrix(1 0 0 1 441.99477479724845 437.09932608400084)" fill="#ffffff"><path id="SvgjsPath1160" d="M0 0H0V0H0V0Z " fill="#ffffff" transform="translate(0 0)"></path><text id="SvgjsText1161" font-family="Microsoft Yahei,宋体" fill="#000000" font-size="25" font-weight="bold" font-style="normal" text-anchor="middle" text-decoration="blink" x="0" y="0"></text></g></g><g id="SvgjsG1162"><path id="SvgjsPath1163" d="M277.0735778808594 466.99786376953125L231.8101348876953 448.31884765625 " stroke-dasharray="none" stroke="#323232" stroke-width="2" fill="none"></path><g id="SvgjsG1164" transform="matrix(1 0 0 1 299.7052767167031 460.712371888979)" fill="#ffffff"><path id="SvgjsPath1165" d="M0 0H0V0H0V0Z " fill="#ffffff" transform="translate(0 0)"></path><text id="SvgjsText1166" font-family="Microsoft Yahei,宋体" fill="#000000" font-size="25" font-weight="bold" font-style="normal" text-anchor="middle" text-decoration="blink" x="0" y="0"></text></g></g><g id="SvgjsG1167"><path id="SvgjsPath1168" d="M266.37353515625 512.6139526367188L217.42662048339844 515.6934814453125 " stroke-dasharray="none" stroke="#323232" stroke-width="2" fill="none"></path><g id="SvgjsG1169" transform="matrix(1 0 0 1 290.8469864607413 498.5287028104128)" fill="#ffffff"><path id="SvgjsPath1170" d="M0 0H0V0H0V0Z " fill="#ffffff" transform="translate(0 0)"></path><text id="SvgjsText1171" font-family="Microsoft Yahei,宋体" fill="#000000" font-size="25" font-weight="bold" font-style="normal" text-anchor="middle" text-decoration="blink" x="0" y="0"></text></g></g><g id="SvgjsG1172"><path id="SvgjsPath1173" d="M350.848388671875 609.4088134765625L335.3585510253906 660.6435546875 " stroke-dasharray="none" stroke="#323232" stroke-width="2" fill="none"></path><g id="SvgjsG1174" transform="matrix(1 0 0 1 358.5933232919256 619.4012023023924)" fill="#ffffff"><path id="SvgjsPath1175" d="M0 0H0V0H0V0Z " fill="#ffffff" transform="translate(0 0)"></path><text id="SvgjsText1176" font-family="Microsoft Yahei,宋体" fill="#000000" font-size="25" font-weight="bold" font-style="normal" text-anchor="middle" text-decoration="blink" x="0" y="0"></text></g></g><g id="SvgjsG1177"><path id="SvgjsPath1178" d="M308.0971374511719 594.5617065429688L271.6337890625 633.1118774414062 " stroke-dasharray="none" stroke="#323232" stroke-width="2" fill="none"></path><g id="SvgjsG1179" transform="matrix(1 0 0 1 326.32879346216714 598.2117747424145)" fill="#ffffff"><path id="SvgjsPath1180" d="M0 0H0V0H0V0Z " fill="#ffffff" transform="translate(0 0)"></path><text id="SvgjsText1181" font-family="Microsoft Yahei,宋体" fill="#000000" font-size="25" font-weight="bold" font-style="normal" text-anchor="middle" text-decoration="blink" x="0" y="0"></text></g></g><g id="SvgjsG1182"><path id="SvgjsPath1183" d="M275.78314208984375 557.2741088867188L232.6227569580078 584.0926513671875 " stroke-dasharray="none" stroke="#323232" stroke-width="2" fill="none"></path><g id="SvgjsG1184" transform="matrix(1 0 0 1 297.3633383186666 555.0583890073009)" fill="#ffffff"><path id="SvgjsPath1185" d="M0 0H0V0H0V0Z " fill="#ffffff" transform="translate(0 0)"></path><text id="SvgjsText1186" font-family="Microsoft Yahei,宋体" fill="#000000" font-size="25" font-weight="bold" font-style="normal" text-anchor="middle" text-decoration="blink" x="0" y="0"></text></g></g><g id="SvgjsG1187"><path id="SvgjsPath1188" d="M294.6853942871094 431.26605224609375L260.6070556640625 398.2342224121094 " stroke-dasharray="none" stroke="#323232" stroke-width="2" fill="none"></path><g id="SvgjsG1189" transform="matrix(1 0 0 1 311.72456027690146 432.15697985597063)" fill="#ffffff"><path id="SvgjsPath1190" d="M0 0H0V0H0V0Z " fill="#ffffff" transform="translate(0 0)"></path><text id="SvgjsText1191" font-family="Microsoft Yahei,宋体" fill="#000000" font-size="25" font-weight="bold" font-style="normal" text-anchor="middle" text-decoration="blink" x="0" y="0"></text></g></g><g id="SvgjsG1192"><path id="SvgjsPath1193" d="M798.7481079101562 744.997314453125C798.7481079101562 700.6143188476562 790.4945678710938 678.730224609375 790.4945678710938 649.5833740234375 " stroke-dasharray="none" stroke="#323232" stroke-width="2" fill="none" marker-end="url(#SvgjsMarker1194)"></path><g id="SvgjsG1196" transform="matrix(1 0 0 1 794.62136261673 675.9518017289266)" fill="#ffffff"><path id="SvgjsPath1197" d="M0 0H115.60938262939453V36.03122329711914H0V0Z " fill="#ffffff" transform="translate(-57.804691314697266 0)"></path><text id="SvgjsText1198" font-family="Microsoft Yahei,宋体" fill="#000000" font-size="25" font-weight="bold" font-style="normal" text-anchor="middle" text-decoration="blink" x="0" y="27.015625">waitFor()</text></g></g><g id="SvgjsG1199"><path id="SvgjsPath1200" d="M951.8530883789062 478.7126770019531C850.1849365234375 416.6283874511719 700.8394165039062 497.83697509765625 700.8394165039062 406.78656005859375 " stroke-dasharray="none" stroke="#323232" stroke-width="2" fill="none" marker-end="url(#SvgjsMarker1201)"></path><g id="SvgjsG1203" transform="matrix(1 0 0 1 788.2206757869052 437.9869162997875)" fill="#ffffff"><path id="SvgjsPath1204" d="M0 0H115.60938262939453V36.03126907348633H0V0Z " fill="#ffffff" transform="translate(-57.804691314697266 0)"></path><text id="SvgjsText1205" font-family="Microsoft Yahei,宋体" fill="#000000" font-size="25" font-weight="bold" font-style="normal" text-anchor="middle" text-decoration="blink" x="0" y="27.015625">waitFor()</text></g></g><g id="SvgjsG1206"><path id="SvgjsPath1207" d="M967.5598754882812 251.6268768310547C866.3956298828125 251.6268768310547 838.7485961914062 146.38894653320312 752.8204345703125 146.38894653320312 " stroke-dasharray="none" stroke="#323232" stroke-width="2" fill="none" marker-end="url(#SvgjsMarker1208)"></path><g id="SvgjsG1210" transform="matrix(1 0 0 1 854.4766333349999 183.3829130617805)" fill="#ffffff"><path id="SvgjsPath1211" d="M0 0H115.60929107666016V36.031246185302734H0V0Z " fill="#ffffff" transform="translate(-57.80464553833008 0)"></path><text id="SvgjsText1212" font-family="Microsoft Yahei,宋体" fill="#000000" font-size="25" font-weight="bold" font-style="normal" text-anchor="middle" text-decoration="blink" x="0" y="27.015625">waitFor()</text></g></g><g id="SvgjsG1213"><path id="SvgjsPath1214" d="M941.9931640625 602.571044921875C1111.5657958984375 602.571044921875 1346.977783203125 646.8222045898438 1346.977783203125 492.4856262207031 " stroke-dasharray="none" stroke="#323232" stroke-width="2" fill="none" marker-end="url(#SvgjsMarker1215)"></path><g id="SvgjsG1217" transform="matrix(1 0 0 1 1208.075209807196 589.7795488773048)" fill="#ffffff"><path id="SvgjsPath1218" d="M0 0H0V0H0V0Z " fill="#ffffff" transform="translate(0 0)"></path><text id="SvgjsText1219" font-family="Microsoft Yahei,宋体" fill="#000000" font-size="25" font-weight="bold" font-style="normal" text-anchor="middle" text-decoration="blink" x="0" y="0"></text></g></g><g id="SvgjsG1220"><path id="SvgjsPath1221" d="M941.9931640625 602.571044921875C1725.1849365234375 675.6283569335938 1487.1849365234375 370.6283874511719 1373.634033203125 260.75836181640625 " stroke-dasharray="none" stroke="#323232" stroke-width="2" fill="none" marker-end="url(#SvgjsMarker1222)"></path><g id="SvgjsG1224" transform="matrix(1 0 0 1 1494.092087110029 484.63745651251645)" fill="#ffffff"><path id="SvgjsPath1225" d="M0 0H0V0H0V0Z " fill="#ffffff" transform="translate(0 0)"></path><text id="SvgjsText1226" font-family="Microsoft Yahei,宋体" fill="#000000" font-size="25" font-weight="bold" font-style="normal" text-anchor="middle" text-decoration="blink" x="0" y="0"></text></g></g><g id="SvgjsG1227" transform="translate(951.8530953145696 441.9825507787008)" opacity="1"><path id="SvgjsPath1228" d="M0 0L344.5589294433594 0L344.5589294433594 73.46028137207031L0 73.46028137207031Z " stroke-dasharray="none" stroke="#323232" stroke-width="2" fill="#ffff99" opacity="1"></path><g id="SvgjsG1229" transform="matrix(1 0 0 1 10 5.48013922797778)" fill="#ffffff"><text id="SvgjsText1230" font-family="微软雅黑,黑体,Arial,宋体" fill="#000000" font-size="25" font-weight="bold" font-style="normal" text-anchor="middle" text-decoration="blink" x="162.27946776654338" y="27.015625">Consumer2</text><text id="SvgjsText1231" font-family="微软雅黑,黑体,Arial,宋体" fill="#000000" font-size="25" font-weight="bold" font-style="normal" text-anchor="middle" text-decoration="blink" x="162.27946776654338" y="58.265625">&lt;EventHandler&gt;</text></g></g><g id="SvgjsG1232" transform="translate(1233.7706212953465 415.672666942217)" opacity="1"><path id="SvgjsPath1233" d="M0 0L226.41429138183594 0L195.62583923339844 30.7884521484375L226.41429138183594 61.576904296875L0 61.576904296875L0 0Z " stroke-dasharray="none" stroke="#323232" stroke-width="2" fill="#ffff33" opacity="1"></path><g id="SvgjsG1234" transform="matrix(1 0 0 1 22.64142847105128 16.163451959290807)" fill="#ffffff"><text id="SvgjsText1235" font-family="微软雅黑,黑体,Arial,宋体" fill="#000000" font-size="25" font-weight="bold" font-style="normal" text-anchor="middle" text-decoration="blink" x="75.4714282368376" y="27.015625">Sequence</text></g></g><g id="SvgjsG1236" transform="translate(967.5598762780692 214.89674080986578)" opacity="1"><path id="SvgjsPath1237" d="M0 0L344.5589294433594 0L344.5589294433594 73.46028137207031L0 73.46028137207031Z " stroke-dasharray="none" stroke="#323232" stroke-width="2" fill="#ffff99" opacity="1"></path><g id="SvgjsG1238" transform="matrix(1 0 0 1 10 5.48013922797778)" fill="#ffffff"><text id="SvgjsText1239" font-family="微软雅黑,黑体,Arial,宋体" fill="#000000" font-size="25" font-weight="bold" font-style="normal" text-anchor="middle" text-decoration="blink" x="162.27946776654338" y="27.015625">Consumer3</text><text id="SvgjsText1240" font-family="微软雅黑,黑体,Arial,宋体" fill="#000000" font-size="25" font-weight="bold" font-style="normal" text-anchor="middle" text-decoration="blink" x="162.27946776654338" y="58.265625">&lt;EventHandler&gt;</text></g></g><g id="SvgjsG1241" transform="translate(1249.4774022588458 188.58685697338208)" opacity="1"><path id="SvgjsPath1242" d="M0 0L226.41429138183594 0L195.62583923339844 30.7884521484375L226.41429138183594 61.576904296875L0 61.576904296875L0 0Z " stroke-dasharray="none" stroke="#323232" stroke-width="2" fill="#ffff33" opacity="1"></path><g id="SvgjsG1243" transform="matrix(1 0 0 1 22.64142847105128 16.163451959290807)" fill="#ffffff"><text id="SvgjsText1244" font-family="微软雅黑,黑体,Arial,宋体" fill="#000000" font-size="25" font-weight="bold" font-style="normal" text-anchor="middle" text-decoration="blink" x="75.4714282368376" y="27.015625">Sequence</text></g></g><g id="SvgjsG1245" transform="translate(617.7964147799803 328.0626698998399)" opacity="1"><path id="SvgjsPath1246" d="M0 0L302.9971618652344 0L302.9971618652344 63.55252456665039L0 63.55252456665039Z " stroke-dasharray="none" stroke="#323232" stroke-width="2" fill="#ccffff" opacity="1"></path><g id="SvgjsG1247" transform="matrix(1 0 0 1 10 16.1512622649261)" fill="#ffffff"><text id="SvgjsText1248" font-family="微软雅黑,黑体,Arial,宋体" fill="#000000" font-size="25" font-weight="bold" font-style="normal" text-anchor="middle" text-decoration="blink" x="141.4985874587261" y="27.015625">SequenceBarrier</text></g></g><g id="SvgjsG1249" transform="translate(434.58719848010355 114.61268382079135)" opacity="1"><path id="SvgjsPath1250" d="M0 0L302.9971618652344 0L302.9971618652344 63.55252456665039L0 63.55252456665039Z " stroke-dasharray="none" stroke="#323232" stroke-width="2" fill="#ccffff" opacity="1"></path><g id="SvgjsG1251" transform="matrix(1 0 0 1 10 16.1512622649261)" fill="#ffffff"><text id="SvgjsText1252" font-family="微软雅黑,黑体,Arial,宋体" fill="#000000" font-size="25" font-weight="bold" font-style="normal" text-anchor="middle" text-decoration="blink" x="141.4985874587261" y="27.015625">SequenceBarrier</text></g></g><g id="SvgjsG1253" transform="translate(1403.4774022588458 929.0787963867188)" opacity="1"><path id="SvgjsPath1254" d="M0 0L264 0L264 101L0 101Z " stroke-dasharray="none" stroke-width="0" stroke="#323232" fill="none" opacity="1"></path><g id="SvgjsG1255" transform="matrix(1 0 0 1 0 28.625)" fill="#ffffff"><text id="SvgjsText1256" font-family="微软雅黑,黑体,Arial,宋体" fill="#000000" font-size="35" font-weight="bold" font-style="normal" text-anchor="start" text-decoration="blink" x="0" y="37.53125">by decaywood</text></g></g><g id="SvgjsG1257" transform="translate(1241.4120308476563 787.9972867472843)" opacity="1"><path id="SvgjsPath1258" d="M0 0L338.77288818359375 0L338.77288818359375 105.38435363769531L0 105.38435363769531Z " stroke-dasharray="none" stroke-width="0" stroke="#323232" fill="none" opacity="1"></path><g id="SvgjsG1259" transform="matrix(1 0 0 1 0 17.067177419575557)" fill="#ffffff"><text id="SvgjsText1260" font-family="微软雅黑,黑体,Arial,宋体" fill="#000000" font-size="57" font-weight="bold" font-style="normal" text-anchor="middle" text-decoration="blink" x="169.38643757910154" y="60.046875">Disruptor</text></g></g></g></g></svg>