<svg id="drawing" xmlns="http://www.w3.org/2000/svg" version="1.1" xmlns:xlink="http://www.w3.org/1999/xlink" xmlns:svgjs="http://svgjs.com/svgjs" width="743.5" height="561" viewBox="114.5 78 743.5 561"><defs id="SvgjsDefs1001"><marker id="SvgjsMarker1036" markerWidth="16.23606797749979" markerHeight="10.550836550532098" refX="-1" refY="3.8990363547948754" viewBox="-1 -1.3763819204711736 16.23606797749979 10.550836550532098" orient="auto" markerUnits="userSpaceOnUse"><path id="SvgjsPath1037" d="M12 3.8990363547948754L0 7.798072709589751V0Z " stroke="#323232" stroke-width="2" fill="#323232" transform="matrix(1,0,0,1,0,0)"></path></marker><marker id="SvgjsMarker1043" markerWidth="16.23606797749979" markerHeight="10.550836550532098" refX="-1" refY="3.8990363547948754" viewBox="-1 -1.3763819204711736 16.23606797749979 10.550836550532098" orient="auto" markerUnits="userSpaceOnUse"><path id="SvgjsPath1044" d="M12 3.8990363547948754L0 7.798072709589751V0Z " stroke="#323232" stroke-width="2" fill="#323232" transform="matrix(1,0,0,1,0,0)"></path></marker><marker id="SvgjsMarker1050" markerWidth="16.23606797749979" markerHeight="10.550836550532098" refX="-1" refY="3.8990363547948754" viewBox="-1 -1.3763819204711736 16.23606797749979 10.550836550532098" orient="auto" markerUnits="userSpaceOnUse"><path id="SvgjsPath1051" d="M12 3.8990363547948754L0 7.798072709589751V0Z " stroke="#323232" stroke-width="2" fill="#323232" transform="matrix(1,0,0,1,0,0)"></path></marker><marker id="SvgjsMarker1057" markerWidth="16.23606797749979" markerHeight="10.550836550532098" refX="-1" refY="3.8990363547948754" viewBox="-1 -1.3763819204711736 16.23606797749979 10.550836550532098" orient="auto" markerUnits="userSpaceOnUse"><path id="SvgjsPath1058" d="M12 3.8990363547948754L0 7.798072709589751V0Z " stroke="#323232" stroke-width="2" fill="#323232" transform="matrix(1,0,0,1,0,0)"></path></marker><marker id="SvgjsMarker1071" markerWidth="16.23606797749979" markerHeight="10.550836550532098" refX="-1" refY="3.8990363547948754" viewBox="-1 -1.3763819204711736 16.23606797749979 10.550836550532098" orient="auto" markerUnits="userSpaceOnUse"><path id="SvgjsPath1072" d="M12 3.8990363547948754L0 7.798072709589751V0Z " stroke="#323232" stroke-width="2" fill="#323232" transform="matrix(1,0,0,1,0,0)"></path></marker><marker id="SvgjsMarker1094" markerWidth="16.23606797749979" markerHeight="10.550836550532098" refX="-1" refY="3.8990363547948754" viewBox="-1 -1.3763819204711736 16.23606797749979 10.550836550532098" orient="auto" markerUnits="userSpaceOnUse"><path id="SvgjsPath1095" d="M12 3.8990363547948754L0 7.798072709589751V0Z " stroke="#323232" stroke-width="2" fill="#323232" transform="matrix(1,0,0,1,0,0)"></path></marker><marker id="SvgjsMarker1101" markerWidth="16.23606797749979" markerHeight="10.550836550532098" refX="-1" refY="3.8990363547948754" viewBox="-1 -1.3763819204711736 16.23606797749979 10.550836550532098" orient="auto" markerUnits="userSpaceOnUse"><path id="SvgjsPath1102" d="M12 3.8990363547948754L0 7.798072709589751V0Z " stroke="#323232" stroke-width="2" fill="#323232" transform="matrix(1,0,0,1,0,0)"></path></marker><marker id="SvgjsMarker1108" markerWidth="16.23606797749979" markerHeight="10.550836550532098" refX="-1" refY="3.8990363547948754" viewBox="-1 -1.3763819204711736 16.23606797749979 10.550836550532098" orient="auto" markerUnits="userSpaceOnUse"><path id="SvgjsPath1109" d="M12 3.8990363547948754L0 7.798072709589751V0Z " stroke="#323232" stroke-width="2" fill="#323232" transform="matrix(1,0,0,1,0,0)"></path></marker><marker id="SvgjsMarker1115" markerWidth="16.23606797749979" markerHeight="10.550836550532098" refX="-1" refY="3.8990363547948754" viewBox="-1 -1.3763819204711736 16.23606797749979 10.550836550532098" orient="auto" markerUnits="userSpaceOnUse"><path id="SvgjsPath1116" d="M12 3.8990363547948754L0 7.798072709589751V0Z " stroke="#323232" stroke-width="2" fill="#323232" transform="matrix(1,0,0,1,0,0)"></path></marker><marker id="SvgjsMarker1127" markerWidth="16.23606797749979" markerHeight="10.550836550532098" refX="-1" refY="3.8990363547948754" viewBox="-1 -1.3763819204711736 16.23606797749979 10.550836550532098" orient="auto" markerUnits="userSpaceOnUse"><path id="SvgjsPath1128" d="M12 3.8990363547948754L0 7.798072709589751V0Z " stroke="#323232" stroke-width="2" fill="#323232" transform="matrix(1,0,0,1,0,0)"></path></marker></defs><g id="SvgjsG1007"><path id="SvgjsPath1008" d="M114.5 78H858V639H114.5V78Z " fill-opacity="0" fill="none"></path><g id="SvgjsG1009"><g id="SvgjsG1010" transform="translate(309 297)" opacity="1"><path id="SvgjsPath1011" d="M0 37C0 -12.333333333333334 204 -12.333333333333334 204 37C204 86.33333333333333 0 86.33333333333333 0 37Z " stroke-dasharray="none" stroke="#323232" stroke-width="2" fill="#ff9999" opacity="1"></path><g id="SvgjsG1012" transform="matrix(1 0 0 1 10 28.875)" fill="#ffffff"><text id="SvgjsText1013" font-family="Microsoft Yahei,SimHei,Arial,SimSun" fill="#000000" font-size="13" font-weight="normal" font-style="normal" text-anchor="middle" text-decoration="blink" x="92" y="11.78125">Selector</text></g></g><g id="SvgjsG1014" transform="translate(226 448)" opacity="1"><path id="SvgjsPath1015" d="M0 0L158 0L158 34L0 34Z " stroke-dasharray="none" stroke="#323232" stroke-width="2" fill="#99ccff" opacity="1"></path><g id="SvgjsG1016" transform="matrix(1 0 0 1 10 8.875)" fill="#ffffff"><text id="SvgjsText1017" font-family="Microsoft Yahei,SimHei,Arial,SimSun" fill="#000000" font-size="13" font-weight="normal" font-style="normal" text-anchor="middle" text-decoration="blink" x="69" y="11.78125">Thread (One or more)</text></g></g><g id="SvgjsG1018" transform="translate(134.5 160)" opacity="1"><path id="SvgjsPath1019" d="M0 0L111 0L111 38L0 38Z " stroke-dasharray="none" stroke="#323232" stroke-width="2" fill="#ffcc99" opacity="1"></path><g id="SvgjsG1020" transform="matrix(1 0 0 1 10 10.875)" fill="#ffffff"><text id="SvgjsText1021" font-family="Microsoft Yahei,SimHei,Arial,SimSun" fill="#000000" font-size="13" font-weight="normal" font-style="normal" text-anchor="middle" text-decoration="blink" x="45.5" y="11.78125">Channel 1</text></g></g><g id="SvgjsG1022" transform="translate(285.5 162)" opacity="1"><path id="SvgjsPath1023" d="M0 0L111 0L111 38L0 38Z " stroke-dasharray="none" stroke="#323232" stroke-width="2" fill="#ffcc99" opacity="1"></path><g id="SvgjsG1024" transform="matrix(1 0 0 1 10 10.875)" fill="#ffffff"><text id="SvgjsText1025" font-family="Microsoft Yahei,SimHei,Arial,SimSun" fill="#000000" font-size="13" font-weight="normal" font-style="normal" text-anchor="middle" text-decoration="blink" x="45.5" y="11.78125">Channel 2</text></g></g><g id="SvgjsG1026" transform="translate(430.5 162)" opacity="1"><path id="SvgjsPath1027" d="M0 0L111 0L111 38L0 38Z " stroke-dasharray="none" stroke="#323232" stroke-width="2" fill="#ffcc99" opacity="1"></path><g id="SvgjsG1028" transform="matrix(1 0 0 1 10 10.875)" fill="#ffffff"><text id="SvgjsText1029" font-family="Microsoft Yahei,SimHei,Arial,SimSun" fill="#000000" font-size="13" font-weight="normal" font-style="normal" text-anchor="middle" text-decoration="blink" x="45.5" y="11.78125">Channel 3</text></g></g><g id="SvgjsG1030" transform="translate(576.5 162)" opacity="1"><path id="SvgjsPath1031" d="M0 0L111 0L111 38L0 38Z " stroke-dasharray="none" stroke="#323232" stroke-width="2" fill="#ffcc99" opacity="1"></path><g id="SvgjsG1032" transform="matrix(1 0 0 1 10 10.875)" fill="#ffffff"><text id="SvgjsText1033" font-family="Microsoft Yahei,SimHei,Arial,SimSun" fill="#000000" font-size="13" font-weight="normal" font-style="normal" text-anchor="middle" text-decoration="blink" x="45.5" y="11.78125">Channel N</text></g></g><g id="SvgjsG1034"><path id="SvgjsPath1035" d="M190 198C190.00000000000003 294.86444136007805 411 200.13555863992195 411 281.7639320225002 " stroke-dasharray="none" stroke="#323232" stroke-width="2" fill="none" marker-end="url(#SvgjsMarker1036)"></path><g id="SvgjsG1038" transform="matrix(1 0 0 1 300.5 237.47049150281254)" fill="#ffffff"><path id="SvgjsPath1039" d="M0 0H43.34375V15H0V0Z " fill="#ffffff" transform="translate(-21.671875 0)"></path><text id="SvgjsText1040" font-family="Microsoft Yahei,SimSun" fill="#000000" font-size="13" font-weight="normal" font-style="normal" text-anchor="middle" text-decoration="blink" x="0" y="11.75">Register</text></g></g><g id="SvgjsG1041"><path id="SvgjsPath1042" d="M341 200C363 213 411 249.151907039047 411 281.7639320225002 " stroke-dasharray="none" stroke="#323232" stroke-width="2" fill="none" marker-end="url(#SvgjsMarker1043)"></path><g id="SvgjsG1045" transform="matrix(1 0 0 1 384.25 225.40245664245515)" fill="#ffffff"><path id="SvgjsPath1046" d="M0 0H43.34375V15H0V0Z " fill="#ffffff" transform="translate(-21.671875 0)"></path><text id="SvgjsText1047" font-family="Microsoft Yahei,SimSun" fill="#000000" font-size="13" font-weight="normal" font-style="normal" text-anchor="middle" text-decoration="blink" x="0" y="11.75">Register</text></g></g><g id="SvgjsG1048"><path id="SvgjsPath1049" d="M486 200C474 216 411 247.9547148035614 411 281.7639320225002 " stroke-dasharray="none" stroke="#323232" stroke-width="2" fill="none" marker-end="url(#SvgjsMarker1050)"></path><g id="SvgjsG1052" transform="matrix(1 0 0 1 444 226.07850955414807)" fill="#ffffff"><path id="SvgjsPath1053" d="M0 0H43.34375V15H0V0Z " fill="#ffffff" transform="translate(-21.671875 0)"></path><text id="SvgjsText1054" font-family="Microsoft Yahei,SimSun" fill="#000000" font-size="13" font-weight="normal" font-style="normal" text-anchor="middle" text-decoration="blink" x="0" y="11.75">Register</text></g></g><g id="SvgjsG1055"><path id="SvgjsPath1056" d="M632 200C632 296.54014708917737 411 200.45985291082263 411 281.7639320225002 " stroke-dasharray="none" stroke="#323232" stroke-width="2" fill="none" marker-end="url(#SvgjsMarker1057)"></path><g id="SvgjsG1059" transform="matrix(1 0 0 1 521.5 238.47049150281254)" fill="#ffffff"><path id="SvgjsPath1060" d="M0 0H43.34375V15H0V0Z " fill="#ffffff" transform="translate(-21.671875 0)"></path><text id="SvgjsText1061" font-family="Microsoft Yahei,SimSun" fill="#000000" font-size="13" font-weight="normal" font-style="normal" text-anchor="middle" text-decoration="blink" x="0" y="11.75">Register</text></g></g><g id="SvgjsG1062" transform="translate(464.5 423.5)" opacity="1"><path id="SvgjsPath1063" d="M0 0L128.5 0L128.5 83L0 83Z " stroke-dasharray="none" stroke="#323232" stroke-width="2" fill="#ffffcc" opacity="1"></path><g id="SvgjsG1064" transform="matrix(1 0 0 1 10 9)" fill="#ffffff"><text id="SvgjsText1065" font-family="Microsoft Yahei,SimHei,Arial,SimSun" fill="#000000" font-size="13" font-weight="normal" font-style="normal" text-anchor="start" text-decoration="blink" x="0" y="11.78125">case 1:  Connect </text><text id="SvgjsText1066" font-family="Microsoft Yahei,SimHei,Arial,SimSun" fill="#000000" font-size="13" font-weight="normal" font-style="normal" text-anchor="start" text-decoration="blink" x="0" y="28.03125">case 2:  Accept</text><text id="SvgjsText1067" font-family="Microsoft Yahei,SimHei,Arial,SimSun" fill="#000000" font-size="13" font-weight="normal" font-style="normal" text-anchor="start" text-decoration="blink" x="0" y="44.28125">case 3:  Read</text><text id="SvgjsText1068" font-family="Microsoft Yahei,SimHei,Arial,SimSun" fill="#000000" font-size="13" font-weight="normal" font-style="normal" text-anchor="start" text-decoration="blink" x="0" y="60.53125">case 4:  Write</text></g></g><g id="SvgjsG1069"><path id="SvgjsPath1070" d="M384 465C416.20000000000005 465 432.29999999999995 465 449.2639320225002 465 " stroke-dasharray="none" stroke="#323232" stroke-width="2" fill="none" marker-end="url(#SvgjsMarker1071)"></path><g id="SvgjsG1073" transform="matrix(1 0 0 1 422.34549150281254 456.875)" fill="#ffffff"><path id="SvgjsPath1074" d="M0 0H0V0H0V0Z " fill="#ffffff" transform="translate(0 0)"></path><text id="SvgjsText1075" font-family="Microsoft Yahei,SimSun" fill="#000000" font-size="13" font-weight="normal" font-style="normal" text-anchor="middle" text-decoration="blink" x="0" y="0"></text></g></g><g id="SvgjsG1076" transform="translate(134.5 98)" opacity="1"><path id="SvgjsPath1077" d="M0 0L111 0L111 38L0 38Z " stroke-dasharray="none" stroke="#323232" stroke-width="2" fill="#99ff99" opacity="1"></path><g id="SvgjsG1078" transform="matrix(1 0 0 1 10 10.875)" fill="#ffffff"><text id="SvgjsText1079" font-family="Microsoft Yahei,SimHei,Arial,SimSun" fill="#000000" font-size="13" font-weight="normal" font-style="normal" text-anchor="middle" text-decoration="blink" x="45.5" y="11.78125">Channel 1</text></g></g><g id="SvgjsG1080" transform="translate(285.5 98)" opacity="1"><path id="SvgjsPath1081" d="M0 0L111 0L111 38L0 38Z " stroke-dasharray="none" stroke="#323232" stroke-width="2" fill="#99ff99" opacity="1"></path><g id="SvgjsG1082" transform="matrix(1 0 0 1 10 10.875)" fill="#ffffff"><text id="SvgjsText1083" font-family="Microsoft Yahei,SimHei,Arial,SimSun" fill="#000000" font-size="13" font-weight="normal" font-style="normal" text-anchor="middle" text-decoration="blink" x="45.5" y="11.78125">Channel 2</text></g></g><g id="SvgjsG1084" transform="translate(430.5 98)" opacity="1"><path id="SvgjsPath1085" d="M0 0L111 0L111 38L0 38Z " stroke-dasharray="none" stroke="#323232" stroke-width="2" fill="#99ff99" opacity="1"></path><g id="SvgjsG1086" transform="matrix(1 0 0 1 10 10.875)" fill="#ffffff"><text id="SvgjsText1087" font-family="Microsoft Yahei,SimHei,Arial,SimSun" fill="#000000" font-size="13" font-weight="normal" font-style="normal" text-anchor="middle" text-decoration="blink" x="45.5" y="11.78125">Channel 3</text></g></g><g id="SvgjsG1088" transform="translate(576.5 98)" opacity="1"><path id="SvgjsPath1089" d="M0 0L111 0L111 38L0 38Z " stroke-dasharray="none" stroke="#323232" stroke-width="2" fill="#99ff99" opacity="1"></path><g id="SvgjsG1090" transform="matrix(1 0 0 1 10 10.875)" fill="#ffffff"><text id="SvgjsText1091" font-family="Microsoft Yahei,SimHei,Arial,SimSun" fill="#000000" font-size="13" font-weight="normal" font-style="normal" text-anchor="middle" text-decoration="blink" x="45.5" y="11.78125">Channel N</text></g></g><g id="SvgjsG1092"><path id="SvgjsPath1093" d="M190 136C190 145.6 190 150.4 190 144.7639320225002 " stroke-dasharray="none" stroke="#323232" stroke-width="2" fill="none" marker-end="url(#SvgjsMarker1094)"></path><g id="SvgjsG1096" transform="matrix(1 0 0 1 190 137.97049150281254)" fill="#ffffff"><path id="SvgjsPath1097" d="M0 0H0V0H0V0Z " fill="#ffffff" transform="translate(0 0)"></path><text id="SvgjsText1098" font-family="Microsoft Yahei,SimSun" fill="#000000" font-size="13" font-weight="normal" font-style="normal" text-anchor="middle" text-decoration="blink" x="0" y="0"></text></g></g><g id="SvgjsG1099"><path id="SvgjsPath1100" d="M341 136C341 146.4 341 151.6 341 146.7639320225002 " stroke-dasharray="none" stroke="#323232" stroke-width="2" fill="none" marker-end="url(#SvgjsMarker1101)"></path><g id="SvgjsG1103" transform="matrix(1 0 0 1 341 138.97049150281254)" fill="#ffffff"><path id="SvgjsPath1104" d="M0 0H0V0H0V0Z " fill="#ffffff" transform="translate(0 0)"></path><text id="SvgjsText1105" font-family="Microsoft Yahei,SimSun" fill="#000000" font-size="13" font-weight="normal" font-style="normal" text-anchor="middle" text-decoration="blink" x="0" y="0"></text></g></g><g id="SvgjsG1106"><path id="SvgjsPath1107" d="M486 136C486 146.4 486 151.6 486 146.7639320225002 " stroke-dasharray="none" stroke="#323232" stroke-width="2" fill="none" marker-end="url(#SvgjsMarker1108)"></path><g id="SvgjsG1110" transform="matrix(1 0 0 1 486 138.97049150281254)" fill="#ffffff"><path id="SvgjsPath1111" d="M0 0H0V0H0V0Z " fill="#ffffff" transform="translate(0 0)"></path><text id="SvgjsText1112" font-family="Microsoft Yahei,SimSun" fill="#000000" font-size="13" font-weight="normal" font-style="normal" text-anchor="middle" text-decoration="blink" x="0" y="0"></text></g></g><g id="SvgjsG1113"><path id="SvgjsPath1114" d="M632 136C632 146.4 632 151.6 632 146.7639320225002 " stroke-dasharray="none" stroke="#323232" stroke-width="2" fill="none" marker-end="url(#SvgjsMarker1115)"></path><g id="SvgjsG1117" transform="matrix(1 0 0 1 632 138.97049150281254)" fill="#ffffff"><path id="SvgjsPath1118" d="M0 0H0V0H0V0Z " fill="#ffffff" transform="translate(0 0)"></path><text id="SvgjsText1119" font-family="Microsoft Yahei,SimSun" fill="#000000" font-size="13" font-weight="normal" font-style="normal" text-anchor="middle" text-decoration="blink" x="0" y="0"></text></g></g><g id="SvgjsG1120" transform="translate(483 553)" opacity="1"><path id="SvgjsPath1121" d="M0 0L355 0L355 66L0 66Z " stroke-dasharray="none" stroke-width="0" stroke="#323232" fill="none" opacity="1"></path><g id="SvgjsG1122" transform="matrix(1 0 0 1 0 10.5)" fill="#ffffff"><text id="SvgjsText1123" font-family="Microsoft Yahei,SimHei,Arial,SimSun" fill="#000000" font-size="18" font-weight="bold" font-style="normal" text-anchor="middle" text-decoration="blink" x="177.5" y="16.296875">NIO Selector模型</text><text id="SvgjsText1124" font-family="Microsoft Yahei,SimHei,Arial,SimSun" fill="#000000" font-size="18" font-weight="bold" font-style="normal" text-anchor="middle" text-decoration="blink" x="177.5" y="38.796875">                        by decaywood</text></g></g><g id="SvgjsG1125"><path id="SvgjsPath1126" d="M411 371C411 423.406106514413 305 395.593893485587 305 432.7639320225002 " stroke-dasharray="none" stroke="#323232" stroke-width="2" fill="none" marker-end="url(#SvgjsMarker1127)"></path><g id="SvgjsG1129" transform="matrix(1 0 0 1 358 399.47049150281254)" fill="#ffffff"><path id="SvgjsPath1130" d="M0 0H0V0H0V0Z " fill="#ffffff" transform="translate(0 0)"></path><text id="SvgjsText1131" font-family="Microsoft Yahei,SimSun" fill="#000000" font-size="13" font-weight="normal" font-style="normal" text-anchor="middle" text-decoration="blink" x="0" y="0"></text></g></g></g></g></svg>