<svg xmlns="http://www.w3.org/2000/svg" xmlns:xlink="http://www.w3.org/1999/xlink" id="processonSvg1000" viewBox="16.0 103.0 984.0 648.0" width="984.0" height="648.0"><defs id="ProcessOnDefs1001"><marker id="ProcessOnMarker1035" markerUnits="userSpaceOnUse" orient="auto" markerWidth="16.23606797749979" markerHeight="10.550836550532098" viewBox="-1.0 -1.3763819204711736 16.23606797749979 10.550836550532098" refX="-1.0" refY="3.8990363547948754"><path id="ProcessOnPath1036" d="M12.0 3.8990363547948754L0.0 7.798072709589751V0.0Z" stroke="#323232" stroke-width="2.0" fill="#323232" transform="matrix(1.0,0.0,0.0,1.0,0.0,0.0)"/></marker><marker id="ProcessOnMarker1121" markerUnits="userSpaceOnUse" orient="auto" markerWidth="16.23606797749979" markerHeight="10.550836550532098" viewBox="-1.0 -1.3763819204711736 16.23606797749979 10.550836550532098" refX="-1.0" refY="3.8990363547948754"><path id="ProcessOnPath1122" d="M12.0 3.8990363547948754L0.0 7.798072709589751V0.0Z" stroke="#323232" stroke-width="2.0" fill="#323232" transform="matrix(1.0,0.0,0.0,1.0,0.0,0.0)"/></marker><marker id="ProcessOnMarker1125" markerUnits="userSpaceOnUse" orient="auto" markerWidth="16.23606797749979" markerHeight="10.550836550532098" viewBox="-1.0 -1.3763819204711736 16.23606797749979 10.550836550532098" refX="-1.0" refY="3.8990363547948754"><path id="ProcessOnPath1126" d="M12.0 3.8990363547948754L0.0 7.798072709589751V0.0Z" stroke="#323232" stroke-width="2.0" fill="#323232" transform="matrix(1.0,0.0,0.0,1.0,0.0,0.0)"/></marker><marker id="ProcessOnMarker1129" markerUnits="userSpaceOnUse" orient="auto" markerWidth="16.23606797749979" markerHeight="10.550836550532098" viewBox="-1.0 -1.3763819204711736 16.23606797749979 10.550836550532098" refX="-1.0" refY="3.8990363547948754"><path id="ProcessOnPath1130" d="M12.0 3.8990363547948754L0.0 7.798072709589751V0.0Z" stroke="#323232" stroke-width="2.0" fill="#323232" transform="matrix(1.0,0.0,0.0,1.0,0.0,0.0)"/></marker><marker id="ProcessOnMarker1133" markerUnits="userSpaceOnUse" orient="auto" markerWidth="16.23606797749979" markerHeight="10.550836550532098" viewBox="-1.0 -1.3763819204711736 16.23606797749979 10.550836550532098" refX="-1.0" refY="3.8990363547948754"><path id="ProcessOnPath1134" d="M12.0 3.8990363547948754L0.0 7.798072709589751V0.0Z" stroke="#323232" stroke-width="2.0" fill="#323232" transform="matrix(1.0,0.0,0.0,1.0,0.0,0.0)"/></marker><marker id="ProcessOnMarker1137" markerUnits="userSpaceOnUse" orient="auto" markerWidth="16.23606797749979" markerHeight="10.550836550532098" viewBox="-1.0 -1.3763819204711736 16.23606797749979 10.550836550532098" refX="-1.0" refY="3.8990363547948754"><path id="ProcessOnPath1138" d="M12.0 3.8990363547948754L0.0 7.798072709589751V0.0Z" stroke="#323232" stroke-width="2.0" fill="#323232" transform="matrix(1.0,0.0,0.0,1.0,0.0,0.0)"/></marker><marker id="ProcessOnMarker1141" markerUnits="userSpaceOnUse" orient="auto" markerWidth="16.23606797749979" markerHeight="10.550836550532098" viewBox="-1.0 -1.3763819204711736 16.23606797749979 10.550836550532098" refX="-1.0" refY="3.8990363547948754"><path id="ProcessOnPath1142" d="M12.0 3.8990363547948754L0.0 7.798072709589751V0.0Z" stroke="#323232" stroke-width="2.0" fill="#323232" transform="matrix(1.0,0.0,0.0,1.0,0.0,0.0)"/></marker></defs><g id="ProcessOnG1002"><path id="ProcessOnPath1003" d="M16.0 103.0H1000.0V751.0H16.0V103.0Z" fill="none"/><g id="ProcessOnG1004"><g id="ProcessOnG1005" transform="matrix(1.0,0.0,0.0,1.0,153.0,224.0)" opacity="1.0"><path id="ProcessOnPath1006" d="M0.0 0.0L87.0 0.0L87.0 47.5L0.0 47.5Z" stroke="#323232" stroke-width="2.0" stroke-dasharray="none" opacity="1.0" fill="#ffffff"/><g id="ProcessOnG1007" transform="matrix(1.0,0.0,0.0,1.0,10.0,13.75)"><text id="ProcessOnText1008" fill="#000000" font-weight="bold" font-style="normal" text-decoration="blink" font-family="微软雅黑" text-anchor="middle" font-size="16" x="33.5" y="16.4">page 0</text></g></g><g id="ProcessOnG1009" transform="matrix(1.0,0.0,0.0,1.0,153.0,271.5)" opacity="1.0"><path id="ProcessOnPath1010" d="M0.0 0.0L87.0 0.0L87.0 47.5L0.0 47.5Z" stroke="#323232" stroke-width="2.0" stroke-dasharray="none" opacity="1.0" fill="#ffffff"/><g id="ProcessOnG1011" transform="matrix(1.0,0.0,0.0,1.0,10.0,13.75)"><text id="ProcessOnText1012" fill="#000000" font-weight="bold" font-style="normal" text-decoration="blink" font-family="微软雅黑" text-anchor="middle" font-size="16" x="33.5" y="16.4">page 1</text></g></g><g id="ProcessOnG1013" transform="matrix(1.0,0.0,0.0,1.0,153.0,319.0)" opacity="1.0"><path id="ProcessOnPath1014" d="M0.0 0.0L87.0 0.0L87.0 47.5L0.0 47.5Z" stroke="#323232" stroke-width="2.0" stroke-dasharray="none" opacity="1.0" fill="#ffffff"/><g id="ProcessOnG1015" transform="matrix(1.0,0.0,0.0,1.0,10.0,13.75)"><text id="ProcessOnText1016" fill="#000000" font-weight="bold" font-style="normal" text-decoration="blink" font-family="微软雅黑" text-anchor="middle" font-size="16" x="33.5" y="16.4">page 2</text></g></g><g id="ProcessOnG1017" transform="matrix(1.0,0.0,0.0,1.0,153.0,366.5)" opacity="1.0"><path id="ProcessOnPath1018" d="M0.0 0.0L87.0 0.0L87.0 47.5L0.0 47.5Z" stroke="#323232" stroke-width="2.0" stroke-dasharray="none" opacity="1.0" fill="#ffffff"/><g id="ProcessOnG1019" transform="matrix(1.0,0.0,0.0,1.0,10.0,13.75)"><text id="ProcessOnText1020" fill="#000000" font-weight="bold" font-style="normal" text-decoration="blink" font-family="微软雅黑" text-anchor="middle" font-size="16" x="33.5" y="16.4">page 3</text></g></g><g id="ProcessOnG1021" transform="matrix(1.0,0.0,0.0,1.0,153.0,414.0)" opacity="1.0"><path id="ProcessOnPath1022" d="M0.0 0.0L87.0 0.0L87.0 47.5L0.0 47.5Z" stroke="#323232" stroke-width="2.0" stroke-dasharray="none" opacity="1.0" fill="#ffffff"/><g id="ProcessOnG1023" transform="matrix(1.0,0.0,0.0,1.0,10.0,13.75)"><text id="ProcessOnText1024" fill="#000000" font-weight="bold" font-style="normal" text-decoration="blink" font-family="微软雅黑" text-anchor="middle" font-size="16" x="33.5" y="16.4">page 4</text></g></g><g id="ProcessOnG1025" transform="matrix(1.0,0.0,0.0,1.0,153.0,461.5)" opacity="1.0"><path id="ProcessOnPath1026" d="M0.0 0.0L87.0 0.0L87.0 47.5L0.0 47.5Z" stroke="#323232" stroke-width="2.0" stroke-dasharray="none" opacity="1.0" fill="#ffffff"/><g id="ProcessOnG1027" transform="matrix(1.0,0.0,0.0,1.0,10.0,13.75)"><text id="ProcessOnText1028" fill="#000000" font-weight="bold" font-style="normal" text-decoration="blink" font-family="微软雅黑" text-anchor="middle" font-size="16" x="33.5" y="16.4">page 5</text></g></g><g id="ProcessOnG1029" transform="matrix(1.0,0.0,0.0,1.0,71.75,186.0)" opacity="1.0"><path id="ProcessOnPath1030" d="M0.0 0.0L249.5 0.0L249.5 38.0L0.0 38.0Z" stroke="#323232" stroke-width="0.0" stroke-dasharray="none" opacity="1.0" fill="none"/><g id="ProcessOnG1031" transform="matrix(1.0,0.0,0.0,1.0,0.0,9.0)"><text id="ProcessOnText1032" fill="#000000" font-weight="bold" font-style="normal" text-decoration="blink" font-family="微软雅黑" text-anchor="middle" font-size="16" x="124.75" y="16.4">process virtual address space</text></g></g><g id="ProcessOnG1033"><path id="ProcessOnPath1034" d="M134.0 277.0L134.0 370.5L134.0 370.5L134.0 448.7639320225002" stroke="#323232" stroke-width="2.0" stroke-dasharray="none" fill="none" marker-end="url(#ProcessOnMarker1035)"/></g><g id="ProcessOnG1037" transform="matrix(6.123233995736766E-17,1.0,-1.0,6.123233995736766E-17,136.0,285.0)" opacity="1.0"><path id="ProcessOnPath1038" d="M0.0 0.0L160.0 0.0L160.0 40.0L0.0 40.0Z" stroke="#323232" stroke-width="0.0" stroke-dasharray="none" opacity="1.0" fill="none"/><g id="ProcessOnG1039" transform="matrix(1.0,0.0,0.0,1.0,0.0,10.0)"><text id="ProcessOnText1040" fill="#000000" font-weight="bold" font-style="normal" text-decoration="blink" font-family="微软雅黑" text-anchor="middle" font-size="16" x="80.0" y="16.4">ascending direction</text></g></g><g id="ProcessOnG1041" transform="matrix(1.0,0.0,0.0,1.0,373.0,265.0)" opacity="1.0"><path id="ProcessOnPath1042" d="M0.0 0.0L154.0 0.0L154.0 32.0L0.0 32.0Z" stroke="#323232" stroke-width="2.0" stroke-dasharray="none" opacity="1.0" fill="#ffffff"/><g id="ProcessOnG1043" transform="matrix(1.0,0.0,0.0,1.0,10.0,6.0)"><text id="ProcessOnText1044" fill="#000000" font-weight="bold" font-style="normal" text-decoration="blink" font-family="微软雅黑" text-anchor="middle" font-size="16" x="67.0" y="16.4">4</text></g></g><g id="ProcessOnG1045" transform="matrix(1.0,0.0,0.0,1.0,370.0,229.0)" opacity="1.0"><path id="ProcessOnPath1046" d="M0.0 0.0L160.0 0.0L160.0 40.0L0.0 40.0Z" stroke="#323232" stroke-width="0.0" stroke-dasharray="none" opacity="1.0" fill="none"/><g id="ProcessOnG1047" transform="matrix(1.0,0.0,0.0,1.0,0.0,10.0)"><text id="ProcessOnText1048" fill="#000000" font-weight="bold" font-style="normal" text-decoration="blink" font-family="微软雅黑" text-anchor="middle" font-size="16" x="80.0" y="16.4">page table</text></g></g><g id="ProcessOnG1049" transform="matrix(1.0,0.0,0.0,1.0,373.0,297.0)" opacity="1.0"><path id="ProcessOnPath1050" d="M0.0 0.0L154.0 0.0L154.0 32.0L0.0 32.0Z" stroke="#323232" stroke-width="2.0" stroke-dasharray="none" opacity="1.0" fill="#ffffff"/><g id="ProcessOnG1051" transform="matrix(1.0,0.0,0.0,1.0,10.0,6.0)"><text id="ProcessOnText1052" fill="#000000" font-weight="bold" font-style="normal" text-decoration="blink" font-family="微软雅黑" text-anchor="middle" font-size="16" x="67.0" y="16.4">3</text></g></g><g id="ProcessOnG1053" transform="matrix(1.0,0.0,0.0,1.0,373.0,329.0)" opacity="1.0"><path id="ProcessOnPath1054" d="M0.0 0.0L154.0 0.0L154.0 32.0L0.0 32.0Z" stroke="#323232" stroke-width="2.0" stroke-dasharray="none" opacity="1.0" fill="#ffffff"/><g id="ProcessOnG1055" transform="matrix(1.0,0.0,0.0,1.0,10.0,6.0)"><text id="ProcessOnText1056" fill="#000000" font-weight="bold" font-style="normal" text-decoration="blink" font-family="微软雅黑" text-anchor="middle" font-size="16" x="67.0" y="16.4">1</text></g></g><g id="ProcessOnG1057" transform="matrix(1.0,0.0,0.0,1.0,373.0,361.0)" opacity="1.0"><path id="ProcessOnPath1058" d="M0.0 0.0L154.0 0.0L154.0 32.0L0.0 32.0Z" stroke="#323232" stroke-width="2.0" stroke-dasharray="none" opacity="1.0" fill="#ffffff"/><g id="ProcessOnG1059" transform="matrix(1.0,0.0,0.0,1.0,10.0,6.0)"><text id="ProcessOnText1060" fill="#000000" font-weight="bold" font-style="normal" text-decoration="blink" font-family="微软雅黑" text-anchor="middle" font-size="16" x="67.0" y="16.4">7</text></g></g><g id="ProcessOnG1061" transform="matrix(1.0,0.0,0.0,1.0,373.0,393.0)" opacity="1.0"><path id="ProcessOnPath1062" d="M0.0 0.0L154.0 0.0L154.0 32.0L0.0 32.0Z" stroke="#323232" stroke-width="2.0" stroke-dasharray="none" opacity="1.0" fill="#ffffff"/><g id="ProcessOnG1063" transform="matrix(1.0,0.0,0.0,1.0,10.0,6.0)"><text id="ProcessOnText1064" fill="#000000" font-weight="bold" font-style="normal" text-decoration="blink" font-family="微软雅黑" text-anchor="middle" font-size="16" x="67.0" y="16.4">9</text></g></g><g id="ProcessOnG1065" transform="matrix(1.0,0.0,0.0,1.0,373.0,425.0)" opacity="1.0"><path id="ProcessOnPath1066" d="M0.0 0.0L154.0 0.0L154.0 32.0L0.0 32.0Z" stroke="#323232" stroke-width="2.0" stroke-dasharray="none" opacity="1.0" fill="#ffffff"/><g id="ProcessOnG1067" transform="matrix(1.0,0.0,0.0,1.0,10.0,6.0)"><text id="ProcessOnText1068" fill="#000000" font-weight="bold" font-style="normal" text-decoration="blink" font-family="微软雅黑" text-anchor="middle" font-size="16" x="67.0" y="16.4">5</text></g></g><g id="ProcessOnG1069"><path id="ProcessOnPath1070" d="M239.67016031594721 224.2401131799618L374.2855752193731 265.53208888623794" stroke="#323232" stroke-width="2.0" stroke-dasharray="2.0 3.0" fill="none"/></g><g id="ProcessOnG1071"><path id="ProcessOnPath1072" d="M240.0 271.5L373.24264068711926 297.2426406871193" stroke="#323232" stroke-width="2.0" stroke-dasharray="2.0 3.0" fill="none"/></g><g id="ProcessOnG1073"><path id="ProcessOnPath1074" d="M239.18945001081082 319.8478014325138L373.2981333293569 329.9283628290596" stroke="#323232" stroke-width="2.0" stroke-dasharray="2.0 3.0" fill="none"/></g><g id="ProcessOnG1075"><path id="ProcessOnPath1076" d="M236.89304618616472 367.02654629367294L375.2855752193731 361.53208888623794" stroke="#323232" stroke-width="2.0" stroke-dasharray="2.0 3.0" fill="none"/></g><g id="ProcessOnG1077"><path id="ProcessOnPath1078" d="M237.5371750239463 414.7535486925232L374.2943057454042 393.276608177156" stroke="#323232" stroke-width="2.0" stroke-dasharray="2.0 3.0" fill="none"/></g><g id="ProcessOnG1079"><path id="ProcessOnPath1080" d="M234.95658183833334 462.1911874465969L375.1130913087035 425.5315389351832" stroke="#323232" stroke-width="2.0" stroke-dasharray="2.0 3.0" fill="none"/></g><g id="ProcessOnG1081"><path id="ProcessOnPath1082" d="M238.7380067792471 508.7049722261572L376.6904730469628 456.3747688518534" stroke="#323232" stroke-width="2.0" stroke-dasharray="2.0 3.0" fill="none"/></g><g id="ProcessOnG1083" transform="matrix(1.0,0.0,0.0,1.0,654.0,193.0)" opacity="1.0"><path id="ProcessOnPath1084" d="M0.0 0.0L92.0 0.0L92.0 40.888888888888886L0.0 40.888888888888886Z" stroke="#323232" stroke-width="2.0" stroke-dasharray="none" opacity="1.0" fill="#ffffff"/><g id="ProcessOnG1085" transform="matrix(1.0,0.0,0.0,1.0,10.0,10.444444444444443)"><text id="ProcessOnText1086" fill="#000000" font-weight="bold" font-style="normal" text-decoration="blink" font-family="微软雅黑" text-anchor="middle" font-size="16" x="36.0" y="16.4">1</text></g></g><g id="ProcessOnG1087" transform="matrix(1.0,0.0,0.0,1.0,654.0,233.88888888888889)" opacity="1.0"><path id="ProcessOnPath1088" d="M0.0 0.0L92.0 0.0L92.0 40.888888888888886L0.0 40.888888888888886Z" stroke="#323232" stroke-width="2.0" stroke-dasharray="none" opacity="1.0" fill="#ffffff"/><g id="ProcessOnG1089" transform="matrix(1.0,0.0,0.0,1.0,10.0,10.444444444444443)"><text id="ProcessOnText1090" fill="#000000" font-weight="bold" font-style="normal" text-decoration="blink" font-family="微软雅黑" text-anchor="middle" font-size="16" x="36.0" y="16.4">2</text></g></g><g id="ProcessOnG1091" transform="matrix(1.0,0.0,0.0,1.0,654.0,274.77777777777777)" opacity="1.0"><path id="ProcessOnPath1092" d="M0.0 0.0L92.0 0.0L92.0 40.888888888888886L0.0 40.888888888888886Z" stroke="#323232" stroke-width="2.0" stroke-dasharray="none" opacity="1.0" fill="#ffffff"/><g id="ProcessOnG1093" transform="matrix(1.0,0.0,0.0,1.0,10.0,10.444444444444443)"><text id="ProcessOnText1094" fill="#000000" font-weight="bold" font-style="normal" text-decoration="blink" font-family="微软雅黑" text-anchor="middle" font-size="16" x="36.0" y="16.4">3</text></g></g><g id="ProcessOnG1095" transform="matrix(1.0,0.0,0.0,1.0,654.0,315.66666666666663)" opacity="1.0"><path id="ProcessOnPath1096" d="M0.0 0.0L92.0 0.0L92.0 40.888888888888886L0.0 40.888888888888886Z" stroke="#323232" stroke-width="2.0" stroke-dasharray="none" opacity="1.0" fill="#ffffff"/><g id="ProcessOnG1097" transform="matrix(1.0,0.0,0.0,1.0,10.0,10.444444444444443)"><text id="ProcessOnText1098" fill="#000000" font-weight="bold" font-style="normal" text-decoration="blink" font-family="微软雅黑" text-anchor="middle" font-size="16" x="36.0" y="16.4">4</text></g></g><g id="ProcessOnG1099" transform="matrix(1.0,0.0,0.0,1.0,654.0,356.55555555555554)" opacity="1.0"><path id="ProcessOnPath1100" d="M0.0 0.0L92.0 0.0L92.0 40.888888888888886L0.0 40.888888888888886Z" stroke="#323232" stroke-width="2.0" stroke-dasharray="none" opacity="1.0" fill="#ffffff"/><g id="ProcessOnG1101" transform="matrix(1.0,0.0,0.0,1.0,10.0,10.444444444444443)"><text id="ProcessOnText1102" fill="#000000" font-weight="bold" font-style="normal" text-decoration="blink" font-family="微软雅黑" text-anchor="middle" font-size="16" x="36.0" y="16.4">5</text></g></g><g id="ProcessOnG1103" transform="matrix(1.0,0.0,0.0,1.0,654.0,397.44444444444446)" opacity="1.0"><path id="ProcessOnPath1104" d="M0.0 0.0L92.0 0.0L92.0 40.888888888888886L0.0 40.888888888888886Z" stroke="#323232" stroke-width="2.0" stroke-dasharray="none" opacity="1.0" fill="#ffffff"/><g id="ProcessOnG1105" transform="matrix(1.0,0.0,0.0,1.0,10.0,10.444444444444443)"><text id="ProcessOnText1106" fill="#000000" font-weight="bold" font-style="normal" text-decoration="blink" font-family="微软雅黑" text-anchor="middle" font-size="16" x="36.0" y="16.4">6</text></g></g><g id="ProcessOnG1107" transform="matrix(1.0,0.0,0.0,1.0,654.0,438.3333333333333)" opacity="1.0"><path id="ProcessOnPath1108" d="M0.0 0.0L92.0 0.0L92.0 40.888888888888886L0.0 40.888888888888886Z" stroke="#323232" stroke-width="2.0" stroke-dasharray="none" opacity="1.0" fill="#ffffff"/><g id="ProcessOnG1109" transform="matrix(1.0,0.0,0.0,1.0,10.0,10.444444444444443)"><text id="ProcessOnText1110" fill="#000000" font-weight="bold" font-style="normal" text-decoration="blink" font-family="微软雅黑" text-anchor="middle" font-size="16" x="36.0" y="16.4">7</text></g></g><g id="ProcessOnG1111" transform="matrix(1.0,0.0,0.0,1.0,654.0,479.22222222222223)" opacity="1.0"><path id="ProcessOnPath1112" d="M0.0 0.0L92.0 0.0L92.0 40.888888888888886L0.0 40.888888888888886Z" stroke="#323232" stroke-width="2.0" stroke-dasharray="none" opacity="1.0" fill="#ffffff"/><g id="ProcessOnG1113" transform="matrix(1.0,0.0,0.0,1.0,10.0,10.444444444444443)"><text id="ProcessOnText1114" fill="#000000" font-weight="bold" font-style="normal" text-decoration="blink" font-family="微软雅黑" text-anchor="middle" font-size="16" x="36.0" y="16.4">8</text></g></g><g id="ProcessOnG1115" transform="matrix(1.0,0.0,0.0,1.0,654.0,520.1111111111111)" opacity="1.0"><path id="ProcessOnPath1116" d="M0.0 0.0L92.0 0.0L92.0 40.888888888888886L0.0 40.888888888888886Z" stroke="#323232" stroke-width="2.0" stroke-dasharray="none" opacity="1.0" fill="#ffffff"/><g id="ProcessOnG1117" transform="matrix(1.0,0.0,0.0,1.0,10.0,10.444444444444443)"><text id="ProcessOnText1118" fill="#000000" font-weight="bold" font-style="normal" text-decoration="blink" font-family="微软雅黑" text-anchor="middle" font-size="16" x="36.0" y="16.4">9</text></g></g><g id="ProcessOnG1119"><path id="ProcessOnPath1120" d="M527.0 281.0L640.0231847969526 330.0459314604448" stroke="#323232" stroke-width="2.0" stroke-dasharray="none" fill="none" marker-end="url(#ProcessOnMarker1121)"/></g><g id="ProcessOnG1123"><path id="ProcessOnPath1124" d="M527.0 313.0L638.9110495761819 297.3344112579273" stroke="#323232" stroke-width="2.0" stroke-dasharray="none" fill="none" marker-end="url(#ProcessOnMarker1125)"/></g><g id="ProcessOnG1127"><path id="ProcessOnPath1128" d="M527.0 345.0L643.4179369141948 224.40609159544476" stroke="#323232" stroke-width="2.0" stroke-dasharray="none" fill="none" marker-end="url(#ProcessOnMarker1129)"/></g><g id="ProcessOnG1131"><path id="ProcessOnPath1132" d="M527.0 377.0L641.1899415545632 450.52913121973626" stroke="#323232" stroke-width="2.0" stroke-dasharray="none" fill="none" marker-end="url(#ProcessOnMarker1133)"/></g><g id="ProcessOnG1135"><path id="ProcessOnPath1136" d="M527.0 409.0L643.4179369141948 529.5939084045552" stroke="#323232" stroke-width="2.0" stroke-dasharray="none" fill="none" marker-end="url(#ProcessOnMarker1137)"/></g><g id="ProcessOnG1139"><path id="ProcessOnPath1140" d="M527.0 441.0L640.3939407618549 383.85659678142747" stroke="#323232" stroke-width="2.0" stroke-dasharray="none" fill="none" marker-end="url(#ProcessOnMarker1141)"/></g><g id="ProcessOnG1143" transform="matrix(1.0,0.0,0.0,1.0,580.0,123.0)" opacity="1.0"><path id="ProcessOnPath1144" d="M0.0 0.0L240.0 0.0L240.0 63.0L0.0 63.0Z" stroke="#323232" stroke-width="0.0" stroke-dasharray="none" opacity="1.0" fill="none"/><g id="ProcessOnG1145" transform="matrix(1.0,0.0,0.0,1.0,0.0,1.5)"><text id="ProcessOnText1146" fill="#000000" font-weight="bold" font-style="normal" text-decoration="blink" font-family="微软雅黑" text-anchor="middle" font-size="16" x="120.0" y="16.4">physical memory</text><text id="ProcessOnText1147" fill="#000000" font-weight="bold" font-style="normal" text-decoration="blink" font-family="微软雅黑" text-anchor="middle" font-size="16" x="120.0" y="36.4">RAM</text><text id="ProcessOnText1148" fill="#000000" font-weight="bold" font-style="normal" text-decoration="blink" font-family="微软雅黑" text-anchor="middle" font-size="16" x="120.0" y="56.4">page frame</text></g></g><g id="ProcessOnG1149" transform="matrix(1.0,0.0,0.0,1.0,330.0,631.0)" opacity="1.0"><path id="ProcessOnPath1150" d="M0.0 0.0L650.0 0.0L650.0 95.0L0.0 95.0Z" stroke="#323232" stroke-width="0.0" stroke-dasharray="none" opacity="1.0" fill="none"/><g id="ProcessOnG1151" transform="matrix(1.0,0.0,0.0,1.0,0.0,-5.0)"><text id="ProcessOnText1152" fill="#000000" font-weight="bold" font-style="normal" text-decoration="blink" font-family="微软雅黑" text-anchor="middle" font-size="28" x="325.0" y="28.700000000000003">Overview of Virtual Menmory</text><text id="ProcessOnText1153" fill="#000000" font-weight="bold" font-style="normal" text-decoration="blink" font-family="微软雅黑" text-anchor="middle" font-size="28" x="325.0" y="63.7"></text><text id="ProcessOnText1154" fill="#000000" font-weight="bold" font-style="normal" text-decoration="blink" font-family="微软雅黑" text-anchor="middle" font-size="28" x="325.0" y="98.7">                                by decaywood</text></g></g></g></g></svg>