<svg id="drawing" xmlns="http://www.w3.org/2000/svg" version="1.1" xmlns:xlink="http://www.w3.org/1999/xlink" xmlns:svgjs="http://svgjs.com/svgjs" width="651.5" height="598.609375" viewBox="63.5 70 651.5 598.609375"><defs id="SvgjsDefs1001"><marker id="SvgjsMarker1042" markerWidth="16.23606797749979" markerHeight="10.550836550532098" refX="-1" refY="3.8990363547948754" viewBox="-1 -1.3763819204711736 16.23606797749979 10.550836550532098" orient="auto" markerUnits="userSpaceOnUse"><path id="SvgjsPath1043" d="M12 3.8990363547948754L0 7.798072709589751V0Z " stroke="#323232" stroke-width="2" fill="#ffffff" transform="matrix(1,0,0,1,0,0)"></path></marker><marker id="SvgjsMarker1049" markerWidth="16.23606797749979" markerHeight="10.550836550532098" refX="-1" refY="3.8990363547948754" viewBox="-1 -1.3763819204711736 16.23606797749979 10.550836550532098" orient="auto" markerUnits="userSpaceOnUse"><path id="SvgjsPath1050" d="M12 3.8990363547948754L0 7.798072709589751V0Z " stroke="#323232" stroke-width="2" fill="#ffffff" transform="matrix(1,0,0,1,0,0)"></path></marker><marker id="SvgjsMarker1056" markerWidth="16.23606797749979" markerHeight="10.550836550532098" refX="-1" refY="3.8990363547948754" viewBox="-1 -1.3763819204711736 16.23606797749979 10.550836550532098" orient="auto" markerUnits="userSpaceOnUse"><path id="SvgjsPath1057" d="M12 3.8990363547948754L0 7.798072709589751V0Z " stroke="#323232" stroke-width="2" fill="#ffffff" transform="matrix(1,0,0,1,0,0)"></path></marker><marker id="SvgjsMarker1063" markerWidth="16.23606797749979" markerHeight="10.550836550532098" refX="-1" refY="3.8990363547948754" viewBox="-1 -1.3763819204711736 16.23606797749979 10.550836550532098" orient="auto" markerUnits="userSpaceOnUse"><path id="SvgjsPath1064" d="M12 3.8990363547948754L0 7.798072709589751V0Z " stroke="#323232" stroke-width="2" fill="#ffffff" transform="matrix(1,0,0,1,0,0)"></path></marker><marker id="SvgjsMarker1070" markerWidth="16.23606797749979" markerHeight="10.550836550532098" refX="-1" refY="3.8990363547948754" viewBox="-1 -1.3763819204711736 16.23606797749979 10.550836550532098" orient="auto" markerUnits="userSpaceOnUse"><path id="SvgjsPath1071" d="M12 3.8990363547948754L0 7.798072709589751V0Z " stroke="#323232" stroke-width="2" fill="#ffffff" transform="matrix(1,0,0,1,0,0)"></path></marker></defs><g id="SvgjsG1007"><path id="SvgjsPath1008" d="M63.5 70H715V668.609375H63.5V70Z " fill-opacity="0" fill="none"></path><g id="SvgjsG1009"><g id="SvgjsG1010" transform="translate(233 90)" opacity="1"><path id="SvgjsPath1011" d="M0 0L191 0L191 40L0 40Z " stroke-dasharray="none" stroke="#323232" stroke-width="2" fill="#ffcccc" opacity="1"></path><g id="SvgjsG1012" transform="matrix(1 0 0 1 10 9.375)" fill="#ffffff"><text id="SvgjsText1013" font-family="Microsoft Yahei,SimHei,Arial,SimSun" fill="#000000" font-size="17" font-weight="normal" font-style="normal" text-anchor="middle" text-decoration="blink" x="85.5" y="15.390625">Object - java.lang</text></g></g><g id="SvgjsG1014" transform="translate(215.125 165)" opacity="1"><path id="SvgjsPath1015" d="M0 0L226.75 0L226.75 39L0 39Z " stroke-dasharray="none" stroke="#323232" stroke-width="2" fill="#ff6666" opacity="1"></path><g id="SvgjsG1016" transform="matrix(1 0 0 1 10 8.875)" fill="#ffffff"><text id="SvgjsText1017" font-family="Microsoft Yahei,SimHei,Arial,SimSun" fill="#000000" font-size="17" font-weight="normal" font-style="normal" text-anchor="middle" text-decoration="blink" x="103.375" y="15.390625">ClassLoader - java.lang</text></g></g><g id="SvgjsG1018" transform="translate(166.5 246)" opacity="1"><path id="SvgjsPath1019" d="M0 0L324 0L324 40L0 40Z " stroke-dasharray="none" stroke="#323232" stroke-width="2" fill="#b3ff66" opacity="1"></path><g id="SvgjsG1020" transform="matrix(1 0 0 1 10 9.375)" fill="#ffffff"><text id="SvgjsText1021" font-family="Microsoft Yahei,SimHei,Arial,SimSun" fill="#000000" font-size="17" font-weight="normal" font-style="normal" text-anchor="middle" text-decoration="blink" x="152" y="15.390625">SecureClassLoader - java.security</text></g></g><g id="SvgjsG1022" transform="translate(197.25 325)" opacity="1"><path id="SvgjsPath1023" d="M0 0L262.5 0L262.5 40L0 40Z " stroke-dasharray="none" stroke="#323232" stroke-width="2" fill="#ffff99" opacity="1"></path><g id="SvgjsG1024" transform="matrix(1 0 0 1 10 9.375)" fill="#ffffff"><text id="SvgjsText1025" font-family="Microsoft Yahei,SimHei,Arial,SimSun" fill="#000000" font-size="17" font-weight="normal" font-style="normal" text-anchor="middle" text-decoration="blink" x="121.25" y="15.390625">URLClassLoader - java.net</text></g></g><g id="SvgjsG1026" transform="translate(83.5 409)" opacity="1"><path id="SvgjsPath1027" d="M0 4Q0 0 4 0L486 0Q490 0 490 4L490 102Q490 106 486 106L4 106Q0 106 0 102Z " stroke-dasharray="10 4" stroke="#323232" stroke-width="2" fill="#ccccff" opacity="1"></path><path id="SvgjsPath1028" d="M0 30L490 30 " stroke-dasharray="10 4" stroke="#323232" stroke-width="2" fill="none" opacity="1"></path><path id="SvgjsPath1029" d="M0 0L490 0L490 106L0 106Z " stroke-dasharray="0 0" stroke-width="0" stroke="#323232" fill="none" opacity="1"></path><g id="SvgjsG1030" transform="matrix(1 0 0 1 10 4.375)" fill="#ffffff"><text id="SvgjsText1031" font-family="Microsoft Yahei,SimHei,Arial,SimSun" fill="#000000" font-size="17" font-weight="bold" font-style="normal" text-anchor="middle" text-decoration="blink" x="235" y="15.390625">Launcher - sun.misc</text></g></g><g id="SvgjsG1032" transform="translate(96.75 454.5)" opacity="1"><path id="SvgjsPath1033" d="M0 0L195.25 0L195.25 44L0 44Z " stroke-dasharray="none" stroke="#323232" stroke-width="2" fill="#ffccff" opacity="1"></path><g id="SvgjsG1034" transform="matrix(1 0 0 1 10 11.375)" fill="#ffffff"><text id="SvgjsText1035" font-family="Microsoft Yahei,SimHei,Arial,SimSun" fill="#000000" font-size="17" font-weight="normal" font-style="normal" text-anchor="middle" text-decoration="blink" x="87.625" y="15.390625">ExtClassLoader</text></g></g><g id="SvgjsG1036" transform="translate(362.75 454.5)" opacity="1"><path id="SvgjsPath1037" d="M0 0L195.25 0L195.25 44L0 44Z " stroke-dasharray="none" stroke="#323232" stroke-width="2" fill="#ff99cc" opacity="1"></path><g id="SvgjsG1038" transform="matrix(1 0 0 1 10 11.375)" fill="#ffffff"><text id="SvgjsText1039" font-family="Microsoft Yahei,SimHei,Arial,SimSun" fill="#000000" font-size="17" font-weight="normal" font-style="normal" text-anchor="middle" text-decoration="blink" x="87.625" y="15.390625">AppClassLoader</text></g></g><g id="SvgjsG1040"><path id="SvgjsPath1041" d="M328.5 165L328.5 147.5L328.5 147.5L328.5 145.2360679774998 " stroke-dasharray="none" stroke="#323232" stroke-width="2" fill="none" marker-end="url(#SvgjsMarker1042)"></path><g id="SvgjsG1044" transform="matrix(1 0 0 1 328.5 146.99303398874991)"><path id="SvgjsPath1045" d="M0 0H0V0H0V0Z " fill="#ffffff" transform="translate(0 0)"></path><text id="SvgjsText1046" font-family="Microsoft Yahei,SimSun" fill="#000000" font-size="13" font-weight="normal" font-style="normal" text-anchor="middle" text-decoration="blink" x="0" y="0"></text></g></g><g id="SvgjsG1047"><path id="SvgjsPath1048" d="M328.5 246L328.5 225L328.5 225L328.5 219.2360679774998 " stroke-dasharray="none" stroke="#323232" stroke-width="2" fill="none" marker-end="url(#SvgjsMarker1049)"></path><g id="SvgjsG1051" transform="matrix(1 0 0 1 328.5 224.49303398874991)"><path id="SvgjsPath1052" d="M0 0H0V0H0V0Z " fill="#ffffff" transform="translate(0 0)"></path><text id="SvgjsText1053" font-family="Microsoft Yahei,SimSun" fill="#000000" font-size="13" font-weight="normal" font-style="normal" text-anchor="middle" text-decoration="blink" x="0" y="0"></text></g></g><g id="SvgjsG1054"><path id="SvgjsPath1055" d="M328.5 325L328.5 305.5L328.5 305.5L328.5 301.2360679774998 " stroke-dasharray="none" stroke="#323232" stroke-width="2" fill="none" marker-end="url(#SvgjsMarker1056)"></path><g id="SvgjsG1058" transform="matrix(1 0 0 1 328.5 304.99303398874986)"><path id="SvgjsPath1059" d="M0 0H0V0H0V0Z " fill="#ffffff" transform="translate(0 0)"></path><text id="SvgjsText1060" font-family="Microsoft Yahei,SimSun" fill="#000000" font-size="13" font-weight="normal" font-style="normal" text-anchor="middle" text-decoration="blink" x="0" y="0"></text></g></g><g id="SvgjsG1061"><path id="SvgjsPath1062" d="M194.375 454.5C194.375 390.00222872067593 328.5 429.49777127932407 328.5 380.2360679774998 " stroke-dasharray="none" stroke="#323232" stroke-width="2" fill="none" marker-end="url(#SvgjsMarker1063)"></path><g id="SvgjsG1065" transform="matrix(1 0 0 1 261.4375 403.52950849718746)"><path id="SvgjsPath1066" d="M0 0H0V0H0V0Z " fill="#ffffff" transform="translate(0 0)"></path><text id="SvgjsText1067" font-family="Microsoft Yahei,SimSun" fill="#000000" font-size="13" font-weight="normal" font-style="normal" text-anchor="middle" text-decoration="blink" x="0" y="0"></text></g></g><g id="SvgjsG1068"><path id="SvgjsPath1069" d="M460.375 454.5C460.375 390.7489019702405 328.5 428.7510980297595 328.5 380.2360679774998 " stroke-dasharray="none" stroke="#323232" stroke-width="2" fill="none" marker-end="url(#SvgjsMarker1070)"></path><g id="SvgjsG1072" transform="matrix(1 0 0 1 394.4375 403.52950849718746)"><path id="SvgjsPath1073" d="M0 0H0V0H0V0Z " fill="#ffffff" transform="translate(0 0)"></path><text id="SvgjsText1074" font-family="Microsoft Yahei,SimSun" fill="#000000" font-size="13" font-weight="normal" font-style="normal" text-anchor="middle" text-decoration="blink" x="0" y="0"></text></g></g><g id="SvgjsG1075" transform="translate(429 586)" opacity="1"><path id="SvgjsPath1076" d="M0 0L266 0L266 59L0 59Z " stroke-dasharray="none" stroke-width="0" stroke="#323232" fill="none" opacity="1"></path><g id="SvgjsG1077" transform="matrix(1 0 0 1 0 -6.125)" fill="#ffffff"><text id="SvgjsText1078" font-family="Microsoft Yahei,SimHei,Arial,SimSun" fill="#000000" font-size="19" font-weight="bold" font-style="normal" text-anchor="middle" text-decoration="blink" x="133" y="17.203125">JVM 类加载器继承结构</text><text id="SvgjsText1079" font-family="Microsoft Yahei,SimHei,Arial,SimSun" fill="#000000" font-size="19" font-weight="bold" font-style="normal" text-anchor="middle" text-decoration="blink" x="133" y="23.75"></text><text id="SvgjsText1080" font-family="Microsoft Yahei,SimHei,Arial,SimSun" fill="#000000" font-size="19" font-weight="bold" font-style="normal" text-anchor="middle" text-decoration="blink" x="133" y="64.703125">by decaywood</text></g></g></g></g></svg>