<svg id="drawing" xmlns="http://www.w3.org/2000/svg" version="1.1" xmlns:xlink="http://www.w3.org/1999/xlink" xmlns:svgjs="http://svgjs.com/svgjs" width="876" height="665.375" viewBox="81 86 876 665.375"><defs id="SvgjsDefs1001"><marker id="SvgjsMarker1030" markerWidth="16.23606797749979" markerHeight="10.550836550532098" refX="-1" refY="3.8990363547948754" viewBox="-1 -1.3763819204711736 16.23606797749979 10.550836550532098" orient="auto" markerUnits="userSpaceOnUse"><path id="SvgjsPath1031" d="M12 3.8990363547948754L0 7.798072709589751V0Z " stroke="#323232" stroke-width="2" fill="#323232" transform="matrix(1,0,0,1,0,0)"></path></marker><marker id="SvgjsMarker1037" markerWidth="16.23606797749979" markerHeight="10.550836550532098" refX="-1" refY="3.8990363547948754" viewBox="-1 -1.3763819204711736 16.23606797749979 10.550836550532098" orient="auto" markerUnits="userSpaceOnUse"><path id="SvgjsPath1038" d="M12 3.8990363547948754L0 7.798072709589751V0Z " stroke="#323232" stroke-width="2" fill="#323232" transform="matrix(1,0,0,1,0,0)"></path></marker><marker id="SvgjsMarker1044" markerWidth="16.23606797749979" markerHeight="10.550836550532098" refX="-1" refY="3.8990363547948754" viewBox="-1 -1.3763819204711736 16.23606797749979 10.550836550532098" orient="auto" markerUnits="userSpaceOnUse"><path id="SvgjsPath1045" d="M12 3.8990363547948754L0 7.798072709589751V0Z " stroke="#323232" stroke-width="2" fill="#323232" transform="matrix(1,0,0,1,0,0)"></path></marker><marker id="SvgjsMarker1051" markerWidth="16.23606797749979" markerHeight="10.550836550532098" refX="-1" refY="3.8990363547948754" viewBox="-1 -1.3763819204711736 16.23606797749979 10.550836550532098" orient="auto" markerUnits="userSpaceOnUse"><path id="SvgjsPath1052" d="M12 3.8990363547948754L0 7.798072709589751V0Z " stroke="#323232" stroke-width="2" fill="#323232" transform="matrix(1,0,0,1,0,0)"></path></marker><marker id="SvgjsMarker1062" markerWidth="16.23606797749979" markerHeight="10.550836550532098" refX="15.23606797749979" refY="3.8990363547948754" viewBox="-1 -1.3763819204711736 16.23606797749979 10.550836550532098" orient="auto" markerUnits="userSpaceOnUse"><path id="SvgjsPath1063" d="M12 3.8990363547948754L0 7.798072709589751V0Z " stroke="#323232" stroke-width="2" fill="#323232" transform="matrix(-1,1.2246467991473532e-16,-1.2246467991473532e-16,-1,14.23606797749979,7.798072709589751)"></path></marker><marker id="SvgjsMarker1069" markerWidth="16.23606797749979" markerHeight="10.550836550532098" refX="15.23606797749979" refY="3.8990363547948754" viewBox="-1 -1.3763819204711736 16.23606797749979 10.550836550532098" orient="auto" markerUnits="userSpaceOnUse"><path id="SvgjsPath1070" d="M12 3.8990363547948754L0 7.798072709589751V0Z " stroke="#323232" stroke-width="2" fill="#323232" transform="matrix(-1,1.2246467991473532e-16,-1.2246467991473532e-16,-1,14.23606797749979,7.798072709589751)"></path></marker><marker id="SvgjsMarker1076" markerWidth="16.23606797749979" markerHeight="10.550836550532098" refX="15.23606797749979" refY="3.8990363547948754" viewBox="-1 -1.3763819204711736 16.23606797749979 10.550836550532098" orient="auto" markerUnits="userSpaceOnUse"><path id="SvgjsPath1077" d="M12 3.8990363547948754L0 7.798072709589751V0Z " stroke="#323232" stroke-width="2" fill="#323232" transform="matrix(-1,1.2246467991473532e-16,-1.2246467991473532e-16,-1,14.23606797749979,7.798072709589751)"></path></marker><marker id="SvgjsMarker1083" markerWidth="16.23606797749979" markerHeight="10.550836550532098" refX="15.23606797749979" refY="3.8990363547948754" viewBox="-1 -1.3763819204711736 16.23606797749979 10.550836550532098" orient="auto" markerUnits="userSpaceOnUse"><path id="SvgjsPath1084" d="M12 3.8990363547948754L0 7.798072709589751V0Z " stroke="#323232" stroke-width="2" fill="#323232" transform="matrix(-1,1.2246467991473532e-16,-1.2246467991473532e-16,-1,14.23606797749979,7.798072709589751)"></path></marker><marker id="SvgjsMarker1096" markerWidth="16.23606797749979" markerHeight="10.550836550532098" refX="-1" refY="3.8990363547948754" viewBox="-1 -1.3763819204711736 16.23606797749979 10.550836550532098" orient="auto" markerUnits="userSpaceOnUse"><path id="SvgjsPath1097" d="M12 3.8990363547948754L0 7.798072709589751V0Z " stroke="#323232" stroke-width="2" fill="#323232" transform="matrix(1,0,0,1,0,0)"></path></marker><marker id="SvgjsMarker1111" markerWidth="16.23606797749979" markerHeight="10.550836550532098" refX="-1" refY="3.8990363547948754" viewBox="-1 -1.3763819204711736 16.23606797749979 10.550836550532098" orient="auto" markerUnits="userSpaceOnUse"><path id="SvgjsPath1112" d="M12 3.8990363547948754L0 7.798072709589751V0Z " stroke="#323232" stroke-width="2" fill="#ffffff" transform="matrix(1,0,0,1,0,0)"></path></marker><marker id="SvgjsMarker1122" markerWidth="16.23606797749979" markerHeight="10.550836550532098" refX="-1" refY="3.8990363547948754" viewBox="-1 -1.3763819204711736 16.23606797749979 10.550836550532098" orient="auto" markerUnits="userSpaceOnUse"><path id="SvgjsPath1123" d="M12 3.8990363547948754L0 7.798072709589751V0Z " stroke="#323232" stroke-width="2" fill="#323232" transform="matrix(1,0,0,1,0,0)"></path></marker><marker id="SvgjsMarker1129" markerWidth="16.23606797749979" markerHeight="10.550836550532098" refX="-1" refY="3.8990363547948754" viewBox="-1 -1.3763819204711736 16.23606797749979 10.550836550532098" orient="auto" markerUnits="userSpaceOnUse"><path id="SvgjsPath1130" d="M12 3.8990363547948754L0 7.798072709589751V0Z " stroke="#323232" stroke-width="2" fill="#323232" transform="matrix(1,0,0,1,0,0)"></path></marker><marker id="SvgjsMarker1136" markerWidth="16.23606797749979" markerHeight="10.550836550532098" refX="-1" refY="3.8990363547948754" viewBox="-1 -1.3763819204711736 16.23606797749979 10.550836550532098" orient="auto" markerUnits="userSpaceOnUse"><path id="SvgjsPath1137" d="M12 3.8990363547948754L0 7.798072709589751V0Z " stroke="#323232" stroke-width="2" fill="#323232" transform="matrix(1,0,0,1,0,0)"></path></marker><marker id="SvgjsMarker1143" markerWidth="16.23606797749979" markerHeight="10.550836550532098" refX="-1" refY="3.8990363547948754" viewBox="-1 -1.3763819204711736 16.23606797749979 10.550836550532098" orient="auto" markerUnits="userSpaceOnUse"><path id="SvgjsPath1144" d="M12 3.8990363547948754L0 7.798072709589751V0Z " stroke="#323232" stroke-width="2" fill="#323232" transform="matrix(1,0,0,1,0,0)"></path></marker><marker id="SvgjsMarker1150" markerWidth="16.23606797749979" markerHeight="10.550836550532098" refX="-1" refY="3.8990363547948754" viewBox="-1 -1.3763819204711736 16.23606797749979 10.550836550532098" orient="auto" markerUnits="userSpaceOnUse"><path id="SvgjsPath1151" d="M12 3.8990363547948754L0 7.798072709589751V0Z " stroke="#323232" stroke-width="2" fill="#323232" transform="matrix(1,0,0,1,0,0)"></path></marker></defs><g id="SvgjsG1007"><path id="SvgjsPath1008" d="M81 86H957V751.375H81V86Z " fill-opacity="0" fill="none"></path><g id="SvgjsG1009"><g id="SvgjsG1010" transform="translate(224 106)" opacity="1"><path id="SvgjsPath1011" d="M0 0L171 0L171 38L0 38Z " stroke-dasharray="none" stroke="#323232" stroke-width="2" fill="#ffcc99" opacity="1"></path><g id="SvgjsG1012" transform="matrix(1 0 0 1 10 10.875)" fill="#ffffff"><text id="SvgjsText1013" font-family="Microsoft Yahei,SimHei,Arial,SimSun" fill="#000000" font-size="13" font-weight="normal" font-style="normal" text-anchor="middle" text-decoration="blink" x="75.5" y="11.78125">Web Browser 1</text></g></g><g id="SvgjsG1014" transform="translate(440 106)" opacity="1"><path id="SvgjsPath1015" d="M0 0L171 0L171 38L0 38Z " stroke-dasharray="none" stroke="#323232" stroke-width="2" fill="#ffcc99" opacity="1"></path><g id="SvgjsG1016" transform="matrix(1 0 0 1 10 10.875)" fill="#ffffff"><text id="SvgjsText1017" font-family="Microsoft Yahei,SimHei,Arial,SimSun" fill="#000000" font-size="13" font-weight="normal" font-style="normal" text-anchor="middle" text-decoration="blink" x="75.5" y="11.78125">Web Browser 2</text></g></g><g id="SvgjsG1018" transform="translate(537 170)" opacity="1"><path id="SvgjsPath1019" d="M0 0L171 0L171 38L0 38Z " stroke-dasharray="none" stroke="#323232" stroke-width="2" fill="#ffcc99" opacity="1"></path><g id="SvgjsG1020" transform="matrix(1 0 0 1 10 10.875)" fill="#ffffff"><text id="SvgjsText1021" font-family="Microsoft Yahei,SimHei,Arial,SimSun" fill="#000000" font-size="13" font-weight="normal" font-style="normal" text-anchor="middle" text-decoration="blink" x="75.5" y="11.78125">Web Browser 3</text></g></g><g id="SvgjsG1022" transform="translate(101 176)" opacity="1"><path id="SvgjsPath1023" d="M0 0L171 0L171 38L0 38Z " stroke-dasharray="none" stroke="#323232" stroke-width="2" fill="#ffcc99" opacity="1"></path><g id="SvgjsG1024" transform="matrix(1 0 0 1 10 10.875)" fill="#ffffff"><text id="SvgjsText1025" font-family="Microsoft Yahei,SimHei,Arial,SimSun" fill="#000000" font-size="13" font-weight="normal" font-style="normal" text-anchor="middle" text-decoration="blink" x="75.5" y="11.78125">Web Browser 4</text></g></g><g id="SvgjsG1026" transform="translate(144 300)" opacity="1"><path id="SvgjsPath1027" d="M0 4Q0 0 4 0L541 0Q545 0 545 4L545 310Q545 314 541 314L4 314Q0 314 0 310Z " stroke-dasharray="none" stroke="#323232" stroke-width="2" fill="#ffe6cc" opacity="1"></path></g><g id="SvgjsG1028"><path id="SvgjsPath1029" d="M186.5 214C186.5 252.19581128867407 228 261.80418871132593 228 284.7639320225002 " stroke-dasharray="none" stroke="#323232" stroke-width="2" fill="none" marker-end="url(#SvgjsMarker1030)"></path><g id="SvgjsG1032" transform="matrix(1 0 0 1 207.25 246.97049150281254)" fill="#ffffff"><path id="SvgjsPath1033" d="M0 0H63.5625V15H0V0Z " fill="#ffffff" transform="translate(-31.78125 0)"></path><text id="SvgjsText1034" font-family="Microsoft Yahei,SimSun" fill="#000000" font-size="13" font-weight="normal" font-style="normal" text-anchor="middle" text-decoration="blink" x="0" y="11.75">connection1</text></g></g><g id="SvgjsG1035"><path id="SvgjsPath1036" d="M309.5 144C309.5 207.29391755927264 336 236.70608244072736 336 284.7639320225002 " stroke-dasharray="none" stroke="#323232" stroke-width="2" fill="none" marker-end="url(#SvgjsMarker1037)"></path><g id="SvgjsG1039" transform="matrix(1 0 0 1 322.75 211.97049150281254)" fill="#ffffff"><path id="SvgjsPath1040" d="M0 0H63.5625V15H0V0Z " fill="#ffffff" transform="translate(-31.78125 0)"></path><text id="SvgjsText1041" font-family="Microsoft Yahei,SimSun" fill="#000000" font-size="13" font-weight="normal" font-style="normal" text-anchor="middle" text-decoration="blink" x="0" y="11.75">connection2</text></g></g><g id="SvgjsG1042"><path id="SvgjsPath1043" d="M525.5 144C525.5 208.27223350716855 487 235.72776649283145 487 284.7639320225002 " stroke-dasharray="none" stroke="#323232" stroke-width="2" fill="none" marker-end="url(#SvgjsMarker1044)"></path><g id="SvgjsG1046" transform="matrix(1 0 0 1 506.25 211.97049150281254)" fill="#ffffff"><path id="SvgjsPath1047" d="M0 0H63.5625V15H0V0Z " fill="#ffffff" transform="translate(-31.78125 0)"></path><text id="SvgjsText1048" font-family="Microsoft Yahei,SimSun" fill="#000000" font-size="13" font-weight="normal" font-style="normal" text-anchor="middle" text-decoration="blink" x="0" y="11.75">connection3</text></g></g><g id="SvgjsG1049"><path id="SvgjsPath1050" d="M622.5 208C622.5 246.76957570054128 592 261.2304242994587 592 284.7639320225002 " stroke-dasharray="none" stroke="#323232" stroke-width="2" fill="none" marker-end="url(#SvgjsMarker1051)"></path><g id="SvgjsG1053" transform="matrix(1 0 0 1 607.25 243.97049150281254)" fill="#ffffff"><path id="SvgjsPath1054" d="M0 0H63.5625V15H0V0Z " fill="#ffffff" transform="translate(-31.78125 0)"></path><text id="SvgjsText1055" font-family="Microsoft Yahei,SimSun" fill="#000000" font-size="13" font-weight="normal" font-style="normal" text-anchor="middle" text-decoration="blink" x="0" y="11.75">connection4</text></g></g><g id="SvgjsG1056" transform="translate(551.5 382)" opacity="1"><path id="SvgjsPath1057" d="M0 0L100 0L100 70L0 70Z " stroke-dasharray="none" stroke="#323232" stroke-width="2" fill="#ff9999" opacity="1"></path><g id="SvgjsG1058" transform="matrix(1 0 0 1 10 26.875)" fill="#ffffff"><text id="SvgjsText1059" font-family="Microsoft Yahei,SimHei,Arial,SimSun" fill="#000000" font-size="13" font-weight="normal" font-style="normal" text-anchor="middle" text-decoration="blink" x="40" y="11.78125">Acceptor</text></g></g><g id="SvgjsG1060"><path id="SvgjsPath1061" d="M586.8229183876475 377.9108628343695C501 354 314 388 229 300 " stroke-dasharray="none" stroke="#323232" stroke-width="2" fill="none" marker-start="url(#SvgjsMarker1062)"></path><g id="SvgjsG1064" transform="matrix(1 0 0 1 407.6028647984559 354.86385785429616)" fill="#ffffff"><path id="SvgjsPath1065" d="M0 0H0V0H0V0Z " fill="#ffffff" transform="translate(0 0)"></path><text id="SvgjsText1066" font-family="Microsoft Yahei,SimSun" fill="#000000" font-size="13" font-weight="normal" font-style="normal" text-anchor="middle" text-decoration="blink" x="0" y="0"></text></g></g><g id="SvgjsG1067"><path id="SvgjsPath1068" d="M586.6248110691388 378.70355923969834C421 342 411 358 336 300 " stroke-dasharray="none" stroke="#323232" stroke-width="2" fill="none" marker-start="url(#SvgjsMarker1069)"></path><g id="SvgjsG1071" transform="matrix(1 0 0 1 427.3281013836423 339.2129449049623)" fill="#ffffff"><path id="SvgjsPath1072" d="M0 0H0V0H0V0Z " fill="#ffffff" transform="translate(0 0)"></path><text id="SvgjsText1073" font-family="Microsoft Yahei,SimSun" fill="#000000" font-size="13" font-weight="normal" font-style="normal" text-anchor="middle" text-decoration="blink" x="0" y="0"></text></g></g><g id="SvgjsG1074"><path id="SvgjsPath1075" d="M587.2159520270684 376.69870384509755C553 364 486 382 488 300 " stroke-dasharray="none" stroke="#323232" stroke-width="2" fill="none" marker-start="url(#SvgjsMarker1076)"></path><g id="SvgjsG1078" transform="matrix(1 0 0 1 524.0269940033836 356.2123379806372)" fill="#ffffff"><path id="SvgjsPath1079" d="M0 0H0V0H0V0Z " fill="#ffffff" transform="translate(0 0)"></path><text id="SvgjsText1080" font-family="Microsoft Yahei,SimSun" fill="#000000" font-size="13" font-weight="normal" font-style="normal" text-anchor="middle" text-decoration="blink" x="0" y="0"></text></g></g><g id="SvgjsG1081"><path id="SvgjsPath1082" d="M601.5 366.7639320225002C601.5 348.9806117561212 594 314 592 300 " stroke-dasharray="none" stroke="#323232" stroke-width="2" fill="none" marker-start="url(#SvgjsMarker1083)"></path><g id="SvgjsG1085" transform="matrix(1 0 0 1 597.5 323.838220911358)" fill="#ffffff"><path id="SvgjsPath1086" d="M0 0H0V0H0V0Z " fill="#ffffff" transform="translate(0 0)"></path><text id="SvgjsText1087" font-family="Microsoft Yahei,SimSun" fill="#000000" font-size="13" font-weight="normal" font-style="normal" text-anchor="middle" text-decoration="blink" x="0" y="0"></text></g></g><g id="SvgjsG1088" transform="translate(595 690)" opacity="1"><path id="SvgjsPath1089" d="M0 0L342 0L342 20L0 20Z " stroke-dasharray="none" stroke-width="0" stroke="#323232" fill="none" opacity="1"></path><g id="SvgjsG1090" transform="matrix(1 0 0 1 0 -23.75)" fill="#ffffff"><text id="SvgjsText1091" font-family="Microsoft Yahei,SimHei,Arial,SimSun" fill="#000000" font-size="18" font-weight="bold" font-style="normal" text-anchor="middle" text-decoration="blink" x="171" y="16.296875"> 伪异步IO服务端通信模型（M：N）</text><text id="SvgjsText1092" font-family="Microsoft Yahei,SimHei,Arial,SimSun" fill="#000000" font-size="18" font-weight="bold" font-style="normal" text-anchor="middle" text-decoration="blink" x="171" y="22.5"></text><text id="SvgjsText1093" font-family="Microsoft Yahei,SimHei,Arial,SimSun" fill="#000000" font-size="18" font-weight="bold" font-style="normal" text-anchor="middle" text-decoration="blink" x="171" y="61.296875">                                      by decaywood</text></g></g><g id="SvgjsG1094"><path id="SvgjsPath1095" d="M551.5 417C513.46159835114 417 556.03840164886 506 533.2360679774998 506 " stroke-dasharray="none" stroke="#323232" stroke-width="2" fill="none" marker-end="url(#SvgjsMarker1096)"></path><g id="SvgjsG1098" transform="matrix(1 0 0 1 536.6545084971875 453.375)" fill="#ffffff"><path id="SvgjsPath1099" d="M0 0H0V0H0V0Z " fill="#ffffff" transform="translate(0 0)"></path><text id="SvgjsText1100" font-family="Microsoft Yahei,SimSun" fill="#000000" font-size="13" font-weight="normal" font-style="normal" text-anchor="middle" text-decoration="blink" x="0" y="0"></text></g></g><g id="SvgjsG1101" transform="translate(409 484.5)" opacity="1"><path id="SvgjsPath1102" d="M0 0L109 0L109 43L0 43Z " stroke-dasharray="none" stroke="#323232" stroke-width="2" fill="#ff99cc" opacity="1"></path><g id="SvgjsG1103" transform="matrix(1 0 0 1 10 13.375)" fill="#ffffff"><text id="SvgjsText1104" font-family="Microsoft Yahei,SimHei,Arial,SimSun" fill="#000000" font-size="13" font-weight="normal" font-style="normal" text-anchor="middle" text-decoration="blink" x="44.5" y="11.78125">Task</text></g></g><g id="SvgjsG1105" transform="translate(409 396.5)" opacity="1"><path id="SvgjsPath1106" d="M0 0L109 0L109 41L0 41Z " stroke-dasharray="none" stroke="#323232" stroke-width="2" fill="#9999ff" opacity="1"></path><g id="SvgjsG1107" transform="matrix(1 0 0 1 10 12.375)" fill="#ffffff"><text id="SvgjsText1108" font-family="Microsoft Yahei,SimHei,Arial,SimSun" fill="#000000" font-size="13" font-weight="normal" font-style="normal" text-anchor="middle" text-decoration="blink" x="44.5" y="11.78125">Runnable</text></g></g><g id="SvgjsG1109"><path id="SvgjsPath1110" d="M463.5 484.5C463.5 465.7 463.5 456.3 463.5 452.7360679774998 " stroke-dasharray="none" stroke="#323232" stroke-width="2" fill="none" marker-end="url(#SvgjsMarker1111)"></path><g id="SvgjsG1113" transform="matrix(1 0 0 1 463.5 454.77950849718746)" fill="#ffffff"><path id="SvgjsPath1114" d="M0 0H0V0H0V0Z " fill="#ffffff" transform="translate(0 0)"></path><text id="SvgjsText1115" font-family="Microsoft Yahei,SimSun" fill="#000000" font-size="13" font-weight="normal" font-style="normal" text-anchor="middle" text-decoration="blink" x="0" y="0"></text></g></g><g id="SvgjsG1116" transform="translate(169 420)" opacity="1"><path id="SvgjsPath1117" d="M0 40C0 -13.333333333333334 158 -13.333333333333334 158 40C158 93.33333333333333 0 93.33333333333333 0 40Z " stroke-dasharray="none" stroke="#323232" stroke-width="2" fill="#ff6666" opacity="1"></path><g id="SvgjsG1118" transform="matrix(1 0 0 1 10 31.875)" fill="#ffffff"><text id="SvgjsText1119" font-family="Microsoft Yahei,SimHei,Arial,SimSun" fill="#000000" font-size="13" font-weight="normal" font-style="normal" text-anchor="middle" text-decoration="blink" x="69" y="11.78125">Thread Pool</text></g></g><g id="SvgjsG1120"><path id="SvgjsPath1121" d="M409 506C371.3914903246619 506 364.6085096753381 460 342.2360679774998 460 " stroke-dasharray="none" stroke="#323232" stroke-width="2" fill="none" marker-end="url(#SvgjsMarker1122)"></path><g id="SvgjsG1124" transform="matrix(1 0 0 1 369.90450849718746 474.875)" fill="#ffffff"><path id="SvgjsPath1125" d="M0 0H0V0H0V0Z " fill="#ffffff" transform="translate(0 0)"></path><text id="SvgjsText1126" font-family="Microsoft Yahei,SimSun" fill="#000000" font-size="13" font-weight="normal" font-style="normal" text-anchor="middle" text-decoration="blink" x="0" y="0"></text></g></g><g id="SvgjsG1127"><path id="SvgjsPath1128" d="M248 420L190.8585423353147 228.59934505812723 " stroke-dasharray="2 3" stroke="#323232" stroke-width="2" fill="none" marker-end="url(#SvgjsMarker1129)"></path><g id="SvgjsG1131" transform="matrix(1 0 0 1 276.57072883234264 507.5753274709364)" fill="#ffffff"><path id="SvgjsPath1132" d="M0 0H0V0H0V0Z " fill="#ffffff" transform="translate(0 0)"></path><text id="SvgjsText1133" font-family="Microsoft Yahei,SimSun" fill="#000000" font-size="13" font-weight="normal" font-style="normal" text-anchor="middle" text-decoration="blink" x="0" y="0"></text></g></g><g id="SvgjsG1134"><path id="SvgjsPath1135" d="M248 420L306.1862756641695 158.87134823884907 " stroke-dasharray="2 3" stroke="#323232" stroke-width="2" fill="none" marker-end="url(#SvgjsMarker1136)"></path><g id="SvgjsG1138" transform="matrix(1 0 0 1 277.0931378320847 542.4393258805754)" fill="#ffffff"><path id="SvgjsPath1139" d="M0 0H0V0H0V0Z " fill="#ffffff" transform="translate(0 0)"></path><text id="SvgjsText1140" font-family="Microsoft Yahei,SimSun" fill="#000000" font-size="13" font-weight="normal" font-style="normal" text-anchor="middle" text-decoration="blink" x="0" y="0"></text></g></g><g id="SvgjsG1141"><path id="SvgjsPath1142" d="M248 420L514.6973161331102 154.74429098112273 " stroke-dasharray="2 3" stroke="#323232" stroke-width="2" fill="none" marker-end="url(#SvgjsMarker1143)"></path><g id="SvgjsG1145" transform="matrix(1 0 0 1 381.3486580665551 544.5028545094386)" fill="#ffffff"><path id="SvgjsPath1146" d="M0 0H0V0H0V0Z " fill="#ffffff" transform="translate(0 0)"></path><text id="SvgjsText1147" font-family="Microsoft Yahei,SimSun" fill="#000000" font-size="13" font-weight="normal" font-style="normal" text-anchor="middle" text-decoration="blink" x="0" y="0"></text></g></g><g id="SvgjsG1148"><path id="SvgjsPath1149" d="M248 420L609.240993775296 215.50576587353066 " stroke-dasharray="2 3" stroke="#323232" stroke-width="2" fill="none" marker-end="url(#SvgjsMarker1150)"></path><g id="SvgjsG1152" transform="matrix(1 0 0 1 428.620496887648 514.1221170632347)" fill="#ffffff"><path id="SvgjsPath1153" d="M0 0H0V0H0V0Z " fill="#ffffff" transform="translate(0 0)"></path><text id="SvgjsText1154" font-family="Microsoft Yahei,SimSun" fill="#000000" font-size="13" font-weight="normal" font-style="normal" text-anchor="middle" text-decoration="blink" x="0" y="0"></text></g></g></g></g></svg>