<svg id="drawing" xmlns="http://www.w3.org/2000/svg" version="1.1" xmlns:xlink="http://www.w3.org/1999/xlink" xmlns:svgjs="http://svgjs.com/svgjs" width="933" height="686.3333740234375" viewBox="60 125 933 686.3333740234375"><defs id="SvgjsDefs1001"><marker id="SvgjsMarker1030" markerWidth="16.23606797749979" markerHeight="10.550836550532098" refX="-1" refY="3.8990363547948754" viewBox="-1 -1.3763819204711736 16.23606797749979 10.550836550532098" orient="auto" markerUnits="userSpaceOnUse"><path id="SvgjsPath1031" d="M12 3.8990363547948754L0 7.798072709589751V0Z " stroke="#323232" stroke-width="2" fill="#323232" transform="matrix(1,0,0,1,0,0)"></path></marker><marker id="SvgjsMarker1038" markerWidth="16.23606797749979" markerHeight="10.550836550532098" refX="-1" refY="3.8990363547948754" viewBox="-1 -1.3763819204711736 16.23606797749979 10.550836550532098" orient="auto" markerUnits="userSpaceOnUse"><path id="SvgjsPath1039" d="M12 3.8990363547948754L0 7.798072709589751V0Z " stroke="#323232" stroke-width="2" fill="#323232" transform="matrix(1,0,0,1,0,0)"></path></marker><marker id="SvgjsMarker1058" markerWidth="16.23606797749979" markerHeight="10.550836550532098" refX="-1" refY="3.8990363547948754" viewBox="-1 -1.3763819204711736 16.23606797749979 10.550836550532098" orient="auto" markerUnits="userSpaceOnUse"><path id="SvgjsPath1059" d="M12 3.8990363547948754L0 7.798072709589751V0Z " stroke="#323232" stroke-width="2" fill="#323232" transform="matrix(1,0,0,1,0,0)"></path></marker><marker id="SvgjsMarker1066" markerWidth="16.23606797749979" markerHeight="10.550836550532098" refX="-1" refY="3.8990363547948754" viewBox="-1 -1.3763819204711736 16.23606797749979 10.550836550532098" orient="auto" markerUnits="userSpaceOnUse"><path id="SvgjsPath1067" d="M12 3.8990363547948754L0 7.798072709589751V0Z " stroke="#323232" stroke-width="2" fill="#323232" transform="matrix(1,0,0,1,0,0)"></path></marker><marker id="SvgjsMarker1085" markerWidth="16.23606797749979" markerHeight="10.550836550532098" refX="-1" refY="3.8990363547948754" viewBox="-1 -1.3763819204711736 16.23606797749979 10.550836550532098" orient="auto" markerUnits="userSpaceOnUse"><path id="SvgjsPath1086" d="M12 3.8990363547948754L0 7.798072709589751V0Z " stroke="#323232" stroke-width="2" fill="#323232" transform="matrix(1,0,0,1,0,0)"></path></marker></defs><g id="SvgjsG1007"><path id="SvgjsPath1008" d="M60 125H993V811.3333740234375H60V125Z " fill-opacity="0" fill="none"></path><g id="SvgjsG1009"><g id="SvgjsG1010" transform="translate(137 145)" opacity="1"><path id="SvgjsPath1011" d="M0 4Q0 0 4 0L335 0Q339 0 339 4L339 229Q339 233 335 233L4 233Q0 233 0 229Z " stroke-dasharray="none" stroke="#323232" stroke-width="2" fill="#e5ccff" opacity="1"></path><path id="SvgjsPath1012" d="M0 30L339 30 " stroke-dasharray="none" stroke="#323232" stroke-width="2" fill="none" opacity="1"></path><path id="SvgjsPath1013" d="M0 0L339 0L339 233L0 233Z " stroke-dasharray="none" stroke-width="0" stroke="#323232" fill="none" opacity="1"></path><g id="SvgjsG1014" transform="matrix(1 0 0 1 10 5)" fill="#ffffff"><text id="SvgjsText1015" font-family="Microsoft Yahei,SimHei,Arial,SimSun" fill="#000000" font-size="16" font-weight="bold" font-style="normal" text-anchor="middle" text-decoration="blink" x="159.5" y="14.484375">call stack</text></g></g><g id="SvgjsG1016" transform="translate(152 185)" opacity="1"><path id="SvgjsPath1017" d="M0 0L314 0L314 40L0 40Z " stroke-dasharray="none" stroke="#323232" stroke-width="2" fill="#99ffcc" opacity="1"></path><g id="SvgjsG1018" transform="matrix(1 0 0 1 10 10)" fill="#ffffff"><text id="SvgjsText1019" font-family="Microsoft Yahei,SimHei,Arial,SimSun" fill="#000000" font-size="16" font-weight="normal" font-style="normal" text-anchor="middle" text-decoration="blink" x="147" y="14.484375">func3: request Google (top)</text></g></g><g id="SvgjsG1020" transform="translate(415 663)" opacity="1"><path id="SvgjsPath1021" d="M0 55C0 -18.333333333333332 246 -18.333333333333332 246 55C246 128.33333333333334 0 128.33333333333334 0 55Z " stroke-dasharray="none" stroke="#323232" stroke-width="2" fill="#ff8000" opacity="1"></path><g id="SvgjsG1022" transform="matrix(1 0 0 1 10 45)" fill="#ffffff"><text id="SvgjsText1023" font-family="Microsoft Yahei,SimHei,Arial,SimSun" fill="#000000" font-size="16" font-weight="normal" font-style="normal" text-anchor="middle" text-decoration="blink" x="113" y="14.484375">Event Loop</text></g></g><g id="SvgjsG1024" transform="translate(80 542)" opacity="1"><path id="SvgjsPath1025" d="M0 0L215 0L215 78L0 78Z " stroke-dasharray="none" stroke="#323232" stroke-width="2" fill="#ccff99" opacity="1"></path><g id="SvgjsG1026" transform="matrix(1 0 0 1 10 29)" fill="#ffffff"><text id="SvgjsText1027" font-family="Microsoft Yahei,SimHei,Arial,SimSun" fill="#000000" font-size="16" font-weight="normal" font-style="normal" text-anchor="middle" text-decoration="blink" x="97.5" y="14.484375">message -&gt; init_func</text></g></g><g id="SvgjsG1028"><path id="SvgjsPath1029" d="M415 718C342.1505662341841 718 367.8494337658159 581 310.2360679774998 581 " stroke-dasharray="none" stroke="#323232" stroke-width="2" fill="none" marker-end="url(#SvgjsMarker1030)"></path><g id="SvgjsG1032" transform="matrix(1 0 0 1 356.90450849718746 629.5)"><path id="SvgjsPath1033" d="M0 0H84V38.5H0V0Z " fill="#ffffff" transform="translate(-42 0)"></path><text id="SvgjsText1034" font-family="Microsoft Yahei,SimSun" fill="#000000" font-size="16" font-weight="normal" font-style="normal" text-anchor="middle" text-decoration="blink" x="0" y="14.5">dequeue the</text><text id="SvgjsText1035" font-family="Microsoft Yahei,SimSun" fill="#000000" font-size="16" font-weight="normal" font-style="normal" text-anchor="middle" text-decoration="blink" x="0" y="34.5"> first message</text></g></g><g id="SvgjsG1036"><path id="SvgjsPath1037" d="M187.5 542C187.5 468.2043361707478 272 451.7956638292522 272 393.2360679774998 " stroke-dasharray="none" stroke="#323232" stroke-width="2" fill="none" marker-end="url(#SvgjsMarker1038)"></path><g id="SvgjsG1040" transform="matrix(1 0 0 1 229.75 441.90450849718746)"><path id="SvgjsPath1041" d="M0 0H129.71875V38.5H0V0Z " fill="#ffffff" transform="translate(-64.859375 0)"></path><text id="SvgjsText1042" font-family="Microsoft Yahei,SimSun" fill="#000000" font-size="16" font-weight="normal" font-style="normal" text-anchor="middle" text-decoration="blink" x="0" y="14.5">execute the callback</text><text id="SvgjsText1043" font-family="Microsoft Yahei,SimSun" fill="#000000" font-size="16" font-weight="normal" font-style="normal" text-anchor="middle" text-decoration="blink" x="0" y="34.5"> bundle with it</text></g></g><g id="SvgjsG1044" transform="translate(152 233)" opacity="1"><path id="SvgjsPath1045" d="M0 0L314 0L314 40L0 40Z " stroke-dasharray="none" stroke="#323232" stroke-width="2" fill="#ffff99" opacity="1"></path><g id="SvgjsG1046" transform="matrix(1 0 0 1 10 10)" fill="#ffffff"><text id="SvgjsText1047" font-family="Microsoft Yahei,SimHei,Arial,SimSun" fill="#000000" font-size="16" font-weight="normal" font-style="normal" text-anchor="middle" text-decoration="blink" x="147" y="14.484375">func2</text></g></g><g id="SvgjsG1048" transform="translate(152 282)" opacity="1"><path id="SvgjsPath1049" d="M0 0L314 0L314 40L0 40Z " stroke-dasharray="none" stroke="#323232" stroke-width="2" fill="#ff6666" opacity="1"></path><g id="SvgjsG1050" transform="matrix(1 0 0 1 10 10)" fill="#ffffff"><text id="SvgjsText1051" font-family="Microsoft Yahei,SimHei,Arial,SimSun" fill="#000000" font-size="16" font-weight="normal" font-style="normal" text-anchor="middle" text-decoration="blink" x="147" y="14.484375">func1</text></g></g><g id="SvgjsG1052" transform="translate(152 330)" opacity="1"><path id="SvgjsPath1053" d="M0 0L314 0L314 40L0 40Z " stroke-dasharray="none" stroke="#323232" stroke-width="2" fill="#ffe6cc" opacity="1"></path><g id="SvgjsG1054" transform="matrix(1 0 0 1 10 10)" fill="#ffffff"><text id="SvgjsText1055" font-family="Microsoft Yahei,SimHei,Arial,SimSun" fill="#000000" font-size="16" font-weight="normal" font-style="normal" text-anchor="middle" text-decoration="blink" x="147" y="14.484375">init_func</text></g></g><g id="SvgjsG1056"><path id="SvgjsPath1057" d="M346 378C346 515.4563203348613 538 525.5436796651387 538 647.7639320225002 " stroke-dasharray="none" stroke="#323232" stroke-width="2" fill="none" marker-end="url(#SvgjsMarker1058)"></path><g id="SvgjsG1060" transform="matrix(1 0 0 1 442 498.5954915028125)"><path id="SvgjsPath1061" d="M0 0H153.75V38.499969482421875H0V0Z " fill="#ffffff" transform="translate(-76.875 0)"></path><text id="SvgjsText1062" font-family="Microsoft Yahei,SimSun" fill="#000000" font-size="16" font-weight="normal" font-style="normal" text-anchor="middle" text-decoration="blink" x="0" y="14.5">poll for next message </text><text id="SvgjsText1063" font-family="Microsoft Yahei,SimSun" fill="#000000" font-size="16" font-weight="normal" font-style="normal" text-anchor="middle" text-decoration="blink" x="0" y="34.5">when the stack is empty</text></g></g><g id="SvgjsG1064"><path id="SvgjsPath1065" d="M466 205C572.2173243873145 205 600.7826756126855 316.5 691.7639320225002 316.5 " stroke-dasharray="none" stroke="#323232" stroke-width="2" fill="none" marker-end="url(#SvgjsMarker1066)"></path><g id="SvgjsG1068" transform="matrix(1 0 0 1 584.5954915028125 240.75)"><path id="SvgjsPath1069" d="M0 0H167.5V38.5H0V0Z " fill="#ffffff" transform="translate(-83.75 0)"></path><text id="SvgjsText1070" font-family="Microsoft Yahei,SimSun" fill="#000000" font-size="16" font-weight="normal" font-style="normal" text-anchor="middle" text-decoration="blink" x="0" y="14.5">when response is received</text><text id="SvgjsText1071" font-family="Microsoft Yahei,SimSun" fill="#000000" font-size="16" font-weight="normal" font-style="normal" text-anchor="middle" text-decoration="blink" x="0" y="34.5"> call "success"</text></g></g><g id="SvgjsG1072" transform="translate(707 268)" opacity="1"><path id="SvgjsPath1073" d="M0 4Q0 0 4 0L246 0Q250 0 250 4L250 91Q250 95 246 95L4 95Q0 95 0 91Z " stroke-dasharray="none" stroke="#323232" stroke-width="2" fill="#ccccff" opacity="1"></path><path id="SvgjsPath1074" d="M0 30L250 30 " stroke-dasharray="none" stroke="#323232" stroke-width="2" fill="none" opacity="1"></path><path id="SvgjsPath1075" d="M0 0L250 0L250 95L0 95Z " stroke-dasharray="none" stroke-width="0" stroke="#323232" fill="none" opacity="1"></path><g id="SvgjsG1076" transform="matrix(1 0 0 1 10 5)" fill="#ffffff"><text id="SvgjsText1077" font-family="Microsoft Yahei,SimHei,Arial,SimSun" fill="#000000" font-size="16" font-weight="bold" font-style="normal" text-anchor="middle" text-decoration="blink" x="115" y="14.484375">browser's implementation</text></g><g id="SvgjsG1078" transform="matrix(1 0 0 1 10 40.5)" fill="#ffffff"><text id="SvgjsText1079" font-family="Microsoft Yahei,SimHei,Arial,SimSun" fill="#000000" font-size="16" font-weight="false" font-style="normal" text-anchor="start" text-decoration="blink" x="0" y="14.484375">when response is received, </text><text id="SvgjsText1080" font-family="Microsoft Yahei,SimHei,Arial,SimSun" fill="#000000" font-size="16" font-weight="false" font-style="normal" text-anchor="start" text-decoration="blink" x="0" y="34.484375">enqueue a message</text></g></g><g id="SvgjsG1081" transform="translate(606 447)" opacity="1"><path id="SvgjsPath1082" d="M0 0L63 0L63 257L0 257Z " stroke-dasharray="none" stroke="#323232" stroke-width="2" fill="#cc99ff" opacity="1"></path></g><g id="SvgjsG1083"><path id="SvgjsPath1084" d="M832 365C832 449.43151070542325 637.5 362.56848929457675 637.5 431.7639320225002 " stroke-dasharray="none" stroke="#323232" stroke-width="2" fill="none" marker-end="url(#SvgjsMarker1085)"></path><g id="SvgjsG1087" transform="matrix(1 0 0 1 734.75 394.09549150281254)"><path id="SvgjsPath1088" d="M0 0H0V0H0V0Z " fill="#ffffff" transform="translate(0 0)"></path><text id="SvgjsText1089" font-family="Microsoft Yahei,SimSun" fill="#000000" font-size="16" font-weight="normal" font-style="normal" text-anchor="middle" text-decoration="blink" x="0" y="0"></text></g></g><g id="SvgjsG1090"><path id="SvgjsPath1091" d="M606 475C580.8 475 694.2 475 669 475 " stroke-dasharray="none" stroke="#323232" stroke-width="2" fill="none"></path><g id="SvgjsG1092" transform="matrix(1 0 0 1 637.5 465)"><path id="SvgjsPath1093" d="M0 0H0V0H0V0Z " fill="#ffffff" transform="translate(0 0)"></path><text id="SvgjsText1094" font-family="Microsoft Yahei,SimSun" fill="#000000" font-size="16" font-weight="normal" font-style="normal" text-anchor="middle" text-decoration="blink" x="0" y="0"></text></g></g><g id="SvgjsG1095"><path id="SvgjsPath1096" d="M606 503C580.8 503 643.8 503 669 503 " stroke-dasharray="none" stroke="#323232" stroke-width="2" fill="none"></path><g id="SvgjsG1097" transform="matrix(1 0 0 1 618.5999999999999 493)"><path id="SvgjsPath1098" d="M0 0H0V0H0V0Z " fill="#ffffff" transform="translate(0 0)"></path><text id="SvgjsText1099" font-family="Microsoft Yahei,SimSun" fill="#000000" font-size="16" font-weight="normal" font-style="normal" text-anchor="middle" text-decoration="blink" x="0" y="0"></text></g></g><g id="SvgjsG1100"><path id="SvgjsPath1101" d="M606 531C580.8 531 694.2 531 669 531 " stroke-dasharray="none" stroke="#323232" stroke-width="2" fill="none"></path><g id="SvgjsG1102" transform="matrix(1 0 0 1 637.5 521)"><path id="SvgjsPath1103" d="M0 0H0V0H0V0Z " fill="#ffffff" transform="translate(0 0)"></path><text id="SvgjsText1104" font-family="Microsoft Yahei,SimSun" fill="#000000" font-size="16" font-weight="normal" font-style="normal" text-anchor="middle" text-decoration="blink" x="0" y="0"></text></g></g><g id="SvgjsG1105"><path id="SvgjsPath1106" d="M606 559C580.7968255967626 559 694.2031744032374 560 669 560 " stroke-dasharray="none" stroke="#323232" stroke-width="2" fill="none"></path><g id="SvgjsG1107" transform="matrix(1 0 0 1 637.5 549.5)"><path id="SvgjsPath1108" d="M0 0H0V0H0V0Z " fill="#ffffff" transform="translate(0 0)"></path><text id="SvgjsText1109" font-family="Microsoft Yahei,SimSun" fill="#000000" font-size="16" font-weight="normal" font-style="normal" text-anchor="middle" text-decoration="blink" x="0" y="0"></text></g></g><g id="SvgjsG1110"><path id="SvgjsPath1111" d="M606 586C580.787304785089 586 694.212695214911 588 669 588 " stroke-dasharray="none" stroke="#323232" stroke-width="2" fill="none"></path><g id="SvgjsG1112" transform="matrix(1 0 0 1 637.5 577)"><path id="SvgjsPath1113" d="M0 0H0V0H0V0Z " fill="#ffffff" transform="translate(0 0)"></path><text id="SvgjsText1114" font-family="Microsoft Yahei,SimSun" fill="#000000" font-size="16" font-weight="normal" font-style="normal" text-anchor="middle" text-decoration="blink" x="0" y="0"></text></g></g><g id="SvgjsG1115"><path id="SvgjsPath1116" d="M606 615C580.7968255967626 615 694.2031744032374 616 669 616 " stroke-dasharray="none" stroke="#323232" stroke-width="2" fill="none"></path><g id="SvgjsG1117" transform="matrix(1 0 0 1 637.5 605.5)"><path id="SvgjsPath1118" d="M0 0H0V0H0V0Z " fill="#ffffff" transform="translate(0 0)"></path><text id="SvgjsText1119" font-family="Microsoft Yahei,SimSun" fill="#000000" font-size="16" font-weight="normal" font-style="normal" text-anchor="middle" text-decoration="blink" x="0" y="0"></text></g></g><g id="SvgjsG1120"><path id="SvgjsPath1121" d="M606 644C580.7714447500456 644 694.2285552499544 647 669 647 " stroke-dasharray="none" stroke="#323232" stroke-width="2" fill="none"></path><g id="SvgjsG1122" transform="matrix(1 0 0 1 637.5 635.5)"><path id="SvgjsPath1123" d="M0 0H0V0H0V0Z " fill="#ffffff" transform="translate(0 0)"></path><text id="SvgjsText1124" font-family="Microsoft Yahei,SimSun" fill="#000000" font-size="16" font-weight="normal" font-style="normal" text-anchor="middle" text-decoration="blink" x="0" y="0"></text></g></g><g id="SvgjsG1125"><path id="SvgjsPath1126" d="M606 677C580.8 677 643.8 677 669 677 " stroke-dasharray="none" stroke="#323232" stroke-width="2" fill="none"></path><g id="SvgjsG1127" transform="matrix(1 0 0 1 618.5999999999999 667)"><path id="SvgjsPath1128" d="M0 0H0V0H0V0Z " fill="#ffffff" transform="translate(0 0)"></path><text id="SvgjsText1129" font-family="Microsoft Yahei,SimSun" fill="#000000" font-size="16" font-weight="normal" font-style="normal" text-anchor="middle" text-decoration="blink" x="0" y="0"></text></g></g><g id="SvgjsG1130" transform="translate(501 407)" opacity="1"><path id="SvgjsPath1131" d="M0 0L160 0L160 40L0 40Z " stroke-dasharray="none" stroke-width="0" stroke="#323232" fill="none" opacity="1"></path><g id="SvgjsG1132" transform="matrix(1 0 0 1 0 10)" fill="#ffffff"><text id="SvgjsText1133" font-family="Microsoft Yahei,SimHei,Arial,SimSun" fill="#000000" font-size="16" font-weight="normal" font-style="normal" text-anchor="middle" text-decoration="blink" x="80" y="14.484375">Message Queue</text></g></g><g id="SvgjsG1134" transform="translate(736 698)" opacity="1"><path id="SvgjsPath1135" d="M0 0L237 0L237 75L0 75Z " stroke-dasharray="none" stroke-width="0" stroke="#323232" fill="none" opacity="1"></path><g id="SvgjsG1136" transform="matrix(1 0 0 1 0 0)" fill="#ffffff"><text id="SvgjsText1137" font-family="Microsoft Yahei,SimHei,Arial,SimSun" fill="#000000" font-size="20" font-weight="bold" font-style="normal" text-anchor="middle" text-decoration="blink" x="118.5" y="18.109375">Event Loop</text><text id="SvgjsText1138" font-family="Microsoft Yahei,SimHei,Arial,SimSun" fill="#000000" font-size="20" font-weight="bold" font-style="normal" text-anchor="middle" text-decoration="blink" x="118.5" y="25"></text><text id="SvgjsText1139" font-family="Microsoft Yahei,SimHei,Arial,SimSun" fill="#000000" font-size="20" font-weight="bold" font-style="normal" text-anchor="middle" text-decoration="blink" x="118.5" y="68.109375">by decaywood</text></g></g></g></g></svg>