<svg id="drawing" xmlns="http://www.w3.org/2000/svg" version="1.1" xmlns:xlink="http://www.w3.org/1999/xlink" xmlns:svgjs="http://svgjs.com/svgjs" width="924" height="635" viewBox="90 79 924 635"><defs id="SvgjsDefs1001"><marker id="SvgjsMarker1070" markerWidth="16.23606797749979" markerHeight="10.550836550532098" refX="-1" refY="3.8990363547948754" viewBox="-1 -1.3763819204711736 16.23606797749979 10.550836550532098" orient="auto" markerUnits="userSpaceOnUse"><path id="SvgjsPath1071" d="M12 3.8990363547948754L0 7.798072709589751V0Z " stroke="#323232" stroke-width="2" fill="#323232" transform="matrix(1,0,0,1,0,0)"></path></marker><marker id="SvgjsMarker1077" markerWidth="16.23606797749979" markerHeight="10.550836550532098" refX="-1" refY="3.8990363547948754" viewBox="-1 -1.3763819204711736 16.23606797749979 10.550836550532098" orient="auto" markerUnits="userSpaceOnUse"><path id="SvgjsPath1078" d="M12 3.8990363547948754L0 7.798072709589751V0Z " stroke="#323232" stroke-width="2" fill="#323232" transform="matrix(1,0,0,1,0,0)"></path></marker><marker id="SvgjsMarker1084" markerWidth="16.23606797749979" markerHeight="10.550836550532098" refX="-1" refY="3.8990363547948754" viewBox="-1 -1.3763819204711736 16.23606797749979 10.550836550532098" orient="auto" markerUnits="userSpaceOnUse"><path id="SvgjsPath1085" d="M12 3.8990363547948754L0 7.798072709589751V0Z " stroke="#323232" stroke-width="2" fill="#323232" transform="matrix(1,0,0,1,0,0)"></path></marker></defs><g id="SvgjsG1007"><path id="SvgjsPath1008" d="M90 79H1014V714H90V79Z " fill-opacity="0" fill="none"></path><g id="SvgjsG1009"><g id="SvgjsG1010" transform="translate(110 99)" opacity="1"><path id="SvgjsPath1011" d="M0 4Q0 0 4 0L776 0Q780 0 780 4L780 421.3701067615657Q780 425.3701067615657 776 425.3701067615657L4 425.3701067615657Q0 425.3701067615657 0 421.3701067615657Z " stroke-dasharray="none" stroke="#323232" stroke-width="2" fill="#ccffcc" opacity="1"></path><path id="SvgjsPath1012" d="M0 30L780 30 " stroke-dasharray="none" stroke="#323232" stroke-width="2" fill="none" opacity="1"></path><path id="SvgjsPath1013" d="M0 0L780 0L780 425.3701067615657L0 425.3701067615657Z " stroke-dasharray="none" stroke-width="0" stroke="#323232" fill="none" opacity="1"></path><g id="SvgjsG1014" transform="matrix(1 0 0 1 10 5)" fill="#ffffff"><text id="SvgjsText1015" font-family="Microsoft Yahei,SimHei,Arial,SimSun" fill="#000000" font-size="16" font-weight="bold" font-style="normal" text-anchor="middle" text-decoration="blink" x="380" y="14.484375">The Scope Chain of InnerFunc</text></g></g><g id="SvgjsG1016" transform="translate(790 145.5)" opacity="1"><path id="SvgjsPath1017" d="M0 0L79 0L79 362L0 362Z " stroke-dasharray="none" stroke="#323232" stroke-width="2" fill="#ff99ff" opacity="1"></path><g id="SvgjsG1018" transform="matrix(1 0 0 1 10 171)" fill="#ffffff"><text id="SvgjsText1019" font-family="Microsoft Yahei,SimHei,Arial,SimSun" fill="#000000" font-size="16" font-weight="normal" font-style="normal" text-anchor="middle" text-decoration="blink" x="29.5" y="14.484375">Window</text></g></g><g id="SvgjsG1020" transform="translate(462 145.5)" opacity="1"><path id="SvgjsPath1021" d="M0 4Q0 0 4 0L259 0Q263 0 263 4L263 358Q263 362 259 362L4 362Q0 362 0 358Z " stroke-dasharray="none" stroke="#000000" stroke-width="2" fill="#ffcc99" opacity="1"></path><path id="SvgjsPath1022" d="M0 30L263 30 " stroke-dasharray="none" stroke="#000000" stroke-width="2" fill="none" opacity="1"></path><path id="SvgjsPath1023" d="M0 0L263 0L263 362L0 362Z " stroke-dasharray="none" stroke-width="0" stroke="#000000" fill="none" opacity="1"></path><g id="SvgjsG1024" transform="matrix(1 0 0 1 10 5)" fill="#ffffff"><text id="SvgjsText1025" font-family="Microsoft Yahei,SimHei,Arial,SimSun" fill="#000000" font-size="16" font-weight="normal" font-style="normal" text-anchor="middle" text-decoration="blink" x="121.5" y="14.484375">The Call Object of outerFunc</text></g></g><g id="SvgjsG1026" transform="translate(479.0122377622377 211.20106761565836)" opacity="1"><path id="SvgjsPath1027" d="M0 0L228.97552447552448 0L228.97552447552448 66.98932384341636L0 66.98932384341636Z " stroke-dasharray="none" stroke="#000000" stroke-width="2" fill="#ccff99" opacity="1"></path><g id="SvgjsG1028" transform="matrix(1 0 0 1 10 23.49466192170818)" fill="#ffffff"><text id="SvgjsText1029" font-family="Microsoft Yahei,SimHei,Arial,SimSun" fill="#000000" font-size="16" font-weight="normal" font-style="normal" text-anchor="middle" text-decoration="blink" x="104.48776223776224" y="14.484375">arguments</text></g></g><g id="SvgjsG1030" transform="translate(479.0122377622377 278.1903914590747)" opacity="1"><path id="SvgjsPath1031" d="M0 0L228.97552447552448 0L228.97552447552448 66.98932384341636L0 66.98932384341636Z " stroke-dasharray="none" stroke="#000000" stroke-width="2" fill="#ffff99" opacity="1"></path><g id="SvgjsG1032" transform="matrix(1 0 0 1 10 23.49466192170818)" fill="#ffffff"><text id="SvgjsText1033" font-family="Microsoft Yahei,SimHei,Arial,SimSun" fill="#000000" font-size="16" font-weight="normal" font-style="normal" text-anchor="middle" text-decoration="blink" x="104.48776223776224" y="14.484375">parameters</text></g></g><g id="SvgjsG1034" transform="translate(479.0122377622377 345.1797153024911)" opacity="1"><path id="SvgjsPath1035" d="M0 0L228.97552447552448 0L228.97552447552448 66.98932384341636L0 66.98932384341636Z " stroke-dasharray="none" stroke="#000000" stroke-width="2" fill="#99ffff" opacity="1"></path><g id="SvgjsG1036" transform="matrix(1 0 0 1 10 23.49466192170818)" fill="#ffffff"><text id="SvgjsText1037" font-family="Microsoft Yahei,SimHei,Arial,SimSun" fill="#000000" font-size="16" font-weight="normal" font-style="normal" text-anchor="middle" text-decoration="blink" x="104.48776223776224" y="14.484375">functions</text></g></g><g id="SvgjsG1038" transform="translate(479.0122377622377 412.1690391459075)" opacity="1"><path id="SvgjsPath1039" d="M0 0L228.97552447552448 0L228.97552447552448 66.98932384341636L0 66.98932384341636Z " stroke-dasharray="none" stroke="#000000" stroke-width="2" fill="#9999ff" opacity="1"></path><g id="SvgjsG1040" transform="matrix(1 0 0 1 10 23.49466192170818)" fill="#ffffff"><text id="SvgjsText1041" font-family="Microsoft Yahei,SimHei,Arial,SimSun" fill="#000000" font-size="16" font-weight="normal" font-style="normal" text-anchor="middle" text-decoration="blink" x="104.48776223776224" y="14.484375">variables</text></g></g><g id="SvgjsG1042" transform="translate(134 145.5)" opacity="1"><path id="SvgjsPath1043" d="M0 4Q0 0 4 0L260 0Q264 0 264 4L264 358Q264 362 260 362L4 362Q0 362 0 358Z " stroke-dasharray="none" stroke="#323232" stroke-width="2" fill="#ff9999" opacity="1"></path><path id="SvgjsPath1044" d="M0 30L264 30 " stroke-dasharray="none" stroke="#323232" stroke-width="2" fill="none" opacity="1"></path><path id="SvgjsPath1045" d="M0 0L264 0L264 362L0 362Z " stroke-dasharray="none" stroke-width="0" stroke="#323232" fill="none" opacity="1"></path><g id="SvgjsG1046" transform="matrix(1 0 0 1 10 5)" fill="#ffffff"><text id="SvgjsText1047" font-family="Microsoft Yahei,SimHei,Arial,SimSun" fill="#000000" font-size="16" font-weight="normal" font-style="normal" text-anchor="middle" text-decoration="blink" x="122" y="14.484375">The Call Object of innerFunc</text></g></g><g id="SvgjsG1048" transform="translate(151.0769230769231 281.5)" opacity="1"><path id="SvgjsPath1049" d="M0 0L229.84615384615384 0L229.84615384615384 52L0 52Z " stroke-dasharray="none" stroke="#323232" stroke-width="2" fill="#ccff99" opacity="1"></path><g id="SvgjsG1050" transform="matrix(1 0 0 1 10 16)" fill="#ffffff"><text id="SvgjsText1051" font-family="Microsoft Yahei,SimHei,Arial,SimSun" fill="#000000" font-size="16" font-weight="normal" font-style="normal" text-anchor="middle" text-decoration="blink" x="104.92307692307692" y="14.484375">arguments</text></g></g><g id="SvgjsG1052" transform="translate(151.0769230769231 333.5)" opacity="1"><path id="SvgjsPath1053" d="M0 0L229.84615384615384 0L229.84615384615384 52L0 52Z " stroke-dasharray="none" stroke="#323232" stroke-width="2" fill="#ffff99" opacity="1"></path><g id="SvgjsG1054" transform="matrix(1 0 0 1 10 16)" fill="#ffffff"><text id="SvgjsText1055" font-family="Microsoft Yahei,SimHei,Arial,SimSun" fill="#000000" font-size="16" font-weight="normal" font-style="normal" text-anchor="middle" text-decoration="blink" x="104.92307692307692" y="14.484375">parameters</text></g></g><g id="SvgjsG1056" transform="translate(151.0769230769231 385.5)" opacity="1"><path id="SvgjsPath1057" d="M0 0L229.84615384615384 0L229.84615384615384 52L0 52Z " stroke-dasharray="none" stroke="#323232" stroke-width="2" fill="#99ffff" opacity="1"></path><g id="SvgjsG1058" transform="matrix(1 0 0 1 10 16)" fill="#ffffff"><text id="SvgjsText1059" font-family="Microsoft Yahei,SimHei,Arial,SimSun" fill="#000000" font-size="16" font-weight="normal" font-style="normal" text-anchor="middle" text-decoration="blink" x="104.92307692307692" y="14.484375">functions</text></g></g><g id="SvgjsG1060" transform="translate(151.0769230769231 437.5)" opacity="1"><path id="SvgjsPath1061" d="M0 0L229.84615384615384 0L229.84615384615384 52L0 52Z " stroke-dasharray="none" stroke="#323232" stroke-width="2" fill="#9999ff" opacity="1"></path><g id="SvgjsG1062" transform="matrix(1 0 0 1 10 16)" fill="#ffffff"><text id="SvgjsText1063" font-family="Microsoft Yahei,SimHei,Arial,SimSun" fill="#000000" font-size="16" font-weight="normal" font-style="normal" text-anchor="middle" text-decoration="blink" x="104.92307692307692" y="14.484375">variables</text></g></g><g id="SvgjsG1064" transform="translate(151.0769230769231 190.50000000000003)" opacity="1"><path id="SvgjsPath1065" d="M0 0L229.84615384615384 0L229.84615384615384 52L0 52Z " stroke-dasharray="none" stroke="#323232" stroke-width="2" fill="#ff3333" opacity="1"></path><g id="SvgjsG1066" transform="matrix(1 0 0 1 10 16)" fill="#ffffff"><text id="SvgjsText1067" font-family="Microsoft Yahei,SimHei,Arial,SimSun" fill="#000000" font-size="16" font-weight="normal" font-style="normal" text-anchor="middle" text-decoration="blink" x="104.92307692307692" y="14.484375">prototype of innerFunc</text></g></g><g id="SvgjsG1068"><path id="SvgjsPath1069" d="M266 281.5L266 262L266 262L266 257.73606797749983 " stroke-dasharray="none" stroke="#323232" stroke-width="2" fill="none" marker-end="url(#SvgjsMarker1070)"></path><g id="SvgjsG1072" transform="matrix(1 0 0 1 266 259.6180339887499)"><path id="SvgjsPath1073" d="M0 0H0V0H0V0Z " fill="#ffffff" transform="translate(0 0)"></path><text id="SvgjsText1074" font-family="Microsoft Yahei,SimSun" fill="#000000" font-size="16" font-weight="normal" font-style="normal" text-anchor="middle" text-decoration="blink" x="0" y="0"></text></g></g><g id="SvgjsG1075"><path id="SvgjsPath1076" d="M725 326.5L757.5 326.5L757.5 326.5L774.7639320225002 326.5 " stroke-dasharray="none" stroke="#323232" stroke-width="2" fill="none" marker-end="url(#SvgjsMarker1077)"></path><g id="SvgjsG1079" transform="matrix(1 0 0 1 749.8819660112501 316.5)"><path id="SvgjsPath1080" d="M0 0H0V0H0V0Z " fill="#ffffff" transform="translate(0 0)"></path><text id="SvgjsText1081" font-family="Microsoft Yahei,SimSun" fill="#000000" font-size="16" font-weight="normal" font-style="normal" text-anchor="middle" text-decoration="blink" x="0" y="0"></text></g></g><g id="SvgjsG1082"><path id="SvgjsPath1083" d="M398 326.5L430 326.5L430 326.5L446.7639320225002 326.5 " stroke-dasharray="none" stroke="#323232" stroke-width="2" fill="none" marker-end="url(#SvgjsMarker1084)"></path><g id="SvgjsG1086" transform="matrix(1 0 0 1 422.38196601125014 316.5)"><path id="SvgjsPath1087" d="M0 0H0V0H0V0Z " fill="#ffffff" transform="translate(0 0)"></path><text id="SvgjsText1088" font-family="Microsoft Yahei,SimSun" fill="#000000" font-size="16" font-weight="normal" font-style="normal" text-anchor="middle" text-decoration="blink" x="0" y="0"></text></g></g><g id="SvgjsG1089" transform="translate(649 556)" opacity="1"><path id="SvgjsPath1090" d="M0 0L345 0L345 138L0 138Z " stroke-dasharray="none" stroke-width="0" stroke="#323232" fill="none" opacity="1"></path><g id="SvgjsG1091" transform="matrix(1 0 0 1 0 27.75)" fill="#ffffff"><text id="SvgjsText1092" font-family="Microsoft Yahei,SimHei,Arial,SimSun" fill="#000000" font-size="22" font-weight="bold" font-style="normal" text-anchor="middle" text-decoration="blink" x="172.5" y="19.921875">innerFunc的作用域链</text><text id="SvgjsText1093" font-family="Microsoft Yahei,SimHei,Arial,SimSun" fill="#000000" font-size="22" font-weight="bold" font-style="normal" text-anchor="middle" text-decoration="blink" x="172.5" y="27.5"></text><text id="SvgjsText1094" font-family="Microsoft Yahei,SimHei,Arial,SimSun" fill="#000000" font-size="22" font-weight="bold" font-style="normal" text-anchor="middle" text-decoration="blink" x="172.5" y="74.921875">by decaywood</text></g></g></g></g></svg>