<svg id="drawing" xmlns="http://www.w3.org/2000/svg" version="1.1" xmlns:xlink="http://www.w3.org/1999/xlink" xmlns:svgjs="http://svgjs.com/svgjs" width="885" height="612" viewBox="84 73 885 612"><defs id="SvgjsDefs1001"><marker id="SvgjsMarker1040" markerWidth="16.23606797749979" markerHeight="10.550836550532098" refX="-1" refY="3.8990363547948754" viewBox="-1 -1.3763819204711736 16.23606797749979 10.550836550532098" orient="auto" markerUnits="userSpaceOnUse"><path id="SvgjsPath1041" d="M12 3.8990363547948754L0 7.798072709589751V0Z " stroke="#323232" stroke-width="2" fill="#323232" transform="matrix(1,0,0,1,0,0)"></path></marker><marker id="SvgjsMarker1047" markerWidth="16.23606797749979" markerHeight="10.550836550532098" refX="-1" refY="3.8990363547948754" viewBox="-1 -1.3763819204711736 16.23606797749979 10.550836550532098" orient="auto" markerUnits="userSpaceOnUse"><path id="SvgjsPath1048" d="M12 3.8990363547948754L0 7.798072709589751V0Z " stroke="#323232" stroke-width="2" fill="#323232" transform="matrix(1,0,0,1,0,0)"></path></marker><marker id="SvgjsMarker1054" markerWidth="16.23606797749979" markerHeight="10.550836550532098" refX="-1" refY="3.8990363547948754" viewBox="-1 -1.3763819204711736 16.23606797749979 10.550836550532098" orient="auto" markerUnits="userSpaceOnUse"><path id="SvgjsPath1055" d="M12 3.8990363547948754L0 7.798072709589751V0Z " stroke="#323232" stroke-width="2" fill="#323232" transform="matrix(1,0,0,1,0,0)"></path></marker><marker id="SvgjsMarker1061" markerWidth="16.23606797749979" markerHeight="10.550836550532098" refX="-1" refY="3.8990363547948754" viewBox="-1 -1.3763819204711736 16.23606797749979 10.550836550532098" orient="auto" markerUnits="userSpaceOnUse"><path id="SvgjsPath1062" d="M12 3.8990363547948754L0 7.798072709589751V0Z " stroke="#323232" stroke-width="2" fill="#323232" transform="matrix(1,0,0,1,0,0)"></path></marker><marker id="SvgjsMarker1068" markerWidth="16.23606797749979" markerHeight="10.550836550532098" refX="-1" refY="3.8990363547948754" viewBox="-1 -1.3763819204711736 16.23606797749979 10.550836550532098" orient="auto" markerUnits="userSpaceOnUse"><path id="SvgjsPath1069" d="M12 3.8990363547948754L0 7.798072709589751V0Z " stroke="#323232" stroke-width="2" fill="#323232" transform="matrix(1,0,0,1,0,0)"></path></marker><marker id="SvgjsMarker1075" markerWidth="16.23606797749979" markerHeight="10.550836550532098" refX="-1" refY="3.8990363547948754" viewBox="-1 -1.3763819204711736 16.23606797749979 10.550836550532098" orient="auto" markerUnits="userSpaceOnUse"><path id="SvgjsPath1076" d="M12 3.8990363547948754L0 7.798072709589751V0Z " stroke="#323232" stroke-width="2" fill="#323232" transform="matrix(1,0,0,1,0,0)"></path></marker><marker id="SvgjsMarker1082" markerWidth="16.23606797749979" markerHeight="10.550836550532098" refX="-1" refY="3.8990363547948754" viewBox="-1 -1.3763819204711736 16.23606797749979 10.550836550532098" orient="auto" markerUnits="userSpaceOnUse"><path id="SvgjsPath1083" d="M12 3.8990363547948754L0 7.798072709589751V0Z " stroke="#323232" stroke-width="2" fill="#323232" transform="matrix(1,0,0,1,0,0)"></path></marker><marker id="SvgjsMarker1093" markerWidth="16.23606797749979" markerHeight="10.550836550532098" refX="-1" refY="3.8990363547948754" viewBox="-1 -1.3763819204711736 16.23606797749979 10.550836550532098" orient="auto" markerUnits="userSpaceOnUse"><path id="SvgjsPath1094" d="M12 3.8990363547948754L0 7.798072709589751V0Z " stroke="#323232" stroke-width="2" fill="#323232" transform="matrix(1,0,0,1,0,0)"></path></marker><marker id="SvgjsMarker1100" markerWidth="16.23606797749979" markerHeight="10.550836550532098" refX="-1" refY="3.8990363547948754" viewBox="-1 -1.3763819204711736 16.23606797749979 10.550836550532098" orient="auto" markerUnits="userSpaceOnUse"><path id="SvgjsPath1101" d="M12 3.8990363547948754L0 7.798072709589751V0Z " stroke="#323232" stroke-width="2" fill="#323232" transform="matrix(1,0,0,1,0,0)"></path></marker></defs><g id="SvgjsG1007"><path id="SvgjsPath1008" d="M84 73H969V685H84V73Z " fill-opacity="0" fill="none"></path><g id="SvgjsG1009"><g id="SvgjsG1010" transform="translate(350 93)" opacity="1"><path id="SvgjsPath1011" d="M0 0L147 0L147 42L0 42Z " stroke-dasharray="none" stroke="#323232" stroke-width="2" fill="#ff9999" opacity="1"></path><g id="SvgjsG1012" transform="matrix(1 0 0 1 10 11)" fill="#ffffff"><text id="SvgjsText1013" font-family="微软雅黑,黑体,Arial,SimSun" fill="#000000" font-size="16" font-weight="normal" font-style="normal" text-anchor="middle" text-decoration="blink" x="63.5" y="14.484375">Java方法入口</text></g></g><g id="SvgjsG1014" transform="translate(318.75 191)" opacity="1"><path id="SvgjsPath1015" d="M0 27L104.75 0L209.5 27L104.75 54L0 27Z " stroke-dasharray="none" stroke="#323232" stroke-width="2" fill="#99ccff" opacity="1"></path><g id="SvgjsG1016" transform="matrix(1 0 0 1 10 17)" fill="#ffffff"><text id="SvgjsText1017" font-family="微软雅黑,黑体,Arial,SimSun" fill="#000000" font-size="16" font-weight="normal" font-style="normal" text-anchor="middle" text-decoration="blink" x="94.75" y="14.484375">是否存在已编译版本</text></g></g><g id="SvgjsG1018" transform="translate(556 284)" opacity="1"><path id="SvgjsPath1019" d="M0 0L178 0L178 39L0 39Z " stroke-dasharray="none" stroke="#323232" stroke-width="2" fill="#ffff99" opacity="1"></path><g id="SvgjsG1020" transform="matrix(1 0 0 1 10 9.5)" fill="#ffffff"><text id="SvgjsText1021" font-family="微软雅黑,黑体,Arial,SimSun" fill="#000000" font-size="16" font-weight="normal" font-style="normal" text-anchor="middle" text-decoration="blink" x="79" y="14.484375">执行本地版本代码</text></g></g><g id="SvgjsG1022" transform="translate(104 284)" opacity="1"><path id="SvgjsPath1023" d="M0 0L178 0L178 39L0 39Z " stroke-dasharray="none" stroke="#323232" stroke-width="2" fill="#ffff99" opacity="1"></path><g id="SvgjsG1024" transform="matrix(1 0 0 1 10 9.5)" fill="#ffffff"><text id="SvgjsText1025" font-family="微软雅黑,黑体,Arial,SimSun" fill="#000000" font-size="16" font-weight="normal" font-style="normal" text-anchor="middle" text-decoration="blink" x="79" y="14.484375">计数器计数</text></g></g><g id="SvgjsG1026" transform="translate(318.75 342)" opacity="1"><path id="SvgjsPath1027" d="M0 27L104.75 0L209.5 27L104.75 54L0 27Z " stroke-dasharray="none" stroke="#323232" stroke-width="2" fill="#99ccff" opacity="1"></path><g id="SvgjsG1028" transform="matrix(1 0 0 1 10 17)" fill="#ffffff"><text id="SvgjsText1029" font-family="微软雅黑,黑体,Arial,SimSun" fill="#000000" font-size="16" font-weight="normal" font-style="normal" text-anchor="middle" text-decoration="blink" x="94.75" y="14.484375">计数器超过阈值</text></g></g><g id="SvgjsG1030" transform="translate(556 465)" opacity="1"><path id="SvgjsPath1031" d="M0 0L178 0L178 39L0 39Z " stroke-dasharray="none" stroke="#323232" stroke-width="2" fill="#ffff99" opacity="1"></path><g id="SvgjsG1032" transform="matrix(1 0 0 1 10 9.5)" fill="#ffffff"><text id="SvgjsText1033" font-family="微软雅黑,黑体,Arial,SimSun" fill="#000000" font-size="16" font-weight="normal" font-style="normal" text-anchor="middle" text-decoration="blink" x="79" y="14.484375">解释执行代码</text></g></g><g id="SvgjsG1034" transform="translate(104 465)" opacity="1"><path id="SvgjsPath1035" d="M0 0L205 0L205 39L0 39Z " stroke-dasharray="none" stroke="#323232" stroke-width="2" fill="#ffff99" opacity="1"></path><g id="SvgjsG1036" transform="matrix(1 0 0 1 10 9.5)" fill="#ffffff"><text id="SvgjsText1037" font-family="微软雅黑,黑体,Arial,SimSun" fill="#000000" font-size="16" font-weight="normal" font-style="normal" text-anchor="middle" text-decoration="blink" x="92.5" y="14.484375">向编译器提交编译请求</text></g></g><g id="SvgjsG1038"><path id="SvgjsPath1039" d="M528.25 218L645 218L645 268.7639320225002 " stroke-dasharray="none" stroke="#323232" stroke-width="2" fill="none" marker-end="url(#SvgjsMarker1040)"></path><g id="SvgjsG1042" transform="matrix(1 0 0 1 612.0069660112501 209.875)"><path id="SvgjsPath1043" d="M0 0H13V15H0V0Z " fill="#ffffff" transform="translate(-6.5 0)"></path><text id="SvgjsText1044" font-family="Microsoft Yahei,SimSun" fill="#000000" font-size="13" font-weight="normal" font-style="normal" text-anchor="middle" text-decoration="blink" x="0" y="11.75">是</text></g></g><g id="SvgjsG1045"><path id="SvgjsPath1046" d="M318.75 218L193 218L193 268.7639320225002 " stroke-dasharray="none" stroke="#323232" stroke-width="2" fill="none" marker-end="url(#SvgjsMarker1047)"></path><g id="SvgjsG1049" transform="matrix(1 0 0 1 230.4930339887499 209.875)"><path id="SvgjsPath1050" d="M0 0H13V15H0V0Z " fill="#ffffff" transform="translate(-6.5 0)"></path><text id="SvgjsText1051" font-family="Microsoft Yahei,SimSun" fill="#000000" font-size="13" font-weight="normal" font-style="normal" text-anchor="middle" text-decoration="blink" x="0" y="11.75">否</text></g></g><g id="SvgjsG1052"><path id="SvgjsPath1053" d="M423.5 135L423.5 163L423.5 163L423.5 175.7639320225002 " stroke-dasharray="none" stroke="#323232" stroke-width="2" fill="none" marker-end="url(#SvgjsMarker1054)"></path><g id="SvgjsG1056" transform="matrix(1 0 0 1 423.5 147.25696601125009)"><path id="SvgjsPath1057" d="M0 0H0V0H0V0Z " fill="#ffffff" transform="translate(0 0)"></path><text id="SvgjsText1058" font-family="Microsoft Yahei,SimSun" fill="#000000" font-size="13" font-weight="normal" font-style="normal" text-anchor="middle" text-decoration="blink" x="0" y="0"></text></g></g><g id="SvgjsG1059"><path id="SvgjsPath1060" d="M282 303.5L423.5 303.5L423.5 326.7639320225002 " stroke-dasharray="none" stroke="#323232" stroke-width="2" fill="none" marker-end="url(#SvgjsMarker1061)"></path><g id="SvgjsG1063" transform="matrix(1 0 0 1 364.38196601125014 295.375)"><path id="SvgjsPath1064" d="M0 0H0V0H0V0Z " fill="#ffffff" transform="translate(0 0)"></path><text id="SvgjsText1065" font-family="Microsoft Yahei,SimSun" fill="#000000" font-size="13" font-weight="normal" font-style="normal" text-anchor="middle" text-decoration="blink" x="0" y="0"></text></g></g><g id="SvgjsG1066"><path id="SvgjsPath1067" d="M528.25 369L645 369L645 449.7639320225002 " stroke-dasharray="none" stroke="#323232" stroke-width="2" fill="none" marker-end="url(#SvgjsMarker1068)"></path><g id="SvgjsG1070" transform="matrix(1 0 0 1 627.0069660112501 360.875)"><path id="SvgjsPath1071" d="M0 0H13V15H0V0Z " fill="#ffffff" transform="translate(-6.5 0)"></path><text id="SvgjsText1072" font-family="Microsoft Yahei,SimSun" fill="#000000" font-size="13" font-weight="normal" font-style="normal" text-anchor="middle" text-decoration="blink" x="0" y="11.75">否</text></g></g><g id="SvgjsG1073"><path id="SvgjsPath1074" d="M318.75 369L206.5 369L206.5 449.7639320225002 " stroke-dasharray="none" stroke="#323232" stroke-width="2" fill="none" marker-end="url(#SvgjsMarker1075)"></path><g id="SvgjsG1077" transform="matrix(1 0 0 1 222.2430339887499 360.875)"><path id="SvgjsPath1078" d="M0 0H13V15H0V0Z " fill="#ffffff" transform="translate(-6.5 0)"></path><text id="SvgjsText1079" font-family="Microsoft Yahei,SimSun" fill="#000000" font-size="13" font-weight="normal" font-style="normal" text-anchor="middle" text-decoration="blink" x="0" y="11.75">是</text></g></g><g id="SvgjsG1080"><path id="SvgjsPath1081" d="M309 484.5L432.5 484.5L432.5 484.5L540.7639320225002 484.5 " stroke-dasharray="none" stroke="#323232" stroke-width="2" fill="none" marker-end="url(#SvgjsMarker1082)"></path><g id="SvgjsG1084" transform="matrix(1 0 0 1 424.8819660112501 476.375)"><path id="SvgjsPath1085" d="M0 0H0V0H0V0Z " fill="#ffffff" transform="translate(0 0)"></path><text id="SvgjsText1086" font-family="Microsoft Yahei,SimSun" fill="#000000" font-size="13" font-weight="normal" font-style="normal" text-anchor="middle" text-decoration="blink" x="0" y="0"></text></g></g><g id="SvgjsG1087" transform="translate(830 370)" opacity="1"><path id="SvgjsPath1088" d="M0 0L112 0L112 39L0 39Z " stroke-dasharray="none" stroke="#323232" stroke-width="2" fill="#9999ff" opacity="1"></path><g id="SvgjsG1089" transform="matrix(1 0 0 1 10 9.5)" fill="#ffffff"><text id="SvgjsText1090" font-family="微软雅黑,黑体,Arial,SimSun" fill="#000000" font-size="16" font-weight="normal" font-style="normal" text-anchor="middle" text-decoration="blink" x="46" y="14.484375">方法返回</text></g></g><g id="SvgjsG1091"><path id="SvgjsPath1092" d="M734 303.5L782 303.5L782 389.5L814.7639320225002 389.5 " stroke-dasharray="none" stroke="#323232" stroke-width="2" fill="none" marker-end="url(#SvgjsMarker1093)"></path><g id="SvgjsG1095" transform="matrix(1 0 0 1 782 330.7569660112501)"><path id="SvgjsPath1096" d="M0 0H0V0H0V0Z " fill="#ffffff" transform="translate(0 0)"></path><text id="SvgjsText1097" font-family="Microsoft Yahei,SimSun" fill="#000000" font-size="13" font-weight="normal" font-style="normal" text-anchor="middle" text-decoration="blink" x="0" y="0"></text></g></g><g id="SvgjsG1098"><path id="SvgjsPath1099" d="M734 484.5L782 484.5L782 389.5L814.7639320225002 389.5 " stroke-dasharray="none" stroke="#323232" stroke-width="2" fill="none" marker-end="url(#SvgjsMarker1100)"></path><g id="SvgjsG1102" transform="matrix(1 0 0 1 782 436.4930339887499)"><path id="SvgjsPath1103" d="M0 0H0V0H0V0Z " fill="#ffffff" transform="translate(0 0)"></path><text id="SvgjsText1104" font-family="Microsoft Yahei,SimSun" fill="#000000" font-size="13" font-weight="normal" font-style="normal" text-anchor="middle" text-decoration="blink" x="0" y="0"></text></g></g><g id="SvgjsG1105" transform="translate(674 582)" opacity="1"><path id="SvgjsPath1106" d="M0 0L275 0L275 83L0 83Z " stroke-dasharray="none" stroke-width="0" stroke="#323232" fill="none" opacity="1"></path><g id="SvgjsG1107" transform="matrix(1 0 0 1 0 0.25)" fill="#ffffff"><text id="SvgjsText1108" font-family="微软雅黑,黑体,Arial,SimSun" fill="#000000" font-size="22" font-weight="normal" font-style="normal" text-anchor="middle" text-decoration="blink" x="137.5" y="19.921875">触发JIT流程</text><text id="SvgjsText1109" font-family="微软雅黑,黑体,Arial,SimSun" fill="#000000" font-size="22" font-weight="normal" font-style="normal" text-anchor="middle" text-decoration="blink" x="137.5" y="27.5"></text><text id="SvgjsText1110" font-family="微软雅黑,黑体,Arial,SimSun" fill="#000000" font-size="22" font-weight="normal" font-style="normal" text-anchor="middle" text-decoration="blink" x="137.5" y="74.921875">by decaywood</text></g></g></g></g></svg>