<svg xmlns="http://www.w3.org/2000/svg" xmlns:xlink="http://www.w3.org/1999/xlink" id="processonSvg1000" viewBox="18.0 16.11635340399954 969.9318181818181 681.4528740028413" width="969.9318181818181" height="681.4528740028413"><defs id="ProcessOnDefs1001"><marker id="ProcessOnMarker1053" markerUnits="userSpaceOnUse" orient="auto" markerWidth="16.23606797749979" markerHeight="10.550836550532098" viewBox="-1.0 -1.3763819204711736 16.23606797749979 10.550836550532098" refX="-1.0" refY="3.8990363547948754"><path id="ProcessOnPath1054" d="M12.0 3.8990363547948754L0.0 7.798072709589751V0.0Z" stroke="#323232" stroke-width="2.0" fill="#323232" transform="matrix(1.0,0.0,0.0,1.0,0.0,0.0)"/></marker><marker id="ProcessOnMarker1057" markerUnits="userSpaceOnUse" orient="auto" markerWidth="16.23606797749979" markerHeight="10.550836550532098" viewBox="-1.0 -1.3763819204711736 16.23606797749979 10.550836550532098" refX="-1.0" refY="3.8990363547948754"><path id="ProcessOnPath1058" d="M12.0 3.8990363547948754L0.0 7.798072709589751V0.0Z" stroke="#323232" stroke-width="2.0" fill="#323232" transform="matrix(1.0,0.0,0.0,1.0,0.0,0.0)"/></marker><marker id="ProcessOnMarker1061" markerUnits="userSpaceOnUse" orient="auto" markerWidth="16.23606797749979" markerHeight="10.550836550532098" viewBox="-1.0 -1.3763819204711736 16.23606797749979 10.550836550532098" refX="-1.0" refY="3.8990363547948754"><path id="ProcessOnPath1062" d="M12.0 3.8990363547948754L0.0 7.798072709589751V0.0Z" stroke="#323232" stroke-width="2.0" fill="#323232" transform="matrix(1.0,0.0,0.0,1.0,0.0,0.0)"/></marker><marker id="ProcessOnMarker1065" markerUnits="userSpaceOnUse" orient="auto" markerWidth="16.23606797749979" markerHeight="10.550836550532098" viewBox="-1.0 -1.3763819204711736 16.23606797749979 10.550836550532098" refX="-1.0" refY="3.8990363547948754"><path id="ProcessOnPath1066" d="M12.0 3.8990363547948754L0.0 7.798072709589751V0.0Z" stroke="#323232" stroke-width="2.0" fill="#323232" transform="matrix(1.0,0.0,0.0,1.0,0.0,0.0)"/></marker><marker id="ProcessOnMarker1074" markerUnits="userSpaceOnUse" orient="auto" markerWidth="16.23606797749979" markerHeight="10.550836550532098" viewBox="-1.0 -1.3763819204711736 16.23606797749979 10.550836550532098" refX="-1.0" refY="3.8990363547948754"><path id="ProcessOnPath1075" d="M12.0 3.8990363547948754L0.0 7.798072709589751V0.0Z" stroke="#323232" stroke-width="2.0" fill="#323232" transform="matrix(1.0,0.0,0.0,1.0,0.0,0.0)"/></marker><marker id="ProcessOnMarker1136" markerUnits="userSpaceOnUse" orient="auto" markerWidth="16.23606797749979" markerHeight="10.550836550532098" viewBox="-1.0 -1.3763819204711736 16.23606797749979 10.550836550532098" refX="-1.0" refY="3.8990363547948754"><path id="ProcessOnPath1137" d="M12.0 3.8990363547948754L0.0 7.798072709589751V0.0Z" stroke="#323232" stroke-width="2.0" fill="#323232" transform="matrix(1.0,0.0,0.0,1.0,0.0,0.0)"/></marker><marker id="ProcessOnMarker1140" markerUnits="userSpaceOnUse" orient="auto" markerWidth="16.23606797749979" markerHeight="10.550836550532098" viewBox="-1.0 -1.3763819204711736 16.23606797749979 10.550836550532098" refX="-1.0" refY="3.8990363547948754"><path id="ProcessOnPath1141" d="M12.0 3.8990363547948754L0.0 7.798072709589751V0.0Z" stroke="#323232" stroke-width="2.0" fill="#323232" transform="matrix(1.0,0.0,0.0,1.0,0.0,0.0)"/></marker><marker id="ProcessOnMarker1144" markerUnits="userSpaceOnUse" orient="auto" markerWidth="16.23606797749979" markerHeight="10.550836550532098" viewBox="-1.0 -1.3763819204711736 16.23606797749979 10.550836550532098" refX="-1.0" refY="3.8990363547948754"><path id="ProcessOnPath1145" d="M12.0 3.8990363547948754L0.0 7.798072709589751V0.0Z" stroke="#323232" stroke-width="2.0" fill="#323232" transform="matrix(1.0,0.0,0.0,1.0,0.0,0.0)"/></marker><marker id="ProcessOnMarker1148" markerUnits="userSpaceOnUse" orient="auto" markerWidth="16.23606797749979" markerHeight="10.550836550532098" viewBox="-1.0 -1.3763819204711736 16.23606797749979 10.550836550532098" refX="-1.0" refY="3.8990363547948754"><path id="ProcessOnPath1149" d="M12.0 3.8990363547948754L0.0 7.798072709589751V0.0Z" stroke="#323232" stroke-width="2.0" fill="#323232" transform="matrix(1.0,0.0,0.0,1.0,0.0,0.0)"/></marker><marker id="ProcessOnMarker1152" markerUnits="userSpaceOnUse" orient="auto" markerWidth="16.23606797749979" markerHeight="10.550836550532098" viewBox="-1.0 -1.3763819204711736 16.23606797749979 10.550836550532098" refX="-1.0" refY="3.8990363547948754"><path id="ProcessOnPath1153" d="M12.0 3.8990363547948754L0.0 7.798072709589751V0.0Z" stroke="#323232" stroke-width="2.0" fill="#323232" transform="matrix(1.0,0.0,0.0,1.0,0.0,0.0)"/></marker><marker id="ProcessOnMarker1172" markerUnits="userSpaceOnUse" orient="auto" markerWidth="16.23606797749979" markerHeight="10.550836550532098" viewBox="-1.0 -1.3763819204711736 16.23606797749979 10.550836550532098" refX="-1.0" refY="3.8990363547948754"><path id="ProcessOnPath1173" d="M12.0 3.8990363547948754L0.0 7.798072709589751V0.0Z" stroke="#323232" stroke-width="2.0" fill="#323232" transform="matrix(1.0,0.0,0.0,1.0,0.0,0.0)"/></marker><marker id="ProcessOnMarker1176" markerUnits="userSpaceOnUse" orient="auto" markerWidth="16.23606797749979" markerHeight="10.550836550532098" viewBox="-1.0 -1.3763819204711736 16.23606797749979 10.550836550532098" refX="-1.0" refY="3.8990363547948754"><path id="ProcessOnPath1177" d="M12.0 3.8990363547948754L0.0 7.798072709589751V0.0Z" stroke="#323232" stroke-width="2.0" fill="#323232" transform="matrix(1.0,0.0,0.0,1.0,0.0,0.0)"/></marker><marker id="ProcessOnMarker1196" markerUnits="userSpaceOnUse" orient="auto" markerWidth="16.23606797749979" markerHeight="10.550836550532098" viewBox="-1.0 -1.3763819204711736 16.23606797749979 10.550836550532098" refX="15.23606797749979" refY="3.8990363547948754"><path id="ProcessOnPath1197" d="M12.0 3.8990363547948754L0.0 7.798072709589751V0.0Z" stroke="#323232" stroke-width="2.0" fill="#323232" transform="matrix(-1.0,1.2246467991473532E-16,-1.2246467991473532E-16,-1.0,14.23606797749979,7.798072709589751)"/></marker><marker id="ProcessOnMarker1198" markerUnits="userSpaceOnUse" orient="auto" markerWidth="16.23606797749979" markerHeight="10.550836550532098" viewBox="-1.0 -1.3763819204711736 16.23606797749979 10.550836550532098" refX="-1.0" refY="3.8990363547948754"><path id="ProcessOnPath1199" d="M12.0 3.8990363547948754L0.0 7.798072709589751V0.0Z" stroke="#323232" stroke-width="2.0" fill="#323232" transform="matrix(1.0,0.0,0.0,1.0,0.0,0.0)"/></marker><marker id="ProcessOnMarker1202" markerUnits="userSpaceOnUse" orient="auto" markerWidth="16.23606797749979" markerHeight="10.550836550532098" viewBox="-1.0 -1.3763819204711736 16.23606797749979 10.550836550532098" refX="-1.0" refY="3.8990363547948754"><path id="ProcessOnPath1203" d="M12.0 3.8990363547948754L0.0 7.798072709589751V0.0Z" stroke="#323232" stroke-width="2.0" fill="#323232" transform="matrix(1.0,0.0,0.0,1.0,0.0,0.0)"/></marker><marker id="ProcessOnMarker1206" markerUnits="userSpaceOnUse" orient="auto" markerWidth="16.23606797749979" markerHeight="10.550836550532098" viewBox="-1.0 -1.3763819204711736 16.23606797749979 10.550836550532098" refX="15.23606797749979" refY="3.8990363547948754"><path id="ProcessOnPath1207" d="M12.0 3.8990363547948754L0.0 7.798072709589751V0.0Z" stroke="#323232" stroke-width="2.0" fill="#323232" transform="matrix(-1.0,1.2246467991473532E-16,-1.2246467991473532E-16,-1.0,14.23606797749979,7.798072709589751)"/></marker><marker id="ProcessOnMarker1208" markerUnits="userSpaceOnUse" orient="auto" markerWidth="16.23606797749979" markerHeight="10.550836550532098" viewBox="-1.0 -1.3763819204711736 16.23606797749979 10.550836550532098" refX="-1.0" refY="3.8990363547948754"><path id="ProcessOnPath1209" d="M12.0 3.8990363547948754L0.0 7.798072709589751V0.0Z" stroke="#323232" stroke-width="2.0" fill="#323232" transform="matrix(1.0,0.0,0.0,1.0,0.0,0.0)"/></marker></defs><g id="ProcessOnG1002"><path id="ProcessOnPath1003" d="M18.0 16.11635340399954H987.9318181818181V697.5692274068408H18.0V16.116353403999483Z" fill="none"/><g id="ProcessOnG1004"><g id="ProcessOnG1005" transform="matrix(1.0,0.0,0.0,1.0,38.0,36.11635340399954)" opacity="1.0"><path id="ProcessOnPath1006" d="M0.0 0.0L423.22727272727275 0.0L423.22727272727275 108.62577860343134L0.0 108.62577860343134Z" stroke="#323232" stroke-width="0.0" stroke-dasharray="none" opacity="1.0" fill="none"/><g id="ProcessOnG1007" transform="matrix(1.0,0.0,0.0,1.0,0.0,11.187889301715671)"><text id="ProcessOnText1008" fill="#000000" font-weight="bold" font-style="normal" text-decoration="blink" font-family="微软雅黑" text-anchor="middle" font-size="23" x="211.61363636363637" y="23.575000000000003">大型网站架构 -- 业务拆分</text><text id="ProcessOnText1009" fill="#000000" font-weight="bold" font-style="normal" text-decoration="blink" font-family="微软雅黑" text-anchor="middle" font-size="23" x="211.61363636363637" y="52.325"></text><text id="ProcessOnText1010" fill="#000000" font-weight="bold" font-style="normal" text-decoration="blink" font-family="微软雅黑" text-anchor="middle" font-size="23" x="211.61363636363637" y="81.075">by decaywood</text></g></g><g id="ProcessOnG1011" transform="matrix(1.0,0.0,0.0,1.0,694.012987012987,265.8691946235385)" opacity="1.0"><path id="ProcessOnPath1012" d="M0.0 4.0Q0.0 0.0 4.0 0.0L202.2987012987013 0.0Q206.2987012987013 0.0 206.2987012987013 4.0L206.2987012987013 128.31909080974756Q206.2987012987013 132.31909080974756 202.2987012987013 132.31909080974756L4.0 132.31909080974756Q0.0 132.31909080974756 0.0 128.31909080974756Z" stroke="#323232" stroke-width="2.0" stroke-dasharray="none" opacity="1.0" fill="#ffffcc"/><g id="ProcessOnG1013" transform="matrix(1.0,0.0,0.0,1.0,5.0,2.326363629267682)"><text id="ProcessOnText1014" fill="#000000" font-weight="normal" font-style="normal" text-decoration="blink" font-family="微软雅黑" text-anchor="middle" font-size="13" x="98.14935064935065" y="13.325">分布式文件服务器n</text></g></g><g id="ProcessOnG1015" transform="matrix(1.0,0.0,0.0,1.0,671.090909090909,67.0)" opacity="1.0"><path id="ProcessOnPath1016" d="M0.0 4.0Q0.0 0.0 4.0 0.0L246.99675324675323 0.0Q250.99675324675323 0.0 250.99675324675323 4.0L250.99675324675323 122.85848541143044Q250.99675324675323 126.85848541143044 246.99675324675323 126.85848541143044L4.0 126.85848541143044Q0.0 126.85848541143044 0.0 122.85848541143044Z" stroke="#323232" stroke-width="2.0" stroke-dasharray="none" opacity="1.0" fill="#e6ffcc"/><g id="ProcessOnG1017" transform="matrix(1.0,0.0,0.0,1.0,5.0,1.9363203865307455)"><text id="ProcessOnText1018" fill="#000000" font-weight="normal" font-style="normal" text-decoration="blink" font-family="微软雅黑" text-anchor="middle" font-size="13" x="120.49837662337661" y="13.325">分布式缓存服务器n</text></g></g><g id="ProcessOnG1019" transform="matrix(1.0,0.0,0.0,1.0,694.012987012987,85.39361818380505)" opacity="1.0"><path id="ProcessOnPath1020" d="M0.0 4.0Q0.0 0.0 4.0 0.0L246.99675324675323 0.0Q250.99675324675323 0.0 250.99675324675323 4.0L250.99675324675323 122.85848541143044Q250.99675324675323 126.85848541143044 246.99675324675323 126.85848541143044L4.0 126.85848541143044Q0.0 126.85848541143044 0.0 122.85848541143044Z" stroke="#323232" stroke-width="2.0" stroke-dasharray="none" opacity="1.0" fill="#e6ffcc"/><g id="ProcessOnG1021" transform="matrix(1.0,0.0,0.0,1.0,5.0,1.9363203865307455)"><text id="ProcessOnText1022" fill="#000000" font-weight="normal" font-style="normal" text-decoration="blink" font-family="微软雅黑" text-anchor="middle" font-size="13" x="120.49837662337661" y="13.325">分布式缓存服务器2</text></g></g><g id="ProcessOnG1023" transform="matrix(1.0,0.0,0.0,1.0,716.9350649350649,103.78723636761009)" opacity="1.0"><path id="ProcessOnPath1024" d="M0.0 4.0Q0.0 0.0 4.0 0.0L246.99675324675323 0.0Q250.99675324675323 0.0 250.99675324675323 4.0L250.99675324675323 122.85848541143044Q250.99675324675323 126.85848541143044 246.99675324675323 126.85848541143044L4.0 126.85848541143044Q0.0 126.85848541143044 0.0 122.85848541143044Z" stroke="#323232" stroke-width="2.0" stroke-dasharray="none" opacity="1.0" fill="#e6ffcc"/><g id="ProcessOnG1025" transform="matrix(1.0,0.0,0.0,1.0,5.0,1.9363203865307455)"><text id="ProcessOnText1026" fill="#000000" font-weight="normal" font-style="normal" text-decoration="blink" font-family="微软雅黑" text-anchor="middle" font-size="13" x="120.49837662337661" y="13.325">分布式缓存服务器1</text></g></g><g id="ProcessOnG1027" transform="matrix(1.0,0.0,0.0,1.0,765.9310064935064,141.01994317560923)" opacity="1.0"><path id="ProcessOnPath1028" d="M0.0 0.0L153.00487012987014 0.0L153.00487012987014 52.39307179543219L0.0 52.39307179543219Z" stroke="#323232" stroke-width="2.0" stroke-dasharray="none" opacity="1.0" fill="#ffcc99"/><g id="ProcessOnG1029" transform="matrix(1.0,0.0,0.0,1.0,10.0,18.071535897716096)"><text id="ProcessOnText1030" fill="#000000" font-weight="normal" font-style="normal" text-decoration="blink" font-family="微软雅黑" text-anchor="middle" font-size="13" x="66.50243506493507" y="13.325">远程分布式缓存</text></g></g><g id="ProcessOnG1031" transform="matrix(1.0,0.0,0.0,1.0,277.0,268.1550650202164)" opacity="1.0"><path id="ProcessOnPath1032" d="M0.0 4.0Q0.0 0.0 4.0 0.0L268.77272727272725 0.0Q272.77272727272725 0.0 272.77272727272725 4.0L272.77272727272725 147.74735001639166Q272.77272727272725 151.74735001639166 268.77272727272725 151.74735001639166L4.0 151.74735001639166Q0.0 151.74735001639166 0.0 147.74735001639166Z" stroke="#323232" stroke-width="2.0" stroke-dasharray="none" opacity="1.0" fill="#ffffcc"/><g id="ProcessOnG1033" transform="matrix(1.0,0.0,0.0,1.0,5.0,3.714096429742261)"><text id="ProcessOnText1034" fill="#000000" font-weight="normal" font-style="normal" text-decoration="blink" font-family="微软雅黑" text-anchor="middle" font-size="13" x="131.38636363636363" y="13.325">应用服务器n</text></g></g><g id="ProcessOnG1035" transform="matrix(1.0,0.0,0.0,1.0,297.0,288.1550650202164)" opacity="1.0"><path id="ProcessOnPath1036" d="M0.0 4.0Q0.0 0.0 4.0 0.0L268.77272727272725 0.0Q272.77272727272725 0.0 272.77272727272725 4.0L272.77272727272725 147.74735001639166Q272.77272727272725 151.74735001639166 268.77272727272725 151.74735001639166L4.0 151.74735001639166Q0.0 151.74735001639166 0.0 147.74735001639166Z" stroke="#323232" stroke-width="2.0" stroke-dasharray="none" opacity="1.0" fill="#ffffcc"/><g id="ProcessOnG1037" transform="matrix(1.0,0.0,0.0,1.0,5.0,3.714096429742261)"><text id="ProcessOnText1038" fill="#000000" font-weight="normal" font-style="normal" text-decoration="blink" font-family="微软雅黑" text-anchor="middle" font-size="13" x="131.38636363636363" y="13.325">应用服务器2</text></g></g><g id="ProcessOnG1039" transform="matrix(1.0,0.0,0.0,1.0,317.8644480519481,308.1550650202164)" opacity="1.0"><path id="ProcessOnPath1040" d="M0.0 4.0Q0.0 0.0 4.0 0.0L268.77272727272725 0.0Q272.77272727272725 0.0 272.77272727272725 4.0L272.77272727272725 147.74735001639166Q272.77272727272725 151.74735001639166 268.77272727272725 151.74735001639166L4.0 151.74735001639166Q0.0 151.74735001639166 0.0 147.74735001639166Z" stroke="#323232" stroke-width="2.0" stroke-dasharray="none" opacity="1.0" fill="#ffffcc"/><g id="ProcessOnG1041" transform="matrix(1.0,0.0,0.0,1.0,5.0,3.714096429742261)"><text id="ProcessOnText1042" fill="#000000" font-weight="normal" font-style="normal" text-decoration="blink" font-family="微软雅黑" text-anchor="middle" font-size="13" x="131.38636363636363" y="13.325">应用服务器1</text></g></g><g id="ProcessOnG1043" transform="matrix(1.0,0.0,0.0,1.0,402.9242424242424,335.81400939788)" opacity="1.0"><path id="ProcessOnPath1044" d="M0.0 0.0L90.92424242424242 0.0L90.92424242424242 44.2596437547809L0.0 44.2596437547809Z" stroke="#323232" stroke-width="2.0" stroke-dasharray="none" opacity="1.0" fill="#99ff99"/><g id="ProcessOnG1045" transform="matrix(1.0,0.0,0.0,1.0,10.0,14.004821877390452)"><text id="ProcessOnText1046" fill="#000000" font-weight="normal" font-style="normal" text-decoration="blink" font-family="微软雅黑" text-anchor="middle" font-size="13" x="35.46212121212121" y="13.325">应用程序</text></g></g><g id="ProcessOnG1047" transform="matrix(1.0,0.0,0.0,1.0,345.9242424242424,399.9579280952902)" opacity="1.0"><path id="ProcessOnPath1048" d="M0.0 22.12982187739045C0.0 -7.376607292463484 90.92424242424242 -7.376607292463484 90.92424242424242 22.12982187739045C90.92424242424242 51.636251047244386 0.0 51.636251047244386 0.0 22.12982187739045Z" stroke="#323232" stroke-width="2.0" stroke-dasharray="none" opacity="1.0" fill="#ccccff"/><g id="ProcessOnG1049" transform="matrix(1.0,0.0,0.0,1.0,10.0,14.004821877390452)"><text id="ProcessOnText1050" fill="#000000" font-weight="normal" font-style="normal" text-decoration="blink" font-family="微软雅黑" text-anchor="middle" font-size="13" x="35.46212121212121" y="13.325">本地缓存</text></g></g><g id="ProcessOnG1051"><path id="ProcessOnPath1052" d="M448.38636363636357 380.0736531526609L405.77221830052173 394.9394668772757" stroke="#323232" stroke-width="2.0" stroke-dasharray="none" fill="none" marker-end="url(#ProcessOnMarker1053)"/></g><g id="ProcessOnG1055"><path id="ProcessOnPath1056" d="M214.0 368.02874002841224C240.96664606509307 368.02874002841224 250.03335393490693 344.02874002841224 261.7639320225002 344.02874002841224" stroke="#323232" stroke-width="2.0" stroke-dasharray="none" fill="none" marker-end="url(#ProcessOnMarker1057)"/></g><g id="ProcessOnG1059"><path id="ProcessOnPath1060" d="M214.0 368.02874002841224C247.23853185686755 368.02874002841224 263.76146814313245 364.02874002841224 281.7639320225002 364.02874002841224" stroke="#323232" stroke-width="2.0" stroke-dasharray="none" fill="none" marker-end="url(#ProcessOnMarker1061)"/></g><g id="ProcessOnG1063"><path id="ProcessOnPath1064" d="M214.0 368.02874002841224C256.0358391264137 368.02874002841224 275.8286089255344 384.02874002841224 302.62838007444833 384.02874002841224" stroke="#323232" stroke-width="2.0" stroke-dasharray="none" fill="none" marker-end="url(#ProcessOnMarker1065)"/></g><g id="ProcessOnG1067" transform="matrix(1.0,0.0,0.0,1.0,468.8484848484848,399.9579280952902)" opacity="1.0"><path id="ProcessOnPath1068" d="M0.0 22.12982187739044C0.0 -7.37660729246348 93.15151515151518 -7.37660729246348 93.15151515151518 22.12982187739044C93.15151515151518 51.636251047244365 0.0 51.636251047244365 0.0 22.12982187739044Z" stroke="#323232" stroke-width="2.0" stroke-dasharray="none" opacity="1.0" fill="#ff99ff"/><g id="ProcessOnG1069" transform="matrix(1.0,0.0,0.0,1.0,10.0,5.879821877390441)"><text id="ProcessOnText1070" fill="#000000" font-weight="normal" font-style="normal" text-decoration="blink" font-family="微软雅黑" text-anchor="middle" font-size="13" x="36.57575757575759" y="13.325">统一数据访</text><text id="ProcessOnText1071" fill="#000000" font-weight="normal" font-style="normal" text-decoration="blink" font-family="微软雅黑" text-anchor="middle" font-size="13" x="36.57575757575759" y="29.575">问模块</text></g></g><g id="ProcessOnG1072"><path id="ProcessOnPath1073" d="M448.38636363636357 380.0736531526609L500.8171880308961 395.6252927119678" stroke="#323232" stroke-width="2.0" stroke-dasharray="none" fill="none" marker-end="url(#ProcessOnMarker1074)"/></g><g id="ProcessOnG1076" transform="matrix(1.0,0.0,0.0,1.0,73.0,597.2974538301826)" opacity="1.0"><path id="ProcessOnPath1077" d="M0.0 18.0Q0.0 0.0 18.0 0.0L100.0 0.0Q118.0 0.0 118.0 18.0L118.0 40.285870396677865Q118.0 58.285870396677865 100.0 58.285870396677865L18.0 58.285870396677865Q0.0 58.285870396677865 0.0 40.285870396677865L0.0 18.0Z" stroke="#323232" stroke-width="2.0" stroke-dasharray="none" opacity="1.0" fill="#99ffcc"/></g><g id="ProcessOnG1078" transform="matrix(1.0,0.0,0.0,1.0,80.0,605.6617855972027)" opacity="1.0"><path id="ProcessOnPath1079" d="M0.0 18.0Q0.0 0.0 18.0 0.0L100.0 0.0Q118.0 0.0 118.0 18.0L118.0 40.285870396677865Q118.0 58.285870396677865 100.0 58.285870396677865L18.0 58.285870396677865Q0.0 58.285870396677865 0.0 40.285870396677865L0.0 18.0Z" stroke="#323232" stroke-width="2.0" stroke-dasharray="none" opacity="1.0" fill="#99ffcc"/></g><g id="ProcessOnG1080" transform="matrix(1.0,0.0,0.0,1.0,88.0,613.2974538301826)" opacity="1.0"><path id="ProcessOnPath1081" d="M0.0 18.0Q0.0 0.0 18.0 0.0L100.0 0.0Q118.0 0.0 118.0 18.0L118.0 40.285870396677865Q118.0 58.285870396677865 100.0 58.285870396677865L18.0 58.285870396677865Q0.0 58.285870396677865 0.0 40.285870396677865L0.0 18.0Z" stroke="#323232" stroke-width="2.0" stroke-dasharray="none" opacity="1.0" fill="#99ffcc"/><g id="ProcessOnG1082" transform="matrix(1.0,0.0,0.0,1.0,10.0,21.017935198338932)"><text id="ProcessOnText1083" fill="#000000" font-weight="normal" font-style="normal" text-decoration="blink" font-family="微软雅黑" text-anchor="middle" font-size="13" x="49.0" y="13.325">CDN服务器1</text></g></g><g id="ProcessOnG1084" transform="matrix(1.0,0.0,0.0,1.0,73.0,459.9024150366081)" opacity="1.0"><path id="ProcessOnPath1085" d="M0.0 18.0Q0.0 0.0 18.0 0.0L100.0 0.0Q118.0 0.0 118.0 18.0L118.0 40.285870396677865Q118.0 58.285870396677865 100.0 58.285870396677865L18.0 58.285870396677865Q0.0 58.285870396677865 0.0 40.285870396677865L0.0 18.0Z" stroke="#323232" stroke-width="2.0" stroke-dasharray="none" opacity="1.0" fill="#cc99ff"/></g><g id="ProcessOnG1086" transform="matrix(1.0,0.0,0.0,1.0,80.0,468.26674680362817)" opacity="1.0"><path id="ProcessOnPath1087" d="M0.0 18.0Q0.0 0.0 18.0 0.0L100.0 0.0Q118.0 0.0 118.0 18.0L118.0 40.285870396677865Q118.0 58.285870396677865 100.0 58.285870396677865L18.0 58.285870396677865Q0.0 58.285870396677865 0.0 40.285870396677865L0.0 18.0Z" stroke="#323232" stroke-width="2.0" stroke-dasharray="none" opacity="1.0" fill="#cc99ff"/></g><g id="ProcessOnG1088" transform="matrix(1.0,0.0,0.0,1.0,88.0,475.9024150366081)" opacity="1.0"><path id="ProcessOnPath1089" d="M0.0 18.0Q0.0 0.0 18.0 0.0L100.0 0.0Q118.0 0.0 118.0 18.0L118.0 40.285870396677865Q118.0 58.285870396677865 100.0 58.285870396677865L18.0 58.285870396677865Q0.0 58.285870396677865 0.0 40.285870396677865L0.0 18.0Z" stroke="#323232" stroke-width="2.0" stroke-dasharray="none" opacity="1.0" fill="#cc99ff"/><g id="ProcessOnG1090" transform="matrix(1.0,0.0,0.0,1.0,10.0,12.892935198338932)"><text id="ProcessOnText1091" fill="#000000" font-weight="normal" font-style="normal" text-decoration="blink" font-family="微软雅黑" text-anchor="middle" font-size="13" x="49.0" y="13.325">反向代理服务器</text><text id="ProcessOnText1092" fill="#000000" font-weight="normal" font-style="normal" text-decoration="blink" font-family="微软雅黑" text-anchor="middle" font-size="13" x="49.0" y="29.575">1</text></g></g><g id="ProcessOnG1093" transform="matrix(1.0,0.0,0.0,1.0,81.0,322.8858048300733)" opacity="1.0"><path id="ProcessOnPath1094" d="M0.0 18.0Q0.0 0.0 18.0 0.0L100.0 0.0Q118.0 0.0 118.0 18.0L118.0 40.285870396677865Q118.0 58.285870396677865 100.0 58.285870396677865L18.0 58.285870396677865Q0.0 58.285870396677865 0.0 40.285870396677865L0.0 18.0Z" stroke="#323232" stroke-width="2.0" stroke-dasharray="none" opacity="1.0" fill="#ffff66"/></g><g id="ProcessOnG1095" transform="matrix(1.0,0.0,0.0,1.0,88.0,331.2501365970934)" opacity="1.0"><path id="ProcessOnPath1096" d="M0.0 18.0Q0.0 0.0 18.0 0.0L100.0 0.0Q118.0 0.0 118.0 18.0L118.0 40.285870396677865Q118.0 58.285870396677865 100.0 58.285870396677865L18.0 58.285870396677865Q0.0 58.285870396677865 0.0 40.285870396677865L0.0 18.0Z" stroke="#323232" stroke-width="2.0" stroke-dasharray="none" opacity="1.0" fill="#ffff66"/></g><g id="ProcessOnG1097" transform="matrix(1.0,0.0,0.0,1.0,96.0,338.8858048300733)" opacity="1.0"><path id="ProcessOnPath1098" d="M0.0 18.0Q0.0 0.0 18.0 0.0L100.0 0.0Q118.0 0.0 118.0 18.0L118.0 40.285870396677865Q118.0 58.285870396677865 100.0 58.285870396677865L18.0 58.285870396677865Q0.0 58.285870396677865 0.0 40.285870396677865L0.0 18.0Z" stroke="#323232" stroke-width="2.0" stroke-dasharray="none" opacity="1.0" fill="#ffff66"/><g id="ProcessOnG1099" transform="matrix(1.0,0.0,0.0,1.0,10.0,12.892935198338932)"><text id="ProcessOnText1100" fill="#000000" font-weight="normal" font-style="normal" text-decoration="blink" font-family="微软雅黑" text-anchor="middle" font-size="13" x="49.0" y="13.325">负载均衡服务器</text><text id="ProcessOnText1101" fill="#000000" font-weight="normal" font-style="normal" text-decoration="blink" font-family="微软雅黑" text-anchor="middle" font-size="13" x="49.0" y="29.575">1</text></g></g><g id="ProcessOnG1102" transform="matrix(1.0,0.0,0.0,1.0,714.012987012987,285.8691946235385)" opacity="1.0"><path id="ProcessOnPath1103" d="M0.0 4.0Q0.0 0.0 4.0 0.0L202.2987012987013 0.0Q206.2987012987013 0.0 206.2987012987013 4.0L206.2987012987013 128.31909080974756Q206.2987012987013 132.31909080974756 202.2987012987013 132.31909080974756L4.0 132.31909080974756Q0.0 132.31909080974756 0.0 128.31909080974756Z" stroke="#323232" stroke-width="2.0" stroke-dasharray="none" opacity="1.0" fill="#ffffcc"/><g id="ProcessOnG1104" transform="matrix(1.0,0.0,0.0,1.0,5.0,2.326363629267682)"><text id="ProcessOnText1105" fill="#000000" font-weight="normal" font-style="normal" text-decoration="blink" font-family="微软雅黑" text-anchor="middle" font-size="13" x="98.14935064935065" y="13.325">分布式文件服务器2</text></g></g><g id="ProcessOnG1106" transform="matrix(1.0,0.0,0.0,1.0,734.012987012987,305.8691946235385)" opacity="1.0"><path id="ProcessOnPath1107" d="M0.0 4.0Q0.0 0.0 4.0 0.0L202.2987012987013 0.0Q206.2987012987013 0.0 206.2987012987013 4.0L206.2987012987013 128.31909080974756Q206.2987012987013 132.31909080974756 202.2987012987013 132.31909080974756L4.0 132.31909080974756Q0.0 132.31909080974756 0.0 128.31909080974756Z" stroke="#323232" stroke-width="2.0" stroke-dasharray="none" opacity="1.0" fill="#ffffcc"/><g id="ProcessOnG1108" transform="matrix(1.0,0.0,0.0,1.0,5.0,2.326363629267682)"><text id="ProcessOnText1109" fill="#000000" font-weight="normal" font-style="normal" text-decoration="blink" font-family="微软雅黑" text-anchor="middle" font-size="13" x="98.14935064935065" y="13.325">分布式文件服务器n1</text></g></g><g id="ProcessOnG1110" transform="matrix(1.0,0.0,0.0,1.0,779.8571428571428,339.8399082067534)" opacity="1.0"><path id="ProcessOnPath1111" d="M8.0 8.0Q8.0 0.0 16.0 0.0L106.6103896103896 0.0Q114.6103896103896 0.0 114.6103896103896 8.0L114.6103896103896 48.377663643317675Q114.6103896103896 56.377663643317675 106.6103896103896 56.377663643317675L106.6103896103896 56.377663643317675" stroke="#323232" stroke-width="2.0" stroke-dasharray="none" opacity="1.0" fill="#ff9999"/><path id="ProcessOnPath1112" d="M0.0 16.0Q0.0 8.0 8.0 8.0L98.6103896103896 8.0Q106.6103896103896 8.0 106.6103896103896 16.0L106.6103896103896 56.377663643317675Q106.6103896103896 64.37766364331767 98.6103896103896 64.37766364331767L8.0 64.37766364331767Q0.0 64.37766364331767 0.0 56.377663643317675L0.0 16.0Z" stroke="#323232" stroke-width="2.0" stroke-dasharray="none" opacity="1.0" fill="#ff9999"/><path id="ProcessOnPath1113" d="M0.0 4.0Q0.0 0.0 4.0 0.0L110.6103896103896 0.0Q114.6103896103896 0.0 114.6103896103896 4.0L114.6103896103896 60.377663643317675Q114.6103896103896 64.37766364331767 110.6103896103896 64.37766364331767L4.0 64.37766364331767Q0.0 64.37766364331767 0.0 60.377663643317675Z" stroke="#323232" stroke-width="0.0" stroke-dasharray="none" opacity="1.0" fill="none"/><g id="ProcessOnG1114" transform="matrix(1.0,0.0,0.0,1.0,15.1017316017316,28.063831821658837)"><text id="ProcessOnText1115" fill="#000000" font-weight="normal" font-style="normal" text-decoration="blink" font-family="微软雅黑" text-anchor="middle" font-size="13" x="38.2034632034632" y="13.325">文件</text></g></g><g id="ProcessOnG1116" transform="matrix(1.0,0.0,0.0,1.0,698.7110389610389,505.2501365970934)" opacity="1.0"><path id="ProcessOnPath1117" d="M0.0 4.0Q0.0 0.0 4.0 0.0L202.2987012987013 0.0Q206.2987012987013 0.0 206.2987012987013 4.0L206.2987012987013 128.31909080974756Q206.2987012987013 132.31909080974756 202.2987012987013 132.31909080974756L4.0 132.31909080974756Q0.0 132.31909080974756 0.0 128.31909080974756Z" stroke="#323232" stroke-width="2.0" stroke-dasharray="none" opacity="1.0" fill="#ccffff"/><g id="ProcessOnG1118" transform="matrix(1.0,0.0,0.0,1.0,5.0,2.326363629267682)"><text id="ProcessOnText1119" fill="#000000" font-weight="normal" font-style="normal" text-decoration="blink" font-family="微软雅黑" text-anchor="middle" font-size="13" x="98.14935064935065" y="13.325">分布式文件服务器n</text></g></g><g id="ProcessOnG1120" transform="matrix(1.0,0.0,0.0,1.0,718.7110389610389,525.2501365970934)" opacity="1.0"><path id="ProcessOnPath1121" d="M0.0 4.0Q0.0 0.0 4.0 0.0L202.2987012987013 0.0Q206.2987012987013 0.0 206.2987012987013 4.0L206.2987012987013 128.31909080974756Q206.2987012987013 132.31909080974756 202.2987012987013 132.31909080974756L4.0 132.31909080974756Q0.0 132.31909080974756 0.0 128.31909080974756Z" stroke="#323232" stroke-width="2.0" stroke-dasharray="none" opacity="1.0" fill="#ccffff"/><g id="ProcessOnG1122" transform="matrix(1.0,0.0,0.0,1.0,5.0,2.326363629267682)"><text id="ProcessOnText1123" fill="#000000" font-weight="normal" font-style="normal" text-decoration="blink" font-family="微软雅黑" text-anchor="middle" font-size="13" x="98.14935064935065" y="13.325">分布式文件服务器2</text></g></g><g id="ProcessOnG1124" transform="matrix(1.0,0.0,0.0,1.0,738.7110389610389,545.2501365970934)" opacity="1.0"><path id="ProcessOnPath1125" d="M0.0 4.0Q0.0 0.0 4.0 0.0L202.2987012987013 0.0Q206.2987012987013 0.0 206.2987012987013 4.0L206.2987012987013 128.31909080974756Q206.2987012987013 132.31909080974756 202.2987012987013 132.31909080974756L4.0 132.31909080974756Q0.0 132.31909080974756 0.0 128.31909080974756Z" stroke="#323232" stroke-width="2.0" stroke-dasharray="none" opacity="1.0" fill="#ccffff"/><g id="ProcessOnG1126" transform="matrix(1.0,0.0,0.0,1.0,5.0,2.326363629267682)"><text id="ProcessOnText1127" fill="#000000" font-weight="normal" font-style="normal" text-decoration="blink" font-family="微软雅黑" text-anchor="middle" font-size="13" x="98.14935064935065" y="13.325">分布式文件服务器n1</text></g></g><g id="ProcessOnG1128" transform="matrix(1.0,0.0,0.0,1.0,784.5551948051947,579.2208501803084)" opacity="1.0"><path id="ProcessOnPath1129" d="M8.0 8.0Q8.0 0.0 16.0 0.0L106.6103896103896 0.0Q114.6103896103896 0.0 114.6103896103896 8.0L114.6103896103896 48.377663643317675Q114.6103896103896 56.377663643317675 106.6103896103896 56.377663643317675L106.6103896103896 56.377663643317675" stroke="#323232" stroke-width="2.0" stroke-dasharray="none" opacity="1.0" fill="#e5ccff"/><path id="ProcessOnPath1130" d="M0.0 16.0Q0.0 8.0 8.0 8.0L98.6103896103896 8.0Q106.6103896103896 8.0 106.6103896103896 16.0L106.6103896103896 56.377663643317675Q106.6103896103896 64.37766364331767 98.6103896103896 64.37766364331767L8.0 64.37766364331767Q0.0 64.37766364331767 0.0 56.377663643317675L0.0 16.0Z" stroke="#323232" stroke-width="2.0" stroke-dasharray="none" opacity="1.0" fill="#e5ccff"/><path id="ProcessOnPath1131" d="M0.0 4.0Q0.0 0.0 4.0 0.0L110.6103896103896 0.0Q114.6103896103896 0.0 114.6103896103896 4.0L114.6103896103896 60.377663643317675Q114.6103896103896 64.37766364331767 110.6103896103896 64.37766364331767L4.0 64.37766364331767Q0.0 64.37766364331767 0.0 60.377663643317675Z" stroke="#323232" stroke-width="0.0" stroke-dasharray="none" opacity="1.0" fill="none"/><g id="ProcessOnG1132" transform="matrix(1.0,0.0,0.0,1.0,15.1017316017316,28.063831821658837)"><text id="ProcessOnText1133" fill="#000000" font-weight="normal" font-style="normal" text-decoration="blink" font-family="微软雅黑" text-anchor="middle" font-size="13" x="38.2034632034632" y="13.325">数据库</text></g></g><g id="ProcessOnG1134"><path id="ProcessOnPath1135" d="M562.0 422.0877499726806C642.9809336165155 422.0877499726806 617.7301053445234 571.4096820019672 683.474970983539 571.4096820019672" stroke="#323232" stroke-width="2.0" stroke-dasharray="none" fill="none" marker-end="url(#ProcessOnMarker1136)"/></g><g id="ProcessOnG1138"><path id="ProcessOnPath1139" d="M139.0 605.6617855972027C139.0 576.8938556037356 147.0 562.956215426753 147.0 549.4243534107858" stroke="#323232" stroke-width="2.0" stroke-dasharray="none" fill="none" marker-end="url(#ProcessOnMarker1140)"/></g><g id="ProcessOnG1142"><path id="ProcessOnPath1143" d="M139.0 468.26674680362817C139.0 439.11745054448323 155.0 426.3209714858961 155.0 412.40774320425095" stroke="#323232" stroke-width="2.0" stroke-dasharray="none" fill="none" marker-end="url(#ProcessOnMarker1144)"/></g><g id="ProcessOnG1146"><path id="ProcessOnPath1147" d="M562.0 422.0877499726806C628.9521776732995 422.0877499726806 647.0608093396875 352.02874002841224 698.7769190354871 352.02874002841224" stroke="#323232" stroke-width="2.0" stroke-dasharray="none" fill="none" marker-end="url(#ProcessOnMarker1148)"/></g><g id="ProcessOnG1150"><path id="ProcessOnPath1151" d="M562.0 422.0877499726806C683.3926708467842 422.0877499726806 572.6203161662028 148.82286088952026 678.7769190354871 148.82286088952026" stroke="#323232" stroke-width="2.0" stroke-dasharray="none" fill="none" marker-end="url(#ProcessOnMarker1152)"/></g><g id="ProcessOnG1154" transform="matrix(1.0,0.0,0.0,1.0,267.0,574.2667468036283)" opacity="1.0"><path id="ProcessOnPath1155" d="M0.0 18.0Q0.0 0.0 18.0 0.0L114.19548872180451 0.0Q132.1954887218045 0.0 132.1954887218045 18.0L132.1954887218045 40.285870396677865Q132.1954887218045 58.285870396677865 114.19548872180451 58.285870396677865L18.0 58.285870396677865Q0.0 58.285870396677865 0.0 40.285870396677865L0.0 18.0Z" stroke="#323232" stroke-width="2.0" stroke-dasharray="none" opacity="1.0" fill="#66cc00"/></g><g id="ProcessOnG1156" transform="matrix(1.0,0.0,0.0,1.0,274.8421052631579,582.6310785706484)" opacity="1.0"><path id="ProcessOnPath1157" d="M0.0 18.0Q0.0 0.0 18.0 0.0L114.19548872180451 0.0Q132.1954887218045 0.0 132.1954887218045 18.0L132.1954887218045 40.285870396677865Q132.1954887218045 58.285870396677865 114.19548872180451 58.285870396677865L18.0 58.285870396677865Q0.0 58.285870396677865 0.0 40.285870396677865L0.0 18.0Z" stroke="#323232" stroke-width="2.0" stroke-dasharray="none" opacity="1.0" fill="#66cc00"/></g><g id="ProcessOnG1158" transform="matrix(1.0,0.0,0.0,1.0,283.8045112781955,590.2667468036283)" opacity="1.0"><path id="ProcessOnPath1159" d="M0.0 18.0Q0.0 0.0 18.0 0.0L114.19548872180451 0.0Q132.1954887218045 0.0 132.1954887218045 18.0L132.1954887218045 40.285870396677865Q132.1954887218045 58.285870396677865 114.19548872180451 58.285870396677865L18.0 58.285870396677865Q0.0 58.285870396677865 0.0 40.285870396677865L0.0 18.0Z" stroke="#323232" stroke-width="2.0" stroke-dasharray="none" opacity="1.0" fill="#66cc00"/><g id="ProcessOnG1160" transform="matrix(1.0,0.0,0.0,1.0,10.0,21.017935198338932)"><text id="ProcessOnText1161" fill="#000000" font-weight="normal" font-style="normal" text-decoration="blink" font-family="微软雅黑" text-anchor="middle" font-size="13" x="56.097744360902254" y="13.325">搜索引擎服务器1</text></g></g><g id="ProcessOnG1162" transform="matrix(1.0,0.0,0.0,1.0,473.00000000000006,574.2667468036283)" opacity="1.0"><path id="ProcessOnPath1163" d="M0.0 18.0Q0.0 0.0 18.0 0.0L100.0 0.0Q118.0 0.0 118.0 18.0L118.0 40.285870396677865Q118.0 58.285870396677865 100.0 58.285870396677865L18.0 58.285870396677865Q0.0 58.285870396677865 0.0 40.285870396677865L0.0 18.0Z" stroke="#323232" stroke-width="2.0" stroke-dasharray="none" opacity="1.0" fill="#00cccc"/></g><g id="ProcessOnG1164" transform="matrix(1.0,0.0,0.0,1.0,480.00000000000006,582.6310785706484)" opacity="1.0"><path id="ProcessOnPath1165" d="M0.0 18.0Q0.0 0.0 18.0 0.0L100.0 0.0Q118.0 0.0 118.0 18.0L118.0 40.285870396677865Q118.0 58.285870396677865 100.0 58.285870396677865L18.0 58.285870396677865Q0.0 58.285870396677865 0.0 40.285870396677865L0.0 18.0Z" stroke="#323232" stroke-width="2.0" stroke-dasharray="none" opacity="1.0" fill="#00cccc"/></g><g id="ProcessOnG1166" transform="matrix(1.0,0.0,0.0,1.0,488.00000000000006,590.2667468036283)" opacity="1.0"><path id="ProcessOnPath1167" d="M0.0 18.0Q0.0 0.0 18.0 0.0L100.0 0.0Q118.0 0.0 118.0 18.0L118.0 40.285870396677865Q118.0 58.285870396677865 100.0 58.285870396677865L18.0 58.285870396677865Q0.0 58.285870396677865 0.0 40.285870396677865L0.0 18.0Z" stroke="#323232" stroke-width="2.0" stroke-dasharray="none" opacity="1.0" fill="#00cccc"/><g id="ProcessOnG1168" transform="matrix(1.0,0.0,0.0,1.0,10.0,21.017935198338932)"><text id="ProcessOnText1169" fill="#000000" font-weight="normal" font-style="normal" text-decoration="blink" font-family="微软雅黑" text-anchor="middle" font-size="13" x="49.0" y="13.325">NoSQL服务器1</text></g></g><g id="ProcessOnG1170"><path id="ProcessOnPath1171" d="M515.4242424242424 444.21757185007107C515.4242424242424 533.3045874458676 340.9398496240602 493.54406297485184 340.9398496240602 567.3950105931485" stroke="#323232" stroke-width="2.0" stroke-dasharray="none" fill="none" marker-end="url(#ProcessOnMarker1172)"/></g><g id="ProcessOnG1174"><path id="ProcessOnPath1175" d="M515.4242424242424 444.21757185007107C515.4242424242424 500.38035694904306 539.0 526.4682934716764 539.0 567.3950105931485" stroke="#323232" stroke-width="2.0" stroke-dasharray="none" fill="none" marker-end="url(#ProcessOnMarker1176)"/></g><g id="ProcessOnG1178" transform="matrix(1.0,0.0,0.0,1.0,81.0,184.74213200743088)" opacity="1.0"><path id="ProcessOnPath1179" d="M0.0 18.0Q0.0 0.0 18.0 0.0L100.0 0.0Q118.0 0.0 118.0 18.0L118.0 40.285870396677865Q118.0 58.285870396677865 100.0 58.285870396677865L18.0 58.285870396677865Q0.0 58.285870396677865 0.0 40.285870396677865L0.0 18.0Z" stroke="#323232" stroke-width="2.0" stroke-dasharray="none" opacity="1.0" fill="#ccffff"/></g><g id="ProcessOnG1180" transform="matrix(1.0,0.0,0.0,1.0,88.0,193.10646377445096)" opacity="1.0"><path id="ProcessOnPath1181" d="M0.0 18.0Q0.0 0.0 18.0 0.0L100.0 0.0Q118.0 0.0 118.0 18.0L118.0 40.285870396677865Q118.0 58.285870396677865 100.0 58.285870396677865L18.0 58.285870396677865Q0.0 58.285870396677865 0.0 40.285870396677865L0.0 18.0Z" stroke="#323232" stroke-width="2.0" stroke-dasharray="none" opacity="1.0" fill="#ccffff"/></g><g id="ProcessOnG1182" transform="matrix(1.0,0.0,0.0,1.0,96.0,200.74213200743088)" opacity="1.0"><path id="ProcessOnPath1183" d="M0.0 18.0Q0.0 0.0 18.0 0.0L100.0 0.0Q118.0 0.0 118.0 18.0L118.0 40.285870396677865Q118.0 58.285870396677865 100.0 58.285870396677865L18.0 58.285870396677865Q0.0 58.285870396677865 0.0 40.285870396677865L0.0 18.0Z" stroke="#323232" stroke-width="2.0" stroke-dasharray="none" opacity="1.0" fill="#ccffff"/><g id="ProcessOnG1184" transform="matrix(1.0,0.0,0.0,1.0,10.0,21.017935198338932)"><text id="ProcessOnText1185" fill="#000000" font-weight="normal" font-style="normal" text-decoration="blink" font-family="微软雅黑" text-anchor="middle" font-size="13" x="49.0" y="13.325">B应用服务器1</text></g></g><g id="ProcessOnG1186" transform="matrix(1.0,0.0,0.0,1.0,309.00000000000006,157.0885149164028)" opacity="1.0"><path id="ProcessOnPath1187" d="M0.0 18.0Q0.0 0.0 18.0 0.0L140.81203007518795 0.0Q158.81203007518795 0.0 158.81203007518795 18.0L158.81203007518795 39.71414944784788Q158.81203007518795 57.71414944784788 140.81203007518795 57.71414944784788L18.0 57.71414944784788Q0.0 57.71414944784788 0.0 39.71414944784788L0.0 18.0Z" stroke="#323232" stroke-width="2.0" stroke-dasharray="none" opacity="1.0" fill="#ffcce6"/></g><g id="ProcessOnG1188" transform="matrix(1.0,0.0,0.0,1.0,318.421052631579,165.3708016927309)" opacity="1.0"><path id="ProcessOnPath1189" d="M0.0 18.0Q0.0 0.0 18.0 0.0L140.81203007518795 0.0Q158.81203007518795 0.0 158.81203007518795 18.0L158.81203007518795 39.71414944784788Q158.81203007518795 57.71414944784788 140.81203007518795 57.71414944784788L18.0 57.71414944784788Q0.0 57.71414944784788 0.0 39.71414944784788L0.0 18.0Z" stroke="#323232" stroke-width="2.0" stroke-dasharray="none" opacity="1.0" fill="#ffcce6"/></g><g id="ProcessOnG1190" transform="matrix(1.0,0.0,0.0,1.0,329.1879699248121,172.93157233119263)" opacity="1.0"><path id="ProcessOnPath1191" d="M0.0 18.0Q0.0 0.0 18.0 0.0L140.81203007518795 0.0Q158.81203007518795 0.0 158.81203007518795 18.0L158.81203007518795 39.71414944784788Q158.81203007518795 57.71414944784788 140.81203007518795 57.71414944784788L18.0 57.71414944784788Q0.0 57.71414944784788 0.0 39.71414944784788L0.0 18.0Z" stroke="#323232" stroke-width="2.0" stroke-dasharray="none" opacity="1.0" fill="#ffcce6"/><g id="ProcessOnG1192" transform="matrix(1.0,0.0,0.0,1.0,10.0,20.73207472392394)"><text id="ProcessOnText1193" fill="#000000" font-weight="normal" font-style="normal" text-decoration="blink" font-family="微软雅黑" text-anchor="middle" font-size="13" x="69.40601503759397" y="13.325">消息队列服务器1</text></g></g><g id="ProcessOnG1194"><path id="ProcessOnPath1195" d="M509.0845528259846 357.94383127527044C556.3543518804404 357.94383127527044 550.5058670319555 201.78864705511657 503.2360679774998 201.78864705511657" stroke="#323232" stroke-width="2.0" stroke-dasharray="none" fill="none" marker-start="url(#ProcessOnMarker1196)" marker-end="url(#ProcessOnMarker1198)"/></g><g id="ProcessOnG1200"><path id="ProcessOnPath1201" d="M147.0 331.2501365970934C147.0 302.18459227426473 155.0 288.0935467269374 155.0 274.2640703816085" stroke="#323232" stroke-width="2.0" stroke-dasharray="none" fill="none" marker-end="url(#ProcessOnMarker1202)"/></g><g id="ProcessOnG1204"><path id="ProcessOnPath1205" d="M229.2360679774998 229.88506720576981C258.1365000654258 229.88506720576981 274.2845525661532 194.22787641665485 303.18498465407924 194.22787641665485" stroke="#323232" stroke-width="2.0" stroke-dasharray="none" fill="none" marker-start="url(#ProcessOnMarker1206)" marker-end="url(#ProcessOnMarker1208)"/></g></g></g></svg>