<svg xmlns="http://www.w3.org/2000/svg" xmlns:xlink="http://www.w3.org/1999/xlink" id="processonSvg1000" viewBox="61.0 64.78723636761009 955.0 637.2127636323899" width="955.0" height="637.2127636323899"><defs id="ProcessOnDefs1001"><marker id="ProcessOnMarker1049" markerUnits="userSpaceOnUse" orient="auto" markerWidth="16.23606797749979" markerHeight="10.550836550532098" viewBox="-1.0 -1.3763819204711736 16.23606797749979 10.550836550532098" refX="-1.0" refY="3.8990363547948754"><path id="ProcessOnPath1050" d="M12.0 3.8990363547948754L0.0 7.798072709589751V0.0Z" stroke="#323232" stroke-width="2.0" fill="#323232" transform="matrix(1.0,0.0,0.0,1.0,0.0,0.0)"/></marker><marker id="ProcessOnMarker1053" markerUnits="userSpaceOnUse" orient="auto" markerWidth="16.23606797749979" markerHeight="10.550836550532098" viewBox="-1.0 -1.3763819204711736 16.23606797749979 10.550836550532098" refX="-1.0" refY="3.8990363547948754"><path id="ProcessOnPath1054" d="M12.0 3.8990363547948754L0.0 7.798072709589751V0.0Z" stroke="#323232" stroke-width="2.0" fill="#323232" transform="matrix(1.0,0.0,0.0,1.0,0.0,0.0)"/></marker><marker id="ProcessOnMarker1057" markerUnits="userSpaceOnUse" orient="auto" markerWidth="16.23606797749979" markerHeight="10.550836550532098" viewBox="-1.0 -1.3763819204711736 16.23606797749979 10.550836550532098" refX="-1.0" refY="3.8990363547948754"><path id="ProcessOnPath1058" d="M12.0 3.8990363547948754L0.0 7.798072709589751V0.0Z" stroke="#323232" stroke-width="2.0" fill="#323232" transform="matrix(1.0,0.0,0.0,1.0,0.0,0.0)"/></marker><marker id="ProcessOnMarker1061" markerUnits="userSpaceOnUse" orient="auto" markerWidth="16.23606797749979" markerHeight="10.550836550532098" viewBox="-1.0 -1.3763819204711736 16.23606797749979 10.550836550532098" refX="-1.0" refY="3.8990363547948754"><path id="ProcessOnPath1062" d="M12.0 3.8990363547948754L0.0 7.798072709589751V0.0Z" stroke="#323232" stroke-width="2.0" fill="#323232" transform="matrix(1.0,0.0,0.0,1.0,0.0,0.0)"/></marker><marker id="ProcessOnMarker1085" markerUnits="userSpaceOnUse" orient="auto" markerWidth="16.23606797749979" markerHeight="10.550836550532098" viewBox="-1.0 -1.3763819204711736 16.23606797749979 10.550836550532098" refX="-1.0" refY="3.8990363547948754"><path id="ProcessOnPath1086" d="M12.0 3.8990363547948754L0.0 7.798072709589751V0.0Z" stroke="#323232" stroke-width="2.0" fill="#323232" transform="matrix(1.0,0.0,0.0,1.0,0.0,0.0)"/></marker><marker id="ProcessOnMarker1089" markerUnits="userSpaceOnUse" orient="auto" markerWidth="16.23606797749979" markerHeight="10.550836550532098" viewBox="-1.0 -1.3763819204711736 16.23606797749979 10.550836550532098" refX="-1.0" refY="3.8990363547948754"><path id="ProcessOnPath1090" d="M12.0 3.8990363547948754L0.0 7.798072709589751V0.0Z" stroke="#323232" stroke-width="2.0" fill="#323232" transform="matrix(1.0,0.0,0.0,1.0,0.0,0.0)"/></marker><marker id="ProcessOnMarker1093" markerUnits="userSpaceOnUse" orient="auto" markerWidth="16.23606797749979" markerHeight="10.550836550532098" viewBox="-1.0 -1.3763819204711736 16.23606797749979 10.550836550532098" refX="-1.0" refY="3.8990363547948754"><path id="ProcessOnPath1094" d="M12.0 3.8990363547948754L0.0 7.798072709589751V0.0Z" stroke="#323232" stroke-width="2.0" fill="#323232" transform="matrix(1.0,0.0,0.0,1.0,0.0,0.0)"/></marker><marker id="ProcessOnMarker1097" markerUnits="userSpaceOnUse" orient="auto" markerWidth="16.23606797749979" markerHeight="10.550836550532098" viewBox="-1.0 -1.3763819204711736 16.23606797749979 10.550836550532098" refX="-1.0" refY="3.8990363547948754"><path id="ProcessOnPath1098" d="M12.0 3.8990363547948754L0.0 7.798072709589751V0.0Z" stroke="#323232" stroke-width="2.0" fill="#323232" transform="matrix(1.0,0.0,0.0,1.0,0.0,0.0)"/></marker><marker id="ProcessOnMarker1111" markerUnits="userSpaceOnUse" orient="auto" markerWidth="16.23606797749979" markerHeight="10.550836550532098" viewBox="-1.0 -1.3763819204711736 16.23606797749979 10.550836550532098" refX="-1.0" refY="3.8990363547948754"><path id="ProcessOnPath1112" d="M12.0 3.8990363547948754L0.0 7.798072709589751V0.0Z" stroke="#323232" stroke-width="2.0" fill="#323232" transform="matrix(1.0,0.0,0.0,1.0,0.0,0.0)"/></marker><marker id="ProcessOnMarker1118" markerUnits="userSpaceOnUse" orient="auto" markerWidth="16.23606797749979" markerHeight="10.550836550532098" viewBox="-1.0 -1.3763819204711736 16.23606797749979 10.550836550532098" refX="-1.0" refY="3.8990363547948754"><path id="ProcessOnPath1119" d="M12.0 3.8990363547948754L0.0 7.798072709589751V0.0Z" stroke="#323232" stroke-width="2.0" fill="#323232" transform="matrix(1.0,0.0,0.0,1.0,0.0,0.0)"/></marker><marker id="ProcessOnMarker1129" markerUnits="userSpaceOnUse" orient="auto" markerWidth="16.23606797749979" markerHeight="10.550836550532098" viewBox="-1.0 -1.3763819204711736 16.23606797749979 10.550836550532098" refX="-1.0" refY="3.8990363547948754"><path id="ProcessOnPath1130" d="M12.0 3.8990363547948754L0.0 7.798072709589751V0.0Z" stroke="#323232" stroke-width="2.0" fill="#323232" transform="matrix(1.0,0.0,0.0,1.0,0.0,0.0)"/></marker><marker id="ProcessOnMarker1133" markerUnits="userSpaceOnUse" orient="auto" markerWidth="16.23606797749979" markerHeight="10.550836550532098" viewBox="-1.0 -1.3763819204711736 16.23606797749979 10.550836550532098" refX="-1.0" refY="3.8990363547948754"><path id="ProcessOnPath1134" d="M12.0 3.8990363547948754L0.0 7.798072709589751V0.0Z" stroke="#323232" stroke-width="2.0" fill="#323232" transform="matrix(1.0,0.0,0.0,1.0,0.0,0.0)"/></marker><marker id="ProcessOnMarker1166" markerUnits="userSpaceOnUse" orient="auto" markerWidth="16.23606797749979" markerHeight="10.550836550532098" viewBox="-1.0 -1.3763819204711736 16.23606797749979 10.550836550532098" refX="-1.0" refY="3.8990363547948754"><path id="ProcessOnPath1167" d="M12.0 3.8990363547948754L0.0 7.798072709589751V0.0Z" stroke="#323232" stroke-width="2.0" fill="#323232" transform="matrix(1.0,0.0,0.0,1.0,0.0,0.0)"/></marker><marker id="ProcessOnMarker1170" markerUnits="userSpaceOnUse" orient="auto" markerWidth="16.23606797749979" markerHeight="10.550836550532098" viewBox="-1.0 -1.3763819204711736 16.23606797749979 10.550836550532098" refX="-1.0" refY="3.8990363547948754"><path id="ProcessOnPath1171" d="M12.0 3.8990363547948754L0.0 7.798072709589751V0.0Z" stroke="#323232" stroke-width="2.0" fill="#323232" transform="matrix(1.0,0.0,0.0,1.0,0.0,0.0)"/></marker></defs><g id="ProcessOnG1002"><path id="ProcessOnPath1003" d="M61.0 64.78723636761009H1016.0V702.0H61.0V64.78723636761015Z" fill="none"/><g id="ProcessOnG1004"><g id="ProcessOnG1005" transform="matrix(1.0,0.0,0.0,1.0,253.0,84.78723636761009)" opacity="1.0"><path id="ProcessOnPath1006" d="M0.0 0.0L392.0 0.0L392.0 88.0L0.0 88.0Z" stroke="#323232" stroke-width="0.0" stroke-dasharray="none" opacity="1.0" fill="none"/><g id="ProcessOnG1007" transform="matrix(1.0,0.0,0.0,1.0,0.0,0.875)"><text id="ProcessOnText1008" fill="#000000" font-weight="bold" font-style="normal" text-decoration="blink" font-family="微软雅黑" text-anchor="middle" font-size="23" x="196.0" y="23.575000000000003">大型网站架构 -- CDN和反向代理</text><text id="ProcessOnText1009" fill="#000000" font-weight="bold" font-style="normal" text-decoration="blink" font-family="微软雅黑" text-anchor="middle" font-size="23" x="196.0" y="52.325"></text><text id="ProcessOnText1010" fill="#000000" font-weight="bold" font-style="normal" text-decoration="blink" font-family="微软雅黑" text-anchor="middle" font-size="23" x="196.0" y="81.075">by decaywood</text></g></g><g id="ProcessOnG1011" transform="matrix(1.0,0.0,0.0,1.0,789.7012987012987,321.8691946235384)" opacity="1.0"><path id="ProcessOnPath1012" d="M0.0 4.0Q0.0 0.0 4.0 0.0L202.2987012987013 0.0Q206.2987012987013 0.0 206.2987012987013 4.0L206.2987012987013 128.31909080974756Q206.2987012987013 132.31909080974756 202.2987012987013 132.31909080974756L4.0 132.31909080974756Q0.0 132.31909080974756 0.0 128.31909080974756Z" stroke="#323232" stroke-width="2.0" stroke-dasharray="none" opacity="1.0" fill="#ffffcc"/><g id="ProcessOnG1013" transform="matrix(1.0,0.0,0.0,1.0,5.0,2.326363629267682)"><text id="ProcessOnText1014" fill="#000000" font-weight="normal" font-style="normal" text-decoration="blink" font-family="微软雅黑" text-anchor="middle" font-size="13" x="98.14935064935065" y="13.325">文件服务器</text></g></g><g id="ProcessOnG1015" transform="matrix(1.0,0.0,0.0,1.0,835.5454545454545,355.83990820675336)" opacity="1.0"><path id="ProcessOnPath1016" d="M8.0 8.0Q8.0 0.0 16.0 0.0L106.6103896103896 0.0Q114.6103896103896 0.0 114.6103896103896 8.0L114.6103896103896 48.377663643317675Q114.6103896103896 56.377663643317675 106.6103896103896 56.377663643317675L106.6103896103896 56.377663643317675" stroke="#323232" stroke-width="2.0" stroke-dasharray="none" opacity="1.0" fill="#ff9999"/><path id="ProcessOnPath1017" d="M0.0 16.0Q0.0 8.0 8.0 8.0L98.6103896103896 8.0Q106.6103896103896 8.0 106.6103896103896 16.0L106.6103896103896 56.377663643317675Q106.6103896103896 64.37766364331767 98.6103896103896 64.37766364331767L8.0 64.37766364331767Q0.0 64.37766364331767 0.0 56.377663643317675L0.0 16.0Z" stroke="#323232" stroke-width="2.0" stroke-dasharray="none" opacity="1.0" fill="#ff9999"/><path id="ProcessOnPath1018" d="M0.0 4.0Q0.0 0.0 4.0 0.0L110.6103896103896 0.0Q114.6103896103896 0.0 114.6103896103896 4.0L114.6103896103896 60.377663643317675Q114.6103896103896 64.37766364331767 110.6103896103896 64.37766364331767L4.0 64.37766364331767Q0.0 64.37766364331767 0.0 60.377663643317675Z" stroke="#323232" stroke-width="0.0" stroke-dasharray="none" opacity="1.0" fill="none"/><g id="ProcessOnG1019" transform="matrix(1.0,0.0,0.0,1.0,15.1017316017316,28.063831821658837)"><text id="ProcessOnText1020" fill="#000000" font-weight="normal" font-style="normal" text-decoration="blink" font-family="微软雅黑" text-anchor="middle" font-size="13" x="38.2034632034632" y="13.325">文件</text></g></g><g id="ProcessOnG1021" transform="matrix(1.0,0.0,0.0,1.0,675.090909090909,125.0)" opacity="1.0"><path id="ProcessOnPath1022" d="M0.0 4.0Q0.0 0.0 4.0 0.0L246.99675324675323 0.0Q250.99675324675323 0.0 250.99675324675323 4.0L250.99675324675323 122.85848541143044Q250.99675324675323 126.85848541143044 246.99675324675323 126.85848541143044L4.0 126.85848541143044Q0.0 126.85848541143044 0.0 122.85848541143044Z" stroke="#323232" stroke-width="2.0" stroke-dasharray="none" opacity="1.0" fill="#e6ffcc"/><g id="ProcessOnG1023" transform="matrix(1.0,0.0,0.0,1.0,5.0,1.9363203865307455)"><text id="ProcessOnText1024" fill="#000000" font-weight="normal" font-style="normal" text-decoration="blink" font-family="微软雅黑" text-anchor="middle" font-size="13" x="120.49837662337661" y="13.325">分布式缓存服务器n</text></g></g><g id="ProcessOnG1025" transform="matrix(1.0,0.0,0.0,1.0,698.012987012987,143.39361818380505)" opacity="1.0"><path id="ProcessOnPath1026" d="M0.0 4.0Q0.0 0.0 4.0 0.0L246.99675324675323 0.0Q250.99675324675323 0.0 250.99675324675323 4.0L250.99675324675323 122.85848541143044Q250.99675324675323 126.85848541143044 246.99675324675323 126.85848541143044L4.0 126.85848541143044Q0.0 126.85848541143044 0.0 122.85848541143044Z" stroke="#323232" stroke-width="2.0" stroke-dasharray="none" opacity="1.0" fill="#e6ffcc"/><g id="ProcessOnG1027" transform="matrix(1.0,0.0,0.0,1.0,5.0,1.9363203865307455)"><text id="ProcessOnText1028" fill="#000000" font-weight="normal" font-style="normal" text-decoration="blink" font-family="微软雅黑" text-anchor="middle" font-size="13" x="120.49837662337661" y="13.325">分布式缓存服务器2</text></g></g><g id="ProcessOnG1029" transform="matrix(1.0,0.0,0.0,1.0,720.9350649350649,161.7872363676101)" opacity="1.0"><path id="ProcessOnPath1030" d="M0.0 4.0Q0.0 0.0 4.0 0.0L246.99675324675323 0.0Q250.99675324675323 0.0 250.99675324675323 4.0L250.99675324675323 122.85848541143044Q250.99675324675323 126.85848541143044 246.99675324675323 126.85848541143044L4.0 126.85848541143044Q0.0 126.85848541143044 0.0 122.85848541143044Z" stroke="#323232" stroke-width="2.0" stroke-dasharray="none" opacity="1.0" fill="#e6ffcc"/><g id="ProcessOnG1031" transform="matrix(1.0,0.0,0.0,1.0,5.0,1.9363203865307455)"><text id="ProcessOnText1032" fill="#000000" font-weight="normal" font-style="normal" text-decoration="blink" font-family="微软雅黑" text-anchor="middle" font-size="13" x="120.49837662337661" y="13.325">分布式缓存服务器1</text></g></g><g id="ProcessOnG1033" transform="matrix(1.0,0.0,0.0,1.0,769.9310064935064,199.01994317560923)" opacity="1.0"><path id="ProcessOnPath1034" d="M0.0 0.0L153.00487012987014 0.0L153.00487012987014 52.39307179543219L0.0 52.39307179543219Z" stroke="#323232" stroke-width="2.0" stroke-dasharray="none" opacity="1.0" fill="#ffcc99"/><g id="ProcessOnG1035" transform="matrix(1.0,0.0,0.0,1.0,10.0,18.071535897716096)"><text id="ProcessOnText1036" fill="#000000" font-weight="normal" font-style="normal" text-decoration="blink" font-family="微软雅黑" text-anchor="middle" font-size="13" x="66.50243506493507" y="13.325">远程分布式缓存</text></g></g><g id="ProcessOnG1037" transform="matrix(1.0,0.0,0.0,1.0,575.0,549.6809091902524)" opacity="1.0"><path id="ProcessOnPath1038" d="M0.0 4.0Q0.0 0.0 4.0 0.0L202.2987012987013 0.0Q206.2987012987013 0.0 206.2987012987013 4.0L206.2987012987013 128.31909080974756Q206.2987012987013 132.31909080974756 202.2987012987013 132.31909080974756L4.0 132.31909080974756Q0.0 132.31909080974756 0.0 128.31909080974756Z" stroke="#323232" stroke-width="2.0" stroke-dasharray="none" opacity="1.0" fill="#ccffff"/><g id="ProcessOnG1039" transform="matrix(1.0,0.0,0.0,1.0,5.0,2.326363629267682)"><text id="ProcessOnText1040" fill="#000000" font-weight="normal" font-style="normal" text-decoration="blink" font-family="微软雅黑" text-anchor="middle" font-size="13" x="98.14935064935065" y="13.325">数据库服务器（主）</text></g></g><g id="ProcessOnG1041" transform="matrix(1.0,0.0,0.0,1.0,620.8441558441558,583.6516227734672)" opacity="1.0"><path id="ProcessOnPath1042" d="M8.0 8.0Q8.0 0.0 16.0 0.0L106.6103896103896 0.0Q114.6103896103896 0.0 114.6103896103896 8.0L114.6103896103896 48.377663643317675Q114.6103896103896 56.377663643317675 106.6103896103896 56.377663643317675L106.6103896103896 56.377663643317675" stroke="#323232" stroke-width="2.0" stroke-dasharray="none" opacity="1.0" fill="#e5ccff"/><path id="ProcessOnPath1043" d="M0.0 16.0Q0.0 8.0 8.0 8.0L98.6103896103896 8.0Q106.6103896103896 8.0 106.6103896103896 16.0L106.6103896103896 56.377663643317675Q106.6103896103896 64.37766364331767 98.6103896103896 64.37766364331767L8.0 64.37766364331767Q0.0 64.37766364331767 0.0 56.377663643317675L0.0 16.0Z" stroke="#323232" stroke-width="2.0" stroke-dasharray="none" opacity="1.0" fill="#e5ccff"/><path id="ProcessOnPath1044" d="M0.0 4.0Q0.0 0.0 4.0 0.0L110.6103896103896 0.0Q114.6103896103896 0.0 114.6103896103896 4.0L114.6103896103896 60.377663643317675Q114.6103896103896 64.37766364331767 110.6103896103896 64.37766364331767L4.0 64.37766364331767Q0.0 64.37766364331767 0.0 60.377663643317675Z" stroke="#323232" stroke-width="0.0" stroke-dasharray="none" opacity="1.0" fill="none"/><g id="ProcessOnG1045" transform="matrix(1.0,0.0,0.0,1.0,15.1017316017316,28.063831821658837)"><text id="ProcessOnText1046" fill="#000000" font-weight="normal" font-style="normal" text-decoration="blink" font-family="微软雅黑" text-anchor="middle" font-size="13" x="38.2034632034632" y="13.325">数据库</text></g></g><g id="ProcessOnG1047"><path id="ProcessOnPath1048" d="M589.6371753246754 388.02874002841224C676.4862858058437 388.02874002841224 588.2417986097406 188.4292427057152 659.8548411134092 188.4292427057152" stroke="#323232" stroke-width="2.0" stroke-dasharray="none" fill="none" marker-end="url(#ProcessOnMarker1049)"/></g><g id="ProcessOnG1051"><path id="ProcessOnPath1052" d="M589.6371753246754 388.02874002841224C674.0939213605952 388.02874002841224 613.5562409770671 206.82286088952026 682.7769190354871 206.82286088952026" stroke="#323232" stroke-width="2.0" stroke-dasharray="none" fill="none" marker-end="url(#ProcessOnMarker1053)"/></g><g id="ProcessOnG1055"><path id="ProcessOnPath1056" d="M589.6371753246754 388.02874002841224C673.300278908943 388.02874002841224 637.2719613507973 225.2164790733253 705.6989969575651 225.2164790733253" stroke="#323232" stroke-width="2.0" stroke-dasharray="none" fill="none" marker-end="url(#ProcessOnMarker1057)"/></g><g id="ProcessOnG1059"><path id="ProcessOnPath1060" d="M589.6371753246754 388.02874002841224C669.6628246753247 388.02874002841224 709.6756493506493 388.0287400284122 774.4652307237989 388.0287400284122" stroke="#323232" stroke-width="2.0" stroke-dasharray="none" fill="none" marker-end="url(#ProcessOnMarker1061)"/></g><g id="ProcessOnG1063" transform="matrix(1.0,0.0,0.0,1.0,276.0,272.1550650202164)" opacity="1.0"><path id="ProcessOnPath1064" d="M0.0 4.0Q0.0 0.0 4.0 0.0L268.77272727272725 0.0Q272.77272727272725 0.0 272.77272727272725 4.0L272.77272727272725 147.74735001639166Q272.77272727272725 151.74735001639166 268.77272727272725 151.74735001639166L4.0 151.74735001639166Q0.0 151.74735001639166 0.0 147.74735001639166Z" stroke="#323232" stroke-width="2.0" stroke-dasharray="none" opacity="1.0" fill="#ffffcc"/><g id="ProcessOnG1065" transform="matrix(1.0,0.0,0.0,1.0,5.0,3.714096429742261)"><text id="ProcessOnText1066" fill="#000000" font-weight="normal" font-style="normal" text-decoration="blink" font-family="微软雅黑" text-anchor="middle" font-size="13" x="131.38636363636363" y="13.325">应用服务器n</text></g></g><g id="ProcessOnG1067" transform="matrix(1.0,0.0,0.0,1.0,296.0,292.1550650202164)" opacity="1.0"><path id="ProcessOnPath1068" d="M0.0 4.0Q0.0 0.0 4.0 0.0L268.77272727272725 0.0Q272.77272727272725 0.0 272.77272727272725 4.0L272.77272727272725 147.74735001639166Q272.77272727272725 151.74735001639166 268.77272727272725 151.74735001639166L4.0 151.74735001639166Q0.0 151.74735001639166 0.0 147.74735001639166Z" stroke="#323232" stroke-width="2.0" stroke-dasharray="none" opacity="1.0" fill="#ffffcc"/><g id="ProcessOnG1069" transform="matrix(1.0,0.0,0.0,1.0,5.0,3.714096429742261)"><text id="ProcessOnText1070" fill="#000000" font-weight="normal" font-style="normal" text-decoration="blink" font-family="微软雅黑" text-anchor="middle" font-size="13" x="131.38636363636363" y="13.325">应用服务器2</text></g></g><g id="ProcessOnG1071" transform="matrix(1.0,0.0,0.0,1.0,316.8644480519481,312.1550650202164)" opacity="1.0"><path id="ProcessOnPath1072" d="M0.0 4.0Q0.0 0.0 4.0 0.0L268.77272727272725 0.0Q272.77272727272725 0.0 272.77272727272725 4.0L272.77272727272725 147.74735001639166Q272.77272727272725 151.74735001639166 268.77272727272725 151.74735001639166L4.0 151.74735001639166Q0.0 151.74735001639166 0.0 147.74735001639166Z" stroke="#323232" stroke-width="2.0" stroke-dasharray="none" opacity="1.0" fill="#ffffcc"/><g id="ProcessOnG1073" transform="matrix(1.0,0.0,0.0,1.0,5.0,3.714096429742261)"><text id="ProcessOnText1074" fill="#000000" font-weight="normal" font-style="normal" text-decoration="blink" font-family="微软雅黑" text-anchor="middle" font-size="13" x="131.38636363636363" y="13.325">应用服务器1</text></g></g><g id="ProcessOnG1075" transform="matrix(1.0,0.0,0.0,1.0,401.9242424242424,339.81400939788)" opacity="1.0"><path id="ProcessOnPath1076" d="M0.0 0.0L90.92424242424242 0.0L90.92424242424242 44.2596437547809L0.0 44.2596437547809Z" stroke="#323232" stroke-width="2.0" stroke-dasharray="none" opacity="1.0" fill="#99ff99"/><g id="ProcessOnG1077" transform="matrix(1.0,0.0,0.0,1.0,10.0,14.004821877390452)"><text id="ProcessOnText1078" fill="#000000" font-weight="normal" font-style="normal" text-decoration="blink" font-family="微软雅黑" text-anchor="middle" font-size="13" x="35.46212121212121" y="13.325">应用程序</text></g></g><g id="ProcessOnG1079" transform="matrix(1.0,0.0,0.0,1.0,344.9242424242424,403.9579280952902)" opacity="1.0"><path id="ProcessOnPath1080" d="M0.0 22.12982187739045C0.0 -7.376607292463484 90.92424242424242 -7.376607292463484 90.92424242424242 22.12982187739045C90.92424242424242 51.636251047244386 0.0 51.636251047244386 0.0 22.12982187739045Z" stroke="#323232" stroke-width="2.0" stroke-dasharray="none" opacity="1.0" fill="#ccccff"/><g id="ProcessOnG1081" transform="matrix(1.0,0.0,0.0,1.0,10.0,14.004821877390452)"><text id="ProcessOnText1082" fill="#000000" font-weight="normal" font-style="normal" text-decoration="blink" font-family="微软雅黑" text-anchor="middle" font-size="13" x="35.46212121212121" y="13.325">本地缓存</text></g></g><g id="ProcessOnG1083"><path id="ProcessOnPath1084" d="M447.38636363636357 384.0736531526609L404.77221830052173 398.9394668772757" stroke="#323232" stroke-width="2.0" stroke-dasharray="none" fill="none" marker-end="url(#ProcessOnMarker1085)"/></g><g id="ProcessOnG1087"><path id="ProcessOnPath1088" d="M214.0 368.02874002841224C240.05839595984372 368.02874002841224 249.94160404015628 348.02874002841224 260.7639320225002 348.02874002841224" stroke="#323232" stroke-width="2.0" stroke-dasharray="none" fill="none" marker-end="url(#ProcessOnMarker1089)"/></g><g id="ProcessOnG1091"><path id="ProcessOnPath1092" d="M214.0 368.02874002841224C246.8 368.02874002841224 263.2 368.02874002841224 280.7639320225002 368.02874002841224" stroke="#323232" stroke-width="2.0" stroke-dasharray="none" fill="none" marker-end="url(#ProcessOnMarker1093)"/></g><g id="ProcessOnG1095"><path id="ProcessOnPath1096" d="M214.0 368.02874002841224C255.91628737955102 368.02874002841224 274.9481606723971 388.02874002841224 301.62838007444833 388.02874002841224" stroke="#323232" stroke-width="2.0" stroke-dasharray="none" fill="none" marker-end="url(#ProcessOnMarker1097)"/></g><g id="ProcessOnG1099" transform="matrix(1.0,0.0,0.0,1.0,211.92424242424238,549.6809091902525)" opacity="1.0"><path id="ProcessOnPath1100" d="M0.0 4.0Q0.0 0.0 4.0 0.0L202.2987012987013 0.0Q206.2987012987013 0.0 206.2987012987013 4.0L206.2987012987013 128.31909080974756Q206.2987012987013 132.31909080974756 202.2987012987013 132.31909080974756L4.0 132.31909080974756Q0.0 132.31909080974756 0.0 128.31909080974756Z" stroke="#323232" stroke-width="2.0" stroke-dasharray="none" opacity="1.0" fill="#99ff99"/><g id="ProcessOnG1101" transform="matrix(1.0,0.0,0.0,1.0,5.0,2.326363629267682)"><text id="ProcessOnText1102" fill="#000000" font-weight="normal" font-style="normal" text-decoration="blink" font-family="微软雅黑" text-anchor="middle" font-size="13" x="98.14935064935065" y="13.325">数据库服务器（从）</text></g></g><g id="ProcessOnG1103" transform="matrix(1.0,0.0,0.0,1.0,257.7683982683982,583.6516227734674)" opacity="1.0"><path id="ProcessOnPath1104" d="M8.0 8.0Q8.0 0.0 16.0 0.0L106.6103896103896 0.0Q114.6103896103896 0.0 114.6103896103896 8.0L114.6103896103896 48.377663643317675Q114.6103896103896 56.377663643317675 106.6103896103896 56.377663643317675L106.6103896103896 56.377663643317675" stroke="#323232" stroke-width="2.0" stroke-dasharray="none" opacity="1.0" fill="#ffe6cc"/><path id="ProcessOnPath1105" d="M0.0 16.0Q0.0 8.0 8.0 8.0L98.6103896103896 8.0Q106.6103896103896 8.0 106.6103896103896 16.0L106.6103896103896 56.377663643317675Q106.6103896103896 64.37766364331767 98.6103896103896 64.37766364331767L8.0 64.37766364331767Q0.0 64.37766364331767 0.0 56.377663643317675L0.0 16.0Z" stroke="#323232" stroke-width="2.0" stroke-dasharray="none" opacity="1.0" fill="#ffe6cc"/><path id="ProcessOnPath1106" d="M0.0 4.0Q0.0 0.0 4.0 0.0L110.6103896103896 0.0Q114.6103896103896 0.0 114.6103896103896 4.0L114.6103896103896 60.377663643317675Q114.6103896103896 64.37766364331767 110.6103896103896 64.37766364331767L4.0 64.37766364331767Q0.0 64.37766364331767 0.0 60.377663643317675Z" stroke="#323232" stroke-width="0.0" stroke-dasharray="none" opacity="1.0" fill="none"/><g id="ProcessOnG1107" transform="matrix(1.0,0.0,0.0,1.0,15.1017316017316,28.063831821658837)"><text id="ProcessOnText1108" fill="#000000" font-weight="normal" font-style="normal" text-decoration="blink" font-family="微软雅黑" text-anchor="middle" font-size="13" x="38.2034632034632" y="13.325">数据库</text></g></g><g id="ProcessOnG1109"><path id="ProcessOnPath1110" d="M516.4242424242424 448.21757185007107C516.4242424242424 538.4057243475122 315.07359307359303 459.4927566928113 315.07359307359303 534.4448412127526" stroke="#323232" stroke-width="2.0" stroke-dasharray="none" fill="none" marker-end="url(#ProcessOnMarker1111)"/><g id="ProcessOnG1113" transform="matrix(1.0,0.0,0.0,1.0,415.74891774891773,488.9197320229743)"><path id="ProcessOnPath1114" d="M0 0H39.0V16.25H0Z" fill="#fff" transform="matrix(1.0,0.0,0.0,1.0,-19.5,0.0)"/><text id="ProcessOnText1115" fill="#000000" font-weight="normal" font-style="normal" text-decoration="blink" font-family="微软雅黑" text-anchor="middle" font-size="13" x="0.0" y="13.325">读操作</text></g></g><g id="ProcessOnG1116"><path id="ProcessOnPath1117" d="M575.0 615.8404545951262C512.2891774891774 615.8404545951262 480.93376623376616 615.8404545951263 433.4590117004434 615.8404545951263" stroke="#323232" stroke-width="2.0" stroke-dasharray="none" fill="none" marker-end="url(#ProcessOnMarker1118)"/><g id="ProcessOnG1120" transform="matrix(1.0,0.0,0.0,1.0,498.51598035865925,607.7154545951263)"><path id="ProcessOnPath1121" d="M0 0H58.0V16.25H0Z" fill="#fff" transform="matrix(1.0,0.0,0.0,1.0,-29.0,0.0)"/><text id="ProcessOnText1122" fill="#000000" font-weight="normal" font-style="normal" text-decoration="blink" font-family="微软雅黑" text-anchor="middle" font-size="13" x="0.0" y="13.325">主/从复制</text></g></g><g id="ProcessOnG1123" transform="matrix(1.0,0.0,0.0,1.0,457.8484848484848,403.9579280952902)" opacity="1.0"><path id="ProcessOnPath1124" d="M0.0 22.12982187739044C0.0 -7.37660729246348 117.15151515151518 -7.37660729246348 117.15151515151518 22.12982187739044C117.15151515151518 51.636251047244365 0.0 51.636251047244365 0.0 22.12982187739044Z" stroke="#323232" stroke-width="2.0" stroke-dasharray="none" opacity="1.0" fill="#ff99ff"/><g id="ProcessOnG1125" transform="matrix(1.0,0.0,0.0,1.0,10.0,14.004821877390441)"><text id="ProcessOnText1126" fill="#000000" font-weight="normal" font-style="normal" text-decoration="blink" font-family="微软雅黑" text-anchor="middle" font-size="13" x="48.57575757575759" y="13.325">数据访问模块</text></g></g><g id="ProcessOnG1127"><path id="ProcessOnPath1128" d="M447.38636363636357 384.0736531526609L501.7833477331891 399.74106076746466" stroke="#323232" stroke-width="2.0" stroke-dasharray="none" fill="none" marker-end="url(#ProcessOnMarker1129)"/></g><g id="ProcessOnG1131"><path id="ProcessOnPath1132" d="M516.4242424242424 448.21757185007107C516.4242424242424 524.5849150848653 678.1493506493507 473.31356595545816 678.1493506493507 534.4448412127525" stroke="#323232" stroke-width="2.0" stroke-dasharray="none" fill="none" marker-end="url(#ProcessOnMarker1133)"/><g id="ProcessOnG1135" transform="matrix(1.0,0.0,0.0,1.0,597.2867965367965,488.9197320229743)"><path id="ProcessOnPath1136" d="M0 0H39.0V16.25H0Z" fill="#fff" transform="matrix(1.0,0.0,0.0,1.0,-19.5,0.0)"/><text id="ProcessOnText1137" fill="#000000" font-weight="normal" font-style="normal" text-decoration="blink" font-family="微软雅黑" text-anchor="middle" font-size="13" x="0.0" y="13.325">写操作</text></g></g><g id="ProcessOnG1138" transform="matrix(1.0,0.0,0.0,1.0,81.0,93.74341602010713)" opacity="1.0"><path id="ProcessOnPath1139" d="M0.0 18.0Q0.0 0.0 18.0 0.0L100.0 0.0Q118.0 0.0 118.0 18.0L118.0 40.285870396677865Q118.0 58.285870396677865 100.0 58.285870396677865L18.0 58.285870396677865Q0.0 58.285870396677865 0.0 40.285870396677865L0.0 18.0Z" stroke="#323232" stroke-width="2.0" stroke-dasharray="none" opacity="1.0" fill="#99ffcc"/></g><g id="ProcessOnG1140" transform="matrix(1.0,0.0,0.0,1.0,88.0,102.10774778712718)" opacity="1.0"><path id="ProcessOnPath1141" d="M0.0 18.0Q0.0 0.0 18.0 0.0L100.0 0.0Q118.0 0.0 118.0 18.0L118.0 40.285870396677865Q118.0 58.285870396677865 100.0 58.285870396677865L18.0 58.285870396677865Q0.0 58.285870396677865 0.0 40.285870396677865L0.0 18.0Z" stroke="#323232" stroke-width="2.0" stroke-dasharray="none" opacity="1.0" fill="#99ffcc"/></g><g id="ProcessOnG1142" transform="matrix(1.0,0.0,0.0,1.0,96.0,109.74341602010713)" opacity="1.0"><path id="ProcessOnPath1143" d="M0.0 18.0Q0.0 0.0 18.0 0.0L100.0 0.0Q118.0 0.0 118.0 18.0L118.0 40.285870396677865Q118.0 58.285870396677865 100.0 58.285870396677865L18.0 58.285870396677865Q0.0 58.285870396677865 0.0 40.285870396677865L0.0 18.0Z" stroke="#323232" stroke-width="2.0" stroke-dasharray="none" opacity="1.0" fill="#99ffcc"/><g id="ProcessOnG1144" transform="matrix(1.0,0.0,0.0,1.0,10.0,21.017935198338932)"><text id="ProcessOnText1145" fill="#000000" font-weight="normal" font-style="normal" text-decoration="blink" font-family="微软雅黑" text-anchor="middle" font-size="13" x="49.0" y="13.325">CDN服务器1</text></g></g><g id="ProcessOnG1146" transform="matrix(1.0,0.0,0.0,1.0,81.0,209.86919462353853)" opacity="1.0"><path id="ProcessOnPath1147" d="M0.0 18.0Q0.0 0.0 18.0 0.0L100.0 0.0Q118.0 0.0 118.0 18.0L118.0 40.285870396677865Q118.0 58.285870396677865 100.0 58.285870396677865L18.0 58.285870396677865Q0.0 58.285870396677865 0.0 40.285870396677865L0.0 18.0Z" stroke="#323232" stroke-width="2.0" stroke-dasharray="none" opacity="1.0" fill="#cc99ff"/></g><g id="ProcessOnG1148" transform="matrix(1.0,0.0,0.0,1.0,88.0,218.23352639055858)" opacity="1.0"><path id="ProcessOnPath1149" d="M0.0 18.0Q0.0 0.0 18.0 0.0L100.0 0.0Q118.0 0.0 118.0 18.0L118.0 40.285870396677865Q118.0 58.285870396677865 100.0 58.285870396677865L18.0 58.285870396677865Q0.0 58.285870396677865 0.0 40.285870396677865L0.0 18.0Z" stroke="#323232" stroke-width="2.0" stroke-dasharray="none" opacity="1.0" fill="#cc99ff"/></g><g id="ProcessOnG1150" transform="matrix(1.0,0.0,0.0,1.0,96.0,225.86919462353853)" opacity="1.0"><path id="ProcessOnPath1151" d="M0.0 18.0Q0.0 0.0 18.0 0.0L100.0 0.0Q118.0 0.0 118.0 18.0L118.0 40.285870396677865Q118.0 58.285870396677865 100.0 58.285870396677865L18.0 58.285870396677865Q0.0 58.285870396677865 0.0 40.285870396677865L0.0 18.0Z" stroke="#323232" stroke-width="2.0" stroke-dasharray="none" opacity="1.0" fill="#cc99ff"/><g id="ProcessOnG1152" transform="matrix(1.0,0.0,0.0,1.0,10.0,12.892935198338932)"><text id="ProcessOnText1153" fill="#000000" font-weight="normal" font-style="normal" text-decoration="blink" font-family="微软雅黑" text-anchor="middle" font-size="13" x="49.0" y="13.325">反向代理服务器</text><text id="ProcessOnText1154" fill="#000000" font-weight="normal" font-style="normal" text-decoration="blink" font-family="微软雅黑" text-anchor="middle" font-size="13" x="49.0" y="29.575">1</text></g></g><g id="ProcessOnG1155" transform="matrix(1.0,0.0,0.0,1.0,81.0,322.8858048300733)" opacity="1.0"><path id="ProcessOnPath1156" d="M0.0 18.0Q0.0 0.0 18.0 0.0L100.0 0.0Q118.0 0.0 118.0 18.0L118.0 40.285870396677865Q118.0 58.285870396677865 100.0 58.285870396677865L18.0 58.285870396677865Q0.0 58.285870396677865 0.0 40.285870396677865L0.0 18.0Z" stroke="#323232" stroke-width="2.0" stroke-dasharray="none" opacity="1.0" fill="#ffff66"/></g><g id="ProcessOnG1157" transform="matrix(1.0,0.0,0.0,1.0,88.0,331.2501365970934)" opacity="1.0"><path id="ProcessOnPath1158" d="M0.0 18.0Q0.0 0.0 18.0 0.0L100.0 0.0Q118.0 0.0 118.0 18.0L118.0 40.285870396677865Q118.0 58.285870396677865 100.0 58.285870396677865L18.0 58.285870396677865Q0.0 58.285870396677865 0.0 40.285870396677865L0.0 18.0Z" stroke="#323232" stroke-width="2.0" stroke-dasharray="none" opacity="1.0" fill="#ffff66"/></g><g id="ProcessOnG1159" transform="matrix(1.0,0.0,0.0,1.0,96.0,338.8858048300733)" opacity="1.0"><path id="ProcessOnPath1160" d="M0.0 18.0Q0.0 0.0 18.0 0.0L100.0 0.0Q118.0 0.0 118.0 18.0L118.0 40.285870396677865Q118.0 58.285870396677865 100.0 58.285870396677865L18.0 58.285870396677865Q0.0 58.285870396677865 0.0 40.285870396677865L0.0 18.0Z" stroke="#323232" stroke-width="2.0" stroke-dasharray="none" opacity="1.0" fill="#ffff66"/><g id="ProcessOnG1161" transform="matrix(1.0,0.0,0.0,1.0,10.0,12.892935198338932)"><text id="ProcessOnText1162" fill="#000000" font-weight="normal" font-style="normal" text-decoration="blink" font-family="微软雅黑" text-anchor="middle" font-size="13" x="49.0" y="13.325">负载均衡服务器</text><text id="ProcessOnText1163" fill="#000000" font-weight="normal" font-style="normal" text-decoration="blink" font-family="微软雅黑" text-anchor="middle" font-size="13" x="49.0" y="29.575">1</text></g></g><g id="ProcessOnG1164"><path id="ProcessOnPath1165" d="M155.0 168.029286416785C155.0 188.3643426944322 147.0 197.89847011291135 147.0 202.99745841305878" stroke="#323232" stroke-width="2.0" stroke-dasharray="none" fill="none" marker-end="url(#ProcessOnMarker1166)"/></g><g id="ProcessOnG1168"><path id="ProcessOnPath1169" d="M155.0 284.1550650202164C155.0 303.2629514206791 147.0 312.1422501966307 147.0 316.0140686195936" stroke="#323232" stroke-width="2.0" stroke-dasharray="none" fill="none" marker-end="url(#ProcessOnMarker1170)"/></g></g></g></svg>