<svg xmlns="http://www.w3.org/2000/svg" xmlns:xlink="http://www.w3.org/1999/xlink" id="processonSvg1000" viewBox="53.0 47.0 934.9318181818181 650.5692274068409" width="934.9318181818181" height="650.5692274068409"><defs id="ProcessOnDefs1001"><marker id="ProcessOnMarker1054" markerUnits="userSpaceOnUse" orient="auto" markerWidth="16.23606797749979" markerHeight="10.550836550532098" viewBox="-1.0 -1.3763819204711736 16.23606797749979 10.550836550532098" refX="-1.0" refY="3.8990363547948754"><path id="ProcessOnPath1055" d="M12.0 3.8990363547948754L0.0 7.798072709589751V0.0Z" stroke="#323232" stroke-width="2.0" fill="#323232" transform="matrix(1.0,0.0,0.0,1.0,0.0,0.0)"/></marker><marker id="ProcessOnMarker1058" markerUnits="userSpaceOnUse" orient="auto" markerWidth="16.23606797749979" markerHeight="10.550836550532098" viewBox="-1.0 -1.3763819204711736 16.23606797749979 10.550836550532098" refX="-1.0" refY="3.8990363547948754"><path id="ProcessOnPath1059" d="M12.0 3.8990363547948754L0.0 7.798072709589751V0.0Z" stroke="#323232" stroke-width="2.0" fill="#323232" transform="matrix(1.0,0.0,0.0,1.0,0.0,0.0)"/></marker><marker id="ProcessOnMarker1062" markerUnits="userSpaceOnUse" orient="auto" markerWidth="16.23606797749979" markerHeight="10.550836550532098" viewBox="-1.0 -1.3763819204711736 16.23606797749979 10.550836550532098" refX="-1.0" refY="3.8990363547948754"><path id="ProcessOnPath1063" d="M12.0 3.8990363547948754L0.0 7.798072709589751V0.0Z" stroke="#323232" stroke-width="2.0" fill="#323232" transform="matrix(1.0,0.0,0.0,1.0,0.0,0.0)"/></marker><marker id="ProcessOnMarker1066" markerUnits="userSpaceOnUse" orient="auto" markerWidth="16.23606797749979" markerHeight="10.550836550532098" viewBox="-1.0 -1.3763819204711736 16.23606797749979 10.550836550532098" refX="-1.0" refY="3.8990363547948754"><path id="ProcessOnPath1067" d="M12.0 3.8990363547948754L0.0 7.798072709589751V0.0Z" stroke="#323232" stroke-width="2.0" fill="#323232" transform="matrix(1.0,0.0,0.0,1.0,0.0,0.0)"/></marker><marker id="ProcessOnMarker1075" markerUnits="userSpaceOnUse" orient="auto" markerWidth="16.23606797749979" markerHeight="10.550836550532098" viewBox="-1.0 -1.3763819204711736 16.23606797749979 10.550836550532098" refX="-1.0" refY="3.8990363547948754"><path id="ProcessOnPath1076" d="M12.0 3.8990363547948754L0.0 7.798072709589751V0.0Z" stroke="#323232" stroke-width="2.0" fill="#323232" transform="matrix(1.0,0.0,0.0,1.0,0.0,0.0)"/></marker><marker id="ProcessOnMarker1137" markerUnits="userSpaceOnUse" orient="auto" markerWidth="16.23606797749979" markerHeight="10.550836550532098" viewBox="-1.0 -1.3763819204711736 16.23606797749979 10.550836550532098" refX="-1.0" refY="3.8990363547948754"><path id="ProcessOnPath1138" d="M12.0 3.8990363547948754L0.0 7.798072709589751V0.0Z" stroke="#323232" stroke-width="2.0" fill="#323232" transform="matrix(1.0,0.0,0.0,1.0,0.0,0.0)"/></marker><marker id="ProcessOnMarker1141" markerUnits="userSpaceOnUse" orient="auto" markerWidth="16.23606797749979" markerHeight="10.550836550532098" viewBox="-1.0 -1.3763819204711736 16.23606797749979 10.550836550532098" refX="-1.0" refY="3.8990363547948754"><path id="ProcessOnPath1142" d="M12.0 3.8990363547948754L0.0 7.798072709589751V0.0Z" stroke="#323232" stroke-width="2.0" fill="#323232" transform="matrix(1.0,0.0,0.0,1.0,0.0,0.0)"/></marker><marker id="ProcessOnMarker1145" markerUnits="userSpaceOnUse" orient="auto" markerWidth="16.23606797749979" markerHeight="10.550836550532098" viewBox="-1.0 -1.3763819204711736 16.23606797749979 10.550836550532098" refX="-1.0" refY="3.8990363547948754"><path id="ProcessOnPath1146" d="M12.0 3.8990363547948754L0.0 7.798072709589751V0.0Z" stroke="#323232" stroke-width="2.0" fill="#323232" transform="matrix(1.0,0.0,0.0,1.0,0.0,0.0)"/></marker><marker id="ProcessOnMarker1149" markerUnits="userSpaceOnUse" orient="auto" markerWidth="16.23606797749979" markerHeight="10.550836550532098" viewBox="-1.0 -1.3763819204711736 16.23606797749979 10.550836550532098" refX="-1.0" refY="3.8990363547948754"><path id="ProcessOnPath1150" d="M12.0 3.8990363547948754L0.0 7.798072709589751V0.0Z" stroke="#323232" stroke-width="2.0" fill="#323232" transform="matrix(1.0,0.0,0.0,1.0,0.0,0.0)"/></marker><marker id="ProcessOnMarker1153" markerUnits="userSpaceOnUse" orient="auto" markerWidth="16.23606797749979" markerHeight="10.550836550532098" viewBox="-1.0 -1.3763819204711736 16.23606797749979 10.550836550532098" refX="-1.0" refY="3.8990363547948754"><path id="ProcessOnPath1154" d="M12.0 3.8990363547948754L0.0 7.798072709589751V0.0Z" stroke="#323232" stroke-width="2.0" fill="#323232" transform="matrix(1.0,0.0,0.0,1.0,0.0,0.0)"/></marker><marker id="ProcessOnMarker1173" markerUnits="userSpaceOnUse" orient="auto" markerWidth="16.23606797749979" markerHeight="10.550836550532098" viewBox="-1.0 -1.3763819204711736 16.23606797749979 10.550836550532098" refX="-1.0" refY="3.8990363547948754"><path id="ProcessOnPath1174" d="M12.0 3.8990363547948754L0.0 7.798072709589751V0.0Z" stroke="#323232" stroke-width="2.0" fill="#323232" transform="matrix(1.0,0.0,0.0,1.0,0.0,0.0)"/></marker><marker id="ProcessOnMarker1177" markerUnits="userSpaceOnUse" orient="auto" markerWidth="16.23606797749979" markerHeight="10.550836550532098" viewBox="-1.0 -1.3763819204711736 16.23606797749979 10.550836550532098" refX="-1.0" refY="3.8990363547948754"><path id="ProcessOnPath1178" d="M12.0 3.8990363547948754L0.0 7.798072709589751V0.0Z" stroke="#323232" stroke-width="2.0" fill="#323232" transform="matrix(1.0,0.0,0.0,1.0,0.0,0.0)"/></marker></defs><g id="ProcessOnG1002"><path id="ProcessOnPath1003" d="M53.0 47.0H987.9318181818181V697.5692274068409H53.0V47.0Z" fill="none"/><g id="ProcessOnG1004"><g id="ProcessOnG1005" transform="matrix(1.0,0.0,0.0,1.0,100.0,76.11635340399954)" opacity="1.0"><path id="ProcessOnPath1006" d="M0.0 0.0L423.22727272727275 0.0L423.22727272727275 108.62577860343134L0.0 108.62577860343134Z" stroke="#323232" stroke-width="0.0" stroke-dasharray="none" opacity="1.0" fill="none"/><g id="ProcessOnG1007" transform="matrix(1.0,0.0,0.0,1.0,0.0,-3.1871106982843287)"><text id="ProcessOnText1008" fill="#000000" font-weight="bold" font-style="normal" text-decoration="blink" font-family="微软雅黑" text-anchor="middle" font-size="23" x="211.61363636363637" y="23.575000000000003">大型网站架构 -- 使用 NoSQL 和搜索引</text><text id="ProcessOnText1009" fill="#000000" font-weight="bold" font-style="normal" text-decoration="blink" font-family="微软雅黑" text-anchor="middle" font-size="23" x="211.61363636363637" y="52.325">擎</text><text id="ProcessOnText1010" fill="#000000" font-weight="bold" font-style="normal" text-decoration="blink" font-family="微软雅黑" text-anchor="middle" font-size="23" x="211.61363636363637" y="81.075"></text><text id="ProcessOnText1011" fill="#000000" font-weight="bold" font-style="normal" text-decoration="blink" font-family="微软雅黑" text-anchor="middle" font-size="23" x="211.61363636363637" y="109.825">by decaywood</text></g></g><g id="ProcessOnG1012" transform="matrix(1.0,0.0,0.0,1.0,694.012987012987,265.8691946235385)" opacity="1.0"><path id="ProcessOnPath1013" d="M0.0 4.0Q0.0 0.0 4.0 0.0L202.2987012987013 0.0Q206.2987012987013 0.0 206.2987012987013 4.0L206.2987012987013 128.31909080974756Q206.2987012987013 132.31909080974756 202.2987012987013 132.31909080974756L4.0 132.31909080974756Q0.0 132.31909080974756 0.0 128.31909080974756Z" stroke="#323232" stroke-width="2.0" stroke-dasharray="none" opacity="1.0" fill="#ffffcc"/><g id="ProcessOnG1014" transform="matrix(1.0,0.0,0.0,1.0,5.0,2.326363629267682)"><text id="ProcessOnText1015" fill="#000000" font-weight="normal" font-style="normal" text-decoration="blink" font-family="微软雅黑" text-anchor="middle" font-size="13" x="98.14935064935065" y="13.325">分布式文件服务器n</text></g></g><g id="ProcessOnG1016" transform="matrix(1.0,0.0,0.0,1.0,671.090909090909,67.0)" opacity="1.0"><path id="ProcessOnPath1017" d="M0.0 4.0Q0.0 0.0 4.0 0.0L246.99675324675323 0.0Q250.99675324675323 0.0 250.99675324675323 4.0L250.99675324675323 122.85848541143044Q250.99675324675323 126.85848541143044 246.99675324675323 126.85848541143044L4.0 126.85848541143044Q0.0 126.85848541143044 0.0 122.85848541143044Z" stroke="#323232" stroke-width="2.0" stroke-dasharray="none" opacity="1.0" fill="#e6ffcc"/><g id="ProcessOnG1018" transform="matrix(1.0,0.0,0.0,1.0,5.0,1.9363203865307455)"><text id="ProcessOnText1019" fill="#000000" font-weight="normal" font-style="normal" text-decoration="blink" font-family="微软雅黑" text-anchor="middle" font-size="13" x="120.49837662337661" y="13.325">分布式缓存服务器n</text></g></g><g id="ProcessOnG1020" transform="matrix(1.0,0.0,0.0,1.0,694.012987012987,85.39361818380505)" opacity="1.0"><path id="ProcessOnPath1021" d="M0.0 4.0Q0.0 0.0 4.0 0.0L246.99675324675323 0.0Q250.99675324675323 0.0 250.99675324675323 4.0L250.99675324675323 122.85848541143044Q250.99675324675323 126.85848541143044 246.99675324675323 126.85848541143044L4.0 126.85848541143044Q0.0 126.85848541143044 0.0 122.85848541143044Z" stroke="#323232" stroke-width="2.0" stroke-dasharray="none" opacity="1.0" fill="#e6ffcc"/><g id="ProcessOnG1022" transform="matrix(1.0,0.0,0.0,1.0,5.0,1.9363203865307455)"><text id="ProcessOnText1023" fill="#000000" font-weight="normal" font-style="normal" text-decoration="blink" font-family="微软雅黑" text-anchor="middle" font-size="13" x="120.49837662337661" y="13.325">分布式缓存服务器2</text></g></g><g id="ProcessOnG1024" transform="matrix(1.0,0.0,0.0,1.0,716.9350649350649,103.78723636761009)" opacity="1.0"><path id="ProcessOnPath1025" d="M0.0 4.0Q0.0 0.0 4.0 0.0L246.99675324675323 0.0Q250.99675324675323 0.0 250.99675324675323 4.0L250.99675324675323 122.85848541143044Q250.99675324675323 126.85848541143044 246.99675324675323 126.85848541143044L4.0 126.85848541143044Q0.0 126.85848541143044 0.0 122.85848541143044Z" stroke="#323232" stroke-width="2.0" stroke-dasharray="none" opacity="1.0" fill="#e6ffcc"/><g id="ProcessOnG1026" transform="matrix(1.0,0.0,0.0,1.0,5.0,1.9363203865307455)"><text id="ProcessOnText1027" fill="#000000" font-weight="normal" font-style="normal" text-decoration="blink" font-family="微软雅黑" text-anchor="middle" font-size="13" x="120.49837662337661" y="13.325">分布式缓存服务器1</text></g></g><g id="ProcessOnG1028" transform="matrix(1.0,0.0,0.0,1.0,765.9310064935064,141.01994317560923)" opacity="1.0"><path id="ProcessOnPath1029" d="M0.0 0.0L153.00487012987014 0.0L153.00487012987014 52.39307179543219L0.0 52.39307179543219Z" stroke="#323232" stroke-width="2.0" stroke-dasharray="none" opacity="1.0" fill="#ffcc99"/><g id="ProcessOnG1030" transform="matrix(1.0,0.0,0.0,1.0,10.0,18.071535897716096)"><text id="ProcessOnText1031" fill="#000000" font-weight="normal" font-style="normal" text-decoration="blink" font-family="微软雅黑" text-anchor="middle" font-size="13" x="66.50243506493507" y="13.325">远程分布式缓存</text></g></g><g id="ProcessOnG1032" transform="matrix(1.0,0.0,0.0,1.0,277.0,268.1550650202164)" opacity="1.0"><path id="ProcessOnPath1033" d="M0.0 4.0Q0.0 0.0 4.0 0.0L268.77272727272725 0.0Q272.77272727272725 0.0 272.77272727272725 4.0L272.77272727272725 147.74735001639166Q272.77272727272725 151.74735001639166 268.77272727272725 151.74735001639166L4.0 151.74735001639166Q0.0 151.74735001639166 0.0 147.74735001639166Z" stroke="#323232" stroke-width="2.0" stroke-dasharray="none" opacity="1.0" fill="#ffffcc"/><g id="ProcessOnG1034" transform="matrix(1.0,0.0,0.0,1.0,5.0,3.714096429742261)"><text id="ProcessOnText1035" fill="#000000" font-weight="normal" font-style="normal" text-decoration="blink" font-family="微软雅黑" text-anchor="middle" font-size="13" x="131.38636363636363" y="13.325">应用服务器n</text></g></g><g id="ProcessOnG1036" transform="matrix(1.0,0.0,0.0,1.0,297.0,288.1550650202164)" opacity="1.0"><path id="ProcessOnPath1037" d="M0.0 4.0Q0.0 0.0 4.0 0.0L268.77272727272725 0.0Q272.77272727272725 0.0 272.77272727272725 4.0L272.77272727272725 147.74735001639166Q272.77272727272725 151.74735001639166 268.77272727272725 151.74735001639166L4.0 151.74735001639166Q0.0 151.74735001639166 0.0 147.74735001639166Z" stroke="#323232" stroke-width="2.0" stroke-dasharray="none" opacity="1.0" fill="#ffffcc"/><g id="ProcessOnG1038" transform="matrix(1.0,0.0,0.0,1.0,5.0,3.714096429742261)"><text id="ProcessOnText1039" fill="#000000" font-weight="normal" font-style="normal" text-decoration="blink" font-family="微软雅黑" text-anchor="middle" font-size="13" x="131.38636363636363" y="13.325">应用服务器2</text></g></g><g id="ProcessOnG1040" transform="matrix(1.0,0.0,0.0,1.0,317.8644480519481,308.1550650202164)" opacity="1.0"><path id="ProcessOnPath1041" d="M0.0 4.0Q0.0 0.0 4.0 0.0L268.77272727272725 0.0Q272.77272727272725 0.0 272.77272727272725 4.0L272.77272727272725 147.74735001639166Q272.77272727272725 151.74735001639166 268.77272727272725 151.74735001639166L4.0 151.74735001639166Q0.0 151.74735001639166 0.0 147.74735001639166Z" stroke="#323232" stroke-width="2.0" stroke-dasharray="none" opacity="1.0" fill="#ffffcc"/><g id="ProcessOnG1042" transform="matrix(1.0,0.0,0.0,1.0,5.0,3.714096429742261)"><text id="ProcessOnText1043" fill="#000000" font-weight="normal" font-style="normal" text-decoration="blink" font-family="微软雅黑" text-anchor="middle" font-size="13" x="131.38636363636363" y="13.325">应用服务器1</text></g></g><g id="ProcessOnG1044" transform="matrix(1.0,0.0,0.0,1.0,402.9242424242424,335.81400939788)" opacity="1.0"><path id="ProcessOnPath1045" d="M0.0 0.0L90.92424242424242 0.0L90.92424242424242 44.2596437547809L0.0 44.2596437547809Z" stroke="#323232" stroke-width="2.0" stroke-dasharray="none" opacity="1.0" fill="#99ff99"/><g id="ProcessOnG1046" transform="matrix(1.0,0.0,0.0,1.0,10.0,14.004821877390452)"><text id="ProcessOnText1047" fill="#000000" font-weight="normal" font-style="normal" text-decoration="blink" font-family="微软雅黑" text-anchor="middle" font-size="13" x="35.46212121212121" y="13.325">应用程序</text></g></g><g id="ProcessOnG1048" transform="matrix(1.0,0.0,0.0,1.0,345.9242424242424,399.9579280952902)" opacity="1.0"><path id="ProcessOnPath1049" d="M0.0 22.12982187739045C0.0 -7.376607292463484 90.92424242424242 -7.376607292463484 90.92424242424242 22.12982187739045C90.92424242424242 51.636251047244386 0.0 51.636251047244386 0.0 22.12982187739045Z" stroke="#323232" stroke-width="2.0" stroke-dasharray="none" opacity="1.0" fill="#ccccff"/><g id="ProcessOnG1050" transform="matrix(1.0,0.0,0.0,1.0,10.0,14.004821877390452)"><text id="ProcessOnText1051" fill="#000000" font-weight="normal" font-style="normal" text-decoration="blink" font-family="微软雅黑" text-anchor="middle" font-size="13" x="35.46212121212121" y="13.325">本地缓存</text></g></g><g id="ProcessOnG1052"><path id="ProcessOnPath1053" d="M448.38636363636357 380.0736531526609L405.77221830052173 394.9394668772757" stroke="#323232" stroke-width="2.0" stroke-dasharray="none" fill="none" marker-end="url(#ProcessOnMarker1054)"/></g><g id="ProcessOnG1056"><path id="ProcessOnPath1057" d="M214.0 368.02874002841224C240.96664606509307 368.02874002841224 250.03335393490693 344.02874002841224 261.7639320225002 344.02874002841224" stroke="#323232" stroke-width="2.0" stroke-dasharray="none" fill="none" marker-end="url(#ProcessOnMarker1058)"/></g><g id="ProcessOnG1060"><path id="ProcessOnPath1061" d="M214.0 368.02874002841224C247.23853185686755 368.02874002841224 263.76146814313245 364.02874002841224 281.7639320225002 364.02874002841224" stroke="#323232" stroke-width="2.0" stroke-dasharray="none" fill="none" marker-end="url(#ProcessOnMarker1062)"/></g><g id="ProcessOnG1064"><path id="ProcessOnPath1065" d="M214.0 368.02874002841224C256.0358391264137 368.02874002841224 275.8286089255344 384.02874002841224 302.62838007444833 384.02874002841224" stroke="#323232" stroke-width="2.0" stroke-dasharray="none" fill="none" marker-end="url(#ProcessOnMarker1066)"/></g><g id="ProcessOnG1068" transform="matrix(1.0,0.0,0.0,1.0,468.8484848484848,399.9579280952902)" opacity="1.0"><path id="ProcessOnPath1069" d="M0.0 22.12982187739044C0.0 -7.37660729246348 93.15151515151518 -7.37660729246348 93.15151515151518 22.12982187739044C93.15151515151518 51.636251047244365 0.0 51.636251047244365 0.0 22.12982187739044Z" stroke="#323232" stroke-width="2.0" stroke-dasharray="none" opacity="1.0" fill="#ff99ff"/><g id="ProcessOnG1070" transform="matrix(1.0,0.0,0.0,1.0,10.0,5.879821877390441)"><text id="ProcessOnText1071" fill="#000000" font-weight="normal" font-style="normal" text-decoration="blink" font-family="微软雅黑" text-anchor="middle" font-size="13" x="36.57575757575759" y="13.325">统一数据访</text><text id="ProcessOnText1072" fill="#000000" font-weight="normal" font-style="normal" text-decoration="blink" font-family="微软雅黑" text-anchor="middle" font-size="13" x="36.57575757575759" y="29.575">问模块</text></g></g><g id="ProcessOnG1073"><path id="ProcessOnPath1074" d="M448.38636363636357 380.0736531526609L500.8171880308961 395.6252927119678" stroke="#323232" stroke-width="2.0" stroke-dasharray="none" fill="none" marker-end="url(#ProcessOnMarker1075)"/></g><g id="ProcessOnG1077" transform="matrix(1.0,0.0,0.0,1.0,73.0,597.2974538301826)" opacity="1.0"><path id="ProcessOnPath1078" d="M0.0 18.0Q0.0 0.0 18.0 0.0L100.0 0.0Q118.0 0.0 118.0 18.0L118.0 40.285870396677865Q118.0 58.285870396677865 100.0 58.285870396677865L18.0 58.285870396677865Q0.0 58.285870396677865 0.0 40.285870396677865L0.0 18.0Z" stroke="#323232" stroke-width="2.0" stroke-dasharray="none" opacity="1.0" fill="#99ffcc"/></g><g id="ProcessOnG1079" transform="matrix(1.0,0.0,0.0,1.0,80.0,605.6617855972027)" opacity="1.0"><path id="ProcessOnPath1080" d="M0.0 18.0Q0.0 0.0 18.0 0.0L100.0 0.0Q118.0 0.0 118.0 18.0L118.0 40.285870396677865Q118.0 58.285870396677865 100.0 58.285870396677865L18.0 58.285870396677865Q0.0 58.285870396677865 0.0 40.285870396677865L0.0 18.0Z" stroke="#323232" stroke-width="2.0" stroke-dasharray="none" opacity="1.0" fill="#99ffcc"/></g><g id="ProcessOnG1081" transform="matrix(1.0,0.0,0.0,1.0,88.0,613.2974538301826)" opacity="1.0"><path id="ProcessOnPath1082" d="M0.0 18.0Q0.0 0.0 18.0 0.0L100.0 0.0Q118.0 0.0 118.0 18.0L118.0 40.285870396677865Q118.0 58.285870396677865 100.0 58.285870396677865L18.0 58.285870396677865Q0.0 58.285870396677865 0.0 40.285870396677865L0.0 18.0Z" stroke="#323232" stroke-width="2.0" stroke-dasharray="none" opacity="1.0" fill="#99ffcc"/><g id="ProcessOnG1083" transform="matrix(1.0,0.0,0.0,1.0,10.0,21.017935198338932)"><text id="ProcessOnText1084" fill="#000000" font-weight="normal" font-style="normal" text-decoration="blink" font-family="微软雅黑" text-anchor="middle" font-size="13" x="49.0" y="13.325">CDN服务器1</text></g></g><g id="ProcessOnG1085" transform="matrix(1.0,0.0,0.0,1.0,73.0,459.9024150366081)" opacity="1.0"><path id="ProcessOnPath1086" d="M0.0 18.0Q0.0 0.0 18.0 0.0L100.0 0.0Q118.0 0.0 118.0 18.0L118.0 40.285870396677865Q118.0 58.285870396677865 100.0 58.285870396677865L18.0 58.285870396677865Q0.0 58.285870396677865 0.0 40.285870396677865L0.0 18.0Z" stroke="#323232" stroke-width="2.0" stroke-dasharray="none" opacity="1.0" fill="#cc99ff"/></g><g id="ProcessOnG1087" transform="matrix(1.0,0.0,0.0,1.0,80.0,468.26674680362817)" opacity="1.0"><path id="ProcessOnPath1088" d="M0.0 18.0Q0.0 0.0 18.0 0.0L100.0 0.0Q118.0 0.0 118.0 18.0L118.0 40.285870396677865Q118.0 58.285870396677865 100.0 58.285870396677865L18.0 58.285870396677865Q0.0 58.285870396677865 0.0 40.285870396677865L0.0 18.0Z" stroke="#323232" stroke-width="2.0" stroke-dasharray="none" opacity="1.0" fill="#cc99ff"/></g><g id="ProcessOnG1089" transform="matrix(1.0,0.0,0.0,1.0,88.0,475.9024150366081)" opacity="1.0"><path id="ProcessOnPath1090" d="M0.0 18.0Q0.0 0.0 18.0 0.0L100.0 0.0Q118.0 0.0 118.0 18.0L118.0 40.285870396677865Q118.0 58.285870396677865 100.0 58.285870396677865L18.0 58.285870396677865Q0.0 58.285870396677865 0.0 40.285870396677865L0.0 18.0Z" stroke="#323232" stroke-width="2.0" stroke-dasharray="none" opacity="1.0" fill="#cc99ff"/><g id="ProcessOnG1091" transform="matrix(1.0,0.0,0.0,1.0,10.0,12.892935198338932)"><text id="ProcessOnText1092" fill="#000000" font-weight="normal" font-style="normal" text-decoration="blink" font-family="微软雅黑" text-anchor="middle" font-size="13" x="49.0" y="13.325">反向代理服务器</text><text id="ProcessOnText1093" fill="#000000" font-weight="normal" font-style="normal" text-decoration="blink" font-family="微软雅黑" text-anchor="middle" font-size="13" x="49.0" y="29.575">1</text></g></g><g id="ProcessOnG1094" transform="matrix(1.0,0.0,0.0,1.0,81.0,322.8858048300733)" opacity="1.0"><path id="ProcessOnPath1095" d="M0.0 18.0Q0.0 0.0 18.0 0.0L100.0 0.0Q118.0 0.0 118.0 18.0L118.0 40.285870396677865Q118.0 58.285870396677865 100.0 58.285870396677865L18.0 58.285870396677865Q0.0 58.285870396677865 0.0 40.285870396677865L0.0 18.0Z" stroke="#323232" stroke-width="2.0" stroke-dasharray="none" opacity="1.0" fill="#ffff66"/></g><g id="ProcessOnG1096" transform="matrix(1.0,0.0,0.0,1.0,88.0,331.2501365970934)" opacity="1.0"><path id="ProcessOnPath1097" d="M0.0 18.0Q0.0 0.0 18.0 0.0L100.0 0.0Q118.0 0.0 118.0 18.0L118.0 40.285870396677865Q118.0 58.285870396677865 100.0 58.285870396677865L18.0 58.285870396677865Q0.0 58.285870396677865 0.0 40.285870396677865L0.0 18.0Z" stroke="#323232" stroke-width="2.0" stroke-dasharray="none" opacity="1.0" fill="#ffff66"/></g><g id="ProcessOnG1098" transform="matrix(1.0,0.0,0.0,1.0,96.0,338.8858048300733)" opacity="1.0"><path id="ProcessOnPath1099" d="M0.0 18.0Q0.0 0.0 18.0 0.0L100.0 0.0Q118.0 0.0 118.0 18.0L118.0 40.285870396677865Q118.0 58.285870396677865 100.0 58.285870396677865L18.0 58.285870396677865Q0.0 58.285870396677865 0.0 40.285870396677865L0.0 18.0Z" stroke="#323232" stroke-width="2.0" stroke-dasharray="none" opacity="1.0" fill="#ffff66"/><g id="ProcessOnG1100" transform="matrix(1.0,0.0,0.0,1.0,10.0,12.892935198338932)"><text id="ProcessOnText1101" fill="#000000" font-weight="normal" font-style="normal" text-decoration="blink" font-family="微软雅黑" text-anchor="middle" font-size="13" x="49.0" y="13.325">负载均衡服务器</text><text id="ProcessOnText1102" fill="#000000" font-weight="normal" font-style="normal" text-decoration="blink" font-family="微软雅黑" text-anchor="middle" font-size="13" x="49.0" y="29.575">1</text></g></g><g id="ProcessOnG1103" transform="matrix(1.0,0.0,0.0,1.0,714.012987012987,285.8691946235385)" opacity="1.0"><path id="ProcessOnPath1104" d="M0.0 4.0Q0.0 0.0 4.0 0.0L202.2987012987013 0.0Q206.2987012987013 0.0 206.2987012987013 4.0L206.2987012987013 128.31909080974756Q206.2987012987013 132.31909080974756 202.2987012987013 132.31909080974756L4.0 132.31909080974756Q0.0 132.31909080974756 0.0 128.31909080974756Z" stroke="#323232" stroke-width="2.0" stroke-dasharray="none" opacity="1.0" fill="#ffffcc"/><g id="ProcessOnG1105" transform="matrix(1.0,0.0,0.0,1.0,5.0,2.326363629267682)"><text id="ProcessOnText1106" fill="#000000" font-weight="normal" font-style="normal" text-decoration="blink" font-family="微软雅黑" text-anchor="middle" font-size="13" x="98.14935064935065" y="13.325">分布式文件服务器2</text></g></g><g id="ProcessOnG1107" transform="matrix(1.0,0.0,0.0,1.0,734.012987012987,305.8691946235385)" opacity="1.0"><path id="ProcessOnPath1108" d="M0.0 4.0Q0.0 0.0 4.0 0.0L202.2987012987013 0.0Q206.2987012987013 0.0 206.2987012987013 4.0L206.2987012987013 128.31909080974756Q206.2987012987013 132.31909080974756 202.2987012987013 132.31909080974756L4.0 132.31909080974756Q0.0 132.31909080974756 0.0 128.31909080974756Z" stroke="#323232" stroke-width="2.0" stroke-dasharray="none" opacity="1.0" fill="#ffffcc"/><g id="ProcessOnG1109" transform="matrix(1.0,0.0,0.0,1.0,5.0,2.326363629267682)"><text id="ProcessOnText1110" fill="#000000" font-weight="normal" font-style="normal" text-decoration="blink" font-family="微软雅黑" text-anchor="middle" font-size="13" x="98.14935064935065" y="13.325">分布式文件服务器n1</text></g></g><g id="ProcessOnG1111" transform="matrix(1.0,0.0,0.0,1.0,779.8571428571428,339.8399082067534)" opacity="1.0"><path id="ProcessOnPath1112" d="M8.0 8.0Q8.0 0.0 16.0 0.0L106.6103896103896 0.0Q114.6103896103896 0.0 114.6103896103896 8.0L114.6103896103896 48.377663643317675Q114.6103896103896 56.377663643317675 106.6103896103896 56.377663643317675L106.6103896103896 56.377663643317675" stroke="#323232" stroke-width="2.0" stroke-dasharray="none" opacity="1.0" fill="#ff9999"/><path id="ProcessOnPath1113" d="M0.0 16.0Q0.0 8.0 8.0 8.0L98.6103896103896 8.0Q106.6103896103896 8.0 106.6103896103896 16.0L106.6103896103896 56.377663643317675Q106.6103896103896 64.37766364331767 98.6103896103896 64.37766364331767L8.0 64.37766364331767Q0.0 64.37766364331767 0.0 56.377663643317675L0.0 16.0Z" stroke="#323232" stroke-width="2.0" stroke-dasharray="none" opacity="1.0" fill="#ff9999"/><path id="ProcessOnPath1114" d="M0.0 4.0Q0.0 0.0 4.0 0.0L110.6103896103896 0.0Q114.6103896103896 0.0 114.6103896103896 4.0L114.6103896103896 60.377663643317675Q114.6103896103896 64.37766364331767 110.6103896103896 64.37766364331767L4.0 64.37766364331767Q0.0 64.37766364331767 0.0 60.377663643317675Z" stroke="#323232" stroke-width="0.0" stroke-dasharray="none" opacity="1.0" fill="none"/><g id="ProcessOnG1115" transform="matrix(1.0,0.0,0.0,1.0,15.1017316017316,28.063831821658837)"><text id="ProcessOnText1116" fill="#000000" font-weight="normal" font-style="normal" text-decoration="blink" font-family="微软雅黑" text-anchor="middle" font-size="13" x="38.2034632034632" y="13.325">文件</text></g></g><g id="ProcessOnG1117" transform="matrix(1.0,0.0,0.0,1.0,698.7110389610389,505.2501365970934)" opacity="1.0"><path id="ProcessOnPath1118" d="M0.0 4.0Q0.0 0.0 4.0 0.0L202.2987012987013 0.0Q206.2987012987013 0.0 206.2987012987013 4.0L206.2987012987013 128.31909080974756Q206.2987012987013 132.31909080974756 202.2987012987013 132.31909080974756L4.0 132.31909080974756Q0.0 132.31909080974756 0.0 128.31909080974756Z" stroke="#323232" stroke-width="2.0" stroke-dasharray="none" opacity="1.0" fill="#ccffff"/><g id="ProcessOnG1119" transform="matrix(1.0,0.0,0.0,1.0,5.0,2.326363629267682)"><text id="ProcessOnText1120" fill="#000000" font-weight="normal" font-style="normal" text-decoration="blink" font-family="微软雅黑" text-anchor="middle" font-size="13" x="98.14935064935065" y="13.325">分布式文件服务器n</text></g></g><g id="ProcessOnG1121" transform="matrix(1.0,0.0,0.0,1.0,718.7110389610389,525.2501365970934)" opacity="1.0"><path id="ProcessOnPath1122" d="M0.0 4.0Q0.0 0.0 4.0 0.0L202.2987012987013 0.0Q206.2987012987013 0.0 206.2987012987013 4.0L206.2987012987013 128.31909080974756Q206.2987012987013 132.31909080974756 202.2987012987013 132.31909080974756L4.0 132.31909080974756Q0.0 132.31909080974756 0.0 128.31909080974756Z" stroke="#323232" stroke-width="2.0" stroke-dasharray="none" opacity="1.0" fill="#ccffff"/><g id="ProcessOnG1123" transform="matrix(1.0,0.0,0.0,1.0,5.0,2.326363629267682)"><text id="ProcessOnText1124" fill="#000000" font-weight="normal" font-style="normal" text-decoration="blink" font-family="微软雅黑" text-anchor="middle" font-size="13" x="98.14935064935065" y="13.325">分布式文件服务器2</text></g></g><g id="ProcessOnG1125" transform="matrix(1.0,0.0,0.0,1.0,738.7110389610389,545.2501365970934)" opacity="1.0"><path id="ProcessOnPath1126" d="M0.0 4.0Q0.0 0.0 4.0 0.0L202.2987012987013 0.0Q206.2987012987013 0.0 206.2987012987013 4.0L206.2987012987013 128.31909080974756Q206.2987012987013 132.31909080974756 202.2987012987013 132.31909080974756L4.0 132.31909080974756Q0.0 132.31909080974756 0.0 128.31909080974756Z" stroke="#323232" stroke-width="2.0" stroke-dasharray="none" opacity="1.0" fill="#ccffff"/><g id="ProcessOnG1127" transform="matrix(1.0,0.0,0.0,1.0,5.0,2.326363629267682)"><text id="ProcessOnText1128" fill="#000000" font-weight="normal" font-style="normal" text-decoration="blink" font-family="微软雅黑" text-anchor="middle" font-size="13" x="98.14935064935065" y="13.325">分布式文件服务器n1</text></g></g><g id="ProcessOnG1129" transform="matrix(1.0,0.0,0.0,1.0,784.5551948051947,579.2208501803084)" opacity="1.0"><path id="ProcessOnPath1130" d="M8.0 8.0Q8.0 0.0 16.0 0.0L106.6103896103896 0.0Q114.6103896103896 0.0 114.6103896103896 8.0L114.6103896103896 48.377663643317675Q114.6103896103896 56.377663643317675 106.6103896103896 56.377663643317675L106.6103896103896 56.377663643317675" stroke="#323232" stroke-width="2.0" stroke-dasharray="none" opacity="1.0" fill="#e5ccff"/><path id="ProcessOnPath1131" d="M0.0 16.0Q0.0 8.0 8.0 8.0L98.6103896103896 8.0Q106.6103896103896 8.0 106.6103896103896 16.0L106.6103896103896 56.377663643317675Q106.6103896103896 64.37766364331767 98.6103896103896 64.37766364331767L8.0 64.37766364331767Q0.0 64.37766364331767 0.0 56.377663643317675L0.0 16.0Z" stroke="#323232" stroke-width="2.0" stroke-dasharray="none" opacity="1.0" fill="#e5ccff"/><path id="ProcessOnPath1132" d="M0.0 4.0Q0.0 0.0 4.0 0.0L110.6103896103896 0.0Q114.6103896103896 0.0 114.6103896103896 4.0L114.6103896103896 60.377663643317675Q114.6103896103896 64.37766364331767 110.6103896103896 64.37766364331767L4.0 64.37766364331767Q0.0 64.37766364331767 0.0 60.377663643317675Z" stroke="#323232" stroke-width="0.0" stroke-dasharray="none" opacity="1.0" fill="none"/><g id="ProcessOnG1133" transform="matrix(1.0,0.0,0.0,1.0,15.1017316017316,28.063831821658837)"><text id="ProcessOnText1134" fill="#000000" font-weight="normal" font-style="normal" text-decoration="blink" font-family="微软雅黑" text-anchor="middle" font-size="13" x="38.2034632034632" y="13.325">数据库</text></g></g><g id="ProcessOnG1135"><path id="ProcessOnPath1136" d="M562.0 422.0877499726806C642.9809336165155 422.0877499726806 617.7301053445234 571.4096820019672 683.474970983539 571.4096820019672" stroke="#323232" stroke-width="2.0" stroke-dasharray="none" fill="none" marker-end="url(#ProcessOnMarker1137)"/></g><g id="ProcessOnG1139"><path id="ProcessOnPath1140" d="M139.0 605.6617855972027C139.0 576.8938556037356 147.0 562.956215426753 147.0 549.4243534107858" stroke="#323232" stroke-width="2.0" stroke-dasharray="none" fill="none" marker-end="url(#ProcessOnMarker1141)"/></g><g id="ProcessOnG1143"><path id="ProcessOnPath1144" d="M139.0 468.26674680362817C139.0 439.11745054448323 155.0 426.3209714858961 155.0 412.40774320425095" stroke="#323232" stroke-width="2.0" stroke-dasharray="none" fill="none" marker-end="url(#ProcessOnMarker1145)"/></g><g id="ProcessOnG1147"><path id="ProcessOnPath1148" d="M562.0 422.0877499726806C628.9521776732995 422.0877499726806 647.0608093396875 352.02874002841224 698.7769190354871 352.02874002841224" stroke="#323232" stroke-width="2.0" stroke-dasharray="none" fill="none" marker-end="url(#ProcessOnMarker1149)"/></g><g id="ProcessOnG1151"><path id="ProcessOnPath1152" d="M562.0 422.0877499726806C683.3926708467842 422.0877499726806 572.6203161662028 148.82286088952026 678.7769190354871 148.82286088952026" stroke="#323232" stroke-width="2.0" stroke-dasharray="none" fill="none" marker-end="url(#ProcessOnMarker1153)"/></g><g id="ProcessOnG1155" transform="matrix(1.0,0.0,0.0,1.0,267.0,574.2667468036283)" opacity="1.0"><path id="ProcessOnPath1156" d="M0.0 18.0Q0.0 0.0 18.0 0.0L114.19548872180451 0.0Q132.1954887218045 0.0 132.1954887218045 18.0L132.1954887218045 40.285870396677865Q132.1954887218045 58.285870396677865 114.19548872180451 58.285870396677865L18.0 58.285870396677865Q0.0 58.285870396677865 0.0 40.285870396677865L0.0 18.0Z" stroke="#323232" stroke-width="2.0" stroke-dasharray="none" opacity="1.0" fill="#66cc00"/></g><g id="ProcessOnG1157" transform="matrix(1.0,0.0,0.0,1.0,274.8421052631579,582.6310785706484)" opacity="1.0"><path id="ProcessOnPath1158" d="M0.0 18.0Q0.0 0.0 18.0 0.0L114.19548872180451 0.0Q132.1954887218045 0.0 132.1954887218045 18.0L132.1954887218045 40.285870396677865Q132.1954887218045 58.285870396677865 114.19548872180451 58.285870396677865L18.0 58.285870396677865Q0.0 58.285870396677865 0.0 40.285870396677865L0.0 18.0Z" stroke="#323232" stroke-width="2.0" stroke-dasharray="none" opacity="1.0" fill="#66cc00"/></g><g id="ProcessOnG1159" transform="matrix(1.0,0.0,0.0,1.0,283.8045112781955,590.2667468036283)" opacity="1.0"><path id="ProcessOnPath1160" d="M0.0 18.0Q0.0 0.0 18.0 0.0L114.19548872180451 0.0Q132.1954887218045 0.0 132.1954887218045 18.0L132.1954887218045 40.285870396677865Q132.1954887218045 58.285870396677865 114.19548872180451 58.285870396677865L18.0 58.285870396677865Q0.0 58.285870396677865 0.0 40.285870396677865L0.0 18.0Z" stroke="#323232" stroke-width="2.0" stroke-dasharray="none" opacity="1.0" fill="#66cc00"/><g id="ProcessOnG1161" transform="matrix(1.0,0.0,0.0,1.0,10.0,21.017935198338932)"><text id="ProcessOnText1162" fill="#000000" font-weight="normal" font-style="normal" text-decoration="blink" font-family="微软雅黑" text-anchor="middle" font-size="13" x="56.097744360902254" y="13.325">搜索引擎服务器1</text></g></g><g id="ProcessOnG1163" transform="matrix(1.0,0.0,0.0,1.0,473.00000000000006,574.2667468036283)" opacity="1.0"><path id="ProcessOnPath1164" d="M0.0 18.0Q0.0 0.0 18.0 0.0L100.0 0.0Q118.0 0.0 118.0 18.0L118.0 40.285870396677865Q118.0 58.285870396677865 100.0 58.285870396677865L18.0 58.285870396677865Q0.0 58.285870396677865 0.0 40.285870396677865L0.0 18.0Z" stroke="#323232" stroke-width="2.0" stroke-dasharray="none" opacity="1.0" fill="#00cccc"/></g><g id="ProcessOnG1165" transform="matrix(1.0,0.0,0.0,1.0,480.00000000000006,582.6310785706484)" opacity="1.0"><path id="ProcessOnPath1166" d="M0.0 18.0Q0.0 0.0 18.0 0.0L100.0 0.0Q118.0 0.0 118.0 18.0L118.0 40.285870396677865Q118.0 58.285870396677865 100.0 58.285870396677865L18.0 58.285870396677865Q0.0 58.285870396677865 0.0 40.285870396677865L0.0 18.0Z" stroke="#323232" stroke-width="2.0" stroke-dasharray="none" opacity="1.0" fill="#00cccc"/></g><g id="ProcessOnG1167" transform="matrix(1.0,0.0,0.0,1.0,488.00000000000006,590.2667468036283)" opacity="1.0"><path id="ProcessOnPath1168" d="M0.0 18.0Q0.0 0.0 18.0 0.0L100.0 0.0Q118.0 0.0 118.0 18.0L118.0 40.285870396677865Q118.0 58.285870396677865 100.0 58.285870396677865L18.0 58.285870396677865Q0.0 58.285870396677865 0.0 40.285870396677865L0.0 18.0Z" stroke="#323232" stroke-width="2.0" stroke-dasharray="none" opacity="1.0" fill="#00cccc"/><g id="ProcessOnG1169" transform="matrix(1.0,0.0,0.0,1.0,10.0,21.017935198338932)"><text id="ProcessOnText1170" fill="#000000" font-weight="normal" font-style="normal" text-decoration="blink" font-family="微软雅黑" text-anchor="middle" font-size="13" x="49.0" y="13.325">NoSQL服务器1</text></g></g><g id="ProcessOnG1171"><path id="ProcessOnPath1172" d="M515.4242424242424 444.21757185007107C515.4242424242424 533.3045874458676 340.9398496240602 493.54406297485184 340.9398496240602 567.3950105931485" stroke="#323232" stroke-width="2.0" stroke-dasharray="none" fill="none" marker-end="url(#ProcessOnMarker1173)"/></g><g id="ProcessOnG1175"><path id="ProcessOnPath1176" d="M515.4242424242424 444.21757185007107C515.4242424242424 500.38035694904306 539.0 526.4682934716764 539.0 567.3950105931485" stroke="#323232" stroke-width="2.0" stroke-dasharray="none" fill="none" marker-end="url(#ProcessOnMarker1177)"/></g></g></g></svg>