<svg xmlns="http://www.w3.org/2000/svg" xmlns:xlink="http://www.w3.org/1999/xlink" id="processonSvg1000" viewBox="69.0 89.0 915.0 603.125" width="915.0" height="603.125"><defs id="ProcessOnDefs1001"><marker id="ProcessOnMarker1049" markerUnits="userSpaceOnUse" orient="auto" markerWidth="16.23606797749979" markerHeight="10.550836550532098" viewBox="-1.0 -1.3763819204711736 16.23606797749979 10.550836550532098" refX="-1.0" refY="3.8990363547948754"><path id="ProcessOnPath1050" d="M12.0 3.8990363547948754L0.0 7.798072709589751V0.0Z" stroke="#323232" stroke-width="2.0" fill="#323232" transform="matrix(1.0,0.0,0.0,1.0,0.0,0.0)"/></marker><marker id="ProcessOnMarker1053" markerUnits="userSpaceOnUse" orient="auto" markerWidth="16.23606797749979" markerHeight="10.550836550532098" viewBox="-1.0 -1.3763819204711736 16.23606797749979 10.550836550532098" refX="-1.0" refY="3.8990363547948754"><path id="ProcessOnPath1054" d="M12.0 3.8990363547948754L0.0 7.798072709589751V0.0Z" stroke="#323232" stroke-width="2.0" fill="#323232" transform="matrix(1.0,0.0,0.0,1.0,0.0,0.0)"/></marker><marker id="ProcessOnMarker1057" markerUnits="userSpaceOnUse" orient="auto" markerWidth="16.23606797749979" markerHeight="10.550836550532098" viewBox="-1.0 -1.3763819204711736 16.23606797749979 10.550836550532098" refX="-1.0" refY="3.8990363547948754"><path id="ProcessOnPath1058" d="M12.0 3.8990363547948754L0.0 7.798072709589751V0.0Z" stroke="#323232" stroke-width="2.0" fill="#323232" transform="matrix(1.0,0.0,0.0,1.0,0.0,0.0)"/></marker><marker id="ProcessOnMarker1061" markerUnits="userSpaceOnUse" orient="auto" markerWidth="16.23606797749979" markerHeight="10.550836550532098" viewBox="-1.0 -1.3763819204711736 16.23606797749979 10.550836550532098" refX="-1.0" refY="3.8990363547948754"><path id="ProcessOnPath1062" d="M12.0 3.8990363547948754L0.0 7.798072709589751V0.0Z" stroke="#323232" stroke-width="2.0" fill="#323232" transform="matrix(1.0,0.0,0.0,1.0,0.0,0.0)"/></marker><marker id="ProcessOnMarker1065" markerUnits="userSpaceOnUse" orient="auto" markerWidth="16.23606797749979" markerHeight="10.550836550532098" viewBox="-1.0 -1.3763819204711736 16.23606797749979 10.550836550532098" refX="-1.0" refY="3.8990363547948754"><path id="ProcessOnPath1066" d="M12.0 3.8990363547948754L0.0 7.798072709589751V0.0Z" stroke="#323232" stroke-width="2.0" fill="#323232" transform="matrix(1.0,0.0,0.0,1.0,0.0,0.0)"/></marker><marker id="ProcessOnMarker1089" markerUnits="userSpaceOnUse" orient="auto" markerWidth="16.23606797749979" markerHeight="10.550836550532098" viewBox="-1.0 -1.3763819204711736 16.23606797749979 10.550836550532098" refX="-1.0" refY="3.8990363547948754"><path id="ProcessOnPath1090" d="M12.0 3.8990363547948754L0.0 7.798072709589751V0.0Z" stroke="#323232" stroke-width="2.0" fill="#323232" transform="matrix(1.0,0.0,0.0,1.0,0.0,0.0)"/></marker><marker id="ProcessOnMarker1097" markerUnits="userSpaceOnUse" orient="auto" markerWidth="16.23606797749979" markerHeight="10.550836550532098" viewBox="-1.0 -1.3763819204711736 16.23606797749979 10.550836550532098" refX="-1.0" refY="3.8990363547948754"><path id="ProcessOnPath1098" d="M12.0 3.8990363547948754L0.0 7.798072709589751V0.0Z" stroke="#323232" stroke-width="2.0" fill="#323232" transform="matrix(1.0,0.0,0.0,1.0,0.0,0.0)"/></marker><marker id="ProcessOnMarker1101" markerUnits="userSpaceOnUse" orient="auto" markerWidth="16.23606797749979" markerHeight="10.550836550532098" viewBox="-1.0 -1.3763819204711736 16.23606797749979 10.550836550532098" refX="-1.0" refY="3.8990363547948754"><path id="ProcessOnPath1102" d="M12.0 3.8990363547948754L0.0 7.798072709589751V0.0Z" stroke="#323232" stroke-width="2.0" fill="#323232" transform="matrix(1.0,0.0,0.0,1.0,0.0,0.0)"/></marker><marker id="ProcessOnMarker1105" markerUnits="userSpaceOnUse" orient="auto" markerWidth="16.23606797749979" markerHeight="10.550836550532098" viewBox="-1.0 -1.3763819204711736 16.23606797749979 10.550836550532098" refX="-1.0" refY="3.8990363547948754"><path id="ProcessOnPath1106" d="M12.0 3.8990363547948754L0.0 7.798072709589751V0.0Z" stroke="#323232" stroke-width="2.0" fill="#323232" transform="matrix(1.0,0.0,0.0,1.0,0.0,0.0)"/></marker></defs><g id="ProcessOnG1002"><path id="ProcessOnPath1003" d="M69.0 89.0H984.0V692.125H69.0V89.0Z" fill="none"/><g id="ProcessOnG1004"><g id="ProcessOnG1005" transform="matrix(1.0,0.0,0.0,1.0,250.0,586.0)" opacity="1.0"><path id="ProcessOnPath1006" d="M0.0 0.0L300.0 0.0L300.0 86.0L0.0 86.0Z" stroke="#323232" stroke-width="0.0" stroke-dasharray="none" opacity="1.0" fill="none"/><g id="ProcessOnG1007" transform="matrix(1.0,0.0,0.0,1.0,0.0,-0.125)"><text id="ProcessOnText1008" fill="#000000" font-weight="bold" font-style="normal" text-decoration="blink" font-family="微软雅黑" text-anchor="middle" font-size="23" x="150.0" y="23.575000000000003">大型网站架构 -- 负载均衡</text><text id="ProcessOnText1009" fill="#000000" font-weight="bold" font-style="normal" text-decoration="blink" font-family="微软雅黑" text-anchor="middle" font-size="23" x="150.0" y="52.325"></text><text id="ProcessOnText1010" fill="#000000" font-weight="bold" font-style="normal" text-decoration="blink" font-family="微软雅黑" text-anchor="middle" font-size="23" x="150.0" y="81.075">                  by decaywood</text></g></g><g id="ProcessOnG1011" transform="matrix(1.0,0.0,0.0,1.0,757.7012987012987,305.8691946235384)" opacity="1.0"><path id="ProcessOnPath1012" d="M0.0 4.0Q0.0 0.0 4.0 0.0L202.2987012987013 0.0Q206.2987012987013 0.0 206.2987012987013 4.0L206.2987012987013 128.31909080974756Q206.2987012987013 132.31909080974756 202.2987012987013 132.31909080974756L4.0 132.31909080974756Q0.0 132.31909080974756 0.0 128.31909080974756Z" stroke="#323232" stroke-width="2.0" stroke-dasharray="none" opacity="1.0" fill="#ffffcc"/><g id="ProcessOnG1013" transform="matrix(1.0,0.0,0.0,1.0,5.0,2.326363629267682)"><text id="ProcessOnText1014" fill="#000000" font-weight="normal" font-style="normal" text-decoration="blink" font-family="微软雅黑" text-anchor="middle" font-size="13" x="98.14935064935065" y="13.325">文件服务器</text></g></g><g id="ProcessOnG1015" transform="matrix(1.0,0.0,0.0,1.0,803.5454545454545,339.83990820675336)" opacity="1.0"><path id="ProcessOnPath1016" d="M8.0 8.0Q8.0 0.0 16.0 0.0L106.6103896103896 0.0Q114.6103896103896 0.0 114.6103896103896 8.0L114.6103896103896 48.377663643317675Q114.6103896103896 56.377663643317675 106.6103896103896 56.377663643317675L106.6103896103896 56.377663643317675" stroke="#323232" stroke-width="2.0" stroke-dasharray="none" opacity="1.0" fill="#ff9999"/><path id="ProcessOnPath1017" d="M0.0 16.0Q0.0 8.0 8.0 8.0L98.6103896103896 8.0Q106.6103896103896 8.0 106.6103896103896 16.0L106.6103896103896 56.377663643317675Q106.6103896103896 64.37766364331767 98.6103896103896 64.37766364331767L8.0 64.37766364331767Q0.0 64.37766364331767 0.0 56.377663643317675L0.0 16.0Z" stroke="#323232" stroke-width="2.0" stroke-dasharray="none" opacity="1.0" fill="#ff9999"/><path id="ProcessOnPath1018" d="M0.0 4.0Q0.0 0.0 4.0 0.0L110.6103896103896 0.0Q114.6103896103896 0.0 114.6103896103896 4.0L114.6103896103896 60.377663643317675Q114.6103896103896 64.37766364331767 110.6103896103896 64.37766364331767L4.0 64.37766364331767Q0.0 64.37766364331767 0.0 60.377663643317675Z" stroke="#323232" stroke-width="0.0" stroke-dasharray="none" opacity="1.0" fill="none"/><g id="ProcessOnG1019" transform="matrix(1.0,0.0,0.0,1.0,15.1017316017316,28.063831821658837)"><text id="ProcessOnText1020" fill="#000000" font-weight="normal" font-style="normal" text-decoration="blink" font-family="微软雅黑" text-anchor="middle" font-size="13" x="38.2034632034632" y="13.325">文件</text></g></g><g id="ProcessOnG1021" transform="matrix(1.0,0.0,0.0,1.0,643.090909090909,109.0)" opacity="1.0"><path id="ProcessOnPath1022" d="M0.0 4.0Q0.0 0.0 4.0 0.0L246.99675324675323 0.0Q250.99675324675323 0.0 250.99675324675323 4.0L250.99675324675323 122.85848541143044Q250.99675324675323 126.85848541143044 246.99675324675323 126.85848541143044L4.0 126.85848541143044Q0.0 126.85848541143044 0.0 122.85848541143044Z" stroke="#323232" stroke-width="2.0" stroke-dasharray="none" opacity="1.0" fill="#e6ffcc"/><g id="ProcessOnG1023" transform="matrix(1.0,0.0,0.0,1.0,5.0,1.9363203865307455)"><text id="ProcessOnText1024" fill="#000000" font-weight="normal" font-style="normal" text-decoration="blink" font-family="微软雅黑" text-anchor="middle" font-size="13" x="120.49837662337661" y="13.325">分布式缓存服务器n</text></g></g><g id="ProcessOnG1025" transform="matrix(1.0,0.0,0.0,1.0,666.012987012987,127.39361818380505)" opacity="1.0"><path id="ProcessOnPath1026" d="M0.0 4.0Q0.0 0.0 4.0 0.0L246.99675324675323 0.0Q250.99675324675323 0.0 250.99675324675323 4.0L250.99675324675323 122.85848541143044Q250.99675324675323 126.85848541143044 246.99675324675323 126.85848541143044L4.0 126.85848541143044Q0.0 126.85848541143044 0.0 122.85848541143044Z" stroke="#323232" stroke-width="2.0" stroke-dasharray="none" opacity="1.0" fill="#e6ffcc"/><g id="ProcessOnG1027" transform="matrix(1.0,0.0,0.0,1.0,5.0,1.9363203865307455)"><text id="ProcessOnText1028" fill="#000000" font-weight="normal" font-style="normal" text-decoration="blink" font-family="微软雅黑" text-anchor="middle" font-size="13" x="120.49837662337661" y="13.325">分布式缓存服务器2</text></g></g><g id="ProcessOnG1029" transform="matrix(1.0,0.0,0.0,1.0,688.9350649350649,145.7872363676101)" opacity="1.0"><path id="ProcessOnPath1030" d="M0.0 4.0Q0.0 0.0 4.0 0.0L246.99675324675323 0.0Q250.99675324675323 0.0 250.99675324675323 4.0L250.99675324675323 122.85848541143044Q250.99675324675323 126.85848541143044 246.99675324675323 126.85848541143044L4.0 126.85848541143044Q0.0 126.85848541143044 0.0 122.85848541143044Z" stroke="#323232" stroke-width="2.0" stroke-dasharray="none" opacity="1.0" fill="#e6ffcc"/><g id="ProcessOnG1031" transform="matrix(1.0,0.0,0.0,1.0,5.0,1.9363203865307455)"><text id="ProcessOnText1032" fill="#000000" font-weight="normal" font-style="normal" text-decoration="blink" font-family="微软雅黑" text-anchor="middle" font-size="13" x="120.49837662337661" y="13.325">分布式缓存服务器1</text></g></g><g id="ProcessOnG1033" transform="matrix(1.0,0.0,0.0,1.0,737.9310064935064,183.01994317560923)" opacity="1.0"><path id="ProcessOnPath1034" d="M0.0 0.0L153.00487012987014 0.0L153.00487012987014 52.39307179543219L0.0 52.39307179543219Z" stroke="#323232" stroke-width="2.0" stroke-dasharray="none" opacity="1.0" fill="#ffcc99"/><g id="ProcessOnG1035" transform="matrix(1.0,0.0,0.0,1.0,10.0,18.071535897716096)"><text id="ProcessOnText1036" fill="#000000" font-weight="normal" font-style="normal" text-decoration="blink" font-family="微软雅黑" text-anchor="middle" font-size="13" x="66.50243506493507" y="13.325">远程分布式缓存</text></g></g><g id="ProcessOnG1037" transform="matrix(1.0,0.0,0.0,1.0,684.6371753246754,502.68090919025246)" opacity="1.0"><path id="ProcessOnPath1038" d="M0.0 4.0Q0.0 0.0 4.0 0.0L202.2987012987013 0.0Q206.2987012987013 0.0 206.2987012987013 4.0L206.2987012987013 128.31909080974756Q206.2987012987013 132.31909080974756 202.2987012987013 132.31909080974756L4.0 132.31909080974756Q0.0 132.31909080974756 0.0 128.31909080974756Z" stroke="#323232" stroke-width="2.0" stroke-dasharray="none" opacity="1.0" fill="#ccffff"/><g id="ProcessOnG1039" transform="matrix(1.0,0.0,0.0,1.0,5.0,2.326363629267682)"><text id="ProcessOnText1040" fill="#000000" font-weight="normal" font-style="normal" text-decoration="blink" font-family="微软雅黑" text-anchor="middle" font-size="13" x="98.14935064935065" y="13.325">数据库服务器</text></g></g><g id="ProcessOnG1041" transform="matrix(1.0,0.0,0.0,1.0,730.4813311688312,536.6516227734674)" opacity="1.0"><path id="ProcessOnPath1042" d="M8.0 8.0Q8.0 0.0 16.0 0.0L106.6103896103896 0.0Q114.6103896103896 0.0 114.6103896103896 8.0L114.6103896103896 48.377663643317675Q114.6103896103896 56.377663643317675 106.6103896103896 56.377663643317675L106.6103896103896 56.377663643317675" stroke="#323232" stroke-width="2.0" stroke-dasharray="none" opacity="1.0" fill="#e5ccff"/><path id="ProcessOnPath1043" d="M0.0 16.0Q0.0 8.0 8.0 8.0L98.6103896103896 8.0Q106.6103896103896 8.0 106.6103896103896 16.0L106.6103896103896 56.377663643317675Q106.6103896103896 64.37766364331767 98.6103896103896 64.37766364331767L8.0 64.37766364331767Q0.0 64.37766364331767 0.0 56.377663643317675L0.0 16.0Z" stroke="#323232" stroke-width="2.0" stroke-dasharray="none" opacity="1.0" fill="#e5ccff"/><path id="ProcessOnPath1044" d="M0.0 4.0Q0.0 0.0 4.0 0.0L110.6103896103896 0.0Q114.6103896103896 0.0 114.6103896103896 4.0L114.6103896103896 60.377663643317675Q114.6103896103896 64.37766364331767 110.6103896103896 64.37766364331767L4.0 64.37766364331767Q0.0 64.37766364331767 0.0 60.377663643317675Z" stroke="#323232" stroke-width="0.0" stroke-dasharray="none" opacity="1.0" fill="none"/><g id="ProcessOnG1045" transform="matrix(1.0,0.0,0.0,1.0,15.1017316017316,28.063831821658837)"><text id="ProcessOnText1046" fill="#000000" font-weight="normal" font-style="normal" text-decoration="blink" font-family="微软雅黑" text-anchor="middle" font-size="13" x="38.2034632034632" y="13.325">数据库</text></g></g><g id="ProcessOnG1047"><path id="ProcessOnPath1048" d="M543.6371753246754 344.02874002841224C622.9718412824491 344.02874002841224 563.7562431331353 172.4292427057152 627.8548411134092 172.4292427057152" stroke="#323232" stroke-width="2.0" stroke-dasharray="none" fill="none" marker-end="url(#ProcessOnMarker1049)"/></g><g id="ProcessOnG1051"><path id="ProcessOnPath1052" d="M543.6371753246754 344.02874002841224C622.0696998936004 344.02874002841224 587.5804624440619 190.82286088952026 650.7769190354871 190.82286088952026" stroke="#323232" stroke-width="2.0" stroke-dasharray="none" fill="none" marker-end="url(#ProcessOnMarker1053)"/></g><g id="ProcessOnG1055"><path id="ProcessOnPath1056" d="M543.6371753246754 344.02874002841224C622.9197811638433 344.02874002841224 609.652459095897 209.2164790733253 673.6989969575651 209.2164790733253" stroke="#323232" stroke-width="2.0" stroke-dasharray="none" fill="none" marker-end="url(#ProcessOnMarker1057)"/></g><g id="ProcessOnG1059"><path id="ProcessOnPath1060" d="M543.6371753246754 344.02874002841224C629.9922089169354 344.02874002841224 671.3462651090387 372.0287400284122 742.4652307237989 372.0287400284122" stroke="#323232" stroke-width="2.0" stroke-dasharray="none" fill="none" marker-end="url(#ProcessOnMarker1061)"/></g><g id="ProcessOnG1063"><path id="ProcessOnPath1064" d="M543.6371753246754 344.02874002841224C649.7852281614001 344.02874002841224 578.4891224879506 568.8404545951263 669.4011073471755 568.8404545951263" stroke="#323232" stroke-width="2.0" stroke-dasharray="none" fill="none" marker-end="url(#ProcessOnMarker1065)"/></g><g id="ProcessOnG1067" transform="matrix(1.0,0.0,0.0,1.0,230.0,228.1550650202164)" opacity="1.0"><path id="ProcessOnPath1068" d="M0.0 4.0Q0.0 0.0 4.0 0.0L268.77272727272725 0.0Q272.77272727272725 0.0 272.77272727272725 4.0L272.77272727272725 147.74735001639166Q272.77272727272725 151.74735001639166 268.77272727272725 151.74735001639166L4.0 151.74735001639166Q0.0 151.74735001639166 0.0 147.74735001639166Z" stroke="#323232" stroke-width="2.0" stroke-dasharray="none" opacity="1.0" fill="#ffffcc"/><g id="ProcessOnG1069" transform="matrix(1.0,0.0,0.0,1.0,5.0,3.714096429742261)"><text id="ProcessOnText1070" fill="#000000" font-weight="normal" font-style="normal" text-decoration="blink" font-family="微软雅黑" text-anchor="middle" font-size="13" x="131.38636363636363" y="13.325">应用服务器n</text></g></g><g id="ProcessOnG1071" transform="matrix(1.0,0.0,0.0,1.0,250.0,248.1550650202164)" opacity="1.0"><path id="ProcessOnPath1072" d="M0.0 4.0Q0.0 0.0 4.0 0.0L268.77272727272725 0.0Q272.77272727272725 0.0 272.77272727272725 4.0L272.77272727272725 147.74735001639166Q272.77272727272725 151.74735001639166 268.77272727272725 151.74735001639166L4.0 151.74735001639166Q0.0 151.74735001639166 0.0 147.74735001639166Z" stroke="#323232" stroke-width="2.0" stroke-dasharray="none" opacity="1.0" fill="#ffffcc"/><g id="ProcessOnG1073" transform="matrix(1.0,0.0,0.0,1.0,5.0,3.714096429742261)"><text id="ProcessOnText1074" fill="#000000" font-weight="normal" font-style="normal" text-decoration="blink" font-family="微软雅黑" text-anchor="middle" font-size="13" x="131.38636363636363" y="13.325">应用服务器2</text></g></g><g id="ProcessOnG1075" transform="matrix(1.0,0.0,0.0,1.0,270.8644480519481,268.1550650202164)" opacity="1.0"><path id="ProcessOnPath1076" d="M0.0 4.0Q0.0 0.0 4.0 0.0L268.77272727272725 0.0Q272.77272727272725 0.0 272.77272727272725 4.0L272.77272727272725 147.74735001639166Q272.77272727272725 151.74735001639166 268.77272727272725 151.74735001639166L4.0 151.74735001639166Q0.0 151.74735001639166 0.0 147.74735001639166Z" stroke="#323232" stroke-width="2.0" stroke-dasharray="none" opacity="1.0" fill="#ffffcc"/><g id="ProcessOnG1077" transform="matrix(1.0,0.0,0.0,1.0,5.0,3.714096429742261)"><text id="ProcessOnText1078" fill="#000000" font-weight="normal" font-style="normal" text-decoration="blink" font-family="微软雅黑" text-anchor="middle" font-size="13" x="131.38636363636363" y="13.325">应用服务器1</text></g></g><g id="ProcessOnG1079" transform="matrix(1.0,0.0,0.0,1.0,355.9242424242424,295.81400939788)" opacity="1.0"><path id="ProcessOnPath1080" d="M0.0 0.0L90.92424242424242 0.0L90.92424242424242 44.2596437547809L0.0 44.2596437547809Z" stroke="#323232" stroke-width="2.0" stroke-dasharray="none" opacity="1.0" fill="#99ff99"/><g id="ProcessOnG1081" transform="matrix(1.0,0.0,0.0,1.0,10.0,14.004821877390452)"><text id="ProcessOnText1082" fill="#000000" font-weight="normal" font-style="normal" text-decoration="blink" font-family="微软雅黑" text-anchor="middle" font-size="13" x="35.46212121212121" y="13.325">应用程序</text></g></g><g id="ProcessOnG1083" transform="matrix(1.0,0.0,0.0,1.0,355.9242424242424,362.2034750300514)" opacity="1.0"><path id="ProcessOnPath1084" d="M0.0 22.12982187739045C0.0 -7.376607292463484 90.92424242424242 -7.376607292463484 90.92424242424242 22.12982187739045C90.92424242424242 51.636251047244386 0.0 51.636251047244386 0.0 22.12982187739045Z" stroke="#323232" stroke-width="2.0" stroke-dasharray="none" opacity="1.0" fill="#ccccff"/><g id="ProcessOnG1085" transform="matrix(1.0,0.0,0.0,1.0,10.0,14.004821877390452)"><text id="ProcessOnText1086" fill="#000000" font-weight="normal" font-style="normal" text-decoration="blink" font-family="微软雅黑" text-anchor="middle" font-size="13" x="35.46212121212121" y="13.325">本地缓存</text></g></g><g id="ProcessOnG1087"><path id="ProcessOnPath1088" d="M401.3863636363635 340.07365315266094C401.3863636363635 348.9255819036171 401.3863636363636 353.3515462790952 401.3863636363636 346.9674070525516" stroke="#323232" stroke-width="2.0" stroke-dasharray="none" fill="none" marker-end="url(#ProcessOnMarker1089)"/></g><g id="ProcessOnG1091" transform="matrix(1.0,0.0,0.0,1.0,89.0,488.74341602010713)" opacity="1.0"><path id="ProcessOnPath1092" d="M0.0 18.0Q0.0 0.0 18.0 0.0L100.0 0.0Q118.0 0.0 118.0 18.0L118.0 40.285870396677865Q118.0 58.285870396677865 100.0 58.285870396677865L18.0 58.285870396677865Q0.0 58.285870396677865 0.0 40.285870396677865L0.0 18.0Z" stroke="#323232" stroke-width="2.0" stroke-dasharray="none" opacity="1.0" fill="#ffcce6"/><g id="ProcessOnG1093" transform="matrix(1.0,0.0,0.0,1.0,10.0,21.017935198338932)"><text id="ProcessOnText1094" fill="#000000" font-weight="normal" font-style="normal" text-decoration="blink" font-family="微软雅黑" text-anchor="middle" font-size="13" x="49.0" y="13.325">负载均衡服务器</text></g></g><g id="ProcessOnG1095"><path id="ProcessOnPath1096" d="M148.0 488.74341602010713C148.0 407.90430516233795 149.16088914223081 304.02874002841224 214.7639320225002 304.02874002841224" stroke="#323232" stroke-width="2.0" stroke-dasharray="none" fill="none" marker-end="url(#ProcessOnMarker1097)"/></g><g id="ProcessOnG1099"><path id="ProcessOnPath1100" d="M148.0 488.74341602010713C148.0 411.24768763506745 172.50427161496032 324.02874002841224 234.7639320225002 324.02874002841224" stroke="#323232" stroke-width="2.0" stroke-dasharray="none" fill="none" marker-end="url(#ProcessOnMarker1101)"/></g><g id="ProcessOnG1103"><path id="ProcessOnPath1104" d="M148.0 488.74341602010713C148.0 412.8086966435362 194.9297286753772 344.02874002841224 255.6283800744483 344.02874002841224" stroke="#323232" stroke-width="2.0" stroke-dasharray="none" fill="none" marker-end="url(#ProcessOnMarker1105)"/></g></g></g></svg>