<svg xmlns="http://www.w3.org/2000/svg" xmlns:xlink="http://www.w3.org/1999/xlink" id="processonSvg1000" viewBox="241.0 155.5 775.0 558.625" width="775.0" height="558.625"><defs id="ProcessOnDefs1001"><marker id="ProcessOnMarker1025" markerUnits="userSpaceOnUse" orient="auto" markerWidth="16.23606797749979" markerHeight="10.550836550532098" viewBox="-1.0 -1.3763819204711736 16.23606797749979 10.550836550532098" refX="-1.0" refY="3.8990363547948754"><path id="ProcessOnPath1026" d="M12.0 3.8990363547948754L0.0 7.798072709589751V0.0Z" stroke="#323232" stroke-width="2.0" fill="#323232" transform="matrix(1.0,0.0,0.0,1.0,0.0,0.0)"/></marker><marker id="ProcessOnMarker1029" markerUnits="userSpaceOnUse" orient="auto" markerWidth="16.23606797749979" markerHeight="10.550836550532098" viewBox="-1.0 -1.3763819204711736 16.23606797749979 10.550836550532098" refX="-1.0" refY="3.8990363547948754"><path id="ProcessOnPath1030" d="M12.0 3.8990363547948754L0.0 7.798072709589751V0.0Z" stroke="#323232" stroke-width="2.0" fill="#323232" transform="matrix(1.0,0.0,0.0,1.0,0.0,0.0)"/></marker></defs><g id="ProcessOnG1002"><path id="ProcessOnPath1003" d="M241.0 155.5H1016.0V714.125H241.0V155.5Z" fill="none"/><g id="ProcessOnG1004"><g id="ProcessOnG1005" transform="matrix(1.0,0.0,0.0,1.0,261.0,175.5)" opacity="1.0"><path id="ProcessOnPath1006" d="M0.0 4.0Q0.0 0.0 4.0 0.0L492.0 0.0Q496.0 0.0 496.0 4.0L496.0 315.5Q496.0 319.5 492.0 319.5L4.0 319.5Q0.0 319.5 0.0 315.5Z" stroke="#323232" stroke-width="2.0" stroke-dasharray="none" opacity="1.0" fill="#ffffcc"/><g id="ProcessOnG1007" transform="matrix(1.0,0.0,0.0,1.0,5.0,13.82142857142857)"><text id="ProcessOnText1008" fill="#000000" font-weight="bold" font-style="normal" text-decoration="blink" font-family="微软雅黑" text-anchor="middle" font-size="16" x="243.0" y="16.4">应用服务器</text></g></g><g id="ProcessOnG1009" transform="matrix(1.0,0.0,0.0,1.0,307.63247863247864,295.02517985611513)" opacity="1.0"><path id="ProcessOnPath1010" d="M0.0 0.0L141.3105413105413 0.0L141.3105413105413 80.44964028776978L0.0 80.44964028776978Z" stroke="#323232" stroke-width="2.0" stroke-dasharray="none" opacity="1.0" fill="#ff9999"/><g id="ProcessOnG1011" transform="matrix(1.0,0.0,0.0,1.0,10.0,30.22482014388489)"><text id="ProcessOnText1012" fill="#000000" font-weight="bold" font-style="normal" text-decoration="blink" font-family="微软雅黑" text-anchor="middle" font-size="16" x="60.655270655270655" y="16.4">应用程序</text></g></g><g id="ProcessOnG1013" transform="matrix(1.0,0.0,0.0,1.0,541.5014245014245,235.83723021582733)" opacity="1.0"><path id="ProcessOnPath1014" d="M8.0 8.0Q8.0 0.0 16.0 0.0L133.3105413105413 0.0Q141.3105413105413 0.0 141.3105413105413 8.0L141.3105413105413 64.44964028776978Q141.3105413105413 72.44964028776978 133.3105413105413 72.44964028776978L133.3105413105413 72.44964028776978" stroke="#323232" stroke-width="2.0" stroke-dasharray="none" opacity="1.0" fill="#ccccff"/><path id="ProcessOnPath1015" d="M0.0 16.0Q0.0 8.0 8.0 8.0L125.31054131054131 8.0Q133.3105413105413 8.0 133.3105413105413 16.0L133.3105413105413 72.44964028776978Q133.3105413105413 80.44964028776978 125.31054131054131 80.44964028776978L8.0 80.44964028776978Q0.0 80.44964028776978 0.0 72.44964028776978L0.0 16.0Z" stroke="#323232" stroke-width="2.0" stroke-dasharray="none" opacity="1.0" fill="#ccccff"/><path id="ProcessOnPath1016" d="M0.0 4.0Q0.0 0.0 4.0 0.0L137.3105413105413 0.0Q141.3105413105413 0.0 141.3105413105413 4.0L141.3105413105413 76.44964028776978Q141.3105413105413 80.44964028776978 137.3105413105413 80.44964028776978L4.0 80.44964028776978Q0.0 80.44964028776978 0.0 76.44964028776978Z" stroke="#323232" stroke-width="0.0" stroke-dasharray="none" opacity="1.0" fill="none"/><g id="ProcessOnG1017" transform="matrix(1.0,0.0,0.0,1.0,16.0,34.22482014388489)"><text id="ProcessOnText1018" fill="#000000" font-weight="bold" font-style="normal" text-decoration="blink" font-family="微软雅黑" text-anchor="middle" font-size="16" x="50.655270655270655" y="16.4">文件</text></g></g><g id="ProcessOnG1019" transform="matrix(1.0,0.0,0.0,1.0,541.5014245014245,354.21312949640287)" opacity="1.0"><path id="ProcessOnPath1020" d="M21.196581196581196 0.0L127.90226792924635 0.0C144.96734314180358 0.0 144.96734314180358 80.44964028776978 127.90226792924635 80.44964028776978L21.196581196581196 80.44964028776978C-7.065527065527066 80.44964028776978 -7.065527065527066 0.0 21.196581196581196 0.0ZM127.90226792924635 0.0C111.14192620262764 0.0 111.14192620262764 80.44964028776978 127.90226792924635 80.44964028776978C111.14192620262764 80.44964028776978 111.14192620262764 0.0 127.90226792924635 0.0" stroke="#323232" stroke-width="2.0" stroke-dasharray="none" opacity="1.0" fill="#99ff99"/><g id="ProcessOnG1021" transform="matrix(1.0,0.0,0.0,1.0,0.0,30.22482014388489)"><text id="ProcessOnText1022" fill="#000000" font-weight="bold" font-style="normal" text-decoration="blink" font-family="微软雅黑" text-anchor="middle" font-size="16" x="56.52421652421653" y="16.4">数据库</text></g></g><g id="ProcessOnG1023"><path id="ProcessOnPath1024" d="M448.94301994302 335.25C491.24226481884534 335.25 499.2021796255991 284.1070143884892 526.2653565239247 284.1070143884892" stroke="#323232" stroke-width="2.0" stroke-dasharray="none" fill="none" marker-end="url(#ProcessOnMarker1025)"/></g><g id="ProcessOnG1027"><path id="ProcessOnPath1028" d="M448.94301994302 335.25C492.8889351334328 335.25 497.55550931101163 394.43794964028774 526.2653565239247 394.43794964028774" stroke="#323232" stroke-width="2.0" stroke-dasharray="none" fill="none" marker-end="url(#ProcessOnMarker1029)"/></g><g id="ProcessOnG1031" transform="matrix(1.0,0.0,0.0,1.0,696.0,608.0)" opacity="1.0"><path id="ProcessOnPath1032" d="M0.0 0.0L300.0 0.0L300.0 86.0L0.0 86.0Z" stroke="#323232" stroke-width="0.0" stroke-dasharray="none" opacity="1.0" fill="none"/><g id="ProcessOnG1033" transform="matrix(1.0,0.0,0.0,1.0,0.0,-0.125)"><text id="ProcessOnText1034" fill="#000000" font-weight="bold" font-style="normal" text-decoration="blink" font-family="微软雅黑" text-anchor="middle" font-size="23" x="150.0" y="23.575000000000003">大型网站架构 -- 初始阶段</text><text id="ProcessOnText1035" fill="#000000" font-weight="bold" font-style="normal" text-decoration="blink" font-family="微软雅黑" text-anchor="middle" font-size="23" x="150.0" y="52.325"></text><text id="ProcessOnText1036" fill="#000000" font-weight="bold" font-style="normal" text-decoration="blink" font-family="微软雅黑" text-anchor="middle" font-size="23" x="150.0" y="81.075">                  by decaywood</text></g></g></g></g></svg>