<svg xmlns="http://www.w3.org/2000/svg" xmlns:xlink="http://www.w3.org/1999/xlink" id="processonSvg1000" viewBox="39.0 15.331657742322989 1206.551948051948 662.2209594579831" width="1206.551948051948" height="662.2209594579831"><defs id="ProcessOnDefs1001"><marker id="ProcessOnMarker1053" markerUnits="userSpaceOnUse" orient="auto" markerWidth="16.23606797749979" markerHeight="10.550836550532098" viewBox="-1.0 -1.3763819204711736 16.23606797749979 10.550836550532098" refX="-1.0" refY="3.8990363547948754"><path id="ProcessOnPath1054" d="M12.0 3.8990363547948754L0.0 7.798072709589751V0.0Z" stroke="#323232" stroke-width="2.0" fill="#323232" transform="matrix(1.0,0.0,0.0,1.0,0.0,0.0)"/></marker><marker id="ProcessOnMarker1062" markerUnits="userSpaceOnUse" orient="auto" markerWidth="16.23606797749979" markerHeight="10.550836550532098" viewBox="-1.0 -1.3763819204711736 16.23606797749979 10.550836550532098" refX="-1.0" refY="3.8990363547948754"><path id="ProcessOnPath1063" d="M12.0 3.8990363547948754L0.0 7.798072709589751V0.0Z" stroke="#323232" stroke-width="2.0" fill="#323232" transform="matrix(1.0,0.0,0.0,1.0,0.0,0.0)"/></marker><marker id="ProcessOnMarker1124" markerUnits="userSpaceOnUse" orient="auto" markerWidth="16.23606797749979" markerHeight="10.550836550532098" viewBox="-1.0 -1.3763819204711736 16.23606797749979 10.550836550532098" refX="-1.0" refY="3.8990363547948754"><path id="ProcessOnPath1125" d="M12.0 3.8990363547948754L0.0 7.798072709589751V0.0Z" stroke="#323232" stroke-width="2.0" fill="#323232" transform="matrix(1.0,0.0,0.0,1.0,0.0,0.0)"/></marker><marker id="ProcessOnMarker1128" markerUnits="userSpaceOnUse" orient="auto" markerWidth="16.23606797749979" markerHeight="10.550836550532098" viewBox="-1.0 -1.3763819204711736 16.23606797749979 10.550836550532098" refX="-1.0" refY="3.8990363547948754"><path id="ProcessOnPath1129" d="M12.0 3.8990363547948754L0.0 7.798072709589751V0.0Z" stroke="#323232" stroke-width="2.0" fill="#323232" transform="matrix(1.0,0.0,0.0,1.0,0.0,0.0)"/></marker><marker id="ProcessOnMarker1132" markerUnits="userSpaceOnUse" orient="auto" markerWidth="16.23606797749979" markerHeight="10.550836550532098" viewBox="-1.0 -1.3763819204711736 16.23606797749979 10.550836550532098" refX="-1.0" refY="3.8990363547948754"><path id="ProcessOnPath1133" d="M12.0 3.8990363547948754L0.0 7.798072709589751V0.0Z" stroke="#323232" stroke-width="2.0" fill="#323232" transform="matrix(1.0,0.0,0.0,1.0,0.0,0.0)"/></marker><marker id="ProcessOnMarker1136" markerUnits="userSpaceOnUse" orient="auto" markerWidth="16.23606797749979" markerHeight="10.550836550532098" viewBox="-1.0 -1.3763819204711736 16.23606797749979 10.550836550532098" refX="-1.0" refY="3.8990363547948754"><path id="ProcessOnPath1137" d="M12.0 3.8990363547948754L0.0 7.798072709589751V0.0Z" stroke="#323232" stroke-width="2.0" fill="#323232" transform="matrix(1.0,0.0,0.0,1.0,0.0,0.0)"/></marker><marker id="ProcessOnMarker1140" markerUnits="userSpaceOnUse" orient="auto" markerWidth="16.23606797749979" markerHeight="10.550836550532098" viewBox="-1.0 -1.3763819204711736 16.23606797749979 10.550836550532098" refX="-1.0" refY="3.8990363547948754"><path id="ProcessOnPath1141" d="M12.0 3.8990363547948754L0.0 7.798072709589751V0.0Z" stroke="#323232" stroke-width="2.0" fill="#323232" transform="matrix(1.0,0.0,0.0,1.0,0.0,0.0)"/></marker><marker id="ProcessOnMarker1160" markerUnits="userSpaceOnUse" orient="auto" markerWidth="16.23606797749979" markerHeight="10.550836550532098" viewBox="-1.0 -1.3763819204711736 16.23606797749979 10.550836550532098" refX="-1.0" refY="3.8990363547948754"><path id="ProcessOnPath1161" d="M12.0 3.8990363547948754L0.0 7.798072709589751V0.0Z" stroke="#323232" stroke-width="2.0" fill="#323232" transform="matrix(1.0,0.0,0.0,1.0,0.0,0.0)"/></marker><marker id="ProcessOnMarker1164" markerUnits="userSpaceOnUse" orient="auto" markerWidth="16.23606797749979" markerHeight="10.550836550532098" viewBox="-1.0 -1.3763819204711736 16.23606797749979 10.550836550532098" refX="-1.0" refY="3.8990363547948754"><path id="ProcessOnPath1165" d="M12.0 3.8990363547948754L0.0 7.798072709589751V0.0Z" stroke="#323232" stroke-width="2.0" fill="#323232" transform="matrix(1.0,0.0,0.0,1.0,0.0,0.0)"/></marker><marker id="ProcessOnMarker1192" markerUnits="userSpaceOnUse" orient="auto" markerWidth="16.23606797749979" markerHeight="10.550836550532098" viewBox="-1.0 -1.3763819204711736 16.23606797749979 10.550836550532098" refX="-1.0" refY="3.8990363547948754"><path id="ProcessOnPath1193" d="M12.0 3.8990363547948754L0.0 7.798072709589751V0.0Z" stroke="#323232" stroke-width="2.0" fill="#323232" transform="matrix(1.0,0.0,0.0,1.0,0.0,0.0)"/></marker><marker id="ProcessOnMarker1196" markerUnits="userSpaceOnUse" orient="auto" markerWidth="16.23606797749979" markerHeight="10.550836550532098" viewBox="-1.0 -1.3763819204711736 16.23606797749979 10.550836550532098" refX="-1.0" refY="3.8990363547948754"><path id="ProcessOnPath1197" d="M12.0 3.8990363547948754L0.0 7.798072709589751V0.0Z" stroke="#323232" stroke-width="2.0" fill="#323232" transform="matrix(1.0,0.0,0.0,1.0,0.0,0.0)"/></marker><marker id="ProcessOnMarker1200" markerUnits="userSpaceOnUse" orient="auto" markerWidth="16.23606797749979" markerHeight="10.550836550532098" viewBox="-1.0 -1.3763819204711736 16.23606797749979 10.550836550532098" refX="15.23606797749979" refY="3.8990363547948754"><path id="ProcessOnPath1201" d="M12.0 3.8990363547948754L0.0 7.798072709589751V0.0Z" stroke="#323232" stroke-width="2.0" fill="#323232" transform="matrix(-1.0,1.2246467991473532E-16,-1.2246467991473532E-16,-1.0,14.23606797749979,7.798072709589751)"/></marker><marker id="ProcessOnMarker1202" markerUnits="userSpaceOnUse" orient="auto" markerWidth="16.23606797749979" markerHeight="10.550836550532098" viewBox="-1.0 -1.3763819204711736 16.23606797749979 10.550836550532098" refX="-1.0" refY="3.8990363547948754"><path id="ProcessOnPath1203" d="M12.0 3.8990363547948754L0.0 7.798072709589751V0.0Z" stroke="#323232" stroke-width="2.0" fill="#323232" transform="matrix(1.0,0.0,0.0,1.0,0.0,0.0)"/></marker><marker id="ProcessOnMarker1206" markerUnits="userSpaceOnUse" orient="auto" markerWidth="16.23606797749979" markerHeight="10.550836550532098" viewBox="-1.0 -1.3763819204711736 16.23606797749979 10.550836550532098" refX="15.23606797749979" refY="3.8990363547948754"><path id="ProcessOnPath1207" d="M12.0 3.8990363547948754L0.0 7.798072709589751V0.0Z" stroke="#323232" stroke-width="2.0" fill="#323232" transform="matrix(-1.0,1.2246467991473532E-16,-1.2246467991473532E-16,-1.0,14.23606797749979,7.798072709589751)"/></marker><marker id="ProcessOnMarker1208" markerUnits="userSpaceOnUse" orient="auto" markerWidth="16.23606797749979" markerHeight="10.550836550532098" viewBox="-1.0 -1.3763819204711736 16.23606797749979 10.550836550532098" refX="-1.0" refY="3.8990363547948754"><path id="ProcessOnPath1209" d="M12.0 3.8990363547948754L0.0 7.798072709589751V0.0Z" stroke="#323232" stroke-width="2.0" fill="#323232" transform="matrix(1.0,0.0,0.0,1.0,0.0,0.0)"/></marker><marker id="ProcessOnMarker1212" markerUnits="userSpaceOnUse" orient="auto" markerWidth="16.23606797749979" markerHeight="10.550836550532098" viewBox="-1.0 -1.3763819204711736 16.23606797749979 10.550836550532098" refX="-1.0" refY="3.8990363547948754"><path id="ProcessOnPath1213" d="M12.0 3.8990363547948754L0.0 7.798072709589751V0.0Z" stroke="#323232" stroke-width="2.0" fill="#323232" transform="matrix(1.0,0.0,0.0,1.0,0.0,0.0)"/></marker><marker id="ProcessOnMarker1216" markerUnits="userSpaceOnUse" orient="auto" markerWidth="16.23606797749979" markerHeight="10.550836550532098" viewBox="-1.0 -1.3763819204711736 16.23606797749979 10.550836550532098" refX="-1.0" refY="3.8990363547948754"><path id="ProcessOnPath1217" d="M12.0 3.8990363547948754L0.0 7.798072709589751V0.0Z" stroke="#323232" stroke-width="2.0" fill="#323232" transform="matrix(1.0,0.0,0.0,1.0,0.0,0.0)"/></marker></defs><g id="ProcessOnG1002"><path id="ProcessOnPath1003" d="M39.0 15.331657742322989H1245.551948051948V677.552617200306H39.0V15.331657742322932Z" fill="none"/><g id="ProcessOnG1004"><g id="ProcessOnG1005" transform="matrix(1.0,0.0,0.0,1.0,435.77272727272725,69.33165774232299)" opacity="1.0"><path id="ProcessOnPath1006" d="M0.0 0.0L423.22727272727275 0.0L423.22727272727275 108.62577860343134L0.0 108.62577860343134Z" stroke="#323232" stroke-width="0.0" stroke-dasharray="none" opacity="1.0" fill="none"/><g id="ProcessOnG1007" transform="matrix(1.0,0.0,0.0,1.0,0.0,11.187889301715671)"><text id="ProcessOnText1008" fill="#000000" font-weight="bold" font-style="normal" text-decoration="blink" font-family="微软雅黑" text-anchor="middle" font-size="23" x="211.61363636363637" y="23.575000000000003">大型网站架构 -- 分布式服务</text><text id="ProcessOnText1009" fill="#000000" font-weight="bold" font-style="normal" text-decoration="blink" font-family="微软雅黑" text-anchor="middle" font-size="23" x="211.61363636363637" y="52.325"></text><text id="ProcessOnText1010" fill="#000000" font-weight="bold" font-style="normal" text-decoration="blink" font-family="微软雅黑" text-anchor="middle" font-size="23" x="211.61363636363637" y="81.075">by decaywood</text></g></g><g id="ProcessOnG1011" transform="matrix(1.0,0.0,0.0,1.0,951.6331168831168,234.20085236586146)" opacity="1.0"><path id="ProcessOnPath1012" d="M0.0 4.0Q0.0 0.0 4.0 0.0L202.2987012987013 0.0Q206.2987012987013 0.0 206.2987012987013 4.0L206.2987012987013 128.31909080974756Q206.2987012987013 132.31909080974756 202.2987012987013 132.31909080974756L4.0 132.31909080974756Q0.0 132.31909080974756 0.0 128.31909080974756Z" stroke="#323232" stroke-width="2.0" stroke-dasharray="none" opacity="1.0" fill="#ffffcc"/><g id="ProcessOnG1013" transform="matrix(1.0,0.0,0.0,1.0,5.0,2.326363629267682)"><text id="ProcessOnText1014" fill="#000000" font-weight="normal" font-style="normal" text-decoration="blink" font-family="微软雅黑" text-anchor="middle" font-size="13" x="98.14935064935065" y="13.325">分布式文件服务器n</text></g></g><g id="ProcessOnG1015" transform="matrix(1.0,0.0,0.0,1.0,928.7110389610389,35.33165774232299)" opacity="1.0"><path id="ProcessOnPath1016" d="M0.0 4.0Q0.0 0.0 4.0 0.0L246.99675324675323 0.0Q250.99675324675323 0.0 250.99675324675323 4.0L250.99675324675323 122.85848541143044Q250.99675324675323 126.85848541143044 246.99675324675323 126.85848541143044L4.0 126.85848541143044Q0.0 126.85848541143044 0.0 122.85848541143044Z" stroke="#323232" stroke-width="2.0" stroke-dasharray="none" opacity="1.0" fill="#e6ffcc"/><g id="ProcessOnG1017" transform="matrix(1.0,0.0,0.0,1.0,5.0,1.9363203865307455)"><text id="ProcessOnText1018" fill="#000000" font-weight="normal" font-style="normal" text-decoration="blink" font-family="微软雅黑" text-anchor="middle" font-size="13" x="120.49837662337661" y="13.325">分布式缓存服务器n</text></g></g><g id="ProcessOnG1019" transform="matrix(1.0,0.0,0.0,1.0,951.6331168831168,53.725275926128035)" opacity="1.0"><path id="ProcessOnPath1020" d="M0.0 4.0Q0.0 0.0 4.0 0.0L246.99675324675323 0.0Q250.99675324675323 0.0 250.99675324675323 4.0L250.99675324675323 122.85848541143044Q250.99675324675323 126.85848541143044 246.99675324675323 126.85848541143044L4.0 126.85848541143044Q0.0 126.85848541143044 0.0 122.85848541143044Z" stroke="#323232" stroke-width="2.0" stroke-dasharray="none" opacity="1.0" fill="#e6ffcc"/><g id="ProcessOnG1021" transform="matrix(1.0,0.0,0.0,1.0,5.0,1.9363203865307455)"><text id="ProcessOnText1022" fill="#000000" font-weight="normal" font-style="normal" text-decoration="blink" font-family="微软雅黑" text-anchor="middle" font-size="13" x="120.49837662337661" y="13.325">分布式缓存服务器2</text></g></g><g id="ProcessOnG1023" transform="matrix(1.0,0.0,0.0,1.0,974.5551948051948,72.11889410993308)" opacity="1.0"><path id="ProcessOnPath1024" d="M0.0 4.0Q0.0 0.0 4.0 0.0L246.99675324675323 0.0Q250.99675324675323 0.0 250.99675324675323 4.0L250.99675324675323 122.85848541143044Q250.99675324675323 126.85848541143044 246.99675324675323 126.85848541143044L4.0 126.85848541143044Q0.0 126.85848541143044 0.0 122.85848541143044Z" stroke="#323232" stroke-width="2.0" stroke-dasharray="none" opacity="1.0" fill="#e6ffcc"/><g id="ProcessOnG1025" transform="matrix(1.0,0.0,0.0,1.0,5.0,1.9363203865307455)"><text id="ProcessOnText1026" fill="#000000" font-weight="normal" font-style="normal" text-decoration="blink" font-family="微软雅黑" text-anchor="middle" font-size="13" x="120.49837662337661" y="13.325">分布式缓存服务器1</text></g></g><g id="ProcessOnG1027" transform="matrix(1.0,0.0,0.0,1.0,1023.551136363636,109.35160091793222)" opacity="1.0"><path id="ProcessOnPath1028" d="M0.0 0.0L153.00487012987014 0.0L153.00487012987014 52.39307179543219L0.0 52.39307179543219Z" stroke="#323232" stroke-width="2.0" stroke-dasharray="none" opacity="1.0" fill="#ffcc99"/><g id="ProcessOnG1029" transform="matrix(1.0,0.0,0.0,1.0,10.0,18.071535897716096)"><text id="ProcessOnText1030" fill="#000000" font-weight="normal" font-style="normal" text-decoration="blink" font-family="微软雅黑" text-anchor="middle" font-size="13" x="66.50243506493507" y="13.325">远程分布式缓存</text></g></g><g id="ProcessOnG1031" transform="matrix(1.0,0.0,0.0,1.0,491.0,273.5319637198119)" opacity="1.0"><path id="ProcessOnPath1032" d="M0.0 4.0Q0.0 0.0 4.0 0.0L268.77272727272725 0.0Q272.77272727272725 0.0 272.77272727272725 4.0L272.77272727272725 147.74735001639166Q272.77272727272725 151.74735001639166 268.77272727272725 151.74735001639166L4.0 151.74735001639166Q0.0 151.74735001639166 0.0 147.74735001639166Z" stroke="#323232" stroke-width="2.0" stroke-dasharray="none" opacity="1.0" fill="#ffffcc"/><g id="ProcessOnG1033" transform="matrix(1.0,0.0,0.0,1.0,5.0,3.714096429742261)"><text id="ProcessOnText1034" fill="#000000" font-weight="normal" font-style="normal" text-decoration="blink" font-family="微软雅黑" text-anchor="middle" font-size="13" x="131.38636363636363" y="13.325">分布式服务服务器n</text></g></g><g id="ProcessOnG1035" transform="matrix(1.0,0.0,0.0,1.0,511.0,293.5319637198119)" opacity="1.0"><path id="ProcessOnPath1036" d="M0.0 4.0Q0.0 0.0 4.0 0.0L268.77272727272725 0.0Q272.77272727272725 0.0 272.77272727272725 4.0L272.77272727272725 147.74735001639166Q272.77272727272725 151.74735001639166 268.77272727272725 151.74735001639166L4.0 151.74735001639166Q0.0 151.74735001639166 0.0 147.74735001639166Z" stroke="#323232" stroke-width="2.0" stroke-dasharray="none" opacity="1.0" fill="#ffffcc"/><g id="ProcessOnG1037" transform="matrix(1.0,0.0,0.0,1.0,5.0,3.714096429742261)"><text id="ProcessOnText1038" fill="#000000" font-weight="normal" font-style="normal" text-decoration="blink" font-family="微软雅黑" text-anchor="middle" font-size="13" x="131.38636363636363" y="13.325">分布式服务服务器2</text></g></g><g id="ProcessOnG1039" transform="matrix(1.0,0.0,0.0,1.0,532.2272727272727,311.246093323134)" opacity="1.0"><path id="ProcessOnPath1040" d="M0.0 4.0Q0.0 0.0 4.0 0.0L268.77272727272725 0.0Q272.77272727272725 0.0 272.77272727272725 4.0L272.77272727272725 147.74735001639166Q272.77272727272725 151.74735001639166 268.77272727272725 151.74735001639166L4.0 151.74735001639166Q0.0 151.74735001639166 0.0 147.74735001639166Z" stroke="#323232" stroke-width="2.0" stroke-dasharray="none" opacity="1.0" fill="#ffffcc"/><g id="ProcessOnG1041" transform="matrix(1.0,0.0,0.0,1.0,5.0,3.714096429742261)"><text id="ProcessOnText1042" fill="#000000" font-weight="normal" font-style="normal" text-decoration="blink" font-family="微软雅黑" text-anchor="middle" font-size="13" x="131.38636363636363" y="13.325">分布式服务服务器1</text></g></g><g id="ProcessOnG1043" transform="matrix(1.0,0.0,0.0,1.0,616.9242424242425,341.1909080974755)" opacity="1.0"><path id="ProcessOnPath1044" d="M0.0 0.0L90.92424242424242 0.0L90.92424242424242 44.2596437547809L0.0 44.2596437547809Z" stroke="#323232" stroke-width="2.0" stroke-dasharray="none" opacity="1.0" fill="#99ff99"/><g id="ProcessOnG1045" transform="matrix(1.0,0.0,0.0,1.0,10.0,14.004821877390452)"><text id="ProcessOnText1046" fill="#000000" font-weight="normal" font-style="normal" text-decoration="blink" font-family="微软雅黑" text-anchor="middle" font-size="13" x="35.46212121212121" y="13.325">应用程序</text></g></g><g id="ProcessOnG1047" transform="matrix(1.0,0.0,0.0,1.0,559.9242424242424,405.3348267948857)" opacity="1.0"><path id="ProcessOnPath1048" d="M0.0 22.12982187739045C0.0 -7.376607292463484 90.92424242424242 -7.376607292463484 90.92424242424242 22.12982187739045C90.92424242424242 51.636251047244386 0.0 51.636251047244386 0.0 22.12982187739045Z" stroke="#323232" stroke-width="2.0" stroke-dasharray="none" opacity="1.0" fill="#ccccff"/><g id="ProcessOnG1049" transform="matrix(1.0,0.0,0.0,1.0,10.0,14.004821877390452)"><text id="ProcessOnText1050" fill="#000000" font-weight="normal" font-style="normal" text-decoration="blink" font-family="微软雅黑" text-anchor="middle" font-size="13" x="35.46212121212121" y="13.325">本地缓存</text></g></g><g id="ProcessOnG1051"><path id="ProcessOnPath1052" d="M662.3863636363635 385.4505518522564L619.7722183005217 400.31636557687125" stroke="#323232" stroke-width="2.0" stroke-dasharray="none" fill="none" marker-end="url(#ProcessOnMarker1053)"/></g><g id="ProcessOnG1055" transform="matrix(1.0,0.0,0.0,1.0,682.8484848484848,405.3348267948857)" opacity="1.0"><path id="ProcessOnPath1056" d="M0.0 22.12982187739044C0.0 -7.37660729246348 93.15151515151518 -7.37660729246348 93.15151515151518 22.12982187739044C93.15151515151518 51.636251047244365 0.0 51.636251047244365 0.0 22.12982187739044Z" stroke="#323232" stroke-width="2.0" stroke-dasharray="none" opacity="1.0" fill="#ff99ff"/><g id="ProcessOnG1057" transform="matrix(1.0,0.0,0.0,1.0,10.0,5.879821877390441)"><text id="ProcessOnText1058" fill="#000000" font-weight="normal" font-style="normal" text-decoration="blink" font-family="微软雅黑" text-anchor="middle" font-size="13" x="36.57575757575759" y="13.325">统一数据访</text><text id="ProcessOnText1059" fill="#000000" font-weight="normal" font-style="normal" text-decoration="blink" font-family="微软雅黑" text-anchor="middle" font-size="13" x="36.57575757575759" y="29.575">问模块</text></g></g><g id="ProcessOnG1060"><path id="ProcessOnPath1061" d="M662.3863636363635 385.4505518522564L714.8171880308962 401.0021914115634" stroke="#323232" stroke-width="2.0" stroke-dasharray="none" fill="none" marker-end="url(#ProcessOnMarker1062)"/></g><g id="ProcessOnG1064" transform="matrix(1.0,0.0,0.0,1.0,59.0,454.6291115725056)" opacity="1.0"><path id="ProcessOnPath1065" d="M0.0 18.0Q0.0 0.0 18.0 0.0L100.0 0.0Q118.0 0.0 118.0 18.0L118.0 40.285870396677865Q118.0 58.285870396677865 100.0 58.285870396677865L18.0 58.285870396677865Q0.0 58.285870396677865 0.0 40.285870396677865L0.0 18.0Z" stroke="#323232" stroke-width="2.0" stroke-dasharray="none" opacity="1.0" fill="#99ffcc"/></g><g id="ProcessOnG1066" transform="matrix(1.0,0.0,0.0,1.0,66.0,462.9934433395257)" opacity="1.0"><path id="ProcessOnPath1067" d="M0.0 18.0Q0.0 0.0 18.0 0.0L100.0 0.0Q118.0 0.0 118.0 18.0L118.0 40.285870396677865Q118.0 58.285870396677865 100.0 58.285870396677865L18.0 58.285870396677865Q0.0 58.285870396677865 0.0 40.285870396677865L0.0 18.0Z" stroke="#323232" stroke-width="2.0" stroke-dasharray="none" opacity="1.0" fill="#99ffcc"/></g><g id="ProcessOnG1068" transform="matrix(1.0,0.0,0.0,1.0,74.0,470.6291115725056)" opacity="1.0"><path id="ProcessOnPath1069" d="M0.0 18.0Q0.0 0.0 18.0 0.0L100.0 0.0Q118.0 0.0 118.0 18.0L118.0 40.285870396677865Q118.0 58.285870396677865 100.0 58.285870396677865L18.0 58.285870396677865Q0.0 58.285870396677865 0.0 40.285870396677865L0.0 18.0Z" stroke="#323232" stroke-width="2.0" stroke-dasharray="none" opacity="1.0" fill="#99ffcc"/><g id="ProcessOnG1070" transform="matrix(1.0,0.0,0.0,1.0,10.0,21.017935198338932)"><text id="ProcessOnText1071" fill="#000000" font-weight="normal" font-style="normal" text-decoration="blink" font-family="微软雅黑" text-anchor="middle" font-size="13" x="49.0" y="13.325">CDN服务器1</text></g></g><g id="ProcessOnG1072" transform="matrix(1.0,0.0,0.0,1.0,59.0,348.2340727789312)" opacity="1.0"><path id="ProcessOnPath1073" d="M0.0 18.0Q0.0 0.0 18.0 0.0L100.0 0.0Q118.0 0.0 118.0 18.0L118.0 40.285870396677865Q118.0 58.285870396677865 100.0 58.285870396677865L18.0 58.285870396677865Q0.0 58.285870396677865 0.0 40.285870396677865L0.0 18.0Z" stroke="#323232" stroke-width="2.0" stroke-dasharray="none" opacity="1.0" fill="#cc99ff"/></g><g id="ProcessOnG1074" transform="matrix(1.0,0.0,0.0,1.0,66.0,356.59840454595127)" opacity="1.0"><path id="ProcessOnPath1075" d="M0.0 18.0Q0.0 0.0 18.0 0.0L100.0 0.0Q118.0 0.0 118.0 18.0L118.0 40.285870396677865Q118.0 58.285870396677865 100.0 58.285870396677865L18.0 58.285870396677865Q0.0 58.285870396677865 0.0 40.285870396677865L0.0 18.0Z" stroke="#323232" stroke-width="2.0" stroke-dasharray="none" opacity="1.0" fill="#cc99ff"/></g><g id="ProcessOnG1076" transform="matrix(1.0,0.0,0.0,1.0,74.0,364.2340727789312)" opacity="1.0"><path id="ProcessOnPath1077" d="M0.0 18.0Q0.0 0.0 18.0 0.0L100.0 0.0Q118.0 0.0 118.0 18.0L118.0 40.285870396677865Q118.0 58.285870396677865 100.0 58.285870396677865L18.0 58.285870396677865Q0.0 58.285870396677865 0.0 40.285870396677865L0.0 18.0Z" stroke="#323232" stroke-width="2.0" stroke-dasharray="none" opacity="1.0" fill="#cc99ff"/><g id="ProcessOnG1078" transform="matrix(1.0,0.0,0.0,1.0,10.0,12.892935198338932)"><text id="ProcessOnText1079" fill="#000000" font-weight="normal" font-style="normal" text-decoration="blink" font-family="微软雅黑" text-anchor="middle" font-size="13" x="49.0" y="13.325">反向代理服务器</text><text id="ProcessOnText1080" fill="#000000" font-weight="normal" font-style="normal" text-decoration="blink" font-family="微软雅黑" text-anchor="middle" font-size="13" x="49.0" y="29.575">1</text></g></g><g id="ProcessOnG1081" transform="matrix(1.0,0.0,0.0,1.0,66.0,239.6457217790405)" opacity="1.0"><path id="ProcessOnPath1082" d="M0.0 18.0Q0.0 0.0 18.0 0.0L100.0 0.0Q118.0 0.0 118.0 18.0L118.0 40.285870396677865Q118.0 58.285870396677865 100.0 58.285870396677865L18.0 58.285870396677865Q0.0 58.285870396677865 0.0 40.285870396677865L0.0 18.0Z" stroke="#323232" stroke-width="2.0" stroke-dasharray="none" opacity="1.0" fill="#ffff66"/></g><g id="ProcessOnG1083" transform="matrix(1.0,0.0,0.0,1.0,73.0,248.0100535460606)" opacity="1.0"><path id="ProcessOnPath1084" d="M0.0 18.0Q0.0 0.0 18.0 0.0L100.0 0.0Q118.0 0.0 118.0 18.0L118.0 40.285870396677865Q118.0 58.285870396677865 100.0 58.285870396677865L18.0 58.285870396677865Q0.0 58.285870396677865 0.0 40.285870396677865L0.0 18.0Z" stroke="#323232" stroke-width="2.0" stroke-dasharray="none" opacity="1.0" fill="#ffff66"/></g><g id="ProcessOnG1085" transform="matrix(1.0,0.0,0.0,1.0,81.0,255.6457217790405)" opacity="1.0"><path id="ProcessOnPath1086" d="M0.0 18.0Q0.0 0.0 18.0 0.0L100.0 0.0Q118.0 0.0 118.0 18.0L118.0 40.285870396677865Q118.0 58.285870396677865 100.0 58.285870396677865L18.0 58.285870396677865Q0.0 58.285870396677865 0.0 40.285870396677865L0.0 18.0Z" stroke="#323232" stroke-width="2.0" stroke-dasharray="none" opacity="1.0" fill="#ffff66"/><g id="ProcessOnG1087" transform="matrix(1.0,0.0,0.0,1.0,10.0,12.892935198338932)"><text id="ProcessOnText1088" fill="#000000" font-weight="normal" font-style="normal" text-decoration="blink" font-family="微软雅黑" text-anchor="middle" font-size="13" x="49.0" y="13.325">负载均衡服务器</text><text id="ProcessOnText1089" fill="#000000" font-weight="normal" font-style="normal" text-decoration="blink" font-family="微软雅黑" text-anchor="middle" font-size="13" x="49.0" y="29.575">1</text></g></g><g id="ProcessOnG1090" transform="matrix(1.0,0.0,0.0,1.0,971.6331168831168,254.20085236586146)" opacity="1.0"><path id="ProcessOnPath1091" d="M0.0 4.0Q0.0 0.0 4.0 0.0L202.2987012987013 0.0Q206.2987012987013 0.0 206.2987012987013 4.0L206.2987012987013 128.31909080974756Q206.2987012987013 132.31909080974756 202.2987012987013 132.31909080974756L4.0 132.31909080974756Q0.0 132.31909080974756 0.0 128.31909080974756Z" stroke="#323232" stroke-width="2.0" stroke-dasharray="none" opacity="1.0" fill="#ffffcc"/><g id="ProcessOnG1092" transform="matrix(1.0,0.0,0.0,1.0,5.0,2.326363629267682)"><text id="ProcessOnText1093" fill="#000000" font-weight="normal" font-style="normal" text-decoration="blink" font-family="微软雅黑" text-anchor="middle" font-size="13" x="98.14935064935065" y="13.325">分布式文件服务器2</text></g></g><g id="ProcessOnG1094" transform="matrix(1.0,0.0,0.0,1.0,991.6331168831168,274.20085236586146)" opacity="1.0"><path id="ProcessOnPath1095" d="M0.0 4.0Q0.0 0.0 4.0 0.0L202.2987012987013 0.0Q206.2987012987013 0.0 206.2987012987013 4.0L206.2987012987013 128.31909080974756Q206.2987012987013 132.31909080974756 202.2987012987013 132.31909080974756L4.0 132.31909080974756Q0.0 132.31909080974756 0.0 128.31909080974756Z" stroke="#323232" stroke-width="2.0" stroke-dasharray="none" opacity="1.0" fill="#ffffcc"/><g id="ProcessOnG1096" transform="matrix(1.0,0.0,0.0,1.0,5.0,2.326363629267682)"><text id="ProcessOnText1097" fill="#000000" font-weight="normal" font-style="normal" text-decoration="blink" font-family="微软雅黑" text-anchor="middle" font-size="13" x="98.14935064935065" y="13.325">分布式文件服务器n1</text></g></g><g id="ProcessOnG1098" transform="matrix(1.0,0.0,0.0,1.0,1037.4772727272725,308.1715659490764)" opacity="1.0"><path id="ProcessOnPath1099" d="M8.0 8.0Q8.0 0.0 16.0 0.0L106.6103896103896 0.0Q114.6103896103896 0.0 114.6103896103896 8.0L114.6103896103896 48.377663643317675Q114.6103896103896 56.377663643317675 106.6103896103896 56.377663643317675L106.6103896103896 56.377663643317675" stroke="#323232" stroke-width="2.0" stroke-dasharray="none" opacity="1.0" fill="#ff9999"/><path id="ProcessOnPath1100" d="M0.0 16.0Q0.0 8.0 8.0 8.0L98.6103896103896 8.0Q106.6103896103896 8.0 106.6103896103896 16.0L106.6103896103896 56.377663643317675Q106.6103896103896 64.37766364331767 98.6103896103896 64.37766364331767L8.0 64.37766364331767Q0.0 64.37766364331767 0.0 56.377663643317675L0.0 16.0Z" stroke="#323232" stroke-width="2.0" stroke-dasharray="none" opacity="1.0" fill="#ff9999"/><path id="ProcessOnPath1101" d="M0.0 4.0Q0.0 0.0 4.0 0.0L110.6103896103896 0.0Q114.6103896103896 0.0 114.6103896103896 4.0L114.6103896103896 60.377663643317675Q114.6103896103896 64.37766364331767 110.6103896103896 64.37766364331767L4.0 64.37766364331767Q0.0 64.37766364331767 0.0 60.377663643317675Z" stroke="#323232" stroke-width="0.0" stroke-dasharray="none" opacity="1.0" fill="none"/><g id="ProcessOnG1102" transform="matrix(1.0,0.0,0.0,1.0,15.1017316017316,28.063831821658837)"><text id="ProcessOnText1103" fill="#000000" font-weight="normal" font-style="normal" text-decoration="blink" font-family="微软雅黑" text-anchor="middle" font-size="13" x="38.2034632034632" y="13.325">文件</text></g></g><g id="ProcessOnG1104" transform="matrix(1.0,0.0,0.0,1.0,953.9821428571427,435.2501365970935)" opacity="1.0"><path id="ProcessOnPath1105" d="M0.0 4.0Q0.0 0.0 4.0 0.0L202.2987012987013 0.0Q206.2987012987013 0.0 206.2987012987013 4.0L206.2987012987013 128.31909080974756Q206.2987012987013 132.31909080974756 202.2987012987013 132.31909080974756L4.0 132.31909080974756Q0.0 132.31909080974756 0.0 128.31909080974756Z" stroke="#323232" stroke-width="2.0" stroke-dasharray="none" opacity="1.0" fill="#ccffff"/><g id="ProcessOnG1106" transform="matrix(1.0,0.0,0.0,1.0,5.0,2.326363629267682)"><text id="ProcessOnText1107" fill="#000000" font-weight="normal" font-style="normal" text-decoration="blink" font-family="微软雅黑" text-anchor="middle" font-size="13" x="98.14935064935065" y="13.325">分布式文件服务器n</text></g></g><g id="ProcessOnG1108" transform="matrix(1.0,0.0,0.0,1.0,973.9821428571427,455.2501365970935)" opacity="1.0"><path id="ProcessOnPath1109" d="M0.0 4.0Q0.0 0.0 4.0 0.0L202.2987012987013 0.0Q206.2987012987013 0.0 206.2987012987013 4.0L206.2987012987013 128.31909080974756Q206.2987012987013 132.31909080974756 202.2987012987013 132.31909080974756L4.0 132.31909080974756Q0.0 132.31909080974756 0.0 128.31909080974756Z" stroke="#323232" stroke-width="2.0" stroke-dasharray="none" opacity="1.0" fill="#ccffff"/><g id="ProcessOnG1110" transform="matrix(1.0,0.0,0.0,1.0,5.0,2.326363629267682)"><text id="ProcessOnText1111" fill="#000000" font-weight="normal" font-style="normal" text-decoration="blink" font-family="微软雅黑" text-anchor="middle" font-size="13" x="98.14935064935065" y="13.325">分布式文件服务器2</text></g></g><g id="ProcessOnG1112" transform="matrix(1.0,0.0,0.0,1.0,993.9821428571427,475.2501365970935)" opacity="1.0"><path id="ProcessOnPath1113" d="M0.0 4.0Q0.0 0.0 4.0 0.0L202.2987012987013 0.0Q206.2987012987013 0.0 206.2987012987013 4.0L206.2987012987013 128.31909080974756Q206.2987012987013 132.31909080974756 202.2987012987013 132.31909080974756L4.0 132.31909080974756Q0.0 132.31909080974756 0.0 128.31909080974756Z" stroke="#323232" stroke-width="2.0" stroke-dasharray="none" opacity="1.0" fill="#ccffff"/><g id="ProcessOnG1114" transform="matrix(1.0,0.0,0.0,1.0,5.0,2.326363629267682)"><text id="ProcessOnText1115" fill="#000000" font-weight="normal" font-style="normal" text-decoration="blink" font-family="微软雅黑" text-anchor="middle" font-size="13" x="98.14935064935065" y="13.325">分布式文件服务器n1</text></g></g><g id="ProcessOnG1116" transform="matrix(1.0,0.0,0.0,1.0,1039.8262987012986,509.2208501803084)" opacity="1.0"><path id="ProcessOnPath1117" d="M8.0 8.0Q8.0 0.0 16.0 0.0L106.6103896103896 0.0Q114.6103896103896 0.0 114.6103896103896 8.0L114.6103896103896 48.377663643317675Q114.6103896103896 56.377663643317675 106.6103896103896 56.377663643317675L106.6103896103896 56.377663643317675" stroke="#323232" stroke-width="2.0" stroke-dasharray="none" opacity="1.0" fill="#e5ccff"/><path id="ProcessOnPath1118" d="M0.0 16.0Q0.0 8.0 8.0 8.0L98.6103896103896 8.0Q106.6103896103896 8.0 106.6103896103896 16.0L106.6103896103896 56.377663643317675Q106.6103896103896 64.37766364331767 98.6103896103896 64.37766364331767L8.0 64.37766364331767Q0.0 64.37766364331767 0.0 56.377663643317675L0.0 16.0Z" stroke="#323232" stroke-width="2.0" stroke-dasharray="none" opacity="1.0" fill="#e5ccff"/><path id="ProcessOnPath1119" d="M0.0 4.0Q0.0 0.0 4.0 0.0L110.6103896103896 0.0Q114.6103896103896 0.0 114.6103896103896 4.0L114.6103896103896 60.377663643317675Q114.6103896103896 64.37766364331767 110.6103896103896 64.37766364331767L4.0 64.37766364331767Q0.0 64.37766364331767 0.0 60.377663643317675Z" stroke="#323232" stroke-width="0.0" stroke-dasharray="none" opacity="1.0" fill="none"/><g id="ProcessOnG1120" transform="matrix(1.0,0.0,0.0,1.0,15.1017316017316,28.063831821658837)"><text id="ProcessOnText1121" fill="#000000" font-weight="normal" font-style="normal" text-decoration="blink" font-family="微软雅黑" text-anchor="middle" font-size="13" x="38.2034632034632" y="13.325">数据库</text></g></g><g id="ProcessOnG1122"><path id="ProcessOnPath1123" d="M776.0 427.46464867227616C853.0926830563311 427.46464867227616 876.8894598008116 501.40968200196727 938.7460748796428 501.40968200196727" stroke="#323232" stroke-width="2.0" stroke-dasharray="none" fill="none" marker-end="url(#ProcessOnMarker1124)"/></g><g id="ProcessOnG1126"><path id="ProcessOnPath1127" d="M125.0 462.9934433395257C125.0 446.49081704905393 133.0 439.02256946608077 133.0 437.7560111531088" stroke="#323232" stroke-width="2.0" stroke-dasharray="none" fill="none" marker-end="url(#ProcessOnMarker1128)"/></g><g id="ProcessOnG1130"><path id="ProcessOnPath1131" d="M125.0 356.59840454595127C125.0 338.5077135571066 140.0 332.022283164563 140.0 329.16766015321815" stroke="#323232" stroke-width="2.0" stroke-dasharray="none" fill="none" marker-end="url(#ProcessOnMarker1132)"/></g><g id="ProcessOnG1134"><path id="ProcessOnPath1135" d="M776.0 427.46464867227616C865.2131263728234 427.46464867227616 882.4199905102935 320.36039777073523 956.397048905617 320.36039777073523" stroke="#323232" stroke-width="2.0" stroke-dasharray="none" fill="none" marker-end="url(#ProcessOnMarker1136)"/></g><g id="ProcessOnG1138"><path id="ProcessOnPath1139" d="M776.0 427.46464867227616C918.6264315205503 427.46464867227616 809.0066853625665 117.15451863184325 936.397048905617 117.15451863184325" stroke="#323232" stroke-width="2.0" stroke-dasharray="none" fill="none" marker-end="url(#ProcessOnMarker1140)"/></g><g id="ProcessOnG1142" transform="matrix(1.0,0.0,0.0,1.0,457.0,583.2667468036283)" opacity="1.0"><path id="ProcessOnPath1143" d="M0.0 18.0Q0.0 0.0 18.0 0.0L114.19548872180451 0.0Q132.1954887218045 0.0 132.1954887218045 18.0L132.1954887218045 40.285870396677865Q132.1954887218045 58.285870396677865 114.19548872180451 58.285870396677865L18.0 58.285870396677865Q0.0 58.285870396677865 0.0 40.285870396677865L0.0 18.0Z" stroke="#323232" stroke-width="2.0" stroke-dasharray="none" opacity="1.0" fill="#66cc00"/></g><g id="ProcessOnG1144" transform="matrix(1.0,0.0,0.0,1.0,464.8421052631579,591.6310785706484)" opacity="1.0"><path id="ProcessOnPath1145" d="M0.0 18.0Q0.0 0.0 18.0 0.0L114.19548872180451 0.0Q132.1954887218045 0.0 132.1954887218045 18.0L132.1954887218045 40.285870396677865Q132.1954887218045 58.285870396677865 114.19548872180451 58.285870396677865L18.0 58.285870396677865Q0.0 58.285870396677865 0.0 40.285870396677865L0.0 18.0Z" stroke="#323232" stroke-width="2.0" stroke-dasharray="none" opacity="1.0" fill="#66cc00"/></g><g id="ProcessOnG1146" transform="matrix(1.0,0.0,0.0,1.0,473.8045112781955,599.2667468036283)" opacity="1.0"><path id="ProcessOnPath1147" d="M0.0 18.0Q0.0 0.0 18.0 0.0L114.19548872180451 0.0Q132.1954887218045 0.0 132.1954887218045 18.0L132.1954887218045 40.285870396677865Q132.1954887218045 58.285870396677865 114.19548872180451 58.285870396677865L18.0 58.285870396677865Q0.0 58.285870396677865 0.0 40.285870396677865L0.0 18.0Z" stroke="#323232" stroke-width="2.0" stroke-dasharray="none" opacity="1.0" fill="#66cc00"/><g id="ProcessOnG1148" transform="matrix(1.0,0.0,0.0,1.0,10.0,21.017935198338932)"><text id="ProcessOnText1149" fill="#000000" font-weight="normal" font-style="normal" text-decoration="blink" font-family="微软雅黑" text-anchor="middle" font-size="13" x="56.097744360902254" y="13.325">搜索引擎服务器1</text></g></g><g id="ProcessOnG1150" transform="matrix(1.0,0.0,0.0,1.0,663.0,583.2667468036283)" opacity="1.0"><path id="ProcessOnPath1151" d="M0.0 18.0Q0.0 0.0 18.0 0.0L100.0 0.0Q118.0 0.0 118.0 18.0L118.0 40.285870396677865Q118.0 58.285870396677865 100.0 58.285870396677865L18.0 58.285870396677865Q0.0 58.285870396677865 0.0 40.285870396677865L0.0 18.0Z" stroke="#323232" stroke-width="2.0" stroke-dasharray="none" opacity="1.0" fill="#00cccc"/></g><g id="ProcessOnG1152" transform="matrix(1.0,0.0,0.0,1.0,670.0,591.6310785706484)" opacity="1.0"><path id="ProcessOnPath1153" d="M0.0 18.0Q0.0 0.0 18.0 0.0L100.0 0.0Q118.0 0.0 118.0 18.0L118.0 40.285870396677865Q118.0 58.285870396677865 100.0 58.285870396677865L18.0 58.285870396677865Q0.0 58.285870396677865 0.0 40.285870396677865L0.0 18.0Z" stroke="#323232" stroke-width="2.0" stroke-dasharray="none" opacity="1.0" fill="#00cccc"/></g><g id="ProcessOnG1154" transform="matrix(1.0,0.0,0.0,1.0,678.0,599.2667468036283)" opacity="1.0"><path id="ProcessOnPath1155" d="M0.0 18.0Q0.0 0.0 18.0 0.0L100.0 0.0Q118.0 0.0 118.0 18.0L118.0 40.285870396677865Q118.0 58.285870396677865 100.0 58.285870396677865L18.0 58.285870396677865Q0.0 58.285870396677865 0.0 40.285870396677865L0.0 18.0Z" stroke="#323232" stroke-width="2.0" stroke-dasharray="none" opacity="1.0" fill="#00cccc"/><g id="ProcessOnG1156" transform="matrix(1.0,0.0,0.0,1.0,10.0,21.017935198338932)"><text id="ProcessOnText1157" fill="#000000" font-weight="normal" font-style="normal" text-decoration="blink" font-family="微软雅黑" text-anchor="middle" font-size="13" x="49.0" y="13.325">NoSQL服务器1</text></g></g><g id="ProcessOnG1158"><path id="ProcessOnPath1159" d="M729.4242424242425 449.59447054966665C729.4242424242425 547.2227059764022 530.9398496240601 494.00284314391286 530.9398496240601 576.3950105931485" stroke="#323232" stroke-width="2.0" stroke-dasharray="none" fill="none" marker-end="url(#ProcessOnMarker1160)"/></g><g id="ProcessOnG1162"><path id="ProcessOnPath1163" d="M729.4242424242425 449.59447054966665C729.4242424242425 506.40936718741904 729.0 534.816181932896 729.0 576.3950105931485" stroke="#323232" stroke-width="2.0" stroke-dasharray="none" fill="none" marker-end="url(#ProcessOnMarker1164)"/></g><g id="ProcessOnG1166" transform="matrix(1.0,0.0,0.0,1.0,274.687969924812,148.9495410337667)" opacity="1.0"><path id="ProcessOnPath1167" d="M0.0 18.0Q0.0 0.0 18.0 0.0L100.0 0.0Q118.0 0.0 118.0 18.0L118.0 40.285870396677865Q118.0 58.285870396677865 100.0 58.285870396677865L18.0 58.285870396677865Q0.0 58.285870396677865 0.0 40.285870396677865L0.0 18.0Z" stroke="#323232" stroke-width="2.0" stroke-dasharray="none" opacity="1.0" fill="#ccffff"/></g><g id="ProcessOnG1168" transform="matrix(1.0,0.0,0.0,1.0,281.687969924812,157.31387280078678)" opacity="1.0"><path id="ProcessOnPath1169" d="M0.0 18.0Q0.0 0.0 18.0 0.0L100.0 0.0Q118.0 0.0 118.0 18.0L118.0 40.285870396677865Q118.0 58.285870396677865 100.0 58.285870396677865L18.0 58.285870396677865Q0.0 58.285870396677865 0.0 40.285870396677865L0.0 18.0Z" stroke="#323232" stroke-width="2.0" stroke-dasharray="none" opacity="1.0" fill="#ccffff"/></g><g id="ProcessOnG1170" transform="matrix(1.0,0.0,0.0,1.0,289.687969924812,164.9495410337667)" opacity="1.0"><path id="ProcessOnPath1171" d="M0.0 18.0Q0.0 0.0 18.0 0.0L100.0 0.0Q118.0 0.0 118.0 18.0L118.0 40.285870396677865Q118.0 58.285870396677865 100.0 58.285870396677865L18.0 58.285870396677865Q0.0 58.285870396677865 0.0 40.285870396677865L0.0 18.0Z" stroke="#323232" stroke-width="2.0" stroke-dasharray="none" opacity="1.0" fill="#ccffff"/><g id="ProcessOnG1172" transform="matrix(1.0,0.0,0.0,1.0,10.0,21.017935198338932)"><text id="ProcessOnText1173" fill="#000000" font-weight="normal" font-style="normal" text-decoration="blink" font-family="微软雅黑" text-anchor="middle" font-size="13" x="49.0" y="13.325">B应用服务器1</text></g></g><g id="ProcessOnG1174" transform="matrix(1.0,0.0,0.0,1.0,251.68796992481202,308.1715659490764)" opacity="1.0"><path id="ProcessOnPath1175" d="M0.0 18.0Q0.0 0.0 18.0 0.0L140.81203007518795 0.0Q158.81203007518795 0.0 158.81203007518795 18.0L158.81203007518795 39.71414944784788Q158.81203007518795 57.71414944784788 140.81203007518795 57.71414944784788L18.0 57.71414944784788Q0.0 57.71414944784788 0.0 39.71414944784788L0.0 18.0Z" stroke="#323232" stroke-width="2.0" stroke-dasharray="none" opacity="1.0" fill="#ffcce6"/></g><g id="ProcessOnG1176" transform="matrix(1.0,0.0,0.0,1.0,261.109022556391,316.4538527254045)" opacity="1.0"><path id="ProcessOnPath1177" d="M0.0 18.0Q0.0 0.0 18.0 0.0L140.81203007518795 0.0Q158.81203007518795 0.0 158.81203007518795 18.0L158.81203007518795 39.71414944784788Q158.81203007518795 57.71414944784788 140.81203007518795 57.71414944784788L18.0 57.71414944784788Q0.0 57.71414944784788 0.0 39.71414944784788L0.0 18.0Z" stroke="#323232" stroke-width="2.0" stroke-dasharray="none" opacity="1.0" fill="#ffcce6"/></g><g id="ProcessOnG1178" transform="matrix(1.0,0.0,0.0,1.0,271.87593984962405,324.01462336386624)" opacity="1.0"><path id="ProcessOnPath1179" d="M0.0 18.0Q0.0 0.0 18.0 0.0L140.81203007518795 0.0Q158.81203007518795 0.0 158.81203007518795 18.0L158.81203007518795 39.71414944784788Q158.81203007518795 57.71414944784788 140.81203007518795 57.71414944784788L18.0 57.71414944784788Q0.0 57.71414944784788 0.0 39.71414944784788L0.0 18.0Z" stroke="#323232" stroke-width="2.0" stroke-dasharray="none" opacity="1.0" fill="#ffcce6"/><g id="ProcessOnG1180" transform="matrix(1.0,0.0,0.0,1.0,10.0,20.73207472392394)"><text id="ProcessOnText1181" fill="#000000" font-weight="normal" font-style="normal" text-decoration="blink" font-family="微软雅黑" text-anchor="middle" font-size="13" x="69.40601503759397" y="13.325">消息队列服务器1</text></g></g><g id="ProcessOnG1182" transform="matrix(1.0,0.0,0.0,1.0,267.187969924812,454.6291115725056)" opacity="1.0"><path id="ProcessOnPath1183" d="M0.0 18.0Q0.0 0.0 18.0 0.0L100.0 0.0Q118.0 0.0 118.0 18.0L118.0 40.285870396677865Q118.0 58.285870396677865 100.0 58.285870396677865L18.0 58.285870396677865Q0.0 58.285870396677865 0.0 40.285870396677865L0.0 18.0Z" stroke="#323232" stroke-width="2.0" stroke-dasharray="none" opacity="1.0" fill="#ccffff"/></g><g id="ProcessOnG1184" transform="matrix(1.0,0.0,0.0,1.0,274.187969924812,462.9934433395257)" opacity="1.0"><path id="ProcessOnPath1185" d="M0.0 18.0Q0.0 0.0 18.0 0.0L100.0 0.0Q118.0 0.0 118.0 18.0L118.0 40.285870396677865Q118.0 58.285870396677865 100.0 58.285870396677865L18.0 58.285870396677865Q0.0 58.285870396677865 0.0 40.285870396677865L0.0 18.0Z" stroke="#323232" stroke-width="2.0" stroke-dasharray="none" opacity="1.0" fill="#ccffff"/></g><g id="ProcessOnG1186" transform="matrix(1.0,0.0,0.0,1.0,282.187969924812,470.6291115725056)" opacity="1.0"><path id="ProcessOnPath1187" d="M0.0 18.0Q0.0 0.0 18.0 0.0L100.0 0.0Q118.0 0.0 118.0 18.0L118.0 40.285870396677865Q118.0 58.285870396677865 100.0 58.285870396677865L18.0 58.285870396677865Q0.0 58.285870396677865 0.0 40.285870396677865L0.0 18.0Z" stroke="#323232" stroke-width="2.0" stroke-dasharray="none" opacity="1.0" fill="#ccffff"/><g id="ProcessOnG1188" transform="matrix(1.0,0.0,0.0,1.0,10.0,21.017935198338932)"><text id="ProcessOnText1189" fill="#000000" font-weight="normal" font-style="normal" text-decoration="blink" font-family="微软雅黑" text-anchor="middle" font-size="13" x="49.0" y="13.325">A应用服务器1</text></g></g><g id="ProcessOnG1190"><path id="ProcessOnPath1191" d="M199.0 284.78865697737945C250.39097647450376 284.78865697737945 230.2969934503083 186.45680799912572 266.45190194731225 186.45680799912572" stroke="#323232" stroke-width="2.0" stroke-dasharray="none" fill="none" marker-end="url(#ProcessOnMarker1192)"/></g><g id="ProcessOnG1194"><path id="ProcessOnPath1195" d="M199.0 284.78865697737945C287.2236326232276 284.78865697737945 185.9643373015844 492.13637853786463 258.95190194731225 492.13637853786463" stroke="#323232" stroke-width="2.0" stroke-dasharray="none" fill="none" marker-end="url(#ProcessOnMarker1196)"/></g><g id="ProcessOnG1198"><path id="ProcessOnPath1199" d="M348.687969924812 238.47147940794437C348.687969924812 260.6658260588639 340.51503759398497 279.02343809698516 340.51503759398497 301.2177847479047" stroke="#323232" stroke-width="2.0" stroke-dasharray="none" fill="none" marker-start="url(#ProcessOnMarker1200)" marker-end="url(#ProcessOnMarker1202)"/></g><g id="ProcessOnG1204"><path id="ProcessOnPath1205" d="M333.187969924812 447.7573753620259C333.187969924812 429.6915780036295 351.28195488721803 415.0306381476104 351.28195488721803 396.9648407892139" stroke="#323232" stroke-width="2.0" stroke-dasharray="none" fill="none" marker-start="url(#ProcessOnMarker1206)" marker-end="url(#ProcessOnMarker1208)"/></g><g id="ProcessOnG1210"><path id="ProcessOnPath1211" d="M407.687969924812 194.09247623210564C489.08387203549194 194.09247623210564 429.6040978893201 369.4056387280078 495.7639320225002 369.4056387280078" stroke="#323232" stroke-width="2.0" stroke-dasharray="none" fill="none" marker-end="url(#ProcessOnMarker1212)"/></g><g id="ProcessOnG1214"><path id="ProcessOnPath1215" d="M400.187969924812 499.77204677084455C468.627381208517 499.77204677084455 442.560588716295 369.4056387280078 495.7639320225002 369.4056387280078" stroke="#323232" stroke-width="2.0" stroke-dasharray="none" fill="none" marker-end="url(#ProcessOnMarker1216)"/></g></g></g></svg>