<svg xmlns="http://www.w3.org/2000/svg" xmlns:xlink="http://www.w3.org/1999/xlink" id="processonSvg1000" viewBox="176.0 151.5 840.0 562.625" width="840.0" height="562.625"><defs id="ProcessOnDefs1001"><marker id="ProcessOnMarker1039" markerUnits="userSpaceOnUse" orient="auto" markerWidth="16.23606797749979" markerHeight="10.550836550532098" viewBox="-1.0 -1.3763819204711736 16.23606797749979 10.550836550532098" refX="-1.0" refY="3.8990363547948754"><path id="ProcessOnPath1040" d="M12.0 3.8990363547948754L0.0 7.798072709589751V0.0Z" stroke="#323232" stroke-width="2.0" fill="#323232" transform="matrix(1.0,0.0,0.0,1.0,0.0,0.0)"/></marker><marker id="ProcessOnMarker1043" markerUnits="userSpaceOnUse" orient="auto" markerWidth="16.23606797749979" markerHeight="10.550836550532098" viewBox="-1.0 -1.3763819204711736 16.23606797749979 10.550836550532098" refX="-1.0" refY="3.8990363547948754"><path id="ProcessOnPath1044" d="M12.0 3.8990363547948754L0.0 7.798072709589751V0.0Z" stroke="#323232" stroke-width="2.0" fill="#323232" transform="matrix(1.0,0.0,0.0,1.0,0.0,0.0)"/></marker></defs><g id="ProcessOnG1002"><path id="ProcessOnPath1003" d="M176.0 151.5H1016.0V714.125H176.0V151.5Z" fill="none"/><g id="ProcessOnG1004"><g id="ProcessOnG1005" transform="matrix(1.0,0.0,0.0,1.0,196.0,278.75)" opacity="1.0"><path id="ProcessOnPath1006" d="M0.0 4.0Q0.0 0.0 4.0 0.0L267.45057034220537 0.0Q271.45057034220537 0.0 271.45057034220537 4.0L271.45057034220537 135.98387096774192Q271.45057034220537 139.98387096774192 267.45057034220537 139.98387096774192L4.0 139.98387096774192Q0.0 139.98387096774192 0.0 135.98387096774192Z" stroke="#323232" stroke-width="2.0" stroke-dasharray="none" opacity="1.0" fill="#ffcccc"/><g id="ProcessOnG1007" transform="matrix(1.0,0.0,0.0,1.0,5.0,0.9988479262672794)"><text id="ProcessOnText1008" fill="#000000" font-weight="bold" font-style="normal" text-decoration="blink" font-family="微软雅黑" text-anchor="middle" font-size="16" x="130.72528517110268" y="16.4">应用服务器</text></g></g><g id="ProcessOnG1009" transform="matrix(1.0,0.0,0.0,1.0,696.0,608.0)" opacity="1.0"><path id="ProcessOnPath1010" d="M0.0 0.0L300.0 0.0L300.0 86.0L0.0 86.0Z" stroke="#323232" stroke-width="0.0" stroke-dasharray="none" opacity="1.0" fill="none"/><g id="ProcessOnG1011" transform="matrix(1.0,0.0,0.0,1.0,0.0,-0.125)"><text id="ProcessOnText1012" fill="#000000" font-weight="bold" font-style="normal" text-decoration="blink" font-family="微软雅黑" text-anchor="middle" font-size="23" x="150.0" y="23.575000000000003">大型网站架构 -- 应用与数据分离</text><text id="ProcessOnText1013" fill="#000000" font-weight="bold" font-style="normal" text-decoration="blink" font-family="微软雅黑" text-anchor="middle" font-size="23" x="150.0" y="52.325"></text><text id="ProcessOnText1014" fill="#000000" font-weight="bold" font-style="normal" text-decoration="blink" font-family="微软雅黑" text-anchor="middle" font-size="23" x="150.0" y="81.075">                  by decaywood</text></g></g><g id="ProcessOnG1015" transform="matrix(1.0,0.0,0.0,1.0,271.93441064638785,311.48387096774195)" opacity="1.0"><path id="ProcessOnPath1016" d="M0.0 0.0L119.58174904942965 0.0L119.58174904942965 74.51612903225806L0.0 74.51612903225806Z" stroke="#323232" stroke-width="2.0" stroke-dasharray="none" opacity="1.0" fill="#99ffff"/><g id="ProcessOnG1017" transform="matrix(1.0,0.0,0.0,1.0,10.0,27.258064516129032)"><text id="ProcessOnText1018" fill="#000000" font-weight="bold" font-style="normal" text-decoration="blink" font-family="微软雅黑" text-anchor="middle" font-size="16" x="49.79087452471482" y="16.4">应用程序</text></g></g><g id="ProcessOnG1019" transform="matrix(1.0,0.0,0.0,1.0,553.5494296577947,171.5)" opacity="1.0"><path id="ProcessOnPath1020" d="M0.0 4.0Q0.0 0.0 4.0 0.0L267.45057034220537 0.0Q271.45057034220537 0.0 271.45057034220537 4.0L271.45057034220537 135.98387096774192Q271.45057034220537 139.98387096774192 267.45057034220537 139.98387096774192L4.0 139.98387096774192Q0.0 139.98387096774192 0.0 135.98387096774192Z" stroke="#323232" stroke-width="2.0" stroke-dasharray="none" opacity="1.0" fill="#ccffcc"/><g id="ProcessOnG1021" transform="matrix(1.0,0.0,0.0,1.0,5.0,0.9988479262672794)"><text id="ProcessOnText1022" fill="#000000" font-weight="bold" font-style="normal" text-decoration="blink" font-family="微软雅黑" text-anchor="middle" font-size="16" x="130.72528517110268" y="16.4">文件服务器</text></g></g><g id="ProcessOnG1023" transform="matrix(1.0,0.0,0.0,1.0,629.4838403041825,204.23387096774195)" opacity="1.0"><path id="ProcessOnPath1024" d="M8.0 8.0Q8.0 0.0 16.0 0.0L111.58174904942965 0.0Q119.58174904942965 0.0 119.58174904942965 8.0L119.58174904942965 58.516129032258064Q119.58174904942965 66.51612903225806 111.58174904942965 66.51612903225806L111.58174904942965 66.51612903225806" stroke="#323232" stroke-width="2.0" stroke-dasharray="none" opacity="1.0" fill="#9999ff"/><path id="ProcessOnPath1025" d="M0.0 16.0Q0.0 8.0 8.0 8.0L103.58174904942965 8.0Q111.58174904942965 8.0 111.58174904942965 16.0L111.58174904942965 66.51612903225806Q111.58174904942965 74.51612903225806 103.58174904942965 74.51612903225806L8.0 74.51612903225806Q0.0 74.51612903225806 0.0 66.51612903225806L0.0 16.0Z" stroke="#323232" stroke-width="2.0" stroke-dasharray="none" opacity="1.0" fill="#9999ff"/><path id="ProcessOnPath1026" d="M0.0 4.0Q0.0 0.0 4.0 0.0L115.58174904942965 0.0Q119.58174904942965 0.0 119.58174904942965 4.0L119.58174904942965 70.51612903225806Q119.58174904942965 74.51612903225806 115.58174904942965 74.51612903225806L4.0 74.51612903225806Q0.0 74.51612903225806 0.0 70.51612903225806Z" stroke="#323232" stroke-width="0.0" stroke-dasharray="none" opacity="1.0" fill="none"/><g id="ProcessOnG1027" transform="matrix(1.0,0.0,0.0,1.0,15.930291508238273,31.258064516129032)"><text id="ProcessOnText1028" fill="#000000" font-weight="bold" font-style="normal" text-decoration="blink" font-family="微软雅黑" text-anchor="middle" font-size="16" x="39.860583016476554" y="16.4">文件</text></g></g><g id="ProcessOnG1029" transform="matrix(1.0,0.0,0.0,1.0,553.5494296577947,378.01612903225805)" opacity="1.0"><path id="ProcessOnPath1030" d="M0.0 4.0Q0.0 0.0 4.0 0.0L267.45057034220537 0.0Q271.45057034220537 0.0 271.45057034220537 4.0L271.45057034220537 135.98387096774192Q271.45057034220537 139.98387096774192 267.45057034220537 139.98387096774192L4.0 139.98387096774192Q0.0 139.98387096774192 0.0 135.98387096774192Z" stroke="#323232" stroke-width="2.0" stroke-dasharray="none" opacity="1.0" fill="#ffff66"/><g id="ProcessOnG1031" transform="matrix(1.0,0.0,0.0,1.0,5.0,0.9988479262672794)"><text id="ProcessOnText1032" fill="#000000" font-weight="bold" font-style="normal" text-decoration="blink" font-family="微软雅黑" text-anchor="middle" font-size="16" x="130.72528517110268" y="16.4">数据库服务器</text></g></g><g id="ProcessOnG1033" transform="matrix(1.0,0.0,0.0,1.0,629.4838403041825,410.75)" opacity="1.0"><path id="ProcessOnPath1034" d="M17.937262357414447 0.0L107.16239421071997 0.0C122.9688458236232 0.0 122.9688458236232 74.51612903225806 107.16239421071997 74.51612903225806L17.937262357414447 74.51612903225806C-5.979087452471482 74.51612903225806 -5.979087452471482 0.0 17.937262357414447 0.0ZM107.16239421071997 0.0C91.63820066233288 0.0 91.63820066233288 74.51612903225806 107.16239421071997 74.51612903225806C91.63820066233288 74.51612903225806 91.63820066233288 0.0 107.16239421071997 0.0" stroke="#323232" stroke-width="2.0" stroke-dasharray="none" opacity="1.0" fill="#ff9999"/><g id="ProcessOnG1035" transform="matrix(1.0,0.0,0.0,1.0,0.0,27.258064516129032)"><text id="ProcessOnText1036" fill="#000000" font-weight="bold" font-style="normal" text-decoration="blink" font-family="微软雅黑" text-anchor="middle" font-size="16" x="47.83269961977186" y="16.4">数据库</text></g></g><g id="ProcessOnG1037"><path id="ProcessOnPath1038" d="M467.45057034220537 348.741935483871C522.4641338704055 348.741935483871 498.53586612959464 241.49193548387098 538.3133616802949 241.49193548387098" stroke="#323232" stroke-width="2.0" stroke-dasharray="none" fill="none" marker-end="url(#ProcessOnMarker1039)"/></g><g id="ProcessOnG1041"><path id="ProcessOnPath1042" d="M467.45057034220537 348.741935483871C520.0118153023386 348.741935483871 500.9881846976615 448.008064516129 538.3133616802949 448.008064516129" stroke="#323232" stroke-width="2.0" stroke-dasharray="none" fill="none" marker-end="url(#ProcessOnMarker1043)"/></g></g></g></svg>