<svg xmlns="http://www.w3.org/2000/svg" xmlns:xlink="http://www.w3.org/1999/xlink" id="processonSvg1000" viewBox="40.0 48.0625 976.0 666.0625" width="976.0" height="666.0625"><defs id="ProcessOnDefs1001"><marker id="ProcessOnMarker1025" markerUnits="userSpaceOnUse" orient="auto" markerWidth="16.23606797749979" markerHeight="10.550836550532098" viewBox="-1.0 -1.3763819204711736 16.23606797749979 10.550836550532098" refX="-1.0" refY="3.8990363547948754"><path id="ProcessOnPath1026" d="M12.0 3.8990363547948754L0.0 7.798072709589751V0.0Z" stroke="#323232" stroke-width="2.0" fill="#323232" transform="matrix(1.0,0.0,0.0,1.0,0.0,0.0)"/></marker><marker id="ProcessOnMarker1065" markerUnits="userSpaceOnUse" orient="auto" markerWidth="16.23606797749979" markerHeight="10.550836550532098" viewBox="-1.0 -1.3763819204711736 16.23606797749979 10.550836550532098" refX="-1.0" refY="3.8990363547948754"><path id="ProcessOnPath1066" d="M12.0 3.8990363547948754L0.0 7.798072709589751V0.0Z" stroke="#323232" stroke-width="2.0" fill="#323232" transform="matrix(1.0,0.0,0.0,1.0,0.0,0.0)"/></marker><marker id="ProcessOnMarker1069" markerUnits="userSpaceOnUse" orient="auto" markerWidth="16.23606797749979" markerHeight="10.550836550532098" viewBox="-1.0 -1.3763819204711736 16.23606797749979 10.550836550532098" refX="-1.0" refY="3.8990363547948754"><path id="ProcessOnPath1070" d="M12.0 3.8990363547948754L0.0 7.798072709589751V0.0Z" stroke="#323232" stroke-width="2.0" fill="#323232" transform="matrix(1.0,0.0,0.0,1.0,0.0,0.0)"/></marker><marker id="ProcessOnMarker1073" markerUnits="userSpaceOnUse" orient="auto" markerWidth="16.23606797749979" markerHeight="10.550836550532098" viewBox="-1.0 -1.3763819204711736 16.23606797749979 10.550836550532098" refX="-1.0" refY="3.8990363547948754"><path id="ProcessOnPath1074" d="M12.0 3.8990363547948754L0.0 7.798072709589751V0.0Z" stroke="#323232" stroke-width="2.0" fill="#323232" transform="matrix(1.0,0.0,0.0,1.0,0.0,0.0)"/></marker><marker id="ProcessOnMarker1077" markerUnits="userSpaceOnUse" orient="auto" markerWidth="16.23606797749979" markerHeight="10.550836550532098" viewBox="-1.0 -1.3763819204711736 16.23606797749979 10.550836550532098" refX="-1.0" refY="3.8990363547948754"><path id="ProcessOnPath1078" d="M12.0 3.8990363547948754L0.0 7.798072709589751V0.0Z" stroke="#323232" stroke-width="2.0" fill="#323232" transform="matrix(1.0,0.0,0.0,1.0,0.0,0.0)"/></marker><marker id="ProcessOnMarker1081" markerUnits="userSpaceOnUse" orient="auto" markerWidth="16.23606797749979" markerHeight="10.550836550532098" viewBox="-1.0 -1.3763819204711736 16.23606797749979 10.550836550532098" refX="-1.0" refY="3.8990363547948754"><path id="ProcessOnPath1082" d="M12.0 3.8990363547948754L0.0 7.798072709589751V0.0Z" stroke="#323232" stroke-width="2.0" fill="#323232" transform="matrix(1.0,0.0,0.0,1.0,0.0,0.0)"/></marker></defs><g id="ProcessOnG1002"><path id="ProcessOnPath1003" d="M40.0 48.0625H1016.0V714.125H40.0V48.0625Z" fill="none"/><g id="ProcessOnG1004"><g id="ProcessOnG1005" transform="matrix(1.0,0.0,0.0,1.0,696.0,608.0)" opacity="1.0"><path id="ProcessOnPath1006" d="M0.0 0.0L300.0 0.0L300.0 86.0L0.0 86.0Z" stroke="#323232" stroke-width="0.0" stroke-dasharray="none" opacity="1.0" fill="none"/><g id="ProcessOnG1007" transform="matrix(1.0,0.0,0.0,1.0,0.0,-0.125)"><text id="ProcessOnText1008" fill="#000000" font-weight="bold" font-style="normal" text-decoration="blink" font-family="微软雅黑" text-anchor="middle" font-size="23" x="150.0" y="23.575000000000003">大型网站架构 -- 使用缓存</text><text id="ProcessOnText1009" fill="#000000" font-weight="bold" font-style="normal" text-decoration="blink" font-family="微软雅黑" text-anchor="middle" font-size="23" x="150.0" y="52.325"></text><text id="ProcessOnText1010" fill="#000000" font-weight="bold" font-style="normal" text-decoration="blink" font-family="微软雅黑" text-anchor="middle" font-size="23" x="150.0" y="81.075">                  by decaywood</text></g></g><g id="ProcessOnG1011" transform="matrix(1.0,0.0,0.0,1.0,60.0,271.5625)" opacity="1.0"><path id="ProcessOnPath1012" d="M0.0 4.0Q0.0 0.0 4.0 0.0L234.0 0.0Q238.0 0.0 238.0 4.0L238.0 161.0Q238.0 165.0 234.0 165.0L4.0 165.0Q0.0 165.0 0.0 161.0Z" stroke="#323232" stroke-width="2.0" stroke-dasharray="none" opacity="1.0" fill="#ffffcc"/><g id="ProcessOnG1013" transform="matrix(1.0,0.0,0.0,1.0,5.0,4.660714285714285)"><text id="ProcessOnText1014" fill="#000000" font-weight="normal" font-style="normal" text-decoration="blink" font-family="微软雅黑" text-anchor="middle" font-size="13" x="114.0" y="13.325">应用服务器</text></g></g><g id="ProcessOnG1015" transform="matrix(1.0,0.0,0.0,1.0,139.33333333333331,298.375)" opacity="1.0"><path id="ProcessOnPath1016" d="M0.0 0.0L79.33333333333333 0.0L79.33333333333333 48.125L0.0 48.125Z" stroke="#323232" stroke-width="2.0" stroke-dasharray="none" opacity="1.0" fill="#99ff99"/><g id="ProcessOnG1017" transform="matrix(1.0,0.0,0.0,1.0,10.0,15.9375)"><text id="ProcessOnText1018" fill="#000000" font-weight="normal" font-style="normal" text-decoration="blink" font-family="微软雅黑" text-anchor="middle" font-size="13" x="29.666666666666664" y="13.325">应用程序</text></g></g><g id="ProcessOnG1019" transform="matrix(1.0,0.0,0.0,1.0,139.33333333333331,370.5625)" opacity="1.0"><path id="ProcessOnPath1020" d="M0.0 24.0625C0.0 -8.020833333333334 79.33333333333333 -8.020833333333334 79.33333333333333 24.0625C79.33333333333333 56.145833333333336 0.0 56.145833333333336 0.0 24.0625Z" stroke="#323232" stroke-width="2.0" stroke-dasharray="none" opacity="1.0" fill="#ccccff"/><g id="ProcessOnG1021" transform="matrix(1.0,0.0,0.0,1.0,10.0,15.9375)"><text id="ProcessOnText1022" fill="#000000" font-weight="normal" font-style="normal" text-decoration="blink" font-family="微软雅黑" text-anchor="middle" font-size="13" x="29.666666666666664" y="13.325">本地缓存</text></g></g><g id="ProcessOnG1023"><path id="ProcessOnPath1024" d="M179.0 346.5C179.0 356.125 179.0 360.9375 179.0 355.3264320225002" stroke="#323232" stroke-width="2.0" stroke-dasharray="none" fill="none" marker-end="url(#ProcessOnMarker1025)"/></g><g id="ProcessOnG1027" transform="matrix(1.0,0.0,0.0,1.0,496.0,282.125)" opacity="1.0"><path id="ProcessOnPath1028" d="M0.0 4.0Q0.0 0.0 4.0 0.0L176.0 0.0Q180.0 0.0 180.0 4.0L180.0 139.875Q180.0 143.875 176.0 143.875L4.0 143.875Q0.0 143.875 0.0 139.875Z" stroke="#323232" stroke-width="2.0" stroke-dasharray="none" opacity="1.0" fill="#ffffcc"/><g id="ProcessOnG1029" transform="matrix(1.0,0.0,0.0,1.0,5.0,3.1517857142857135)"><text id="ProcessOnText1030" fill="#000000" font-weight="normal" font-style="normal" text-decoration="blink" font-family="微软雅黑" text-anchor="middle" font-size="13" x="85.0" y="13.325">文件服务器</text></g></g><g id="ProcessOnG1031" transform="matrix(1.0,0.0,0.0,1.0,536.0,319.0625)" opacity="1.0"><path id="ProcessOnPath1032" d="M8.0 8.0Q8.0 0.0 16.0 0.0L92.0 0.0Q100.0 0.0 100.0 8.0L100.0 54.0Q100.0 62.0 92.0 62.0L92.0 62.0" stroke="#323232" stroke-width="2.0" stroke-dasharray="none" opacity="1.0" fill="#ff9999"/><path id="ProcessOnPath1033" d="M0.0 16.0Q0.0 8.0 8.0 8.0L84.0 8.0Q92.0 8.0 92.0 16.0L92.0 62.0Q92.0 70.0 84.0 70.0L8.0 70.0Q0.0 70.0 0.0 62.0L0.0 16.0Z" stroke="#323232" stroke-width="2.0" stroke-dasharray="none" opacity="1.0" fill="#ff9999"/><path id="ProcessOnPath1034" d="M0.0 4.0Q0.0 0.0 4.0 0.0L96.0 0.0Q100.0 0.0 100.0 4.0L100.0 66.0Q100.0 70.0 96.0 70.0L4.0 70.0Q0.0 70.0 0.0 66.0Z" stroke="#323232" stroke-width="0.0" stroke-dasharray="none" opacity="1.0" fill="none"/><g id="ProcessOnG1035" transform="matrix(1.0,0.0,0.0,1.0,12.666666666666668,30.875)"><text id="ProcessOnText1036" fill="#000000" font-weight="normal" font-style="normal" text-decoration="blink" font-family="微软雅黑" text-anchor="middle" font-size="13" x="33.33333333333333" y="13.325">文件</text></g></g><g id="ProcessOnG1037" transform="matrix(1.0,0.0,0.0,1.0,396.0,68.0625)" opacity="1.0"><path id="ProcessOnPath1038" d="M0.0 4.0Q0.0 0.0 4.0 0.0L215.0 0.0Q219.0 0.0 219.0 4.0L219.0 133.9375Q219.0 137.9375 215.0 137.9375L4.0 137.9375Q0.0 137.9375 0.0 133.9375Z" stroke="#323232" stroke-width="2.0" stroke-dasharray="none" opacity="1.0" fill="#e6ffcc"/><g id="ProcessOnG1039" transform="matrix(1.0,0.0,0.0,1.0,5.0,2.727678571428571)"><text id="ProcessOnText1040" fill="#000000" font-weight="normal" font-style="normal" text-decoration="blink" font-family="微软雅黑" text-anchor="middle" font-size="13" x="104.5" y="13.325">分布式缓存服务器n</text></g></g><g id="ProcessOnG1041" transform="matrix(1.0,0.0,0.0,1.0,416.0,88.0625)" opacity="1.0"><path id="ProcessOnPath1042" d="M0.0 4.0Q0.0 0.0 4.0 0.0L215.0 0.0Q219.0 0.0 219.0 4.0L219.0 133.9375Q219.0 137.9375 215.0 137.9375L4.0 137.9375Q0.0 137.9375 0.0 133.9375Z" stroke="#323232" stroke-width="2.0" stroke-dasharray="none" opacity="1.0" fill="#e6ffcc"/><g id="ProcessOnG1043" transform="matrix(1.0,0.0,0.0,1.0,5.0,2.727678571428571)"><text id="ProcessOnText1044" fill="#000000" font-weight="normal" font-style="normal" text-decoration="blink" font-family="微软雅黑" text-anchor="middle" font-size="13" x="104.5" y="13.325">分布式缓存服务器2</text></g></g><g id="ProcessOnG1045" transform="matrix(1.0,0.0,0.0,1.0,436.0,108.0625)" opacity="1.0"><path id="ProcessOnPath1046" d="M0.0 4.0Q0.0 0.0 4.0 0.0L215.0 0.0Q219.0 0.0 219.0 4.0L219.0 133.9375Q219.0 137.9375 215.0 137.9375L4.0 137.9375Q0.0 137.9375 0.0 133.9375Z" stroke="#323232" stroke-width="2.0" stroke-dasharray="none" opacity="1.0" fill="#e6ffcc"/><g id="ProcessOnG1047" transform="matrix(1.0,0.0,0.0,1.0,5.0,2.727678571428571)"><text id="ProcessOnText1048" fill="#000000" font-weight="normal" font-style="normal" text-decoration="blink" font-family="微软雅黑" text-anchor="middle" font-size="13" x="104.5" y="13.325">分布式缓存服务器1</text></g></g><g id="ProcessOnG1049" transform="matrix(1.0,0.0,0.0,1.0,478.75,148.546875)" opacity="1.0"><path id="ProcessOnPath1050" d="M0.0 0.0L133.5 0.0L133.5 56.96875L0.0 56.96875Z" stroke="#323232" stroke-width="2.0" stroke-dasharray="none" opacity="1.0" fill="#ffcc99"/><g id="ProcessOnG1051" transform="matrix(1.0,0.0,0.0,1.0,10.0,20.359375)"><text id="ProcessOnText1052" fill="#000000" font-weight="normal" font-style="normal" text-decoration="blink" font-family="微软雅黑" text-anchor="middle" font-size="13" x="56.75" y="13.325">远程分布式缓存</text></g></g><g id="ProcessOnG1053" transform="matrix(1.0,0.0,0.0,1.0,432.25,496.125)" opacity="1.0"><path id="ProcessOnPath1054" d="M0.0 4.0Q0.0 0.0 4.0 0.0L176.0 0.0Q180.0 0.0 180.0 4.0L180.0 139.875Q180.0 143.875 176.0 143.875L4.0 143.875Q0.0 143.875 0.0 139.875Z" stroke="#323232" stroke-width="2.0" stroke-dasharray="none" opacity="1.0" fill="#ccffff"/><g id="ProcessOnG1055" transform="matrix(1.0,0.0,0.0,1.0,5.0,3.1517857142857135)"><text id="ProcessOnText1056" fill="#000000" font-weight="normal" font-style="normal" text-decoration="blink" font-family="微软雅黑" text-anchor="middle" font-size="13" x="85.0" y="13.325">数据库服务器</text></g></g><g id="ProcessOnG1057" transform="matrix(1.0,0.0,0.0,1.0,472.25,533.0625)" opacity="1.0"><path id="ProcessOnPath1058" d="M8.0 8.0Q8.0 0.0 16.0 0.0L92.0 0.0Q100.0 0.0 100.0 8.0L100.0 54.0Q100.0 62.0 92.0 62.0L92.0 62.0" stroke="#323232" stroke-width="2.0" stroke-dasharray="none" opacity="1.0" fill="#e5ccff"/><path id="ProcessOnPath1059" d="M0.0 16.0Q0.0 8.0 8.0 8.0L84.0 8.0Q92.0 8.0 92.0 16.0L92.0 62.0Q92.0 70.0 84.0 70.0L8.0 70.0Q0.0 70.0 0.0 62.0L0.0 16.0Z" stroke="#323232" stroke-width="2.0" stroke-dasharray="none" opacity="1.0" fill="#e5ccff"/><path id="ProcessOnPath1060" d="M0.0 4.0Q0.0 0.0 4.0 0.0L96.0 0.0Q100.0 0.0 100.0 4.0L100.0 66.0Q100.0 70.0 96.0 70.0L4.0 70.0Q0.0 70.0 0.0 66.0Z" stroke="#323232" stroke-width="0.0" stroke-dasharray="none" opacity="1.0" fill="none"/><g id="ProcessOnG1061" transform="matrix(1.0,0.0,0.0,1.0,12.666666666666668,30.875)"><text id="ProcessOnText1062" fill="#000000" font-weight="normal" font-style="normal" text-decoration="blink" font-family="微软雅黑" text-anchor="middle" font-size="13" x="33.33333333333333" y="13.325">数据库</text></g></g><g id="ProcessOnG1063"><path id="ProcessOnPath1064" d="M298.0 354.0625C393.25255984093025 354.0625 300.74744015906975 137.03125 380.7639320225002 137.03125" stroke="#323232" stroke-width="2.0" stroke-dasharray="none" fill="none" marker-end="url(#ProcessOnMarker1065)"/></g><g id="ProcessOnG1067"><path id="ProcessOnPath1068" d="M298.0 354.0625C389.86539150436363 354.0625 324.13460849563637 157.03125 400.7639320225002 157.03125" stroke="#323232" stroke-width="2.0" stroke-dasharray="none" fill="none" marker-end="url(#ProcessOnMarker1069)"/></g><g id="ProcessOnG1071"><path id="ProcessOnPath1072" d="M298.0 354.0625C387.78557877660535 354.0625 346.21442122339465 177.03125 420.7639320225002 177.03125" stroke="#323232" stroke-width="2.0" stroke-dasharray="none" fill="none" marker-end="url(#ProcessOnMarker1073)"/></g><g id="ProcessOnG1075"><path id="ProcessOnPath1076" d="M298.0 354.0625C377.2 354.0625 416.8 354.0625 480.7639320225002 354.0625" stroke="#323232" stroke-width="2.0" stroke-dasharray="none" fill="none" marker-end="url(#ProcessOnMarker1077)"/></g><g id="ProcessOnG1079"><path id="ProcessOnPath1080" d="M298.0 354.0625C399.0497402272762 354.0625 331.2002597727238 568.0625 417.0139320225002 568.0625" stroke="#323232" stroke-width="2.0" stroke-dasharray="none" fill="none" marker-end="url(#ProcessOnMarker1081)"/></g></g></g></svg>