<svg id="drawing" xmlns="http://www.w3.org/2000/svg" version="1.1" xmlns:xlink="http://www.w3.org/1999/xlink" xmlns:svgjs="http://svgjs.com/svgjs" width="855" height="295" viewBox="103 97 855 295"><defs id="SvgjsDefs1001"><marker id="SvgjsMarker1044" markerWidth="16.23606797749979" markerHeight="10.550836550532098" refX="-1" refY="3.8990363547948754" viewBox="-1 -1.3763819204711736 16.23606797749979 10.550836550532098" orient="auto" markerUnits="userSpaceOnUse"><path id="SvgjsPath1045" d="M12 3.8990363547948754L0 7.798072709589751V0Z " stroke="#323232" stroke-width="2" fill="#323232" transform="matrix(1,0,0,1,0,0)"></path></marker><marker id="SvgjsMarker1059" markerWidth="16.23606797749979" markerHeight="10.550836550532098" refX="-1" refY="3.8990363547948754" viewBox="-1 -1.3763819204711736 16.23606797749979 10.550836550532098" orient="auto" markerUnits="userSpaceOnUse"><path id="SvgjsPath1060" d="M12 3.8990363547948754L0 7.798072709589751V0Z " stroke="#323232" stroke-width="2" fill="#323232" transform="matrix(1,0,0,1,0,0)"></path></marker><marker id="SvgjsMarker1066" markerWidth="16.23606797749979" markerHeight="10.550836550532098" refX="-1" refY="3.8990363547948754" viewBox="-1 -1.3763819204711736 16.23606797749979 10.550836550532098" orient="auto" markerUnits="userSpaceOnUse"><path id="SvgjsPath1067" d="M12 3.8990363547948754L0 7.798072709589751V0Z " stroke="#323232" stroke-width="2" fill="#323232" transform="matrix(1,0,0,1,0,0)"></path></marker><marker id="SvgjsMarker1073" markerWidth="16.23606797749979" markerHeight="10.550836550532098" refX="-1" refY="3.8990363547948754" viewBox="-1 -1.3763819204711736 16.23606797749979 10.550836550532098" orient="auto" markerUnits="userSpaceOnUse"><path id="SvgjsPath1074" d="M12 3.8990363547948754L0 7.798072709589751V0Z " stroke="#323232" stroke-width="2" fill="#323232" transform="matrix(1,0,0,1,0,0)"></path></marker><marker id="SvgjsMarker1084" markerWidth="16.23606797749979" markerHeight="10.550836550532098" refX="-1" refY="3.8990363547948754" viewBox="-1 -1.3763819204711736 16.23606797749979 10.550836550532098" orient="auto" markerUnits="userSpaceOnUse"><path id="SvgjsPath1085" d="M12 3.8990363547948754L0 7.798072709589751V0Z " stroke="#323232" stroke-width="2" fill="#323232" transform="matrix(1,0,0,1,0,0)"></path></marker></defs><g id="SvgjsG1007"><path id="SvgjsPath1008" d="M103 97H958V392H103V97Z " fill-opacity="0" fill="none"></path><g id="SvgjsG1009"><g id="SvgjsG1010" transform="translate(318 117)" opacity="1"><path id="SvgjsPath1011" d="M0 0L165 0L165 51L0 51Z " stroke-dasharray="none" stroke="#323232" stroke-width="2" fill="#ffffff" opacity="1"></path><g id="SvgjsG1012" transform="matrix(1 0 0 1 10 15.5)" fill="#ffffff"><text id="SvgjsText1013" font-family="微软雅黑,黑体,Arial,SimSun" fill="#000000" font-size="16" font-weight="normal" font-style="normal" text-anchor="middle" text-decoration="blink" x="72.5" y="14.484375">Execution Stack</text></g></g><g id="SvgjsG1014" transform="translate(318 168)" opacity="1"><path id="SvgjsPath1015" d="M0 0L165 0L165 51L0 51Z " stroke-dasharray="none" stroke="#323232" stroke-width="2" fill="#ffffff" opacity="1"></path><g id="SvgjsG1016" transform="matrix(1 0 0 1 10 15.5)" fill="#ffffff"><text id="SvgjsText1017" font-family="微软雅黑,黑体,Arial,SimSun" fill="#000000" font-size="16" font-weight="normal" font-style="normal" text-anchor="middle" text-decoration="blink" x="72.5" y="14.484375">Method Activation</text></g></g><g id="SvgjsG1018" transform="translate(318 270)" opacity="1"><path id="SvgjsPath1019" d="M0 0L165 0L165 51L0 51Z " stroke-dasharray="none" stroke="#323232" stroke-width="2" fill="#ffffff" opacity="1"></path><g id="SvgjsG1020" transform="matrix(1 0 0 1 10 15.5)" fill="#ffffff"><text id="SvgjsText1021" font-family="微软雅黑,黑体,Arial,SimSun" fill="#000000" font-size="16" font-weight="normal" font-style="normal" text-anchor="middle" text-decoration="blink" x="72.5" y="14.484375">Owner</text></g></g><g id="SvgjsG1022" transform="translate(559 212)" opacity="1"><path id="SvgjsPath1023" d="M0 0L253 0L253 114L0 114Z " stroke-dasharray="none" stroke="#323232" stroke-width="2" fill="#ffffff" opacity="1"></path><g id="SvgjsG1024" transform="matrix(1 0 0 1 10 47)" fill="#ffffff"><text id="SvgjsText1025" font-family="微软雅黑,黑体,Arial,SimSun" fill="#000000" font-size="16" font-weight="normal" font-style="normal" text-anchor="middle" text-decoration="blink" x="116.5" y="14.484375">..........</text></g></g><g id="SvgjsG1026" transform="translate(318 219)" opacity="1"><path id="SvgjsPath1027" d="M0 0L58 0L58 51L0 51Z " stroke-dasharray="none" stroke="#323232" stroke-width="2" fill="#ffffff" opacity="1"></path><g id="SvgjsG1028" transform="matrix(1 0 0 1 10 15.5)" fill="#ffffff"><text id="SvgjsText1029" font-family="微软雅黑,黑体,Arial,SimSun" fill="#000000" font-size="16" font-weight="normal" font-style="normal" text-anchor="middle" text-decoration="blink" x="19" y="14.484375">hash</text></g></g><g id="SvgjsG1030" transform="translate(376 219)" opacity="1"><path id="SvgjsPath1031" d="M0 0L54 0L54 51L0 51Z " stroke-dasharray="none" stroke="#323232" stroke-width="2" fill="#ffffff" opacity="1"></path><g id="SvgjsG1032" transform="matrix(1 0 0 1 10 15.5)" fill="#ffffff"><text id="SvgjsText1033" font-family="微软雅黑,黑体,Arial,SimSun" fill="#000000" font-size="16" font-weight="normal" font-style="normal" text-anchor="middle" text-decoration="blink" x="17" y="14.484375">age</text></g></g><g id="SvgjsG1034" transform="translate(430 219)" opacity="1"><path id="SvgjsPath1035" d="M0 0L53 0L53 51L0 51Z " stroke-dasharray="none" stroke="#323232" stroke-width="2" fill="#ffffff" opacity="1"></path><g id="SvgjsG1036" transform="matrix(1 0 0 1 10 15.5)" fill="#ffffff"><text id="SvgjsText1037" font-family="微软雅黑,黑体,Arial,SimSun" fill="#000000" font-size="16" font-weight="normal" font-style="normal" text-anchor="middle" text-decoration="blink" x="16.5" y="14.484375">01</text></g></g><g id="SvgjsG1038" transform="translate(605.5 172)" opacity="1"><path id="SvgjsPath1039" d="M0 0L160 0L160 40L0 40Z " stroke-dasharray="none" stroke-width="0" stroke="#323232" fill="none" opacity="1"></path><g id="SvgjsG1040" transform="matrix(1 0 0 1 0 10)" fill="#ffffff"><text id="SvgjsText1041" font-family="微软雅黑,黑体,Arial,SimSun" fill="#000000" font-size="16" font-weight="bold" font-style="normal" text-anchor="middle" text-decoration="blink" x="80" y="14.484375">Object</text></g></g><g id="SvgjsG1042"><path id="SvgjsPath1043" d="M938 233L875 233L875 233L827.2360679774998 233 " stroke-dasharray="none" stroke="#323232" stroke-width="2" fill="none" marker-end="url(#SvgjsMarker1044)"></path><g id="SvgjsG1046" transform="matrix(1 0 0 1 882.6180339887499 223)"><path id="SvgjsPath1047" d="M0 0H75.09375V18.5H0V0Z " fill="#ffffff" transform="translate(-37.546875 0)"></path><text id="SvgjsText1048" font-family="Microsoft Yahei,SimSun" fill="#000000" font-size="16" font-weight="normal" font-style="normal" text-anchor="middle" text-decoration="blink" x="0" y="14.5">Mark Word</text></g></g><g id="SvgjsG1049" transform="translate(318 321)" opacity="1"><path id="SvgjsPath1050" d="M0 0L165 0L165 51L0 51Z " stroke-dasharray="none" stroke="#323232" stroke-width="2" fill="#ffffff" opacity="1"></path><g id="SvgjsG1051" transform="matrix(1 0 0 1 10 15.5)" fill="#ffffff"><text id="SvgjsText1052" font-family="微软雅黑,黑体,Arial,SimSun" fill="#000000" font-size="16" font-weight="normal" font-style="normal" text-anchor="middle" text-decoration="blink" x="72.5" y="14.484375">........</text></g></g><g id="SvgjsG1053" transform="translate(123 250)" opacity="1"><path id="SvgjsPath1054" d="M0 0L123 0L123 40L0 40Z " stroke-dasharray="none" stroke="#323232" stroke-width="2" fill="#ffffff" opacity="1"></path><g id="SvgjsG1055" transform="matrix(1 0 0 1 10 10)" fill="#ffffff"><text id="SvgjsText1056" font-family="微软雅黑,黑体,Arial,SimSun" fill="#000000" font-size="16" font-weight="normal" font-style="normal" text-anchor="middle" text-decoration="blink" x="51.5" y="14.484375">Lock Record</text></g></g><g id="SvgjsG1057"><path id="SvgjsPath1058" d="M246 270L282 270L282 244.5L302.7639320225002 244.5 " stroke-dasharray="none" stroke="#323232" stroke-width="2" fill="none" marker-end="url(#SvgjsMarker1059)"></path><g id="SvgjsG1061" transform="matrix(1 0 0 1 282 254.86803398874986)"><path id="SvgjsPath1062" d="M0 0H0V0H0V0Z " fill="#ffffff" transform="translate(0 0)"></path><text id="SvgjsText1063" font-family="Microsoft Yahei,SimSun" fill="#000000" font-size="16" font-weight="normal" font-style="normal" text-anchor="middle" text-decoration="blink" x="0" y="0"></text></g></g><g id="SvgjsG1064"><path id="SvgjsPath1065" d="M246 270L282 270L282 295.5L302.7639320225002 295.5 " stroke-dasharray="none" stroke="#323232" stroke-width="2" fill="none" marker-end="url(#SvgjsMarker1066)"></path><g id="SvgjsG1068" transform="matrix(1 0 0 1 282 265.13196601125014)"><path id="SvgjsPath1069" d="M0 0H0V0H0V0Z " fill="#ffffff" transform="translate(0 0)"></path><text id="SvgjsText1070" font-family="Microsoft Yahei,SimSun" fill="#000000" font-size="16" font-weight="normal" font-style="normal" text-anchor="middle" text-decoration="blink" x="0" y="0"></text></g></g><g id="SvgjsG1071"><path id="SvgjsPath1072" d="M483 295.5L521 295.5L521 284L543.7639320225002 284 " stroke-dasharray="none" stroke="#323232" stroke-width="2" fill="none" marker-end="url(#SvgjsMarker1073)"></path><g id="SvgjsG1075" transform="matrix(1 0 0 1 519.1319660112501 287.375)"><path id="SvgjsPath1076" d="M0 0H0V0H0V0Z " fill="#ffffff" transform="translate(0 0)"></path><text id="SvgjsText1077" font-family="Microsoft Yahei,SimSun" fill="#000000" font-size="13" font-weight="normal" font-style="normal" text-anchor="middle" text-decoration="blink" x="0" y="0"></text></g></g><g id="SvgjsG1078" transform="translate(559 212)" opacity="1"><path id="SvgjsPath1079" d="M0 0L253 0L253 42L0 42Z " stroke-dasharray="none" stroke="#323232" stroke-width="2" fill="#ffffff" opacity="1"></path><g id="SvgjsG1080" transform="matrix(1 0 0 1 10 11)" fill="#ffffff"><text id="SvgjsText1081" font-family="微软雅黑,黑体,Arial,SimSun" fill="#000000" font-size="16" font-weight="normal" font-style="normal" text-anchor="middle" text-decoration="blink" x="116.5" y="14.484375">Stack Pointer</text></g></g><g id="SvgjsG1082"><path id="SvgjsPath1083" d="M559 233L521 233L521 244.5L498.2360679774998 244.5 " stroke-dasharray="none" stroke="#323232" stroke-width="2" fill="none" marker-end="url(#SvgjsMarker1084)"></path><g id="SvgjsG1086" transform="matrix(1 0 0 1 522.8680339887499 224.875)"><path id="SvgjsPath1087" d="M0 0H0V0H0V0Z " fill="#ffffff" transform="translate(0 0)"></path><text id="SvgjsText1088" font-family="Microsoft Yahei,SimSun" fill="#000000" font-size="13" font-weight="normal" font-style="normal" text-anchor="middle" text-decoration="blink" x="0" y="0"></text></g></g></g></g></svg>