<svg id="drawing" xmlns="http://www.w3.org/2000/svg" version="1.1" xmlns:xlink="http://www.w3.org/1999/xlink" xmlns:svgjs="http://svgjs.com/svgjs" width="869" height="583" viewBox="64 98 869 583"><defs id="SvgjsDefs1001"><marker id="SvgjsMarker1024" markerWidth="16.23606797749979" markerHeight="10.550836550532098" refX="-1" refY="3.8990363547948754" viewBox="-1 -1.3763819204711736 16.23606797749979 10.550836550532098" orient="auto" markerUnits="userSpaceOnUse"><path id="SvgjsPath1025" d="M12 3.8990363547948754L0 7.798072709589751V0Z " stroke="#323232" stroke-width="2" fill="#ffffff" transform="matrix(1,0,0,1,0,0)"></path></marker><marker id="SvgjsMarker1031" markerWidth="16.23606797749979" markerHeight="10.550836550532098" refX="-1" refY="3.8990363547948754" viewBox="-1 -1.3763819204711736 16.23606797749979 10.550836550532098" orient="auto" markerUnits="userSpaceOnUse"><path id="SvgjsPath1032" d="M12 3.8990363547948754L0 7.798072709589751V0Z " stroke="#323232" stroke-width="2" fill="#ffffff" transform="matrix(1,0,0,1,0,0)"></path></marker><marker id="SvgjsMarker1048" markerWidth="16.23606797749979" markerHeight="10.550836550532098" refX="-1" refY="3.8990363547948754" viewBox="-1 -1.3763819204711736 16.23606797749979 10.550836550532098" orient="auto" markerUnits="userSpaceOnUse"><path id="SvgjsPath1049" d="M12 3.8990363547948754L0 7.798072709589751V0Z " stroke="#323232" stroke-width="2" fill="#ffffff" transform="matrix(1,0,0,1,0,0)"></path></marker><marker id="SvgjsMarker1059" markerWidth="16.23606797749979" markerHeight="10.550836550532098" refX="-1" refY="3.8990363547948754" viewBox="-1 -1.3763819204711736 16.23606797749979 10.550836550532098" orient="auto" markerUnits="userSpaceOnUse"><path id="SvgjsPath1060" d="M12 3.8990363547948754L0 7.798072709589751V0Z " stroke="#323232" stroke-width="2" fill="#ffffff" transform="matrix(1,0,0,1,0,0)"></path></marker><marker id="SvgjsMarker1066" markerWidth="16.23606797749979" markerHeight="10.550836550532098" refX="-1" refY="3.8990363547948754" viewBox="-1 -1.3763819204711736 16.23606797749979 10.550836550532098" orient="auto" markerUnits="userSpaceOnUse"><path id="SvgjsPath1067" d="M12 3.8990363547948754L0 7.798072709589751V0Z " stroke="#323232" stroke-width="2" fill="#ffffff" transform="matrix(1,0,0,1,0,0)"></path></marker><marker id="SvgjsMarker1083" markerWidth="16.23606797749979" markerHeight="10.550836550532098" refX="-1" refY="3.8990363547948754" viewBox="-1 -1.3763819204711736 16.23606797749979 10.550836550532098" orient="auto" markerUnits="userSpaceOnUse"><path id="SvgjsPath1084" d="M12 3.8990363547948754L0 7.798072709589751V0Z " stroke="#323232" stroke-width="2" fill="#ffffff" transform="matrix(1,0,0,1,0,0)"></path></marker><marker id="SvgjsMarker1094" markerWidth="16.23606797749979" markerHeight="10.550836550532098" refX="-1" refY="3.8990363547948754" viewBox="-1 -1.3763819204711736 16.23606797749979 10.550836550532098" orient="auto" markerUnits="userSpaceOnUse"><path id="SvgjsPath1095" d="M12 3.8990363547948754L0 7.798072709589751V0Z " stroke="#323232" stroke-width="2" fill="#ffffff" transform="matrix(1,0,0,1,0,0)"></path></marker><marker id="SvgjsMarker1111" markerWidth="16.23606797749979" markerHeight="10.550836550532098" refX="-1" refY="3.8990363547948754" viewBox="-1 -1.3763819204711736 16.23606797749979 10.550836550532098" orient="auto" markerUnits="userSpaceOnUse"><path id="SvgjsPath1112" d="M12 3.8990363547948754L0 7.798072709589751V0Z " stroke="#323232" stroke-width="2" fill="#ffffff" transform="matrix(1,0,0,1,0,0)"></path></marker></defs><g id="SvgjsG1007"><path id="SvgjsPath1008" d="M64 98H933V681H64V98Z " fill-opacity="0" fill="none"></path><g id="SvgjsG1009"><g id="SvgjsG1010" transform="translate(380 532)" opacity="1"><path id="SvgjsPath1011" d="M0 4Q0 0 4 0L176 0Q180 0 180 4L180 39Q180 43 176 43L4 43Q0 43 0 39Z " stroke-dasharray="none" stroke="#323232" stroke-width="2" fill="#99ccff" opacity="1"></path><g id="SvgjsG1012" transform="matrix(1 0 0 1 10 13.375)" fill="#ffffff"><text id="SvgjsText1013" font-family="Microsoft Yahei,SimHei,Arial,SimSun" fill="#000000" font-size="13" font-weight="normal" font-style="normal" text-anchor="middle" text-decoration="blink" x="80" y="11.78125">ReadWriteLock</text></g></g><g id="SvgjsG1014" transform="translate(380 118)" opacity="1"><path id="SvgjsPath1015" d="M0 4Q0 0 4 0L176 0Q180 0 180 4L180 39Q180 43 176 43L4 43Q0 43 0 39Z " stroke-dasharray="none" stroke="#323232" stroke-width="2" fill="#99ccff" opacity="1"></path><g id="SvgjsG1016" transform="matrix(1 0 0 1 10 13.375)" fill="#ffffff"><text id="SvgjsText1017" font-family="Microsoft Yahei,SimHei,Arial,SimSun" fill="#000000" font-size="13" font-weight="normal" font-style="normal" text-anchor="middle" text-decoration="blink" x="80" y="11.78125">Lock</text></g></g><g id="SvgjsG1018" transform="translate(84 253)" opacity="1"><path id="SvgjsPath1019" d="M0 0L147 0L147 37L0 37Z " stroke-dasharray="none" stroke="#323232" stroke-width="2" fill="#ffcc99" opacity="1"></path><g id="SvgjsG1020" transform="matrix(1 0 0 1 10 10.375)" fill="#ffffff"><text id="SvgjsText1021" font-family="Microsoft Yahei,SimHei,Arial,SimSun" fill="#000000" font-size="13" font-weight="normal" font-style="normal" text-anchor="middle" text-decoration="blink" x="63.5" y="11.78125">ReentrantLock</text></g></g><g id="SvgjsG1022"><path id="SvgjsPath1023" d="M669 460C669 544.6498670997184 470 447.35013290028155 470 516.7639320225002 " stroke-dasharray="none" stroke="#323232" stroke-width="2" fill="none" marker-end="url(#SvgjsMarker1024)"></path><g id="SvgjsG1026" transform="matrix(1 0 0 1 569.5 485.97049150281254)" fill="#ffffff"><path id="SvgjsPath1027" d="M0 0H0V0H0V0Z " fill="#ffffff" transform="translate(0 0)"></path><text id="SvgjsText1028" font-family="Microsoft Yahei,SimSun" fill="#000000" font-size="13" font-weight="normal" font-style="normal" text-anchor="middle" text-decoration="blink" x="0" y="0"></text></g></g><g id="SvgjsG1029"><path id="SvgjsPath1030" d="M157.5 253C157.50000000000003 122.6955871814005 470 291.30441281859953 470 176.2360679774998 " stroke-dasharray="none" stroke="#323232" stroke-width="2" fill="none" marker-end="url(#SvgjsMarker1031)"></path><g id="SvgjsG1033" transform="matrix(1 0 0 1 313.75 200.77950849718746)" fill="#ffffff"><path id="SvgjsPath1034" d="M0 0H0V0H0V0Z " fill="#ffffff" transform="translate(0 0)"></path><text id="SvgjsText1035" font-family="Microsoft Yahei,SimSun" fill="#000000" font-size="13" font-weight="normal" font-style="normal" text-anchor="middle" text-decoration="blink" x="0" y="0"></text></g></g><g id="SvgjsG1036" transform="translate(87 365)" opacity="1"><path id="SvgjsPath1037" d="M0 4Q0 0 4 0L343.5 0Q347.5 0 347.5 4L347.5 91Q347.5 95 343.5 95L4 95Q0 95 0 91Z " stroke-dasharray="none" stroke="#323232" stroke-width="2" fill="#ffcccc" opacity="1"></path><path id="SvgjsPath1038" d="M0 30L347.5 30 " stroke-dasharray="none" stroke="#323232" stroke-width="2" fill="none" opacity="1"></path><path id="SvgjsPath1039" d="M0 0L347.5 0L347.5 95L0 95Z " stroke-dasharray="none" stroke-width="0" stroke="#323232" fill="none" opacity="1"></path><g id="SvgjsG1040" transform="matrix(1 0 0 1 10 6.875)" fill="#ffffff"><text id="SvgjsText1041" font-family="Microsoft Yahei,SimHei,Arial,SimSun" fill="#000000" font-size="13" font-weight="bold" font-style="normal" text-anchor="middle" text-decoration="blink" x="163.75" y="11.78125">ReentrantReadWriteLock</text></g></g><g id="SvgjsG1042" transform="translate(100.5 409)" opacity="1"><path id="SvgjsPath1043" d="M0 0L147 0L147 37L0 37Z " stroke-dasharray="none" stroke="#323232" stroke-width="2" fill="#ffcc99" opacity="1"></path><g id="SvgjsG1044" transform="matrix(1 0 0 1 10 10.375)" fill="#ffffff"><text id="SvgjsText1045" font-family="Microsoft Yahei,SimHei,Arial,SimSun" fill="#000000" font-size="13" font-weight="normal" font-style="normal" text-anchor="middle" text-decoration="blink" x="63.5" y="11.78125">ReadLock</text></g></g><g id="SvgjsG1046"><path id="SvgjsPath1047" d="M174 409C174.00000000000003 254.5357646573162 470 315.46423534268376 470 176.2360679774998 " stroke-dasharray="none" stroke="#323232" stroke-width="2" fill="none" marker-end="url(#SvgjsMarker1048)"></path><g id="SvgjsG1050" transform="matrix(1 0 0 1 322 278.77950849718746)" fill="#ffffff"><path id="SvgjsPath1051" d="M0 0H0V0H0V0Z " fill="#ffffff" transform="translate(0 0)"></path><text id="SvgjsText1052" font-family="Microsoft Yahei,SimSun" fill="#000000" font-size="13" font-weight="normal" font-style="normal" text-anchor="middle" text-decoration="blink" x="0" y="0"></text></g></g><g id="SvgjsG1053" transform="translate(266 409)" opacity="1"><path id="SvgjsPath1054" d="M0 0L147 0L147 37L0 37Z " stroke-dasharray="none" stroke="#323232" stroke-width="2" fill="#ffcc99" opacity="1"></path><g id="SvgjsG1055" transform="matrix(1 0 0 1 10 10.375)" fill="#ffffff"><text id="SvgjsText1056" font-family="Microsoft Yahei,SimHei,Arial,SimSun" fill="#000000" font-size="13" font-weight="normal" font-style="normal" text-anchor="middle" text-decoration="blink" x="63.5" y="11.78125">WriteLock</text></g></g><g id="SvgjsG1057"><path id="SvgjsPath1058" d="M339.5 409C339.5 296.904148158819 470 273.095851841181 470 176.2360679774998 " stroke-dasharray="none" stroke="#323232" stroke-width="2" fill="none" marker-end="url(#SvgjsMarker1059)"></path><g id="SvgjsG1061" transform="matrix(1 0 0 1 404.75 278.77950849718746)" fill="#ffffff"><path id="SvgjsPath1062" d="M0 0H0V0H0V0Z " fill="#ffffff" transform="translate(0 0)"></path><text id="SvgjsText1063" font-family="Microsoft Yahei,SimSun" fill="#000000" font-size="13" font-weight="normal" font-style="normal" text-anchor="middle" text-decoration="blink" x="0" y="0"></text></g></g><g id="SvgjsG1064"><path id="SvgjsPath1065" d="M260.75 460C260.75 548.5162696909445 470 443.48373030905555 470 516.7639320225002 " stroke-dasharray="none" stroke="#323232" stroke-width="2" fill="none" marker-end="url(#SvgjsMarker1066)"></path><g id="SvgjsG1068" transform="matrix(1 0 0 1 365.375 485.97049150281254)" fill="#ffffff"><path id="SvgjsPath1069" d="M0 0H0V0H0V0Z " fill="#ffffff" transform="translate(0 0)"></path><text id="SvgjsText1070" font-family="Microsoft Yahei,SimSun" fill="#000000" font-size="13" font-weight="normal" font-style="normal" text-anchor="middle" text-decoration="blink" x="0" y="0"></text></g></g><g id="SvgjsG1071" transform="translate(497 365)" opacity="1"><path id="SvgjsPath1072" d="M0 4Q0 0 4 0L340 0Q344 0 344 4L344 91Q344 95 340 95L4 95Q0 95 0 91Z " stroke-dasharray="none" stroke="#323232" stroke-width="2" fill="#ffcccc" opacity="1"></path><path id="SvgjsPath1073" d="M0 30L344 30 " stroke-dasharray="none" stroke="#323232" stroke-width="2" fill="none" opacity="1"></path><path id="SvgjsPath1074" d="M0 0L344 0L344 95L0 95Z " stroke-dasharray="none" stroke-width="0" stroke="#323232" fill="none" opacity="1"></path><g id="SvgjsG1075" transform="matrix(1 0 0 1 10 6.875)" fill="#ffffff"><text id="SvgjsText1076" font-family="Microsoft Yahei,SimHei,Arial,SimSun" fill="#000000" font-size="13" font-weight="bold" font-style="normal" text-anchor="middle" text-decoration="blink" x="162" y="11.78125">ReadWriteLockView</text></g></g><g id="SvgjsG1077" transform="translate(517 409)" opacity="1"><path id="SvgjsPath1078" d="M0 0L147 0L147 37L0 37Z " stroke-dasharray="none" stroke="#323232" stroke-width="2" fill="#ffcc99" opacity="1"></path><g id="SvgjsG1079" transform="matrix(1 0 0 1 10 10.375)" fill="#ffffff"><text id="SvgjsText1080" font-family="Microsoft Yahei,SimHei,Arial,SimSun" fill="#000000" font-size="13" font-weight="normal" font-style="normal" text-anchor="middle" text-decoration="blink" x="63.5" y="11.78125">ReadLockView</text></g></g><g id="SvgjsG1081"><path id="SvgjsPath1082" d="M590.5 409C590.5 298.71001858736213 470 271.28998141263787 470 176.2360679774998 " stroke-dasharray="none" stroke="#323232" stroke-width="2" fill="none" marker-end="url(#SvgjsMarker1083)"></path><g id="SvgjsG1085" transform="matrix(1 0 0 1 530.25 278.77950849718746)" fill="#ffffff"><path id="SvgjsPath1086" d="M0 0H0V0H0V0Z " fill="#ffffff" transform="translate(0 0)"></path><text id="SvgjsText1087" font-family="Microsoft Yahei,SimSun" fill="#000000" font-size="13" font-weight="normal" font-style="normal" text-anchor="middle" text-decoration="blink" x="0" y="0"></text></g></g><g id="SvgjsG1088" transform="translate(681 409)" opacity="1"><path id="SvgjsPath1089" d="M0 0L147 0L147 37L0 37Z " stroke-dasharray="none" stroke="#323232" stroke-width="2" fill="#ffcc99" opacity="1"></path><g id="SvgjsG1090" transform="matrix(1 0 0 1 10 10.375)" fill="#ffffff"><text id="SvgjsText1091" font-family="Microsoft Yahei,SimHei,Arial,SimSun" fill="#000000" font-size="13" font-weight="normal" font-style="normal" text-anchor="middle" text-decoration="blink" x="63.5" y="11.78125">WriteLockView</text></g></g><g id="SvgjsG1092"><path id="SvgjsPath1093" d="M754.5 409C754.5 258.0328512556457 470 311.9671487443543 470 176.2360679774998 " stroke-dasharray="none" stroke="#323232" stroke-width="2" fill="none" marker-end="url(#SvgjsMarker1094)"></path><g id="SvgjsG1096" transform="matrix(1 0 0 1 612.25 278.77950849718746)" fill="#ffffff"><path id="SvgjsPath1097" d="M0 0H0V0H0V0Z " fill="#ffffff" transform="translate(0 0)"></path><text id="SvgjsText1098" font-family="Microsoft Yahei,SimSun" fill="#000000" font-size="13" font-weight="normal" font-style="normal" text-anchor="middle" text-decoration="blink" x="0" y="0"></text></g></g><g id="SvgjsG1099" transform="translate(658 131)" opacity="1"><path id="SvgjsPath1100" d="M0 4Q0 0 4 0L179 0Q183 0 183 4L183 91Q183 95 179 95L4 95Q0 95 0 91Z " stroke-dasharray="none" stroke="#323232" stroke-width="2" fill="#ffcccc" opacity="1"></path><path id="SvgjsPath1101" d="M0 30L183 30 " stroke-dasharray="none" stroke="#323232" stroke-width="2" fill="none" opacity="1"></path><path id="SvgjsPath1102" d="M0 0L183 0L183 95L0 95Z " stroke-dasharray="none" stroke-width="0" stroke="#323232" fill="none" opacity="1"></path><g id="SvgjsG1103" transform="matrix(1 0 0 1 10 6.875)" fill="#ffffff"><text id="SvgjsText1104" font-family="Microsoft Yahei,SimHei,Arial,SimSun" fill="#000000" font-size="13" font-weight="bold" font-style="normal" text-anchor="middle" text-decoration="blink" x="81.5" y="11.78125">ConcurrentHashMap</text></g></g><g id="SvgjsG1105" transform="translate(676 175)" opacity="1"><path id="SvgjsPath1106" d="M0 0L147 0L147 37L0 37Z " stroke-dasharray="none" stroke="#323232" stroke-width="2" fill="#ffcc99" opacity="1"></path><g id="SvgjsG1107" transform="matrix(1 0 0 1 10 10.375)" fill="#ffffff"><text id="SvgjsText1108" font-family="Microsoft Yahei,SimHei,Arial,SimSun" fill="#000000" font-size="13" font-weight="normal" font-style="normal" text-anchor="middle" text-decoration="blink" x="63.5" y="11.78125">Segment</text></g></g><g id="SvgjsG1109"><path id="SvgjsPath1110" d="M676 193.5C592.5808175537545 193.5 470 244.41918244624554 470 176.2360679774998 " stroke-dasharray="none" stroke="#323232" stroke-width="2" fill="none" marker-end="url(#SvgjsMarker1111)"></path><g id="SvgjsG1113" transform="matrix(1 0 0 1 541.7178065826579 202.31170191452955)" fill="#ffffff"><path id="SvgjsPath1114" d="M0 0H0V0H0V0Z " fill="#ffffff" transform="translate(0 0)"></path><text id="SvgjsText1115" font-family="Microsoft Yahei,SimSun" fill="#000000" font-size="13" font-weight="normal" font-style="normal" text-anchor="middle" text-decoration="blink" x="0" y="0"></text></g></g><g id="SvgjsG1116" transform="translate(647.5 566)" opacity="1"><path id="SvgjsPath1117" d="M0 0L265.5 0L265.5 95L0 95Z " stroke-dasharray="none" stroke-width="0" stroke="#323232" fill="none" opacity="1"></path><g id="SvgjsG1118" transform="matrix(1 0 0 1 0 13.75)" fill="#ffffff"><text id="SvgjsText1119" font-family="Microsoft Yahei,SimHei,Arial,SimSun" fill="#000000" font-size="18" font-weight="bold" font-style="normal" text-anchor="middle" text-decoration="blink" x="132.75" y="16.296875">Lock 接口的继承结构</text><text id="SvgjsText1120" font-family="Microsoft Yahei,SimHei,Arial,SimSun" fill="#000000" font-size="18" font-weight="bold" font-style="normal" text-anchor="middle" text-decoration="blink" x="132.75" y="22.5"></text><text id="SvgjsText1121" font-family="Microsoft Yahei,SimHei,Arial,SimSun" fill="#000000" font-size="18" font-weight="bold" font-style="normal" text-anchor="middle" text-decoration="blink" x="132.75" y="61.296875">by decaywood</text></g></g></g></g></svg>