<svg id="drawing" xmlns="http://www.w3.org/2000/svg" version="1.1" xmlns:xlink="http://www.w3.org/1999/xlink" xmlns:svgjs="http://svgjs.com/svgjs" width="870" height="295" viewBox="103 97 870 295"><defs id="SvgjsDefs1001"><marker id="SvgjsMarker1049" markerWidth="16.23606797749979" markerHeight="10.550836550532098" refX="-1" refY="3.8990363547948754" viewBox="-1 -1.3763819204711736 16.23606797749979 10.550836550532098" orient="auto" markerUnits="userSpaceOnUse"><path id="SvgjsPath1050" d="M12 3.8990363547948754L0 7.798072709589751V0Z " stroke="#323232" stroke-width="2" fill="#323232" transform="matrix(1,0,0,1,0,0)"></path></marker><marker id="SvgjsMarker1064" markerWidth="16.23606797749979" markerHeight="10.550836550532098" refX="-1" refY="3.8990363547948754" viewBox="-1 -1.3763819204711736 16.23606797749979 10.550836550532098" orient="auto" markerUnits="userSpaceOnUse"><path id="SvgjsPath1065" d="M12 3.8990363547948754L0 7.798072709589751V0Z " stroke="#323232" stroke-width="2" fill="#323232" transform="matrix(1,0,0,1,0,0)"></path></marker><marker id="SvgjsMarker1071" markerWidth="16.23606797749979" markerHeight="10.550836550532098" refX="-1" refY="3.8990363547948754" viewBox="-1 -1.3763819204711736 16.23606797749979 10.550836550532098" orient="auto" markerUnits="userSpaceOnUse"><path id="SvgjsPath1072" d="M12 3.8990363547948754L0 7.798072709589751V0Z " stroke="#323232" stroke-width="2" fill="#323232" transform="matrix(1,0,0,1,0,0)"></path></marker></defs><g id="SvgjsG1007"><path id="SvgjsPath1008" d="M103 97H973V392H103V97Z " fill-opacity="0" fill="none"></path><g id="SvgjsG1009"><g id="SvgjsG1010" transform="translate(318 117)" opacity="1"><path id="SvgjsPath1011" d="M0 0L165 0L165 51L0 51Z " stroke-dasharray="none" stroke="#323232" stroke-width="2" fill="#ffffff" opacity="1"></path><g id="SvgjsG1012" transform="matrix(1 0 0 1 10 15.5)" fill="#ffffff"><text id="SvgjsText1013" font-family="微软雅黑,黑体,Arial,SimSun" fill="#000000" font-size="16" font-weight="normal" font-style="normal" text-anchor="middle" text-decoration="blink" x="72.5" y="14.484375">Execution Stack</text></g></g><g id="SvgjsG1014" transform="translate(318 168)" opacity="1"><path id="SvgjsPath1015" d="M0 0L165 0L165 51L0 51Z " stroke-dasharray="none" stroke="#323232" stroke-width="2" fill="#ffffff" opacity="1"></path><g id="SvgjsG1016" transform="matrix(1 0 0 1 10 15.5)" fill="#ffffff"><text id="SvgjsText1017" font-family="微软雅黑,黑体,Arial,SimSun" fill="#000000" font-size="16" font-weight="normal" font-style="normal" text-anchor="middle" text-decoration="blink" x="72.5" y="14.484375">Method Activation</text></g></g><g id="SvgjsG1018" transform="translate(318 219)" opacity="1"><path id="SvgjsPath1019" d="M0 0L165 0L165 51L0 51Z " stroke-dasharray="none" stroke="#323232" stroke-width="2" fill="#ffffff" opacity="1"></path><g id="SvgjsG1020" transform="matrix(1 0 0 1 10 5.5)" fill="#ffffff"><text id="SvgjsText1021" font-family="微软雅黑,黑体,Arial,SimSun" fill="#000000" font-size="16" font-weight="normal" font-style="normal" text-anchor="middle" text-decoration="blink" x="72.5" y="14.484375">Displaced Mark Wo</text><text id="SvgjsText1022" font-family="微软雅黑,黑体,Arial,SimSun" fill="#000000" font-size="16" font-weight="normal" font-style="normal" text-anchor="middle" text-decoration="blink" x="72.5" y="34.484375">rd</text></g></g><g id="SvgjsG1023" transform="translate(318 270)" opacity="1"><path id="SvgjsPath1024" d="M0 0L165 0L165 51L0 51Z " stroke-dasharray="none" stroke="#323232" stroke-width="2" fill="#ffffff" opacity="1"></path><g id="SvgjsG1025" transform="matrix(1 0 0 1 10 15.5)" fill="#ffffff"><text id="SvgjsText1026" font-family="微软雅黑,黑体,Arial,SimSun" fill="#000000" font-size="16" font-weight="normal" font-style="normal" text-anchor="middle" text-decoration="blink" x="72.5" y="14.484375">Owner</text></g></g><g id="SvgjsG1027" transform="translate(559 212)" opacity="1"><path id="SvgjsPath1028" d="M0 0L253 0L253 114L0 114Z " stroke-dasharray="none" stroke="#323232" stroke-width="2" fill="#ffffff" opacity="1"></path><g id="SvgjsG1029" transform="matrix(1 0 0 1 10 47)" fill="#ffffff"><text id="SvgjsText1030" font-family="微软雅黑,黑体,Arial,SimSun" fill="#000000" font-size="16" font-weight="normal" font-style="normal" text-anchor="middle" text-decoration="blink" x="116.5" y="14.484375">..........</text></g></g><g id="SvgjsG1031" transform="translate(559 212)" opacity="1"><path id="SvgjsPath1032" d="M0 0L86 0L86 37L0 37Z " stroke-dasharray="none" stroke="#323232" stroke-width="2" fill="#ffffff" opacity="1"></path><g id="SvgjsG1033" transform="matrix(1 0 0 1 10 8.5)" fill="#ffffff"><text id="SvgjsText1034" font-family="微软雅黑,黑体,Arial,SimSun" fill="#000000" font-size="16" font-weight="normal" font-style="normal" text-anchor="middle" text-decoration="blink" x="33" y="14.484375">hash</text></g></g><g id="SvgjsG1035" transform="translate(645 212)" opacity="1"><path id="SvgjsPath1036" d="M0 0L81 0L81 37L0 37Z " stroke-dasharray="none" stroke="#323232" stroke-width="2" fill="#ffffff" opacity="1"></path><g id="SvgjsG1037" transform="matrix(1 0 0 1 10 8.5)" fill="#ffffff"><text id="SvgjsText1038" font-family="微软雅黑,黑体,Arial,SimSun" fill="#000000" font-size="16" font-weight="normal" font-style="normal" text-anchor="middle" text-decoration="blink" x="30.5" y="14.484375">age</text></g></g><g id="SvgjsG1039" transform="translate(726 212)" opacity="1"><path id="SvgjsPath1040" d="M0 0L86 0L86 37L0 37Z " stroke-dasharray="none" stroke="#323232" stroke-width="2" fill="#ffffff" opacity="1"></path><g id="SvgjsG1041" transform="matrix(1 0 0 1 10 8.5)" fill="#ffffff"><text id="SvgjsText1042" font-family="微软雅黑,黑体,Arial,SimSun" fill="#000000" font-size="16" font-weight="normal" font-style="normal" text-anchor="middle" text-decoration="blink" x="33" y="14.484375">01</text></g></g><g id="SvgjsG1043" transform="translate(605.5 172)" opacity="1"><path id="SvgjsPath1044" d="M0 0L160 0L160 40L0 40Z " stroke-dasharray="none" stroke-width="0" stroke="#323232" fill="none" opacity="1"></path><g id="SvgjsG1045" transform="matrix(1 0 0 1 0 10)" fill="#ffffff"><text id="SvgjsText1046" font-family="微软雅黑,黑体,Arial,SimSun" fill="#000000" font-size="16" font-weight="bold" font-style="normal" text-anchor="middle" text-decoration="blink" x="80" y="14.484375">Object</text></g></g><g id="SvgjsG1047"><path id="SvgjsPath1048" d="M953 230.5L882.5 230.5L882.5 230.5L827.2360679774998 230.5 " stroke-dasharray="none" stroke="#323232" stroke-width="2" fill="none" marker-end="url(#SvgjsMarker1049)"></path><g id="SvgjsG1051" transform="matrix(1 0 0 1 890.1180339887499 220.5)"><path id="SvgjsPath1052" d="M0 0H75.09375V18.5H0V0Z " fill="#ffffff" transform="translate(-37.546875 0)"></path><text id="SvgjsText1053" font-family="Microsoft Yahei,SimSun" fill="#000000" font-size="16" font-weight="normal" font-style="normal" text-anchor="middle" text-decoration="blink" x="0" y="14.5">Mark Word</text></g></g><g id="SvgjsG1054" transform="translate(318 321)" opacity="1"><path id="SvgjsPath1055" d="M0 0L165 0L165 51L0 51Z " stroke-dasharray="none" stroke="#323232" stroke-width="2" fill="#ffffff" opacity="1"></path><g id="SvgjsG1056" transform="matrix(1 0 0 1 10 15.5)" fill="#ffffff"><text id="SvgjsText1057" font-family="微软雅黑,黑体,Arial,SimSun" fill="#000000" font-size="16" font-weight="normal" font-style="normal" text-anchor="middle" text-decoration="blink" x="72.5" y="14.484375">........</text></g></g><g id="SvgjsG1058" transform="translate(123 250)" opacity="1"><path id="SvgjsPath1059" d="M0 0L123 0L123 40L0 40Z " stroke-dasharray="none" stroke="#323232" stroke-width="2" fill="#ffffff" opacity="1"></path><g id="SvgjsG1060" transform="matrix(1 0 0 1 10 10)" fill="#ffffff"><text id="SvgjsText1061" font-family="微软雅黑,黑体,Arial,SimSun" fill="#000000" font-size="16" font-weight="normal" font-style="normal" text-anchor="middle" text-decoration="blink" x="51.5" y="14.484375">Lock Record</text></g></g><g id="SvgjsG1062"><path id="SvgjsPath1063" d="M246 270L282 270L282 244.5L302.7639320225002 244.5 " stroke-dasharray="none" stroke="#323232" stroke-width="2" fill="none" marker-end="url(#SvgjsMarker1064)"></path><g id="SvgjsG1066" transform="matrix(1 0 0 1 282 254.86803398874986)"><path id="SvgjsPath1067" d="M0 0H0V0H0V0Z " fill="#ffffff" transform="translate(0 0)"></path><text id="SvgjsText1068" font-family="Microsoft Yahei,SimSun" fill="#000000" font-size="16" font-weight="normal" font-style="normal" text-anchor="middle" text-decoration="blink" x="0" y="0"></text></g></g><g id="SvgjsG1069"><path id="SvgjsPath1070" d="M246 270L282 270L282 295.5L302.7639320225002 295.5 " stroke-dasharray="none" stroke="#323232" stroke-width="2" fill="none" marker-end="url(#SvgjsMarker1071)"></path><g id="SvgjsG1073" transform="matrix(1 0 0 1 282 265.13196601125014)"><path id="SvgjsPath1074" d="M0 0H0V0H0V0Z " fill="#ffffff" transform="translate(0 0)"></path><text id="SvgjsText1075" font-family="Microsoft Yahei,SimSun" fill="#000000" font-size="16" font-weight="normal" font-style="normal" text-anchor="middle" text-decoration="blink" x="0" y="0"></text></g></g></g></g></svg>