<svg id="drawing" xmlns="http://www.w3.org/2000/svg" version="1.1" xmlns:xlink="http://www.w3.org/1999/xlink" xmlns:svgjs="http://svgjs.com/svgjs" width="1015.5" height="758" viewBox="101.5 92 1015.5 758"><defs id="SvgjsDefs1001"><marker id="SvgjsMarker1072" markerWidth="16.23606797749979" markerHeight="10.550836550532098" refX="-1" refY="3.8990363547948754" viewBox="-1 -1.3763819204711736 16.23606797749979 10.550836550532098" orient="auto" markerUnits="userSpaceOnUse"><path id="SvgjsPath1073" d="M12 3.8990363547948754L0 7.798072709589751V0Z " stroke="#323232" stroke-width="2" fill="#323232" transform="matrix(1,0,0,1,0,0)"></path></marker><marker id="SvgjsMarker1079" markerWidth="16.23606797749979" markerHeight="10.550836550532098" refX="-1" refY="3.8990363547948754" viewBox="-1 -1.3763819204711736 16.23606797749979 10.550836550532098" orient="auto" markerUnits="userSpaceOnUse"><path id="SvgjsPath1080" d="M12 3.8990363547948754L0 7.798072709589751V0Z " stroke="#323232" stroke-width="2" fill="#323232" transform="matrix(1,0,0,1,0,0)"></path></marker><marker id="SvgjsMarker1094" markerWidth="16.23606797749979" markerHeight="10.550836550532098" refX="-1" refY="3.8990363547948754" viewBox="-1 -1.3763819204711736 16.23606797749979 10.550836550532098" orient="auto" markerUnits="userSpaceOnUse"><path id="SvgjsPath1095" d="M12 3.8990363547948754L0 7.798072709589751V0Z " stroke="#323232" stroke-width="2" fill="#323232" transform="matrix(1,0,0,1,0,0)"></path></marker><marker id="SvgjsMarker1101" markerWidth="16.23606797749979" markerHeight="10.550836550532098" refX="-1" refY="3.8990363547948754" viewBox="-1 -1.3763819204711736 16.23606797749979 10.550836550532098" orient="auto" markerUnits="userSpaceOnUse"><path id="SvgjsPath1102" d="M12 3.8990363547948754L0 7.798072709589751V0Z " stroke="#323232" stroke-width="2" fill="#323232" transform="matrix(1,0,0,1,0,0)"></path></marker><marker id="SvgjsMarker1108" markerWidth="16.23606797749979" markerHeight="10.550836550532098" refX="15.23606797749979" refY="3.8990363547948754" viewBox="-1 -1.3763819204711736 16.23606797749979 10.550836550532098" orient="auto" markerUnits="userSpaceOnUse"><path id="SvgjsPath1109" d="M12 3.8990363547948754L0 7.798072709589751V0Z " stroke="#323232" stroke-width="2" fill="#323232" transform="matrix(-1,1.2246467991473532e-16,-1.2246467991473532e-16,-1,14.23606797749979,7.798072709589751)"></path></marker><marker id="SvgjsMarker1131" markerWidth="16.23606797749979" markerHeight="10.550836550532098" refX="-1" refY="3.8990363547948754" viewBox="-1 -1.3763819204711736 16.23606797749979 10.550836550532098" orient="auto" markerUnits="userSpaceOnUse"><path id="SvgjsPath1132" d="M12 3.8990363547948754L0 7.798072709589751V0Z " stroke="#323232" stroke-width="2" fill="#323232" transform="matrix(1,0,0,1,0,0)"></path></marker><marker id="SvgjsMarker1138" markerWidth="16.23606797749979" markerHeight="10.550836550532098" refX="-1" refY="3.8990363547948754" viewBox="-1 -1.3763819204711736 16.23606797749979 10.550836550532098" orient="auto" markerUnits="userSpaceOnUse"><path id="SvgjsPath1139" d="M12 3.8990363547948754L0 7.798072709589751V0Z " stroke="#323232" stroke-width="2" fill="#323232" transform="matrix(1,0,0,1,0,0)"></path></marker><marker id="SvgjsMarker1149" markerWidth="16.23606797749979" markerHeight="10.550836550532098" refX="-1" refY="3.8990363547948754" viewBox="-1 -1.3763819204711736 16.23606797749979 10.550836550532098" orient="auto" markerUnits="userSpaceOnUse"><path id="SvgjsPath1150" d="M12 3.8990363547948754L0 7.798072709589751V0Z " stroke="#323232" stroke-width="2" fill="#323232" transform="matrix(1,0,0,1,0,0)"></path></marker><marker id="SvgjsMarker1168" markerWidth="16.23606797749979" markerHeight="10.550836550532098" refX="-1" refY="3.8990363547948754" viewBox="-1 -1.3763819204711736 16.23606797749979 10.550836550532098" orient="auto" markerUnits="userSpaceOnUse"><path id="SvgjsPath1169" d="M12 3.8990363547948754L0 7.798072709589751V0Z " stroke="#323232" stroke-width="2" fill="#323232" transform="matrix(1,0,0,1,0,0)"></path></marker><marker id="SvgjsMarker1175" markerWidth="16.23606797749979" markerHeight="10.550836550532098" refX="-1" refY="3.8990363547948754" viewBox="-1 -1.3763819204711736 16.23606797749979 10.550836550532098" orient="auto" markerUnits="userSpaceOnUse"><path id="SvgjsPath1176" d="M12 3.8990363547948754L0 7.798072709589751V0Z " stroke="#323232" stroke-width="2" fill="#323232" transform="matrix(1,0,0,1,0,0)"></path></marker><marker id="SvgjsMarker1182" markerWidth="16.23606797749979" markerHeight="10.550836550532098" refX="-1" refY="3.8990363547948754" viewBox="-1 -1.3763819204711736 16.23606797749979 10.550836550532098" orient="auto" markerUnits="userSpaceOnUse"><path id="SvgjsPath1183" d="M12 3.8990363547948754L0 7.798072709589751V0Z " stroke="#323232" stroke-width="2" fill="#323232" transform="matrix(1,0,0,1,0,0)"></path></marker><marker id="SvgjsMarker1189" markerWidth="16.23606797749979" markerHeight="10.550836550532098" refX="-1" refY="3.8990363547948754" viewBox="-1 -1.3763819204711736 16.23606797749979 10.550836550532098" orient="auto" markerUnits="userSpaceOnUse"><path id="SvgjsPath1190" d="M12 3.8990363547948754L0 7.798072709589751V0Z " stroke="#323232" stroke-width="2" fill="#323232" transform="matrix(1,0,0,1,0,0)"></path></marker><marker id="SvgjsMarker1200" markerWidth="16.23606797749979" markerHeight="10.550836550532098" refX="-1" refY="3.8990363547948754" viewBox="-1 -1.3763819204711736 16.23606797749979 10.550836550532098" orient="auto" markerUnits="userSpaceOnUse"><path id="SvgjsPath1201" d="M12 3.8990363547948754L0 7.798072709589751V0Z " stroke="#323232" stroke-width="2" fill="#323232" transform="matrix(1,0,0,1,0,0)"></path></marker></defs><g id="SvgjsG1007"><path id="SvgjsPath1008" d="M101.5 92H1117V850H101.5V92Z " fill-opacity="0" fill="none"></path><g id="SvgjsG1009"><g id="SvgjsG1010" transform="translate(471 112)" opacity="1"><path id="SvgjsPath1011" d="M0 0L147 0L147 43L0 43Z " stroke-dasharray="none" stroke="#323232" stroke-width="2" fill="#ffffff" opacity="1"></path><g id="SvgjsG1012" transform="matrix(1 0 0 1 10 11.5)" fill="#ffffff"><text id="SvgjsText1013" font-family="微软雅黑,黑体,Arial,SimSun" fill="#000000" font-size="16" font-weight="normal" font-style="normal" text-anchor="middle" text-decoration="blink" x="63.5" y="14.484375">分配对象</text></g></g><g id="SvgjsG1014" transform="translate(121.5 446)" opacity="1"><path id="SvgjsPath1015" d="M0 0L96 0L96 35L0 35Z " stroke-dasharray="none" stroke="#323232" stroke-width="2" fill="#ffffff" opacity="1"></path><g id="SvgjsG1016" transform="matrix(1 0 0 1 10 7.5)" fill="#ffffff"><text id="SvgjsText1017" font-family="微软雅黑,黑体,Arial,SimSun" fill="#000000" font-size="16" font-weight="normal" font-style="normal" text-anchor="middle" text-decoration="blink" x="38" y="14.484375">Thread ID</text></g></g><g id="SvgjsG1018" transform="translate(217.5 446)" opacity="1"><path id="SvgjsPath1019" d="M0 0L81 0L81 35L0 35Z " stroke-dasharray="none" stroke="#323232" stroke-width="2" fill="#ffffff" opacity="1"></path><g id="SvgjsG1020" transform="matrix(1 0 0 1 10 7.5)" fill="#ffffff"><text id="SvgjsText1021" font-family="微软雅黑,黑体,Arial,SimSun" fill="#000000" font-size="16" font-weight="normal" font-style="normal" text-anchor="middle" text-decoration="blink" x="30.5" y="14.484375">epoch</text></g></g><g id="SvgjsG1022" transform="translate(298.5 446)" opacity="1"><path id="SvgjsPath1023" d="M0 0L75 0L75 35L0 35Z " stroke-dasharray="none" stroke="#323232" stroke-width="2" fill="#ffffff" opacity="1"></path><g id="SvgjsG1024" transform="matrix(1 0 0 1 10 7.5)" fill="#ffffff"><text id="SvgjsText1025" font-family="微软雅黑,黑体,Arial,SimSun" fill="#000000" font-size="16" font-weight="normal" font-style="normal" text-anchor="middle" text-decoration="blink" x="27.5" y="14.484375">age</text></g></g><g id="SvgjsG1026" transform="translate(373.5 446)" opacity="1"><path id="SvgjsPath1027" d="M0 0L57 0L57 35L0 35Z " stroke-dasharray="none" stroke="#323232" stroke-width="2" fill="#ffffff" opacity="1"></path><g id="SvgjsG1028" transform="matrix(1 0 0 1 10 7.5)" fill="#ffffff"><text id="SvgjsText1029" font-family="微软雅黑,黑体,Arial,SimSun" fill="#000000" font-size="16" font-weight="normal" font-style="normal" text-anchor="middle" text-decoration="blink" x="18.5" y="14.484375">1</text></g></g><g id="SvgjsG1030" transform="translate(430.5 446)" opacity="1"><path id="SvgjsPath1031" d="M0 0L57 0L57 35L0 35Z " stroke-dasharray="none" stroke="#323232" stroke-width="2" fill="#ffffff" opacity="1"></path><g id="SvgjsG1032" transform="matrix(1 0 0 1 10 7.5)" fill="#ffffff"><text id="SvgjsText1033" font-family="微软雅黑,黑体,Arial,SimSun" fill="#000000" font-size="16" font-weight="normal" font-style="normal" text-anchor="middle" text-decoration="blink" x="18.5" y="14.484375">01</text></g></g><g id="SvgjsG1034" transform="translate(121.5 265)" opacity="1"><path id="SvgjsPath1035" d="M0 0L96 0L96 35L0 35Z " stroke-dasharray="none" stroke="#323232" stroke-width="2" fill="#ffffff" opacity="1"></path><g id="SvgjsG1036" transform="matrix(1 0 0 1 10 7.5)" fill="#ffffff"><text id="SvgjsText1037" font-family="微软雅黑,黑体,Arial,SimSun" fill="#000000" font-size="16" font-weight="normal" font-style="normal" text-anchor="middle" text-decoration="blink" x="38" y="14.484375">0</text></g></g><g id="SvgjsG1038" transform="translate(217.5 265)" opacity="1"><path id="SvgjsPath1039" d="M0 0L81 0L81 35L0 35Z " stroke-dasharray="none" stroke="#323232" stroke-width="2" fill="#ffffff" opacity="1"></path><g id="SvgjsG1040" transform="matrix(1 0 0 1 10 7.5)" fill="#ffffff"><text id="SvgjsText1041" font-family="微软雅黑,黑体,Arial,SimSun" fill="#000000" font-size="16" font-weight="normal" font-style="normal" text-anchor="middle" text-decoration="blink" x="30.5" y="14.484375">epoch</text></g></g><g id="SvgjsG1042" transform="translate(298.5 265)" opacity="1"><path id="SvgjsPath1043" d="M0 0L75 0L75 35L0 35Z " stroke-dasharray="none" stroke="#323232" stroke-width="2" fill="#ffffff" opacity="1"></path><g id="SvgjsG1044" transform="matrix(1 0 0 1 10 7.5)" fill="#ffffff"><text id="SvgjsText1045" font-family="微软雅黑,黑体,Arial,SimSun" fill="#000000" font-size="16" font-weight="normal" font-style="normal" text-anchor="middle" text-decoration="blink" x="27.5" y="14.484375">age</text></g></g><g id="SvgjsG1046" transform="translate(373.5 265)" opacity="1"><path id="SvgjsPath1047" d="M0 0L57 0L57 35L0 35Z " stroke-dasharray="none" stroke="#323232" stroke-width="2" fill="#ffffff" opacity="1"></path><g id="SvgjsG1048" transform="matrix(1 0 0 1 10 7.5)" fill="#ffffff"><text id="SvgjsText1049" font-family="微软雅黑,黑体,Arial,SimSun" fill="#000000" font-size="16" font-weight="normal" font-style="normal" text-anchor="middle" text-decoration="blink" x="18.5" y="14.484375">1</text></g></g><g id="SvgjsG1050" transform="translate(430.5 265)" opacity="1"><path id="SvgjsPath1051" d="M0 0L57 0L57 35L0 35Z " stroke-dasharray="none" stroke="#323232" stroke-width="2" fill="#ffffff" opacity="1"></path><g id="SvgjsG1052" transform="matrix(1 0 0 1 10 7.5)" fill="#ffffff"><text id="SvgjsText1053" font-family="微软雅黑,黑体,Arial,SimSun" fill="#000000" font-size="16" font-weight="normal" font-style="normal" text-anchor="middle" text-decoration="blink" x="18.5" y="14.484375">01</text></g></g><g id="SvgjsG1054" transform="translate(645.5 265)" opacity="1"><path id="SvgjsPath1055" d="M0 0L96 0L96 35L0 35Z " stroke-dasharray="none" stroke="#323232" stroke-width="2" fill="#ffffff" opacity="1"></path><g id="SvgjsG1056" transform="matrix(1 0 0 1 10 7.5)" fill="#ffffff"><text id="SvgjsText1057" font-family="微软雅黑,黑体,Arial,SimSun" fill="#000000" font-size="16" font-weight="normal" font-style="normal" text-anchor="middle" text-decoration="blink" x="38" y="14.484375">hashcode</text></g></g><g id="SvgjsG1058" transform="translate(741.5 265)" opacity="1"><path id="SvgjsPath1059" d="M0 0L81 0L81 35L0 35Z " stroke-dasharray="none" stroke="#323232" stroke-width="2" fill="#ffffff" opacity="1"></path><g id="SvgjsG1060" transform="matrix(1 0 0 1 10 7.5)" fill="#ffffff"><text id="SvgjsText1061" font-family="微软雅黑,黑体,Arial,SimSun" fill="#000000" font-size="16" font-weight="normal" font-style="normal" text-anchor="middle" text-decoration="blink" x="30.5" y="14.484375">age</text></g></g><g id="SvgjsG1062" transform="translate(822.5 265)" opacity="1"><path id="SvgjsPath1063" d="M0 0L75 0L75 35L0 35Z " stroke-dasharray="none" stroke="#323232" stroke-width="2" fill="#ffffff" opacity="1"></path><g id="SvgjsG1064" transform="matrix(1 0 0 1 10 7.5)" fill="#ffffff"><text id="SvgjsText1065" font-family="微软雅黑,黑体,Arial,SimSun" fill="#000000" font-size="16" font-weight="normal" font-style="normal" text-anchor="middle" text-decoration="blink" x="27.5" y="14.484375">0</text></g></g><g id="SvgjsG1066" transform="translate(897.5 265)" opacity="1"><path id="SvgjsPath1067" d="M0 0L57 0L57 35L0 35Z " stroke-dasharray="none" stroke="#323232" stroke-width="2" fill="#ffffff" opacity="1"></path><g id="SvgjsG1068" transform="matrix(1 0 0 1 10 7.5)" fill="#ffffff"><text id="SvgjsText1069" font-family="微软雅黑,黑体,Arial,SimSun" fill="#000000" font-size="16" font-weight="normal" font-style="normal" text-anchor="middle" text-decoration="blink" x="18.5" y="14.484375">01</text></g></g><g id="SvgjsG1070"><path id="SvgjsPath1071" d="M544.5 155C544.5 277.7565069558433 258 142.2434930441567 258 249.7639320225002 " stroke-dasharray="none" stroke="#323232" stroke-width="2" fill="none" marker-end="url(#SvgjsMarker1072)"></path><g id="SvgjsG1074" transform="matrix(1 0 0 1 401.25 198.09549150281254)"><path id="SvgjsPath1075" d="M0 0H112V18.5H0V0Z " fill="#ffffff" transform="translate(-56 0)"></path><text id="SvgjsText1076" font-family="Microsoft Yahei,SimSun" fill="#000000" font-size="16" font-weight="normal" font-style="normal" text-anchor="middle" text-decoration="blink" x="0" y="14.5">如果偏向锁可用</text></g></g><g id="SvgjsG1077"><path id="SvgjsPath1078" d="M544.5 155C544.5 288.6504395802723 860 131.34956041972774 860 249.7639320225002 " stroke-dasharray="none" stroke="#323232" stroke-width="2" fill="none" marker-end="url(#SvgjsMarker1079)"></path><g id="SvgjsG1081" transform="matrix(1 0 0 1 702.25 198.09549150281254)"><path id="SvgjsPath1082" d="M0 0H128V18.5H0V0Z " fill="#ffffff" transform="translate(-64 0)"></path><text id="SvgjsText1083" font-family="Microsoft Yahei,SimSun" fill="#000000" font-size="16" font-weight="normal" font-style="normal" text-anchor="middle" text-decoration="blink" x="0" y="14.5">如果偏向锁不可用</text></g></g><g id="SvgjsG1084" transform="translate(156.5 300)" opacity="1"><path id="SvgjsPath1085" d="M0 0L285 0L285 36L0 36Z " stroke-dasharray="none" stroke-width="0" stroke="#323232" fill="none" opacity="1"></path><g id="SvgjsG1086" transform="matrix(1 0 0 1 0 8)" fill="#ffffff"><text id="SvgjsText1087" font-family="微软雅黑,黑体,Arial,SimSun" fill="#000000" font-size="16" font-weight="normal" font-style="normal" text-anchor="middle" text-decoration="blink" x="142.5" y="14.484375">未锁定未偏向但是可偏向的对象</text></g></g><g id="SvgjsG1088" transform="translate(156.5 481)" opacity="1"><path id="SvgjsPath1089" d="M0 0L285 0L285 36L0 36Z " stroke-dasharray="none" stroke-width="0" stroke="#323232" fill="none" opacity="1"></path><g id="SvgjsG1090" transform="matrix(1 0 0 1 0 8)" fill="#ffffff"><text id="SvgjsText1091" font-family="微软雅黑,黑体,Arial,SimSun" fill="#000000" font-size="16" font-weight="normal" font-style="normal" text-anchor="middle" text-decoration="blink" x="142.5" y="14.484375">已偏向的、锁定或未锁定的对象</text></g></g><g id="SvgjsG1092"><path id="SvgjsPath1093" d="M248 521C248 572 340 573 340 536.2360679774998 " stroke-dasharray="none" stroke="#323232" stroke-width="2" fill="none" marker-end="url(#SvgjsMarker1094)"></path><g id="SvgjsG1096" transform="matrix(1 0 0 1 294 551.5295084971875)"><path id="SvgjsPath1097" d="M0 0H68.46875V18.5H0V0Z " fill="#ffffff" transform="translate(-34.234375 0)"></path><text id="SvgjsText1098" font-family="Microsoft Yahei,SimSun" fill="#000000" font-size="16" font-weight="normal" font-style="normal" text-anchor="middle" text-decoration="blink" x="0" y="14.5">锁定/解锁</text></g></g><g id="SvgjsG1099"><path id="SvgjsPath1100" d="M258 336C258 366.8 258 382.2 258 397.7639320225002 " stroke-dasharray="none" stroke="#323232" stroke-width="2" fill="none" marker-end="url(#SvgjsMarker1101)"></path><g id="SvgjsG1103" transform="matrix(1 0 0 1 258 362.59549150281254)"><path id="SvgjsPath1104" d="M0 0H64V18.5H0V0Z " fill="#ffffff" transform="translate(-32 0)"></path><text id="SvgjsText1105" font-family="Microsoft Yahei,SimSun" fill="#000000" font-size="16" font-weight="normal" font-style="normal" text-anchor="middle" text-decoration="blink" x="0" y="14.5">初始锁定</text></g></g><g id="SvgjsG1106"><path id="SvgjsPath1107" d="M333 351.2360679774998C333 366.8 333 382.2 333 413 " stroke-dasharray="none" stroke="#323232" stroke-width="2" fill="none" marker-start="url(#SvgjsMarker1108)"></path><g id="SvgjsG1110" transform="matrix(1 0 0 1 333 366.40450849718746)"><path id="SvgjsPath1111" d="M0 0H48V18.5H0V0Z " fill="#ffffff" transform="translate(-24 0)"></path><text id="SvgjsText1112" font-family="Microsoft Yahei,SimSun" fill="#000000" font-size="16" font-weight="normal" font-style="normal" text-anchor="middle" text-decoration="blink" x="0" y="14.5">重偏向</text></g></g><g id="SvgjsG1113" transform="translate(645.5 446)" opacity="1"><path id="SvgjsPath1114" d="M0 0L243 0L243 35L0 35Z " stroke-dasharray="none" stroke="#323232" stroke-width="2" fill="#ffffff" opacity="1"></path><g id="SvgjsG1115" transform="matrix(1 0 0 1 10 7.5)" fill="#ffffff"><text id="SvgjsText1116" font-family="微软雅黑,黑体,Arial,SimSun" fill="#000000" font-size="16" font-weight="normal" font-style="normal" text-anchor="middle" text-decoration="blink" x="111.5" y="14.484375">pointer to lock record</text></g></g><g id="SvgjsG1117" transform="translate(888.5 446)" opacity="1"><path id="SvgjsPath1118" d="M0 0L75 0L75 35L0 35Z " stroke-dasharray="none" stroke="#323232" stroke-width="2" fill="#ffffff" opacity="1"></path><g id="SvgjsG1119" transform="matrix(1 0 0 1 10 7.5)" fill="#ffffff"><text id="SvgjsText1120" font-family="微软雅黑,黑体,Arial,SimSun" fill="#000000" font-size="16" font-weight="normal" font-style="normal" text-anchor="middle" text-decoration="blink" x="27.5" y="14.484375">00</text></g></g><g id="SvgjsG1121" transform="translate(645.5 611)" opacity="1"><path id="SvgjsPath1122" d="M0 0L243 0L243 35L0 35Z " stroke-dasharray="none" stroke="#323232" stroke-width="2" fill="#ffffff" opacity="1"></path><g id="SvgjsG1123" transform="matrix(1 0 0 1 10 7.5)" fill="#ffffff"><text id="SvgjsText1124" font-family="微软雅黑,黑体,Arial,SimSun" fill="#000000" font-size="16" font-weight="normal" font-style="normal" text-anchor="middle" text-decoration="blink" x="111.5" y="14.484375">pointer to lock record</text></g></g><g id="SvgjsG1125" transform="translate(888.5 611)" opacity="1"><path id="SvgjsPath1126" d="M0 0L75 0L75 35L0 35Z " stroke-dasharray="none" stroke="#323232" stroke-width="2" fill="#ffffff" opacity="1"></path><g id="SvgjsG1127" transform="matrix(1 0 0 1 10 7.5)" fill="#ffffff"><text id="SvgjsText1128" font-family="微软雅黑,黑体,Arial,SimSun" fill="#000000" font-size="16" font-weight="normal" font-style="normal" text-anchor="middle" text-decoration="blink" x="27.5" y="14.484375">10</text></g></g><g id="SvgjsG1129"><path id="SvgjsPath1130" d="M564 372.5C612.5670670310654 372.5 596.9329329689346 282.5 630.2639320225002 282.5 " stroke-dasharray="none" stroke="#323232" stroke-width="2" fill="none" marker-end="url(#SvgjsMarker1131)"></path><g id="SvgjsG1133" transform="matrix(1 0 0 1 602.8454915028125 317.5)"><path id="SvgjsPath1134" d="M0 0H80V18.5H0V0Z " fill="#ffffff" transform="translate(-40 0)"></path><text id="SvgjsText1135" font-family="Microsoft Yahei,SimSun" fill="#000000" font-size="16" font-weight="normal" font-style="normal" text-anchor="middle" text-decoration="blink" x="0" y="14.5">对象未锁定</text></g></g><g id="SvgjsG1136"><path id="SvgjsPath1137" d="M564 372.5C612.864301898216 372.5 596.635698101784 463.5 630.2639320225002 463.5 " stroke-dasharray="none" stroke="#323232" stroke-width="2" fill="none" marker-end="url(#SvgjsMarker1138)"></path><g id="SvgjsG1140" transform="matrix(1 0 0 1 602.8454915028125 408)"><path id="SvgjsPath1141" d="M0 0H80V18.5H0V0Z " fill="#ffffff" transform="translate(-40 0)"></path><text id="SvgjsText1142" font-family="Microsoft Yahei,SimSun" fill="#000000" font-size="16" font-weight="normal" font-style="normal" text-anchor="middle" text-decoration="blink" x="0" y="14.5">对象已锁定</text></g></g><g id="SvgjsG1143" transform="translate(462 354)" opacity="1"><path id="SvgjsPath1144" d="M0 0L102 0L102 37L0 37Z " stroke-dasharray="none" stroke="#323232" stroke-width="2" fill="#ffffff" opacity="1"></path><g id="SvgjsG1145" transform="matrix(1 0 0 1 10 8.5)" fill="#ffffff"><text id="SvgjsText1146" font-family="微软雅黑,黑体,Arial,SimSun" fill="#000000" font-size="16" font-weight="normal" font-style="normal" text-anchor="middle" text-decoration="blink" x="41" y="14.484375">撤销偏向</text></g></g><g id="SvgjsG1147"><path id="SvgjsPath1148" d="M487.5 463.5C518.241502891043 463.5 513 421.7415028910429 513 406.2360679774998 " stroke-dasharray="none" stroke="#323232" stroke-width="2" fill="none" marker-end="url(#SvgjsMarker1149)"></path><g id="SvgjsG1151" transform="matrix(1 0 0 1 511.77806358414114 430.68257208132854)"><path id="SvgjsPath1152" d="M0 0H0V0H0V0Z " fill="#ffffff" transform="translate(0 0)"></path><text id="SvgjsText1153" font-family="Microsoft Yahei,SimSun" fill="#000000" font-size="16" font-weight="normal" font-style="normal" text-anchor="middle" text-decoration="blink" x="0" y="0"></text></g></g><g id="SvgjsG1154" transform="translate(658.5 300)" opacity="1"><path id="SvgjsPath1155" d="M0 0L285 0L285 36L0 36Z " stroke-dasharray="none" stroke-width="0" stroke="#323232" fill="none" opacity="1"></path><g id="SvgjsG1156" transform="matrix(1 0 0 1 0 8)" fill="#ffffff"><text id="SvgjsText1157" font-family="微软雅黑,黑体,Arial,SimSun" fill="#000000" font-size="16" font-weight="normal" font-style="normal" text-anchor="middle" text-decoration="blink" x="142.5" y="14.484375">未被锁定的，不可偏向对象</text></g></g><g id="SvgjsG1158" transform="translate(658.5 481)" opacity="1"><path id="SvgjsPath1159" d="M0 0L285 0L285 36L0 36Z " stroke-dasharray="none" stroke-width="0" stroke="#323232" fill="none" opacity="1"></path><g id="SvgjsG1160" transform="matrix(1 0 0 1 0 8)" fill="#ffffff"><text id="SvgjsText1161" font-family="微软雅黑,黑体,Arial,SimSun" fill="#000000" font-size="16" font-weight="normal" font-style="normal" text-anchor="middle" text-decoration="blink" x="142.5" y="14.484375">被轻量级锁定的对象</text></g></g><g id="SvgjsG1162" transform="translate(658.5 646)" opacity="1"><path id="SvgjsPath1163" d="M0 0L285 0L285 36L0 36Z " stroke-dasharray="none" stroke-width="0" stroke="#323232" fill="none" opacity="1"></path><g id="SvgjsG1164" transform="matrix(1 0 0 1 0 8)" fill="#ffffff"><text id="SvgjsText1165" font-family="微软雅黑,黑体,Arial,SimSun" fill="#000000" font-size="16" font-weight="normal" font-style="normal" text-anchor="middle" text-decoration="blink" x="142.5" y="14.484375">被重量级锁定的对象</text></g></g><g id="SvgjsG1166"><path id="SvgjsPath1167" d="M752 342C752 372.8 752 388.2 752 403.7639320225002 " stroke-dasharray="none" stroke="#323232" stroke-width="2" fill="none" marker-end="url(#SvgjsMarker1168)"></path><g id="SvgjsG1170" transform="matrix(1 0 0 1 752 368.59549150281254)"><path id="SvgjsPath1171" d="M0 0H80V18.5H0V0Z " fill="#ffffff" transform="translate(-40 0)"></path><text id="SvgjsText1172" font-family="Microsoft Yahei,SimSun" fill="#000000" font-size="16" font-weight="normal" font-style="normal" text-anchor="middle" text-decoration="blink" x="0" y="14.5">轻量级锁定</text></g></g><g id="SvgjsG1173"><path id="SvgjsPath1174" d="M754 517C754 547.8 754 563.2 754 578.7639320225002 " stroke-dasharray="none" stroke="#323232" stroke-width="2" fill="none" marker-end="url(#SvgjsMarker1175)"></path><g id="SvgjsG1177" transform="matrix(1 0 0 1 754 543.5954915028125)"><path id="SvgjsPath1178" d="M0 0H32V18.5H0V0Z " fill="#ffffff" transform="translate(-16 0)"></path><text id="SvgjsText1179" font-family="Microsoft Yahei,SimSun" fill="#000000" font-size="16" font-weight="normal" font-style="normal" text-anchor="middle" text-decoration="blink" x="0" y="14.5">膨胀</text></g></g><g id="SvgjsG1180"><path id="SvgjsPath1181" d="M963.5 628.5L993.5 628.5L993.5 282.5L969.7360679774998 282.5 " stroke-dasharray="none" stroke="#323232" stroke-width="2" fill="none" marker-end="url(#SvgjsMarker1182)"></path><g id="SvgjsG1184" transform="matrix(1 0 0 1 993.5 448.6180339887499)"><path id="SvgjsPath1185" d="M0 0H0V0H0V0Z " fill="#ffffff" transform="translate(0 0)"></path><text id="SvgjsText1186" font-family="Microsoft Yahei,SimSun" fill="#000000" font-size="16" font-weight="normal" font-style="normal" text-anchor="middle" text-decoration="blink" x="0" y="0"></text></g></g><g id="SvgjsG1187"><path id="SvgjsPath1188" d="M963.5 463.5L993.5 463.5L993.5 282.5L969.7360679774998 282.5 " stroke-dasharray="none" stroke="#323232" stroke-width="2" fill="none" marker-end="url(#SvgjsMarker1189)"></path><g id="SvgjsG1191" transform="matrix(1 0 0 1 993.5 366.1180339887499)"><path id="SvgjsPath1192" d="M0 0H0V0H0V0Z " fill="#ffffff" transform="translate(0 0)"></path><text id="SvgjsText1193" font-family="Microsoft Yahei,SimSun" fill="#000000" font-size="16" font-weight="normal" font-style="normal" text-anchor="middle" text-decoration="blink" x="0" y="0"></text></g></g><g id="SvgjsG1194" transform="translate(937 441)" opacity="1"><path id="SvgjsPath1195" d="M0 0L160 0L160 40L0 40Z " stroke-dasharray="none" stroke-width="0" stroke="#323232" fill="none" opacity="1"></path><g id="SvgjsG1196" transform="matrix(1 0 0 1 0 10)" fill="#ffffff"><text id="SvgjsText1197" font-family="微软雅黑,黑体,Arial,SimSun" fill="#000000" font-size="16" font-weight="normal" font-style="normal" text-anchor="middle" text-decoration="blink" x="80" y="14.484375">解锁</text></g></g><g id="SvgjsG1198"><path id="SvgjsPath1199" d="M840 438C840 381 929 383 929.3614960143005 422.7645615730646 " stroke-dasharray="none" stroke="#323232" stroke-width="2" fill="none" marker-end="url(#SvgjsMarker1200)"></path><g id="SvgjsG1202" transform="matrix(1 0 0 1 884.5451870017876 384.09557019663305)"><path id="SvgjsPath1203" d="M0 0H64V18.5H0V0Z " fill="#ffffff" transform="translate(-32 0)"></path><text id="SvgjsText1204" font-family="Microsoft Yahei,SimSun" fill="#000000" font-size="16" font-weight="normal" font-style="normal" text-anchor="middle" text-decoration="blink" x="0" y="14.5">递归锁定</text></g></g><g id="SvgjsG1205" transform="translate(723 728)" opacity="1"><path id="SvgjsPath1206" d="M0 0L339 0L339 102L0 102Z " stroke-dasharray="none" stroke-width="0" stroke="#323232" fill="none" opacity="1"></path><g id="SvgjsG1207" transform="matrix(1 0 0 1 0 13.5)" fill="#ffffff"><text id="SvgjsText1208" font-family="微软雅黑,黑体,Arial,SimSun" fill="#000000" font-size="20" font-weight="bold" font-style="normal" text-anchor="middle" text-decoration="blink" x="169.5" y="18.109375">JVM中锁状态转换图</text><text id="SvgjsText1209" font-family="微软雅黑,黑体,Arial,SimSun" fill="#000000" font-size="20" font-weight="bold" font-style="normal" text-anchor="middle" text-decoration="blink" x="169.5" y="25"></text><text id="SvgjsText1210" font-family="微软雅黑,黑体,Arial,SimSun" fill="#000000" font-size="20" font-weight="bold" font-style="normal" text-anchor="middle" text-decoration="blink" x="169.5" y="68.109375">by decaywood</text></g></g></g></g></svg>