<svg id="drawing" xmlns="http://www.w3.org/2000/svg" version="1.1" xmlns:xlink="http://www.w3.org/1999/xlink" xmlns:svgjs="http://svgjs.com/svgjs" width="908" height="387.828125" viewBox="103 132 908 387.828125"><defs id="SvgjsDefs1001"><marker id="SvgjsMarker1060" markerWidth="16.23606797749979" markerHeight="10.550836550532098" refX="-1" refY="3.8990363547948754" viewBox="-1 -1.3763819204711736 16.23606797749979 10.550836550532098" orient="auto" markerUnits="userSpaceOnUse"><path id="SvgjsPath1061" d="M12 3.8990363547948754L0 7.798072709589751V0Z " stroke="#323232" stroke-width="2" fill="#323232" transform="matrix(1,0,0,1,0,0)"></path></marker><marker id="SvgjsMarker1067" markerWidth="16.23606797749979" markerHeight="10.550836550532098" refX="-1" refY="3.8990363547948754" viewBox="-1 -1.3763819204711736 16.23606797749979 10.550836550532098" orient="auto" markerUnits="userSpaceOnUse"><path id="SvgjsPath1068" d="M12 3.8990363547948754L0 7.798072709589751V0Z " stroke="#323232" stroke-width="2" fill="#323232" transform="matrix(1,0,0,1,0,0)"></path></marker><marker id="SvgjsMarker1074" markerWidth="16.23606797749979" markerHeight="10.550836550532098" refX="-1" refY="3.8990363547948754" viewBox="-1 -1.3763819204711736 16.23606797749979 10.550836550532098" orient="auto" markerUnits="userSpaceOnUse"><path id="SvgjsPath1075" d="M12 3.8990363547948754L0 7.798072709589751V0Z " stroke="#323232" stroke-width="2" fill="#323232" transform="matrix(1,0,0,1,0,0)"></path></marker><marker id="SvgjsMarker1081" markerWidth="16.23606797749979" markerHeight="10.550836550532098" refX="-1" refY="3.8990363547948754" viewBox="-1 -1.3763819204711736 16.23606797749979 10.550836550532098" orient="auto" markerUnits="userSpaceOnUse"><path id="SvgjsPath1082" d="M12 3.8990363547948754L0 7.798072709589751V0Z " stroke="#323232" stroke-width="2" fill="#323232" transform="matrix(1,0,0,1,0,0)"></path></marker><marker id="SvgjsMarker1088" markerWidth="16.23606797749979" markerHeight="10.550836550532098" refX="-1" refY="3.8990363547948754" viewBox="-1 -1.3763819204711736 16.23606797749979 10.550836550532098" orient="auto" markerUnits="userSpaceOnUse"><path id="SvgjsPath1089" d="M12 3.8990363547948754L0 7.798072709589751V0Z " stroke="#323232" stroke-width="2" fill="#323232" transform="matrix(1,0,0,1,0,0)"></path></marker><marker id="SvgjsMarker1095" markerWidth="16.23606797749979" markerHeight="10.550836550532098" refX="-1" refY="3.8990363547948754" viewBox="-1 -1.3763819204711736 16.23606797749979 10.550836550532098" orient="auto" markerUnits="userSpaceOnUse"><path id="SvgjsPath1096" d="M12 3.8990363547948754L0 7.798072709589751V0Z " stroke="#323232" stroke-width="2" fill="#323232" transform="matrix(1,0,0,1,0,0)"></path></marker><marker id="SvgjsMarker1102" markerWidth="16.23606797749979" markerHeight="10.550836550532098" refX="-1" refY="3.8990363547948754" viewBox="-1 -1.3763819204711736 16.23606797749979 10.550836550532098" orient="auto" markerUnits="userSpaceOnUse"><path id="SvgjsPath1103" d="M12 3.8990363547948754L0 7.798072709589751V0Z " stroke="#323232" stroke-width="2" fill="#323232" transform="matrix(1,0,0,1,0,0)"></path></marker><marker id="SvgjsMarker1109" markerWidth="16.23606797749979" markerHeight="10.550836550532098" refX="-1" refY="3.8990363547948754" viewBox="-1 -1.3763819204711736 16.23606797749979 10.550836550532098" orient="auto" markerUnits="userSpaceOnUse"><path id="SvgjsPath1110" d="M12 3.8990363547948754L0 7.798072709589751V0Z " stroke="#323232" stroke-width="2" fill="#323232" transform="matrix(1,0,0,1,0,0)"></path></marker><marker id="SvgjsMarker1116" markerWidth="16.23606797749979" markerHeight="10.550836550532098" refX="-1" refY="3.8990363547948754" viewBox="-1 -1.3763819204711736 16.23606797749979 10.550836550532098" orient="auto" markerUnits="userSpaceOnUse"><path id="SvgjsPath1117" d="M12 3.8990363547948754L0 7.798072709589751V0Z " stroke="#323232" stroke-width="2" fill="#323232" transform="matrix(1,0,0,1,0,0)"></path></marker><marker id="SvgjsMarker1123" markerWidth="16.23606797749979" markerHeight="10.550836550532098" refX="-1" refY="3.8990363547948754" viewBox="-1 -1.3763819204711736 16.23606797749979 10.550836550532098" orient="auto" markerUnits="userSpaceOnUse"><path id="SvgjsPath1124" d="M12 3.8990363547948754L0 7.798072709589751V0Z " stroke="#323232" stroke-width="2" fill="#323232" transform="matrix(1,0,0,1,0,0)"></path></marker><marker id="SvgjsMarker1130" markerWidth="16.23606797749979" markerHeight="10.550836550532098" refX="-1" refY="3.8990363547948754" viewBox="-1 -1.3763819204711736 16.23606797749979 10.550836550532098" orient="auto" markerUnits="userSpaceOnUse"><path id="SvgjsPath1131" d="M12 3.8990363547948754L0 7.798072709589751V0Z " stroke="#323232" stroke-width="2" fill="#323232" transform="matrix(1,0,0,1,0,0)"></path></marker></defs><g id="SvgjsG1007"><path id="SvgjsPath1008" d="M103 132H1011V519.828125H103V132Z " fill-opacity="0" fill="none"></path><g id="SvgjsG1009"><g id="SvgjsG1010" transform="translate(123 152)" opacity="1"><path id="SvgjsPath1011" d="M0 0L117 0L117 49L0 49Z " stroke-dasharray="none" stroke="#323232" stroke-width="2" fill="#ffff99" opacity="1"></path><g id="SvgjsG1012" transform="matrix(1 0 0 1 10 14.5)" fill="#ffffff"><text id="SvgjsText1013" font-family="微软雅黑,黑体,Arial,SimSun" fill="#000000" font-size="16" font-weight="normal" font-style="normal" text-anchor="middle" text-decoration="blink" x="48.5" y="14.484375">程序源码</text></g></g><g id="SvgjsG1014" transform="translate(301 152)" opacity="1"><path id="SvgjsPath1015" d="M0 0L120 0L120 49L0 49Z " stroke-dasharray="none" stroke="#323232" stroke-width="2" fill="#ffff99" opacity="1"></path><g id="SvgjsG1016" transform="matrix(1 0 0 1 10 14.5)" fill="#ffffff"><text id="SvgjsText1017" font-family="微软雅黑,黑体,Arial,SimSun" fill="#000000" font-size="16" font-weight="normal" font-style="normal" text-anchor="middle" text-decoration="blink" x="50" y="14.484375">词法分析</text></g></g><g id="SvgjsG1018" transform="translate(481 152)" opacity="1"><path id="SvgjsPath1019" d="M0 0L119 0L119 49L0 49Z " stroke-dasharray="none" stroke="#323232" stroke-width="2" fill="#ffff99" opacity="1"></path><g id="SvgjsG1020" transform="matrix(1 0 0 1 10 14.5)" fill="#ffffff"><text id="SvgjsText1021" font-family="微软雅黑,黑体,Arial,SimSun" fill="#000000" font-size="16" font-weight="normal" font-style="normal" text-anchor="middle" text-decoration="blink" x="49.5" y="14.484375">单词流</text></g></g><g id="SvgjsG1022" transform="translate(662 152)" opacity="1"><path id="SvgjsPath1023" d="M0 0L119 0L119 49L0 49Z " stroke-dasharray="none" stroke="#323232" stroke-width="2" fill="#ffff99" opacity="1"></path><g id="SvgjsG1024" transform="matrix(1 0 0 1 10 14.5)" fill="#ffffff"><text id="SvgjsText1025" font-family="微软雅黑,黑体,Arial,SimSun" fill="#000000" font-size="16" font-weight="normal" font-style="normal" text-anchor="middle" text-decoration="blink" x="49.5" y="14.484375">语法分析</text></g></g><g id="SvgjsG1026" transform="translate(123 240)" opacity="1"><path id="SvgjsPath1027" d="M0 0L117 0L117 49L0 49Z " stroke-dasharray="none" stroke="#323232" stroke-width="2" fill="#ffff99" opacity="1"></path><g id="SvgjsG1028" transform="matrix(1 0 0 1 10 14.5)" fill="#ffffff"><text id="SvgjsText1029" font-family="微软雅黑,黑体,Arial,SimSun" fill="#000000" font-size="16" font-weight="normal" font-style="normal" text-anchor="middle" text-decoration="blink" x="48.5" y="14.484375">解释执行</text></g></g><g id="SvgjsG1030" transform="translate(301 240)" opacity="1"><path id="SvgjsPath1031" d="M0 0L120 0L120 49L0 49Z " stroke-dasharray="none" stroke="#323232" stroke-width="2" fill="#ffff99" opacity="1"></path><g id="SvgjsG1032" transform="matrix(1 0 0 1 10 14.5)" fill="#ffffff"><text id="SvgjsText1033" font-family="微软雅黑,黑体,Arial,SimSun" fill="#000000" font-size="16" font-weight="normal" font-style="normal" text-anchor="middle" text-decoration="blink" x="50" y="14.484375">解释器</text></g></g><g id="SvgjsG1034" transform="translate(481 240)" opacity="1"><path id="SvgjsPath1035" d="M0 0L119 0L119 49L0 49Z " stroke-dasharray="none" stroke="#323232" stroke-width="2" fill="#99ff99" opacity="1"></path><g id="SvgjsG1036" transform="matrix(1 0 0 1 10 14.5)" fill="#ffffff"><text id="SvgjsText1037" font-family="微软雅黑,黑体,Arial,SimSun" fill="#000000" font-size="16" font-weight="normal" font-style="normal" text-anchor="middle" text-decoration="blink" x="49.5" y="14.484375">指令流</text></g></g><g id="SvgjsG1038" transform="translate(662 240)" opacity="1"><path id="SvgjsPath1039" d="M0 0L119 0L119 49L0 49Z " stroke-dasharray="none" stroke="#323232" stroke-width="2" fill="#ffff99" opacity="1"></path><g id="SvgjsG1040" transform="matrix(1 0 0 1 10 14.5)" fill="#ffffff"><text id="SvgjsText1041" font-family="微软雅黑,黑体,Arial,SimSun" fill="#000000" font-size="16" font-weight="normal" font-style="normal" text-anchor="middle" text-decoration="blink" x="49.5" y="14.484375">抽象语法树</text></g></g><g id="SvgjsG1042" transform="translate(123 327)" opacity="1"><path id="SvgjsPath1043" d="M0 0L117 0L117 49L0 49Z " stroke-dasharray="none" stroke="#323232" stroke-width="2" fill="#ffff99" opacity="1"></path><g id="SvgjsG1044" transform="matrix(1 0 0 1 10 14.5)" fill="#ffffff"><text id="SvgjsText1045" font-family="微软雅黑,黑体,Arial,SimSun" fill="#000000" font-size="16" font-weight="normal" font-style="normal" text-anchor="middle" text-decoration="blink" x="48.5" y="14.484375">目标代码</text></g></g><g id="SvgjsG1046" transform="translate(301 327)" opacity="1"><path id="SvgjsPath1047" d="M0 0L120 0L120 49L0 49Z " stroke-dasharray="none" stroke="#323232" stroke-width="2" fill="#ffff99" opacity="1"></path><g id="SvgjsG1048" transform="matrix(1 0 0 1 10 14.5)" fill="#ffffff"><text id="SvgjsText1049" font-family="微软雅黑,黑体,Arial,SimSun" fill="#000000" font-size="16" font-weight="normal" font-style="normal" text-anchor="middle" text-decoration="blink" x="50" y="14.484375">生成器</text></g></g><g id="SvgjsG1050" transform="translate(481 327)" opacity="1"><path id="SvgjsPath1051" d="M0 0L119 0L119 49L0 49Z " stroke-dasharray="none" stroke="#323232" stroke-width="2" fill="#99ff99" opacity="1"></path><g id="SvgjsG1052" transform="matrix(1 0 0 1 10 14.5)" fill="#ffffff"><text id="SvgjsText1053" font-family="微软雅黑,黑体,Arial,SimSun" fill="#000000" font-size="16" font-weight="normal" font-style="normal" text-anchor="middle" text-decoration="blink" x="49.5" y="14.484375">优化代码</text></g></g><g id="SvgjsG1054" transform="translate(662 327)" opacity="1"><path id="SvgjsPath1055" d="M0 0L119 0L119 49L0 49Z " stroke-dasharray="none" stroke="#323232" stroke-width="2" fill="#99ff99" opacity="1"></path><g id="SvgjsG1056" transform="matrix(1 0 0 1 10 14.5)" fill="#ffffff"><text id="SvgjsText1057" font-family="微软雅黑,黑体,Arial,SimSun" fill="#000000" font-size="16" font-weight="normal" font-style="normal" text-anchor="middle" text-decoration="blink" x="49.5" y="14.484375">优化器</text></g></g><g id="SvgjsG1058"><path id="SvgjsPath1059" d="M240 176.5L270.5 176.5L270.5 176.5L285.7639320225002 176.5 " stroke-dasharray="none" stroke="#323232" stroke-width="2" fill="none" marker-end="url(#SvgjsMarker1060)"></path><g id="SvgjsG1062" transform="matrix(1 0 0 1 262.88196601125014 168.375)"><path id="SvgjsPath1063" d="M0 0H0V0H0V0Z " fill="#ffffff" transform="translate(0 0)"></path><text id="SvgjsText1064" font-family="Microsoft Yahei,SimSun" fill="#000000" font-size="13" font-weight="normal" font-style="normal" text-anchor="middle" text-decoration="blink" x="0" y="0"></text></g></g><g id="SvgjsG1065"><path id="SvgjsPath1066" d="M421 176.5L451 176.5L451 176.5L465.7639320225002 176.5 " stroke-dasharray="none" stroke="#323232" stroke-width="2" fill="none" marker-end="url(#SvgjsMarker1067)"></path><g id="SvgjsG1069" transform="matrix(1 0 0 1 443.38196601125014 168.375)"><path id="SvgjsPath1070" d="M0 0H0V0H0V0Z " fill="#ffffff" transform="translate(0 0)"></path><text id="SvgjsText1071" font-family="Microsoft Yahei,SimSun" fill="#000000" font-size="13" font-weight="normal" font-style="normal" text-anchor="middle" text-decoration="blink" x="0" y="0"></text></g></g><g id="SvgjsG1072"><path id="SvgjsPath1073" d="M600 176.5L631 176.5L631 176.5L646.7639320225002 176.5 " stroke-dasharray="none" stroke="#323232" stroke-width="2" fill="none" marker-end="url(#SvgjsMarker1074)"></path><g id="SvgjsG1076" transform="matrix(1 0 0 1 623.3819660112501 168.375)"><path id="SvgjsPath1077" d="M0 0H0V0H0V0Z " fill="#ffffff" transform="translate(0 0)"></path><text id="SvgjsText1078" font-family="Microsoft Yahei,SimSun" fill="#000000" font-size="13" font-weight="normal" font-style="normal" text-anchor="middle" text-decoration="blink" x="0" y="0"></text></g></g><g id="SvgjsG1079"><path id="SvgjsPath1080" d="M721.5 201L721.5 220.5L721.5 220.5L721.5 224.7639320225002 " stroke-dasharray="none" stroke="#323232" stroke-width="2" fill="none" marker-end="url(#SvgjsMarker1081)"></path><g id="SvgjsG1083" transform="matrix(1 0 0 1 721.5 204.75696601125009)"><path id="SvgjsPath1084" d="M0 0H0V0H0V0Z " fill="#ffffff" transform="translate(0 0)"></path><text id="SvgjsText1085" font-family="Microsoft Yahei,SimSun" fill="#000000" font-size="13" font-weight="normal" font-style="normal" text-anchor="middle" text-decoration="blink" x="0" y="0"></text></g></g><g id="SvgjsG1086"><path id="SvgjsPath1087" d="M721.5 289L721.5 308L721.5 308L721.5 311.7639320225002 " stroke-dasharray="none" stroke="#323232" stroke-width="2" fill="none" marker-end="url(#SvgjsMarker1088)"></path><g id="SvgjsG1090" transform="matrix(1 0 0 1 721.5 292.25696601125014)"><path id="SvgjsPath1091" d="M0 0H0V0H0V0Z " fill="#ffffff" transform="translate(0 0)"></path><text id="SvgjsText1092" font-family="Microsoft Yahei,SimSun" fill="#000000" font-size="13" font-weight="normal" font-style="normal" text-anchor="middle" text-decoration="blink" x="0" y="0"></text></g></g><g id="SvgjsG1093"><path id="SvgjsPath1094" d="M662 351.5L631 351.5L631 351.5L615.2360679774998 351.5 " stroke-dasharray="none" stroke="#323232" stroke-width="2" fill="none" marker-end="url(#SvgjsMarker1095)"></path><g id="SvgjsG1097" transform="matrix(1 0 0 1 638.6180339887499 343.375)"><path id="SvgjsPath1098" d="M0 0H0V0H0V0Z " fill="#ffffff" transform="translate(0 0)"></path><text id="SvgjsText1099" font-family="Microsoft Yahei,SimSun" fill="#000000" font-size="13" font-weight="normal" font-style="normal" text-anchor="middle" text-decoration="blink" x="0" y="0"></text></g></g><g id="SvgjsG1100"><path id="SvgjsPath1101" d="M481 351.5L451 351.5L451 351.5L436.2360679774998 351.5 " stroke-dasharray="none" stroke="#323232" stroke-width="2" fill="none" marker-end="url(#SvgjsMarker1102)"></path><g id="SvgjsG1104" transform="matrix(1 0 0 1 458.61803398874986 343.375)"><path id="SvgjsPath1105" d="M0 0H0V0H0V0Z " fill="#ffffff" transform="translate(0 0)"></path><text id="SvgjsText1106" font-family="Microsoft Yahei,SimSun" fill="#000000" font-size="13" font-weight="normal" font-style="normal" text-anchor="middle" text-decoration="blink" x="0" y="0"></text></g></g><g id="SvgjsG1107"><path id="SvgjsPath1108" d="M301 351.5L270.5 351.5L270.5 351.5L255.2360679774998 351.5 " stroke-dasharray="none" stroke="#323232" stroke-width="2" fill="none" marker-end="url(#SvgjsMarker1109)"></path><g id="SvgjsG1111" transform="matrix(1 0 0 1 278.1180339887499 343.375)"><path id="SvgjsPath1112" d="M0 0H0V0H0V0Z " fill="#ffffff" transform="translate(0 0)"></path><text id="SvgjsText1113" font-family="Microsoft Yahei,SimSun" fill="#000000" font-size="13" font-weight="normal" font-style="normal" text-anchor="middle" text-decoration="blink" x="0" y="0"></text></g></g><g id="SvgjsG1114"><path id="SvgjsPath1115" d="M301 264.5L270.5 264.5L270.5 264.5L255.2360679774998 264.5 " stroke-dasharray="none" stroke="#323232" stroke-width="2" fill="none" marker-end="url(#SvgjsMarker1116)"></path><g id="SvgjsG1118" transform="matrix(1 0 0 1 278.1180339887499 256.375)"><path id="SvgjsPath1119" d="M0 0H0V0H0V0Z " fill="#ffffff" transform="translate(0 0)"></path><text id="SvgjsText1120" font-family="Microsoft Yahei,SimSun" fill="#000000" font-size="13" font-weight="normal" font-style="normal" text-anchor="middle" text-decoration="blink" x="0" y="0"></text></g></g><g id="SvgjsG1121"><path id="SvgjsPath1122" d="M481 264.5L451 264.5L451 264.5L436.2360679774998 264.5 " stroke-dasharray="none" stroke="#323232" stroke-width="2" fill="none" marker-end="url(#SvgjsMarker1123)"></path><g id="SvgjsG1125" transform="matrix(1 0 0 1 458.61803398874986 256.375)"><path id="SvgjsPath1126" d="M0 0H0V0H0V0Z " fill="#ffffff" transform="translate(0 0)"></path><text id="SvgjsText1127" font-family="Microsoft Yahei,SimSun" fill="#000000" font-size="13" font-weight="normal" font-style="normal" text-anchor="middle" text-decoration="blink" x="0" y="0"></text></g></g><g id="SvgjsG1128"><path id="SvgjsPath1129" d="M662 264.5L631 264.5L631 264.5L615.2360679774998 264.5 " stroke-dasharray="none" stroke="#323232" stroke-width="2" fill="none" marker-end="url(#SvgjsMarker1130)"></path><g id="SvgjsG1132" transform="matrix(1 0 0 1 638.6180339887499 256.375)"><path id="SvgjsPath1133" d="M0 0H0V0H0V0Z " fill="#ffffff" transform="translate(0 0)"></path><text id="SvgjsText1134" font-family="Microsoft Yahei,SimSun" fill="#000000" font-size="13" font-weight="normal" font-style="normal" text-anchor="middle" text-decoration="blink" x="0" y="0"></text></g></g><g id="SvgjsG1135" transform="translate(727 439)" opacity="1"><path id="SvgjsPath1136" d="M0 0L264 0L264 38L0 38Z " stroke-dasharray="none" stroke-width="0" stroke="#323232" fill="none" opacity="1"></path><g id="SvgjsG1137" transform="matrix(1 0 0 1 0 -26)" fill="#ffffff"><text id="SvgjsText1138" font-family="微软雅黑,黑体,Arial,SimSun" fill="#000000" font-size="24" font-weight="normal" font-style="normal" text-anchor="middle" text-decoration="blink" x="132" y="21.734375">编译步骤</text><text id="SvgjsText1139" font-family="微软雅黑,黑体,Arial,SimSun" fill="#000000" font-size="24" font-weight="normal" font-style="normal" text-anchor="middle" text-decoration="blink" x="132" y="30"></text><text id="SvgjsText1140" font-family="微软雅黑,黑体,Arial,SimSun" fill="#000000" font-size="24" font-weight="normal" font-style="normal" text-anchor="middle" text-decoration="blink" x="132" y="81.734375">by decaywood</text></g></g></g></g></svg>