<svg id="drawing" xmlns="http://www.w3.org/2000/svg" version="1.1" xmlns:xlink="http://www.w3.org/1999/xlink" xmlns:svgjs="http://svgjs.com/svgjs" width="734" height="615" viewBox="62 70 734 615"><defs id="SvgjsDefs1001"><marker id="SvgjsMarker1024" markerWidth="16.23606797749979" markerHeight="10.550836550532098" refX="-1" refY="3.8990363547948754" viewBox="-1 -1.3763819204711736 16.23606797749979 10.550836550532098" orient="auto" markerUnits="userSpaceOnUse"><path id="SvgjsPath1025" d="M12 3.8990363547948754L0 7.798072709589751V0Z " stroke="#323232" stroke-width="2" fill="#ffffff" transform="matrix(1,0,0,1,0,0)"></path></marker><marker id="SvgjsMarker1031" markerWidth="16.23606797749979" markerHeight="10.550836550532098" refX="-1" refY="3.8990363547948754" viewBox="-1 -1.3763819204711736 16.23606797749979 10.550836550532098" orient="auto" markerUnits="userSpaceOnUse"><path id="SvgjsPath1032" d="M12 3.8990363547948754L0 7.798072709589751V0Z " stroke="#323232" stroke-width="2" fill="#ffffff" transform="matrix(1,0,0,1,0,0)"></path></marker><marker id="SvgjsMarker1050" markerWidth="16.23606797749979" markerHeight="10.550836550532098" refX="-1" refY="3.8990363547948754" viewBox="-1 -1.3763819204711736 16.23606797749979 10.550836550532098" orient="auto" markerUnits="userSpaceOnUse"><path id="SvgjsPath1051" d="M12 3.8990363547948754L0 7.798072709589751V0Z " stroke="#323232" stroke-width="2" fill="#ffffff" transform="matrix(1,0,0,1,0,0)"></path></marker><marker id="SvgjsMarker1057" markerWidth="16.23606797749979" markerHeight="10.550836550532098" refX="-1" refY="3.8990363547948754" viewBox="-1 -1.3763819204711736 16.23606797749979 10.550836550532098" orient="auto" markerUnits="userSpaceOnUse"><path id="SvgjsPath1058" d="M12 3.8990363547948754L0 7.798072709589751V0Z " stroke="#323232" stroke-width="2" fill="#ffffff" transform="matrix(1,0,0,1,0,0)"></path></marker><marker id="SvgjsMarker1064" markerWidth="16.23606797749979" markerHeight="10.550836550532098" refX="-1" refY="3.8990363547948754" viewBox="-1 -1.3763819204711736 16.23606797749979 10.550836550532098" orient="auto" markerUnits="userSpaceOnUse"><path id="SvgjsPath1065" d="M12 3.8990363547948754L0 7.798072709589751V0Z " stroke="#323232" stroke-width="2" fill="#ffffff" transform="matrix(1,0,0,1,0,0)"></path></marker></defs><g id="SvgjsG1007"><path id="SvgjsPath1008" d="M62 70H796V685H62V70Z " fill-opacity="0" fill="none"></path><g id="SvgjsG1009"><g id="SvgjsG1010" transform="translate(234 90)" opacity="1"><path id="SvgjsPath1011" d="M0 0L224 0L224 42L0 42Z " stroke-dasharray="none" stroke="#323232" stroke-width="2" fill="#ffe6cc" opacity="1"></path><g id="SvgjsG1012" transform="matrix(1 0 0 1 10 11)" fill="#ffffff"><text id="SvgjsText1013" font-family="Microsoft Yahei,SimHei,Arial,SimSun" fill="#000000" font-size="16" font-weight="normal" font-style="normal" text-anchor="middle" text-decoration="blink" x="102" y="14.484375">BootStrapClassLoader</text></g></g><g id="SvgjsG1014" transform="translate(234 192)" opacity="1"><path id="SvgjsPath1015" d="M0 0L224 0L224 42L0 42Z " stroke-dasharray="none" stroke="#323232" stroke-width="2" fill="#ccff99" opacity="1"></path><g id="SvgjsG1016" transform="matrix(1 0 0 1 10 11)" fill="#ffffff"><text id="SvgjsText1017" font-family="Microsoft Yahei,SimHei,Arial,SimSun" fill="#000000" font-size="16" font-weight="normal" font-style="normal" text-anchor="middle" text-decoration="blink" x="102" y="14.484375">ExtensionClassLoader</text></g></g><g id="SvgjsG1018" transform="translate(234 294)" opacity="1"><path id="SvgjsPath1019" d="M0 0L224 0L224 42L0 42Z " stroke-dasharray="none" stroke="#323232" stroke-width="2" fill="#ccffff" opacity="1"></path><g id="SvgjsG1020" transform="matrix(1 0 0 1 10 11)" fill="#ffffff"><text id="SvgjsText1021" font-family="Microsoft Yahei,SimHei,Arial,SimSun" fill="#000000" font-size="16" font-weight="normal" font-style="normal" text-anchor="middle" text-decoration="blink" x="102" y="14.484375">SystemClassLoader</text></g></g><g id="SvgjsG1022"><path id="SvgjsPath1023" d="M346 192L346 162L346 162L346 147.2360679774998 " stroke-dasharray="none" stroke="#323232" stroke-width="2" fill="none" marker-end="url(#SvgjsMarker1024)"></path><g id="SvgjsG1026" transform="matrix(1 0 0 1 346 161.49303398874991)"><path id="SvgjsPath1027" d="M0 0H0V0H0V0Z " fill="#ffffff" transform="translate(0 0)"></path><text id="SvgjsText1028" font-family="Microsoft Yahei,SimSun" fill="#000000" font-size="13" font-weight="normal" font-style="normal" text-anchor="middle" text-decoration="blink" x="0" y="0"></text></g></g><g id="SvgjsG1029"><path id="SvgjsPath1030" d="M346 294L346 264L346 264L346 249.2360679774998 " stroke-dasharray="none" stroke="#323232" stroke-width="2" fill="none" marker-end="url(#SvgjsMarker1031)"></path><g id="SvgjsG1033" transform="matrix(1 0 0 1 346 263.4930339887499)"><path id="SvgjsPath1034" d="M0 0H0V0H0V0Z " fill="#ffffff" transform="translate(0 0)"></path><text id="SvgjsText1035" font-family="Microsoft Yahei,SimSun" fill="#000000" font-size="13" font-weight="normal" font-style="normal" text-anchor="middle" text-decoration="blink" x="0" y="0"></text></g></g><g id="SvgjsG1036" transform="translate(82 414)" opacity="1"><path id="SvgjsPath1037" d="M0 0L224 0L224 42L0 42Z " stroke-dasharray="none" stroke="#323232" stroke-width="2" fill="#cce5ff" opacity="1"></path><g id="SvgjsG1038" transform="matrix(1 0 0 1 10 11)" fill="#ffffff"><text id="SvgjsText1039" font-family="Microsoft Yahei,SimHei,Arial,SimSun" fill="#000000" font-size="16" font-weight="normal" font-style="normal" text-anchor="middle" text-decoration="blink" x="102" y="14.484375">CustomerClassLoader A</text></g></g><g id="SvgjsG1040" transform="translate(382 414)" opacity="1"><path id="SvgjsPath1041" d="M0 0L224 0L224 42L0 42Z " stroke-dasharray="none" stroke="#323232" stroke-width="2" fill="#ff99ff" opacity="1"></path><g id="SvgjsG1042" transform="matrix(1 0 0 1 10 11)" fill="#ffffff"><text id="SvgjsText1043" font-family="Microsoft Yahei,SimHei,Arial,SimSun" fill="#000000" font-size="16" font-weight="normal" font-style="normal" text-anchor="middle" text-decoration="blink" x="102" y="14.484375">CustomerClassLoader B</text></g></g><g id="SvgjsG1044" transform="translate(82 505)" opacity="1"><path id="SvgjsPath1045" d="M0 0L224 0L224 42L0 42Z " stroke-dasharray="none" stroke="#323232" stroke-width="2" fill="#ff9933" opacity="1"></path><g id="SvgjsG1046" transform="matrix(1 0 0 1 10 11)" fill="#ffffff"><text id="SvgjsText1047" font-family="Microsoft Yahei,SimHei,Arial,SimSun" fill="#000000" font-size="16" font-weight="normal" font-style="normal" text-anchor="middle" text-decoration="blink" x="102" y="14.484375">CustomerClassLoader C</text></g></g><g id="SvgjsG1048"><path id="SvgjsPath1049" d="M194 414C194 345.6620164183929 346 404.3379835816071 346 351.2360679774998 " stroke-dasharray="none" stroke="#323232" stroke-width="2" fill="none" marker-end="url(#SvgjsMarker1050)"></path><g id="SvgjsG1052" transform="matrix(1 0 0 1 270 368.77950849718746)"><path id="SvgjsPath1053" d="M0 0H0V0H0V0Z " fill="#ffffff" transform="translate(0 0)"></path><text id="SvgjsText1054" font-family="Microsoft Yahei,SimSun" fill="#000000" font-size="13" font-weight="normal" font-style="normal" text-anchor="middle" text-decoration="blink" x="0" y="0"></text></g></g><g id="SvgjsG1055"><path id="SvgjsPath1056" d="M494 414C494 347.08154215763784 346 402.91845784236216 346 351.2360679774998 " stroke-dasharray="none" stroke="#323232" stroke-width="2" fill="none" marker-end="url(#SvgjsMarker1057)"></path><g id="SvgjsG1059" transform="matrix(1 0 0 1 420 368.77950849718746)"><path id="SvgjsPath1060" d="M0 0H0V0H0V0Z " fill="#ffffff" transform="translate(0 0)"></path><text id="SvgjsText1061" font-family="Microsoft Yahei,SimSun" fill="#000000" font-size="13" font-weight="normal" font-style="normal" text-anchor="middle" text-decoration="blink" x="0" y="0"></text></g></g><g id="SvgjsG1062"><path id="SvgjsPath1063" d="M194 505C194 485.4 194 475.6 194 471.2360679774998 " stroke-dasharray="none" stroke="#323232" stroke-width="2" fill="none" marker-end="url(#SvgjsMarker1064)"></path><g id="SvgjsG1066" transform="matrix(1 0 0 1 194 474.27950849718746)"><path id="SvgjsPath1067" d="M0 0H0V0H0V0Z " fill="#ffffff" transform="translate(0 0)"></path><text id="SvgjsText1068" font-family="Microsoft Yahei,SimSun" fill="#000000" font-size="13" font-weight="normal" font-style="normal" text-anchor="middle" text-decoration="blink" x="0" y="0"></text></g></g><g id="SvgjsG1069" transform="translate(514 581)" opacity="1"><path id="SvgjsPath1070" d="M0 0L262 0L262 84L0 84Z " stroke-dasharray="none" stroke-width="0" stroke="#323232" fill="none" opacity="1"></path><g id="SvgjsG1071" transform="matrix(1 0 0 1 0 4.5)" fill="#ffffff"><text id="SvgjsText1072" font-family="Microsoft Yahei,SimHei,Arial,SimSun" fill="#000000" font-size="20" font-weight="bold" font-style="normal" text-anchor="middle" text-decoration="blink" x="131" y="18.109375">类加载器之间的关系</text><text id="SvgjsText1073" font-family="Microsoft Yahei,SimHei,Arial,SimSun" fill="#000000" font-size="20" font-weight="bold" font-style="normal" text-anchor="middle" text-decoration="blink" x="131" y="25"></text><text id="SvgjsText1074" font-family="Microsoft Yahei,SimHei,Arial,SimSun" fill="#000000" font-size="20" font-weight="bold" font-style="normal" text-anchor="middle" text-decoration="blink" x="131" y="68.109375">by decaywood</text></g></g></g></g></svg>