<svg id="drawing" xmlns="http://www.w3.org/2000/svg" version="1.1" xmlns:xlink="http://www.w3.org/1999/xlink" xmlns:svgjs="http://svgjs.com/svgjs" width="985.3947143554688" height="928.9917602539062" viewBox="17.60528564453125 -24.99173641204834 985.3947143554688 928.9917602539062"><defs id="SvgjsDefs1677"><marker id="SvgjsMarker1795" markerWidth="16.23606797749979" markerHeight="10.550836550532098" refX="-1" refY="3.8990363547948754" viewBox="-1 -1.3763819204711736 16.23606797749979 10.550836550532098" orient="auto" markerUnits="userSpaceOnUse"><path id="SvgjsPath1796" d="M12 3.8990363547948754L0 7.798072709589751V0Z " stroke="#ff0000" stroke-width="2" fill="#ff0000" transform="matrix(1,0,0,1,0,0)"></path></marker><marker id="SvgjsMarker1802" markerWidth="16.23606797749979" markerHeight="10.550836550532098" refX="-1" refY="3.8990363547948754" viewBox="-1 -1.3763819204711736 16.23606797749979 10.550836550532098" orient="auto" markerUnits="userSpaceOnUse"><path id="SvgjsPath1803" d="M12 3.8990363547948754L0 7.798072709589751V0Z " stroke="#ff0000" stroke-width="2" fill="#ff0000" transform="matrix(1,0,0,1,0,0)"></path></marker><marker id="SvgjsMarker1809" markerWidth="16.23606797749979" markerHeight="10.550836550532098" refX="-1" refY="3.8990363547948754" viewBox="-1 -1.3763819204711736 16.23606797749979 10.550836550532098" orient="auto" markerUnits="userSpaceOnUse"><path id="SvgjsPath1810" d="M12 3.8990363547948754L0 7.798072709589751V0Z " stroke="#ff0000" stroke-width="2" fill="#ff0000" transform="matrix(1,0,0,1,0,0)"></path></marker><marker id="SvgjsMarker1816" markerWidth="16.23606797749979" markerHeight="10.550836550532098" refX="-1" refY="3.8990363547948754" viewBox="-1 -1.3763819204711736 16.23606797749979 10.550836550532098" orient="auto" markerUnits="userSpaceOnUse"><path id="SvgjsPath1817" d="M12 3.8990363547948754L0 7.798072709589751V0Z " stroke="#ff0000" stroke-width="2" fill="#ff0000" transform="matrix(1,0,0,1,0,0)"></path></marker><marker id="SvgjsMarker1823" markerWidth="16.23606797749979" markerHeight="10.550836550532098" refX="-1" refY="3.8990363547948754" viewBox="-1 -1.3763819204711736 16.23606797749979 10.550836550532098" orient="auto" markerUnits="userSpaceOnUse"><path id="SvgjsPath1824" d="M12 3.8990363547948754L0 7.798072709589751V0Z " stroke="#0000cc" stroke-width="2" fill="#0000cc" transform="matrix(1,0,0,1,0,0)"></path></marker><marker id="SvgjsMarker1830" markerWidth="16.23606797749979" markerHeight="10.550836550532098" refX="-1" refY="3.8990363547948754" viewBox="-1 -1.3763819204711736 16.23606797749979 10.550836550532098" orient="auto" markerUnits="userSpaceOnUse"><path id="SvgjsPath1831" d="M12 3.8990363547948754L0 7.798072709589751V0Z " stroke="#0000cc" stroke-width="2" fill="#0000cc" transform="matrix(1,0,0,1,0,0)"></path></marker><marker id="SvgjsMarker1837" markerWidth="16.23606797749979" markerHeight="10.550836550532098" refX="-1" refY="3.8990363547948754" viewBox="-1 -1.3763819204711736 16.23606797749979 10.550836550532098" orient="auto" markerUnits="userSpaceOnUse"><path id="SvgjsPath1838" d="M12 3.8990363547948754L0 7.798072709589751V0Z " stroke="#0000cc" stroke-width="2" fill="#0000cc" transform="matrix(1,0,0,1,0,0)"></path></marker><marker id="SvgjsMarker1844" markerWidth="16.23606797749979" markerHeight="10.550836550532098" refX="-1" refY="3.8990363547948754" viewBox="-1 -1.3763819204711736 16.23606797749979 10.550836550532098" orient="auto" markerUnits="userSpaceOnUse"><path id="SvgjsPath1845" d="M12 3.8990363547948754L0 7.798072709589751V0Z " stroke="#0000cc" stroke-width="2" fill="#0000cc" transform="matrix(1,0,0,1,0,0)"></path></marker><marker id="SvgjsMarker1851" markerWidth="16.23606797749979" markerHeight="10.550836550532098" refX="-1" refY="3.8990363547948754" viewBox="-1 -1.3763819204711736 16.23606797749979 10.550836550532098" orient="auto" markerUnits="userSpaceOnUse"><path id="SvgjsPath1852" d="M12 3.8990363547948754L0 7.798072709589751V0Z " stroke="#0000cc" stroke-width="2" fill="#0000cc" transform="matrix(1,0,0,1,0,0)"></path></marker><marker id="SvgjsMarker1858" markerWidth="16.23606797749979" markerHeight="10.550836550532098" refX="-1" refY="3.8990363547948754" viewBox="-1 -1.3763819204711736 16.23606797749979 10.550836550532098" orient="auto" markerUnits="userSpaceOnUse"><path id="SvgjsPath1859" d="M12 3.8990363547948754L0 7.798072709589751V0Z " stroke="#ff0000" stroke-width="2" fill="#ff0000" transform="matrix(1,0,0,1,0,0)"></path></marker><marker id="SvgjsMarker1865" markerWidth="16.23606797749979" markerHeight="10.550836550532098" refX="-1" refY="3.8990363547948754" viewBox="-1 -1.3763819204711736 16.23606797749979 10.550836550532098" orient="auto" markerUnits="userSpaceOnUse"><path id="SvgjsPath1866" d="M12 3.8990363547948754L0 7.798072709589751V0Z " stroke="#ff0000" stroke-width="2" fill="#ff0000" transform="matrix(1,0,0,1,0,0)"></path></marker><marker id="SvgjsMarker1872" markerWidth="16.23606797749979" markerHeight="10.550836550532098" refX="-1" refY="3.8990363547948754" viewBox="-1 -1.3763819204711736 16.23606797749979 10.550836550532098" orient="auto" markerUnits="userSpaceOnUse"><path id="SvgjsPath1873" d="M12 3.8990363547948754L0 7.798072709589751V0Z " stroke="#0000cc" stroke-width="2" fill="#0000cc" transform="matrix(1,0,0,1,0,0)"></path></marker><marker id="SvgjsMarker1879" markerWidth="16.23606797749979" markerHeight="10.550836550532098" refX="-1" refY="3.8990363547948754" viewBox="-1 -1.3763819204711736 16.23606797749979 10.550836550532098" orient="auto" markerUnits="userSpaceOnUse"><path id="SvgjsPath1880" d="M12 3.8990363547948754L0 7.798072709589751V0Z " stroke="#323232" stroke-width="2" fill="#323232" transform="matrix(1,0,0,1,0,0)"></path></marker><marker id="SvgjsMarker1886" markerWidth="16.23606797749979" markerHeight="10.550836550532098" refX="-1" refY="3.8990363547948754" viewBox="-1 -1.3763819204711736 16.23606797749979 10.550836550532098" orient="auto" markerUnits="userSpaceOnUse"><path id="SvgjsPath1887" d="M12 3.8990363547948754L0 7.798072709589751V0Z " stroke="#323232" stroke-width="2" fill="#323232" transform="matrix(1,0,0,1,0,0)"></path></marker></defs><g id="SvgjsG1678"><path id="SvgjsPath1679" d="M17.60528564453125 -24.99173641204834H1003V904.0000238418579H17.60528564453125V-24.99173641204834Z " fill-opacity="0" fill="none"></path><g id="SvgjsG1680"><g id="SvgjsG1681" transform="translate(170 162)" opacity="1"><path id="SvgjsPath1682" d="M0 0L143 0L143 40L0 40Z " stroke-dasharray="none" stroke="#000000" stroke-width="2" fill="#ff99cc" opacity="1"></path><g id="SvgjsG1683" transform="matrix(1 0 0 1 10 8.75)" fill="#ffffff"><text id="SvgjsText1684" font-family="Microsoft Yahei,SimHei,Arial,SimSun" fill="#000000" font-size="18" font-weight="normal" font-style="normal" text-anchor="middle" text-decoration="blink" x="61.5" y="16.296875">Thread A</text></g></g><g id="SvgjsG1685" transform="translate(170 647)" opacity="1"><path id="SvgjsPath1686" d="M0 0L143 0L143 40L0 40Z " stroke-dasharray="none" stroke="#323232" stroke-width="2" fill="#ff6666" opacity="1"></path><g id="SvgjsG1687" transform="matrix(1 0 0 1 10 8.75)" fill="#ffffff"><text id="SvgjsText1688" font-family="Microsoft Yahei,SimHei,Arial,SimSun" fill="#000000" font-size="18" font-weight="normal" font-style="normal" text-anchor="middle" text-decoration="blink" x="61.5" y="16.296875">Thread B</text></g></g><g id="SvgjsG1689" transform="translate(240 276)" opacity="1"><path id="SvgjsPath1690" d="M0 4Q0 0 4 0L185 0Q189 0 189 4L189 131Q189 135 185 135L4 135Q0 135 0 131Z " stroke-dasharray="none" stroke="#323232" stroke-width="2" fill="#e6ffcc" opacity="1"></path><path id="SvgjsPath1691" d="M0 30L189 30 " stroke-dasharray="none" stroke="#323232" stroke-width="2" fill="none" opacity="1"></path><path id="SvgjsPath1692" d="M0 0L189 0L189 135L0 135Z " stroke-dasharray="none" stroke-width="0" stroke="#323232" fill="none" opacity="1"></path><g id="SvgjsG1693" transform="matrix(1 0 0 1 10 3.75)" fill="#ffffff"><text id="SvgjsText1694" font-family="Microsoft Yahei,SimHei,Arial,SimSun" fill="#000000" font-size="18" font-weight="bold" font-style="normal" text-anchor="middle" text-decoration="blink" x="84.5" y="16.296875">Class A</text></g></g><g id="SvgjsG1695" transform="translate(258 317)" opacity="1"><path id="SvgjsPath1696" d="M0 0L153 0L153 32L0 32Z " stroke-dasharray="none" stroke="#323232" stroke-width="2" fill="#ffffcc" opacity="1"></path><g id="SvgjsG1697" transform="matrix(1 0 0 1 10 4.75)" fill="#ffffff"><text id="SvgjsText1698" font-family="Microsoft Yahei,SimHei,Arial,SimSun" fill="#000000" font-size="18" font-weight="normal" font-style="normal" text-anchor="middle" text-decoration="blink" x="66.5" y="16.296875">ThreadLocal A</text></g></g><g id="SvgjsG1699" transform="translate(258 361)" opacity="1"><path id="SvgjsPath1700" d="M0 0L153 0L153 32L0 32Z " stroke-dasharray="none" stroke="#323232" stroke-width="2" fill="#ffffcc" opacity="1"></path><g id="SvgjsG1701" transform="matrix(1 0 0 1 10 4.75)" fill="#ffffff"><text id="SvgjsText1702" font-family="Microsoft Yahei,SimHei,Arial,SimSun" fill="#000000" font-size="18" font-weight="normal" font-style="normal" text-anchor="middle" text-decoration="blink" x="66.5" y="16.296875">ThreadLocal B</text></g></g><g id="SvgjsG1703" transform="translate(240 436)" opacity="1"><path id="SvgjsPath1704" d="M0 4Q0 0 4 0L185 0Q189 0 189 4L189 131Q189 135 185 135L4 135Q0 135 0 131Z " stroke-dasharray="none" stroke="#323232" stroke-width="2" fill="#e6ffcc" opacity="1"></path><path id="SvgjsPath1705" d="M0 30L189 30 " stroke-dasharray="none" stroke="#323232" stroke-width="2" fill="none" opacity="1"></path><path id="SvgjsPath1706" d="M0 0L189 0L189 135L0 135Z " stroke-dasharray="none" stroke-width="0" stroke="#323232" fill="none" opacity="1"></path><g id="SvgjsG1707" transform="matrix(1 0 0 1 10 3.75)" fill="#ffffff"><text id="SvgjsText1708" font-family="Microsoft Yahei,SimHei,Arial,SimSun" fill="#000000" font-size="18" font-weight="bold" font-style="normal" text-anchor="middle" text-decoration="blink" x="84.5" y="16.296875">Class B</text></g></g><g id="SvgjsG1709" transform="translate(258 477)" opacity="1"><path id="SvgjsPath1710" d="M0 0L153 0L153 32L0 32Z " stroke-dasharray="none" stroke="#323232" stroke-width="2" fill="#ffffcc" opacity="1"></path><g id="SvgjsG1711" transform="matrix(1 0 0 1 10 4.75)" fill="#ffffff"><text id="SvgjsText1712" font-family="Microsoft Yahei,SimHei,Arial,SimSun" fill="#000000" font-size="18" font-weight="normal" font-style="normal" text-anchor="middle" text-decoration="blink" x="66.5" y="16.296875">ThreadLocal C</text></g></g><g id="SvgjsG1713" transform="translate(258 521)" opacity="1"><path id="SvgjsPath1714" d="M0 0L153 0L153 32L0 32Z " stroke-dasharray="none" stroke="#323232" stroke-width="2" fill="#ffffcc" opacity="1"></path><g id="SvgjsG1715" transform="matrix(1 0 0 1 10 4.75)" fill="#ffffff"><text id="SvgjsText1716" font-family="Microsoft Yahei,SimHei,Arial,SimSun" fill="#000000" font-size="18" font-weight="normal" font-style="normal" text-anchor="middle" text-decoration="blink" x="66.5" y="16.296875">ThreadLocal D</text></g></g><g id="SvgjsG1717" transform="translate(491 449)" opacity="1"><path id="SvgjsPath1718" d="M0 4Q0 0 4 0L474 0Q478 0 478 4L478 234Q478 238 474 238L4 238Q0 238 0 234Z " stroke-dasharray="none" stroke="#323232" stroke-width="2" fill="#ffcc99" opacity="1"></path><path id="SvgjsPath1719" d="M0 30L478 30 " stroke-dasharray="none" stroke="#323232" stroke-width="2" fill="none" opacity="1"></path><path id="SvgjsPath1720" d="M0 0L478 0L478 238L0 238Z " stroke-dasharray="none" stroke-width="0" stroke="#323232" fill="none" opacity="1"></path><g id="SvgjsG1721" transform="matrix(1 0 0 1 10 3.75)" fill="#ffffff"><text id="SvgjsText1722" font-family="Microsoft Yahei,SimHei,Arial,SimSun" fill="#000000" font-size="18" font-weight="bold" font-style="normal" text-anchor="middle" text-decoration="blink" x="229" y="16.296875">ThreadLocalMap</text></g></g><g id="SvgjsG1723" transform="translate(668 500)" opacity="1"><path id="SvgjsPath1724" d="M0 0L287 0L287 33L0 33Z " stroke-dasharray="none" stroke="#323232" stroke-width="2" fill="#ccff99" opacity="1"></path><g id="SvgjsG1725" transform="matrix(1 0 0 1 10 5.25)" fill="#ffffff"><text id="SvgjsText1726" font-family="Microsoft Yahei,SimHei,Arial,SimSun" fill="#000000" font-size="18" font-weight="normal" font-style="normal" text-anchor="middle" text-decoration="blink" x="133.5" y="16.296875">Entry(WeakReference)</text></g></g><g id="SvgjsG1727" transform="translate(506 500)" opacity="1"><path id="SvgjsPath1728" d="M0 0L162 0L162 33L0 33Z " stroke-dasharray="none" stroke="#323232" stroke-width="2" fill="#ccff99" opacity="1"></path><g id="SvgjsG1729" transform="matrix(1 0 0 1 10 5.25)" fill="#ffffff"><text id="SvgjsText1730" font-family="Microsoft Yahei,SimHei,Arial,SimSun" fill="#000000" font-size="18" font-weight="normal" font-style="normal" text-anchor="middle" text-decoration="blink" x="71" y="16.296875">hash(threadlocal)</text></g></g><g id="SvgjsG1731" transform="translate(668 543)" opacity="1"><path id="SvgjsPath1732" d="M0 0L287 0L287 33L0 33Z " stroke-dasharray="none" stroke="#323232" stroke-width="2" fill="#ccff99" opacity="1"></path><g id="SvgjsG1733" transform="matrix(1 0 0 1 10 5.25)" fill="#ffffff"><text id="SvgjsText1734" font-family="Microsoft Yahei,SimHei,Arial,SimSun" fill="#000000" font-size="18" font-weight="normal" font-style="normal" text-anchor="middle" text-decoration="blink" x="133.5" y="16.296875">Entry(WeakReference)</text></g></g><g id="SvgjsG1735" transform="translate(506 543)" opacity="1"><path id="SvgjsPath1736" d="M0 0L162 0L162 33L0 33Z " stroke-dasharray="none" stroke="#323232" stroke-width="2" fill="#ccff99" opacity="1"></path><g id="SvgjsG1737" transform="matrix(1 0 0 1 10 5.25)" fill="#ffffff"><text id="SvgjsText1738" font-family="Microsoft Yahei,SimHei,Arial,SimSun" fill="#000000" font-size="18" font-weight="normal" font-style="normal" text-anchor="middle" text-decoration="blink" x="71" y="16.296875">hash(threadlocal)</text></g></g><g id="SvgjsG1739" transform="translate(668 587)" opacity="1"><path id="SvgjsPath1740" d="M0 0L287 0L287 33L0 33Z " stroke-dasharray="none" stroke="#323232" stroke-width="2" fill="#ccff99" opacity="1"></path><g id="SvgjsG1741" transform="matrix(1 0 0 1 10 5.25)" fill="#ffffff"><text id="SvgjsText1742" font-family="Microsoft Yahei,SimHei,Arial,SimSun" fill="#000000" font-size="18" font-weight="normal" font-style="normal" text-anchor="middle" text-decoration="blink" x="133.5" y="16.296875">Entry(WeakReference)</text></g></g><g id="SvgjsG1743" transform="translate(506 587)" opacity="1"><path id="SvgjsPath1744" d="M0 0L162 0L162 33L0 33Z " stroke-dasharray="none" stroke="#323232" stroke-width="2" fill="#ccff99" opacity="1"></path><g id="SvgjsG1745" transform="matrix(1 0 0 1 10 5.25)" fill="#ffffff"><text id="SvgjsText1746" font-family="Microsoft Yahei,SimHei,Arial,SimSun" fill="#000000" font-size="18" font-weight="normal" font-style="normal" text-anchor="middle" text-decoration="blink" x="71" y="16.296875">hash(threadlocal)</text></g></g><g id="SvgjsG1747" transform="translate(668 631)" opacity="1"><path id="SvgjsPath1748" d="M0 0L287 0L287 33L0 33Z " stroke-dasharray="none" stroke="#323232" stroke-width="2" fill="#ccff99" opacity="1"></path><g id="SvgjsG1749" transform="matrix(1 0 0 1 10 5.25)" fill="#ffffff"><text id="SvgjsText1750" font-family="Microsoft Yahei,SimHei,Arial,SimSun" fill="#000000" font-size="18" font-weight="normal" font-style="normal" text-anchor="middle" text-decoration="blink" x="133.5" y="16.296875">Entry(WeakReference)</text></g></g><g id="SvgjsG1751" transform="translate(506 631)" opacity="1"><path id="SvgjsPath1752" d="M0 0L162 0L162 33L0 33Z " stroke-dasharray="none" stroke="#323232" stroke-width="2" fill="#ccff99" opacity="1"></path><g id="SvgjsG1753" transform="matrix(1 0 0 1 10 5.25)" fill="#ffffff"><text id="SvgjsText1754" font-family="Microsoft Yahei,SimHei,Arial,SimSun" fill="#000000" font-size="18" font-weight="normal" font-style="normal" text-anchor="middle" text-decoration="blink" x="71" y="16.296875">hash(threadlocal)</text></g></g><g id="SvgjsG1755" transform="translate(491 162)" opacity="1"><path id="SvgjsPath1756" d="M0 4Q0 0 4 0L474 0Q478 0 478 4L478 232Q478 236 474 236L4 236Q0 236 0 232Z " stroke-dasharray="none" stroke="#323232" stroke-width="2" fill="#ffcc99" opacity="1"></path><path id="SvgjsPath1757" d="M0 30L478 30 " stroke-dasharray="none" stroke="#323232" stroke-width="2" fill="none" opacity="1"></path><path id="SvgjsPath1758" d="M0 0L478 0L478 236L0 236Z " stroke-dasharray="none" stroke-width="0" stroke="#323232" fill="none" opacity="1"></path><g id="SvgjsG1759" transform="matrix(1 0 0 1 10 3.75)" fill="#ffffff"><text id="SvgjsText1760" font-family="Microsoft Yahei,SimHei,Arial,SimSun" fill="#000000" font-size="18" font-weight="bold" font-style="normal" text-anchor="middle" text-decoration="blink" x="229" y="16.296875">ThreadLocalMap</text></g></g><g id="SvgjsG1761" transform="translate(668 212)" opacity="1"><path id="SvgjsPath1762" d="M0 0L287 0L287 33L0 33Z " stroke-dasharray="none" stroke="#323232" stroke-width="2" fill="#ccff99" opacity="1"></path><g id="SvgjsG1763" transform="matrix(1 0 0 1 10 5.25)" fill="#ffffff"><text id="SvgjsText1764" font-family="Microsoft Yahei,SimHei,Arial,SimSun" fill="#000000" font-size="18" font-weight="normal" font-style="normal" text-anchor="middle" text-decoration="blink" x="133.5" y="16.296875">Entry(WeakReference)</text></g></g><g id="SvgjsG1765" transform="translate(506 212)" opacity="1"><path id="SvgjsPath1766" d="M0 0L162 0L162 33L0 33Z " stroke-dasharray="none" stroke="#323232" stroke-width="2" fill="#ccff99" opacity="1"></path><g id="SvgjsG1767" transform="matrix(1 0 0 1 10 5.25)" fill="#ffffff"><text id="SvgjsText1768" font-family="Microsoft Yahei,SimHei,Arial,SimSun" fill="#000000" font-size="18" font-weight="normal" font-style="normal" text-anchor="middle" text-decoration="blink" x="71" y="16.296875">hash(threadlocal)</text></g></g><g id="SvgjsG1769" transform="translate(668 255)" opacity="1"><path id="SvgjsPath1770" d="M0 0L287 0L287 33L0 33Z " stroke-dasharray="none" stroke="#323232" stroke-width="2" fill="#ccff99" opacity="1"></path><g id="SvgjsG1771" transform="matrix(1 0 0 1 10 5.25)" fill="#ffffff"><text id="SvgjsText1772" font-family="Microsoft Yahei,SimHei,Arial,SimSun" fill="#000000" font-size="18" font-weight="normal" font-style="normal" text-anchor="middle" text-decoration="blink" x="133.5" y="16.296875">Entry(WeakReference)</text></g></g><g id="SvgjsG1773" transform="translate(506 255)" opacity="1"><path id="SvgjsPath1774" d="M0 0L162 0L162 33L0 33Z " stroke-dasharray="none" stroke="#323232" stroke-width="2" fill="#ccff99" opacity="1"></path><g id="SvgjsG1775" transform="matrix(1 0 0 1 10 5.25)" fill="#ffffff"><text id="SvgjsText1776" font-family="Microsoft Yahei,SimHei,Arial,SimSun" fill="#000000" font-size="18" font-weight="normal" font-style="normal" text-anchor="middle" text-decoration="blink" x="71" y="16.296875">hash(threadlocal)</text></g></g><g id="SvgjsG1777" transform="translate(668 299)" opacity="1"><path id="SvgjsPath1778" d="M0 0L287 0L287 33L0 33Z " stroke-dasharray="none" stroke="#323232" stroke-width="2" fill="#ccff99" opacity="1"></path><g id="SvgjsG1779" transform="matrix(1 0 0 1 10 5.25)" fill="#ffffff"><text id="SvgjsText1780" font-family="Microsoft Yahei,SimHei,Arial,SimSun" fill="#000000" font-size="18" font-weight="normal" font-style="normal" text-anchor="middle" text-decoration="blink" x="133.5" y="16.296875">Entry(WeakReference)</text></g></g><g id="SvgjsG1781" transform="translate(506 299)" opacity="1"><path id="SvgjsPath1782" d="M0 0L162 0L162 33L0 33Z " stroke-dasharray="none" stroke="#323232" stroke-width="2" fill="#ccff99" opacity="1"></path><g id="SvgjsG1783" transform="matrix(1 0 0 1 10 5.25)" fill="#ffffff"><text id="SvgjsText1784" font-family="Microsoft Yahei,SimHei,Arial,SimSun" fill="#000000" font-size="18" font-weight="normal" font-style="normal" text-anchor="middle" text-decoration="blink" x="71" y="16.296875">hash(threadlocal)</text></g></g><g id="SvgjsG1785" transform="translate(668 343)" opacity="1"><path id="SvgjsPath1786" d="M0 0L287 0L287 33L0 33Z " stroke-dasharray="none" stroke="#323232" stroke-width="2" fill="#ccff99" opacity="1"></path><g id="SvgjsG1787" transform="matrix(1 0 0 1 10 5.25)" fill="#ffffff"><text id="SvgjsText1788" font-family="Microsoft Yahei,SimHei,Arial,SimSun" fill="#000000" font-size="18" font-weight="normal" font-style="normal" text-anchor="middle" text-decoration="blink" x="133.5" y="16.296875">Entry(WeakReference)</text></g></g><g id="SvgjsG1789" transform="translate(506 343)" opacity="1"><path id="SvgjsPath1790" d="M0 0L162 0L162 33L0 33Z " stroke-dasharray="none" stroke="#323232" stroke-width="2" fill="#ccff99" opacity="1"></path><g id="SvgjsG1791" transform="matrix(1 0 0 1 10 5.25)" fill="#ffffff"><text id="SvgjsText1792" font-family="Microsoft Yahei,SimHei,Arial,SimSun" fill="#000000" font-size="18" font-weight="normal" font-style="normal" text-anchor="middle" text-decoration="blink" x="71" y="16.296875">hash(threadlocal)</text></g></g><g id="SvgjsG1793"><path id="SvgjsPath1794" d="M411 333L498.9951868566628 502.96965040208033 " stroke-dasharray="2 3" stroke="#ff0000" stroke-width="2" fill="none" marker-end="url(#SvgjsMarker1795)"></path><g id="SvgjsG1797" transform="matrix(1 0 0 1 454.9975934283314 409.85982520104017)"><path id="SvgjsPath1798" d="M0 0H0V0H0V0Z " fill="#ffffff" transform="translate(0 0)"></path><text id="SvgjsText1799" font-family="Microsoft Yahei,SimSun" fill="#000000" font-size="13" font-weight="normal" font-style="normal" text-anchor="middle" text-decoration="blink" x="0" y="0"></text></g></g><g id="SvgjsG1800"><path id="SvgjsPath1801" d="M411 377L498.9649698915715 545.9853368969664 " stroke-dasharray="2 3" stroke="#ff0000" stroke-width="2" fill="none" marker-end="url(#SvgjsMarker1802)"></path><g id="SvgjsG1804" transform="matrix(1 0 0 1 454.98248494578576 453.3676684484832)"><path id="SvgjsPath1805" d="M0 0H0V0H0V0Z " fill="#ffffff" transform="translate(0 0)"></path><text id="SvgjsText1806" font-family="Microsoft Yahei,SimSun" fill="#000000" font-size="13" font-weight="normal" font-style="normal" text-anchor="middle" text-decoration="blink" x="0" y="0"></text></g></g><g id="SvgjsG1807"><path id="SvgjsPath1808" d="M411 493L496.06728858160636 591.9466882975527 " stroke-dasharray="2 3" stroke="#ff0000" stroke-width="2" fill="none" marker-end="url(#SvgjsMarker1809)"></path><g id="SvgjsG1811" transform="matrix(1 0 0 1 453.5336442908032 534.3483441487763)"><path id="SvgjsPath1812" d="M0 0H0V0H0V0Z " fill="#ffffff" transform="translate(0 0)"></path><text id="SvgjsText1813" font-family="Microsoft Yahei,SimSun" fill="#000000" font-size="13" font-weight="normal" font-style="normal" text-anchor="middle" text-decoration="blink" x="0" y="0"></text></g></g><g id="SvgjsG1814"><path id="SvgjsPath1815" d="M411 537L496.06728858160636 635.9466882975527 " stroke-dasharray="2 3" stroke="#ff0000" stroke-width="2" fill="none" marker-end="url(#SvgjsMarker1816)"></path><g id="SvgjsG1818" transform="matrix(1 0 0 1 453.5336442908032 578.3483441487763)"><path id="SvgjsPath1819" d="M0 0H0V0H0V0Z " fill="#ffffff" transform="translate(0 0)"></path><text id="SvgjsText1820" font-family="Microsoft Yahei,SimSun" fill="#000000" font-size="13" font-weight="normal" font-style="normal" text-anchor="middle" text-decoration="blink" x="0" y="0"></text></g></g><g id="SvgjsG1821"><path id="SvgjsPath1822" d="M411 333L495.75111158405747 239.77377725753678 " stroke-dasharray="2 3" stroke="#0000cc" stroke-width="2" fill="none" marker-end="url(#SvgjsMarker1823)"></path><g id="SvgjsG1825" transform="matrix(1 0 0 1 453.37555579202876 371.48811137123164)"><path id="SvgjsPath1826" d="M0 0H0V0H0V0Z " fill="#ffffff" transform="translate(0 0)"></path><text id="SvgjsText1827" font-family="Microsoft Yahei,SimSun" fill="#000000" font-size="13" font-weight="normal" font-style="normal" text-anchor="middle" text-decoration="blink" x="0" y="0"></text></g></g><g id="SvgjsG1828"><path id="SvgjsPath1829" d="M411 377L495.80464359547955 282.8222115860727 " stroke-dasharray="2 3" stroke="#0000cc" stroke-width="2" fill="none" marker-end="url(#SvgjsMarker1830)"></path><g id="SvgjsG1832" transform="matrix(1 0 0 1 453.4023217977398 415.9638942069637)"><path id="SvgjsPath1833" d="M0 0H0V0H0V0Z " fill="#ffffff" transform="translate(0 0)"></path><text id="SvgjsText1834" font-family="Microsoft Yahei,SimSun" fill="#000000" font-size="13" font-weight="normal" font-style="normal" text-anchor="middle" text-decoration="blink" x="0" y="0"></text></g></g><g id="SvgjsG1835"><path id="SvgjsPath1836" d="M411 493L498.8104533162051 328.9331003828799 " stroke-dasharray="2 3" stroke="#0000cc" stroke-width="2" fill="none" marker-end="url(#SvgjsMarker1837)"></path><g id="SvgjsG1839" transform="matrix(1 0 0 1 454.90522665810255 566.90844980856)"><path id="SvgjsPath1840" d="M0 0H0V0H0V0Z " fill="#ffffff" transform="translate(0 0)"></path><text id="SvgjsText1841" font-family="Microsoft Yahei,SimSun" fill="#000000" font-size="13" font-weight="normal" font-style="normal" text-anchor="middle" text-decoration="blink" x="0" y="0"></text></g></g><g id="SvgjsG1842"><path id="SvgjsPath1843" d="M411 537L498.8104533162051 372.9331003828799 " stroke-dasharray="2 3" stroke="#0000cc" stroke-width="2" fill="none" marker-end="url(#SvgjsMarker1844)"></path><g id="SvgjsG1846" transform="matrix(1 0 0 1 454.90522665810255 610.90844980856)"><path id="SvgjsPath1847" d="M0 0H0V0H0V0Z " fill="#ffffff" transform="translate(0 0)"></path><text id="SvgjsText1848" font-family="Microsoft Yahei,SimSun" fill="#000000" font-size="13" font-weight="normal" font-style="normal" text-anchor="middle" text-decoration="blink" x="0" y="0"></text></g></g><g id="SvgjsG1849"><path id="SvgjsPath1850" d="M170 182C99.59289808549141 182 169.5928980854914 343.5 224.7639320225002 343.5 " stroke-dasharray="2 3" stroke="#0000cc" stroke-width="2" fill="none" marker-end="url(#SvgjsMarker1851)"></path><g id="SvgjsG1853" transform="matrix(1 0 0 1 150.29016506693108 254.625)"><path id="SvgjsPath1854" d="M0 0H0V0H0V0Z " fill="#ffffff" transform="translate(0 0)"></path><text id="SvgjsText1855" font-family="Microsoft Yahei,SimSun" fill="#000000" font-size="13" font-weight="normal" font-style="normal" text-anchor="middle" text-decoration="blink" x="0" y="0"></text></g></g><g id="SvgjsG1856"><path id="SvgjsPath1857" d="M170 667C98.85816982955808 667 168.85816982955808 503.5 224.7639320225002 503.5 " stroke-dasharray="2 3" stroke="#ff0000" stroke-width="2" fill="none" marker-end="url(#SvgjsMarker1858)"></path><g id="SvgjsG1860" transform="matrix(1 0 0 1 149.7391188749811 577.125)"><path id="SvgjsPath1861" d="M0 0H0V0H0V0Z " fill="#ffffff" transform="translate(0 0)"></path><text id="SvgjsText1862" font-family="Microsoft Yahei,SimSun" fill="#000000" font-size="13" font-weight="normal" font-style="normal" text-anchor="middle" text-decoration="blink" x="0" y="0"></text></g></g><g id="SvgjsG1863"><path id="SvgjsPath1864" d="M170 667C37.60528711462831 667 107.60528711462831 343.5 224.7639320225002 343.5 " stroke-dasharray="2 3" stroke="#ff0000" stroke-width="2" fill="none" marker-end="url(#SvgjsMarker1865)"></path><g id="SvgjsG1867" transform="matrix(1 0 0 1 103.79945683878375 497.125)"><path id="SvgjsPath1868" d="M0 0H0V0H0V0Z " fill="#ffffff" transform="translate(0 0)"></path><text id="SvgjsText1869" font-family="Microsoft Yahei,SimSun" fill="#000000" font-size="13" font-weight="normal" font-style="normal" text-anchor="middle" text-decoration="blink" x="0" y="0"></text></g></g><g id="SvgjsG1870"><path id="SvgjsPath1871" d="M170 182C38.387082700823015 182 108.38708270082302 503.5 224.7639320225002 503.5 " stroke-dasharray="2 3" stroke="#0000cc" stroke-width="2" fill="none" marker-end="url(#SvgjsMarker1872)"></path><g id="SvgjsG1874" transform="matrix(1 0 0 1 104.38580352842978 334.625)"><path id="SvgjsPath1875" d="M0 0H0V0H0V0Z " fill="#ffffff" transform="translate(0 0)"></path><text id="SvgjsText1876" font-family="Microsoft Yahei,SimSun" fill="#000000" font-size="13" font-weight="normal" font-style="normal" text-anchor="middle" text-decoration="blink" x="0" y="0"></text></g></g><g id="SvgjsG1877"><path id="SvgjsPath1878" d="M313 667C479.99173632248994 667 730 853.9917363224899 730 702.2360679774998 " stroke-dasharray="none" stroke="#323232" stroke-width="2" fill="none" marker-end="url(#SvgjsMarker1879)"></path><g id="SvgjsG1881" transform="matrix(1 0 0 1 584.1219011209337 733.4014096181212)"><path id="SvgjsPath1882" d="M0 0H0V0H0V0Z " fill="#ffffff" transform="translate(0 0)"></path><text id="SvgjsText1883" font-family="Microsoft Yahei,SimSun" fill="#000000" font-size="13" font-weight="normal" font-style="normal" text-anchor="middle" text-decoration="blink" x="0" y="0"></text></g></g><g id="SvgjsG1884"><path id="SvgjsPath1885" d="M313 182C479.99173632248994 181.99999999999997 730 -4.991736322489942 730 146.7639320225002 " stroke-dasharray="none" stroke="#323232" stroke-width="2" fill="none" marker-end="url(#SvgjsMarker1886)"></path><g id="SvgjsG1888" transform="matrix(1 0 0 1 584.1219011209337 99.34859038187878)"><path id="SvgjsPath1889" d="M0 0H0V0H0V0Z " fill="#ffffff" transform="translate(0 0)"></path><text id="SvgjsText1890" font-family="Microsoft Yahei,SimSun" fill="#000000" font-size="13" font-weight="normal" font-style="normal" text-anchor="middle" text-decoration="blink" x="0" y="0"></text></g></g><g id="SvgjsG1891" transform="translate(715 791)" opacity="1"><path id="SvgjsPath1892" d="M0 0L268 0L268 93L0 93Z " stroke-dasharray="none" stroke-width="0" stroke="#323232" fill="none" opacity="1"></path><g id="SvgjsG1893" transform="matrix(1 0 0 1 0 7.125)" fill="#ffffff"><text id="SvgjsText1894" font-family="Microsoft Yahei,SimHei,Arial,SimSun" fill="#000000" font-size="21" font-weight="bold" font-style="normal" text-anchor="middle" text-decoration="blink" x="134" y="19.015625">ThreadLocal 原理图</text><text id="SvgjsText1895" font-family="Microsoft Yahei,SimHei,Arial,SimSun" fill="#000000" font-size="21" font-weight="bold" font-style="normal" text-anchor="middle" text-decoration="blink" x="134" y="26.25"></text><text id="SvgjsText1896" font-family="Microsoft Yahei,SimHei,Arial,SimSun" fill="#000000" font-size="21" font-weight="bold" font-style="normal" text-anchor="middle" text-decoration="blink" x="134" y="71.515625">by decaywood</text></g></g></g></g></svg>